<?xml version="1.0" encoding="utf-8"?>
<!-- Generator: Adobe Illustrator 14.0.0, SVG Export Plug-In . SVG Version: 6.00 Build 43363)  -->
<!DOCTYPE svg PUBLIC "-//W3C//DTD SVG 1.1//EN" "http://www.w3.org/Graphics/SVG/1.1/DTD/svg11.dtd">
<svg version="1.1" id="Layer_1" xmlns="http://www.w3.org/2000/svg" xmlns:xlink="http://www.w3.org/1999/xlink" x="0px" y="0px"
	 width="106.667px" height="625.168px" viewBox="0 -441.833 106.667 625.168" enable-background="new 0 -441.833 106.667 625.168"
	 xml:space="preserve">
<path fill="#FF00AE" d="M90.479-437.833c-2.121,6.152-3.309,12.578-4.959,18.865c-1.984,8.668-5.295,16.986-7.02,25.732
	c3.1-4.195,5.867-8.625,9.219-12.625c0.318,22.078,0.266,486.324,0.656,508.41c0.303,12.006-0.523,24-0.16,36.018
	c-0.068,6.521,0.371,13.984-4.213,19.252c-3.934,4.678-10.145,6.787-16.137,6.684c-7.688,0.23-15.379,0.102-23.07,0.062
	c-5.34-0.002-8.799-4.664-12.986-7.264c-2.275-1.807-5.322-1.424-8.031-1.443c-6.418,0.203-12.852-0.004-19.268,0.328
	c5.299,3.414,10.758,6.705,15.283,11.18c-5.045,3.793-10.742,6.797-15.098,11.448c6.447,0.378,12.912,0.056,19.365,0.181
	c3.08-0.054,6.463,0.228,9.066-1.76c4.152-2.57,7.209-7.805,12.705-7.355c9.014,0.25,18.088,1.091,27.092,0
	c8.154-1.158,15.725-6.658,18.824-14.363c1.672-4.814,2.008-9.988,2.104-15.051c-0.256-21.33-0.334-42.66-0.521-64
	c-0.479-13.104,0.332-468.357,0.094-481.457c3.041,3.615,5.846,7.426,8.73,11.174c-0.996-8.016-3.965-15.562-5.977-23.336
	C94.348-424.067,92.12-430.866,90.479-437.833"/>
</svg>
