<?xml version="1.0" encoding="utf-8"?>
<!-- Generator: Adobe Illustrator 14.0.0, SVG Export Plug-In . SVG Version: 6.00 Build 43363)  -->
<!DOCTYPE svg PUBLIC "-//W3C//DTD SVG 1.1//EN" "http://www.w3.org/Graphics/SVG/1.1/DTD/svg11.dtd">
<svg version="1.1" id="Layer_1" xmlns="http://www.w3.org/2000/svg" xmlns:xlink="http://www.w3.org/1999/xlink" x="0px" y="0px"
	 width="106.666px" height="183.335px" viewBox="77.167 282.998 106.666 183.335"
	 enable-background="new 77.167 282.998 106.666 183.335" xml:space="preserve">
<path fill="#FF00AE" d="M167.063,463.083c1.641-6.967,3.869-13.766,5.699-20.68c2.012-7.772,4.981-15.32,5.977-23.336
	c-2.884,3.749-5.689,7.559-8.731,11.175c0.239-13.099-0.572-26.191-0.093-39.295c0.188-21.34,0.265-42.671,0.522-64
	c-0.097-5.062-0.433-10.237-2.104-15.051c-3.099-7.706-10.67-13.206-18.824-14.364c-9.005-1.09-18.078-0.25-27.093,0
	c-5.496,0.45-8.552-4.784-12.705-7.354c-2.602-1.988-5.986-1.707-9.065-1.761c-6.453,0.126-12.918-0.197-19.365,0.181
	c4.354,4.652,10.051,7.655,15.096,11.448c-4.525,4.475-9.983,7.767-15.283,11.181c6.417,0.332,12.85,0.125,19.268,0.328
	c2.71-0.021,5.755,0.363,8.031-1.445c4.188-2.599,7.646-7.26,12.986-7.263c7.692-0.039,15.384-0.168,23.071,0.062
	c5.993-0.103,12.203,2.006,16.136,6.684c4.584,5.267,4.146,12.731,4.213,19.253c-0.363,12.016,0.464,24.01,0.161,36.017
	c-0.39,22.086-0.338,44.169-0.656,66.247c-3.353-3.999-6.119-8.429-9.219-12.625c1.725,8.746,5.034,17.065,7.02,25.734
	C163.755,450.505,164.942,456.932,167.063,463.083"/>
</svg>
