<?xml version="1.0" encoding="UTF-8" standalone="no"?>
<!-- Generator: Adobe Illustrator 14.0.0, SVG Export Plug-In . SVG Version: 6.00 Build 43363)  -->

<svg
   xmlns:dc="http://purl.org/dc/elements/1.1/"
   xmlns:cc="http://creativecommons.org/ns#"
   xmlns:rdf="http://www.w3.org/1999/02/22-rdf-syntax-ns#"
   xmlns:svg="http://www.w3.org/2000/svg"
   xmlns="http://www.w3.org/2000/svg"
   xmlns:sodipodi="http://sodipodi.sourceforge.net/DTD/sodipodi-0.dtd"
   xmlns:inkscape="http://www.inkscape.org/namespaces/inkscape"
   version="1.1"
   id="Layer_1"
   x="0px"
   y="0px"
   width="25"
   height="177"
   viewBox="77.167 282.998 24.999999 176.99999"
   enable-background="new 77.167 282.998 106.666 183.335"
   xml:space="preserve"
   inkscape:version="0.48.2 r9819"
   sodipodi:docname="a_pink_arrow_up.svg"><metadata
   id="metadata7818"><rdf:RDF><cc:Work
       rdf:about=""><dc:format>image/svg+xml</dc:format><dc:type
         rdf:resource="http://purl.org/dc/dcmitype/StillImage" /><dc:title></dc:title></cc:Work></rdf:RDF></metadata><defs
   id="defs7816" /><sodipodi:namedview
   pagecolor="#ffffff"
   bordercolor="#666666"
   borderopacity="1"
   objecttolerance="10"
   gridtolerance="10"
   guidetolerance="10"
   inkscape:pageopacity="0"
   inkscape:pageshadow="2"
   inkscape:window-width="781"
   inkscape:window-height="542"
   id="namedview7814"
   showgrid="false"
   inkscape:zoom="1.8204619"
   inkscape:cx="-33.953674"
   inkscape:cy="121.10096"
   inkscape:window-x="0"
   inkscape:window-y="26"
   inkscape:window-maximized="0"
   inkscape:current-layer="Layer_1"
   fit-margin-top="0"
   fit-margin-left="0"
   fit-margin-right="0"
   fit-margin-bottom="0" />
<path
   style="fill:#f6e3f6;fill-opacity:1"
   d="m 89.360046,283.09175 c -1.641,6.967 -3.8575,13.7735 -5.6875,20.6875 -2.012,7.772 -4.97275,15.32775 -5.96875,23.34375 2.884,-3.749 5.67675,-7.5715 8.71875,-11.1875 -0.239,13.099 0.57275,26.17725 0.09375,39.28125 -0.06585,7.47413 -0.15625,50.46875 -0.15625,50.46875 0,0 -0.286623,8.32859 -0.0625,13 0.45,5.496 -4.77375,8.56575 -7.34375,12.71875 -1.988,2.602 -1.72725,5.9835 -1.78125,9.0625 0.063,3.2265 0.0177,6.45875 0,9.6875 -0.0178,3.22875 -0.002,6.43275 0.1875,9.65625 4.652,-4.354 7.67575,-10.04875 11.46875,-15.09375 4.475,4.525 7.742249,9.98125 11.15625,15.28125 0.332004,-6.417 0.140754,-12.832 0.343754,-19.25 -0.021,-2.71 0.3705,-5.75525 -1.437504,-8.03125 -2.599001,-4.188 -7.27825,-7.66 -7.28125,-13 -0.0237,-4.67754 -0.0732,-9.35483 -0.0625,-14.03125 0.442632,-30.14422 0.193371,-60.4282 0.59375,-90.625 3.353,3.999 6.11875,8.429 9.218754,12.625 -1.725004,-8.746 -5.045254,-17.04975 -7.031254,-25.71875 -1.65,-6.286 -2.84775,-12.724 -4.96875,-18.875 z"
   id="path7812"
   inkscape:connector-curvature="0"
   sodipodi:nodetypes="ccccccccccccccccccccc" />
</svg>