<?xml version="1.0" encoding="UTF-8" standalone="no"?>
<!-- Created with Inkscape (http://www.inkscape.org/) -->

<svg
   width="62"
   height="18"
   viewBox="0 0 16.404166 4.7625"
   version="1.1"
   id="svg1"
   inkscape:version="1.4 (e7c3feb1, 2024-10-09)"
   sodipodi:docname="bubble-border.svg"
   xmlns:inkscape="http://www.inkscape.org/namespaces/inkscape"
   xmlns:sodipodi="http://sodipodi.sourceforge.net/DTD/sodipodi-0.dtd"
   xmlns="http://www.w3.org/2000/svg"
   xmlns:svg="http://www.w3.org/2000/svg">
  <sodipodi:namedview
     id="namedview1"
     pagecolor="#ffffff"
     bordercolor="#666666"
     borderopacity="1.0"
     inkscape:showpageshadow="2"
     inkscape:pageopacity="0.0"
     inkscape:pagecheckerboard="0"
     inkscape:deskcolor="#d1d1d1"
     inkscape:document-units="mm"
     inkscape:zoom="44.226853"
     inkscape:cx="23.526431"
     inkscape:cy="11.870616"
     inkscape:window-width="1440"
     inkscape:window-height="813"
     inkscape:window-x="120"
     inkscape:window-y="165"
     inkscape:window-maximized="0"
     inkscape:current-layer="layer1" />
  <defs
     id="defs1">
    <clipPath
       clipPathUnits="userSpaceOnUse"
       id="clipPath138">
      <path
         d="M 0,0 H 864.567 V 649.134 H 0 Z"
         transform="translate(-79.326902,-613.24352)"
         id="path138" />
    </clipPath>
    <clipPath
       clipPathUnits="userSpaceOnUse"
       id="clipPath140">
      <path
         d="M 0,0 H 864.567 V 649.134 H 0 Z"
         transform="translate(-54.572302,-625.41122)"
         id="path140" />
    </clipPath>
    <clipPath
       clipPathUnits="userSpaceOnUse"
       id="clipPath142">
      <path
         d="M 0,0 H 864.567 V 649.134 H 0 Z"
         transform="translate(-53.453302,-625.88382)"
         id="path142" />
    </clipPath>
    <clipPath
       clipPathUnits="userSpaceOnUse"
       id="clipPath144">
      <path
         d="M 0,0 H 864.567 V 649.134 H 0 Z"
         transform="translate(-74.784502,-613.25762)"
         id="path144" />
    </clipPath>
    <clipPath
       clipPathUnits="userSpaceOnUse"
       id="clipPath146">
      <path
         d="M 0,0 H 864.567 V 649.134 H 0 Z"
         transform="translate(-47.604401,-623.75742)"
         id="path146" />
    </clipPath>
    <clipPath
       clipPathUnits="userSpaceOnUse"
       id="clipPath148">
      <path
         d="M 0,0 H 864.567 V 649.134 H 0 Z"
         transform="translate(-83.4703,-614.38752)"
         id="path148" />
    </clipPath>
    <clipPath
       clipPathUnits="userSpaceOnUse"
       id="clipPath150">
      <path
         d="M 0,0 H 864.567 V 649.134 H 0 Z"
         transform="translate(-59.638501,-623.68672)"
         id="path150" />
    </clipPath>
    <clipPath
       clipPathUnits="userSpaceOnUse"
       id="clipPath152">
      <path
         d="M 0,0 H 864.567 V 649.134 H 0 Z"
         transform="translate(-69.821201,-615.12442)"
         id="path152" />
    </clipPath>
    <clipPath
       clipPathUnits="userSpaceOnUse"
       id="clipPath154">
      <path
         d="M 0,0 H 864.567 V 649.134 H 0 Z"
         transform="translate(-71.045302,-616.40052)"
         id="path154" />
    </clipPath>
    <clipPath
       clipPathUnits="userSpaceOnUse"
       id="clipPath156">
      <path
         d="M 0,0 H 864.567 V 649.134 H 0 Z"
         transform="translate(-84.6643,-616.76972)"
         id="path156" />
    </clipPath>
    <clipPath
       clipPathUnits="userSpaceOnUse"
       id="clipPath158">
      <path
         d="M 0,0 H 864.567 V 649.134 H 0 Z"
         transform="translate(-44.722501,-622.03422)"
         id="path158" />
    </clipPath>
    <clipPath
       clipPathUnits="userSpaceOnUse"
       id="clipPath160">
      <path
         d="M 0,0 H 864.567 V 649.134 H 0 Z"
         transform="translate(-61.325102,-622.75572)"
         id="path160" />
    </clipPath>
    <clipPath
       clipPathUnits="userSpaceOnUse"
       id="clipPath162">
      <path
         d="M 0,0 H 864.567 V 649.134 H 0 Z"
         transform="translate(-74.495402,-619.00052)"
         id="path162" />
    </clipPath>
    <clipPath
       clipPathUnits="userSpaceOnUse"
       id="clipPath164">
      <path
         d="M 0,0 H 864.567 V 649.134 H 0 Z"
         transform="translate(-45.048801,-621.09922)"
         id="path164" />
    </clipPath>
    <clipPath
       clipPathUnits="userSpaceOnUse"
       id="clipPath166">
      <path
         d="M 0,0 H 864.567 V 649.134 H 0 Z"
         transform="translate(-57.648802,-621.46232)"
         id="path166" />
    </clipPath>
    <clipPath
       clipPathUnits="userSpaceOnUse"
       id="clipPath168">
      <path
         d="M 0,0 H 864.567 V 649.134 H 0 Z"
         transform="translate(-88.782602,-618.90212)"
         id="path168" />
    </clipPath>
    <clipPath
       clipPathUnits="userSpaceOnUse"
       id="clipPath170">
      <path
         d="M 0,0 H 864.567 V 649.134 H 0 Z"
         transform="translate(-76.464204,-620.34142)"
         id="path170" />
    </clipPath>
    <clipPath
       clipPathUnits="userSpaceOnUse"
       id="clipPath172">
      <path
         d="M 0,0 H 864.567 V 649.134 H 0 Z"
         transform="translate(-54.449501,-619.31192)"
         id="path172" />
    </clipPath>
    <clipPath
       clipPathUnits="userSpaceOnUse"
       id="clipPath174">
      <path
         d="M 0,0 H 864.567 V 649.134 H 0 Z"
         transform="translate(-86.9725,-620.99922)"
         id="path174" />
    </clipPath>
    <clipPath
       clipPathUnits="userSpaceOnUse"
       id="clipPath176">
      <path
         d="M 0,0 H 864.567 V 649.134 H 0 Z"
         transform="translate(-42.537101,-619.12452)"
         id="path176" />
    </clipPath>
    <clipPath
       clipPathUnits="userSpaceOnUse"
       id="clipPath178">
      <path
         d="M 0,0 H 864.567 V 649.134 H 0 Z"
         transform="translate(-45.385401,-617.42502)"
         id="path178" />
    </clipPath>
    <clipPath
       clipPathUnits="userSpaceOnUse"
       id="clipPath180">
      <path
         d="M 0,0 H 864.567 V 649.134 H 0 Z"
         transform="translate(-79.755602,-619.01152)"
         id="path180" />
    </clipPath>
    <clipPath
       clipPathUnits="userSpaceOnUse"
       id="clipPath182">
      <path
         d="M 0,0 H 864.567 V 649.134 H 0 Z"
         transform="translate(-85.667005,-621.08702)"
         id="path182" />
    </clipPath>
    <clipPath
       clipPathUnits="userSpaceOnUse"
       id="clipPath184">
      <path
         d="M 0,0 H 864.567 V 649.134 H 0 Z"
         transform="translate(-51.158902,-620.63622)"
         id="path184" />
    </clipPath>
    <clipPath
       clipPathUnits="userSpaceOnUse"
       id="clipPath186">
      <path
         d="M 0,0 H 864.567 V 649.134 H 0 Z"
         transform="translate(-48.613501,-617.32572)"
         id="path186" />
    </clipPath>
    <clipPath
       clipPathUnits="userSpaceOnUse"
       id="clipPath188">
      <path
         d="M 0,0 H 864.567 V 649.134 H 0 Z"
         transform="translate(-50.698402,-621.26622)"
         id="path188" />
    </clipPath>
    <clipPath
       clipPathUnits="userSpaceOnUse"
       id="clipPath190">
      <path
         d="M 0,0 H 864.567 V 649.134 H 0 Z"
         transform="translate(-81.414805,-619.11012)"
         id="path190" />
    </clipPath>
    <clipPath
       clipPathUnits="userSpaceOnUse"
       id="clipPath192">
      <path
         d="M 0,0 H 864.567 V 649.134 H 0 Z"
         transform="translate(-83.492605,-621.93542)"
         id="path192" />
    </clipPath>
    <clipPath
       clipPathUnits="userSpaceOnUse"
       id="clipPath194">
      <path
         d="M 0,0 H 864.567 V 649.134 H 0 Z"
         transform="translate(-80.933402,-623.40512)"
         id="path194" />
    </clipPath>
    <clipPath
       clipPathUnits="userSpaceOnUse"
       id="clipPath196">
      <path
         d="M 0,0 H 864.567 V 649.134 H 0 Z"
         transform="translate(-49.850101,-617.19802)"
         id="path196" />
    </clipPath>
    <clipPath
       clipPathUnits="userSpaceOnUse"
       id="clipPath198">
      <path
         d="M 0,0 H 864.567 V 649.134 H 0 Z"
         transform="translate(-81.001105,-617.71072)"
         id="path198" />
    </clipPath>
    <clipPath
       clipPathUnits="userSpaceOnUse"
       id="clipPath200">
      <path
         d="M 0,0 H 864.567 V 649.134 H 0 Z"
         transform="translate(-49.910601,-621.94192)"
         id="path200" />
    </clipPath>
    <clipPath
       clipPathUnits="userSpaceOnUse"
       id="clipPath202">
      <path
         d="M 0,0 H 864.567 V 649.134 H 0 Z"
         transform="translate(-52.611502,-616.09282)"
         id="path202" />
    </clipPath>
    <clipPath
       clipPathUnits="userSpaceOnUse"
       id="clipPath204">
      <path
         d="M 0,0 H 864.567 V 649.134 H 0 Z"
         transform="translate(-52.042702,-623.89732)"
         id="path204" />
    </clipPath>
    <clipPath
       clipPathUnits="userSpaceOnUse"
       id="clipPath206">
      <path
         d="M 0,0 H 864.567 V 649.134 H 0 Z"
         transform="translate(-79.326099,-623.23072)"
         id="path206" />
    </clipPath>
    <clipPath
       clipPathUnits="userSpaceOnUse"
       id="clipPath208">
      <path
         d="M 0,0 H 864.567 V 649.134 H 0 Z"
         transform="translate(-78.846399,-615.75332)"
         id="path208" />
    </clipPath>
    <clipPath
       clipPathUnits="userSpaceOnUse"
       id="clipPath210">
      <path
         d="M 0,0 H 864.567 V 649.134 H 0 Z"
         transform="translate(-75.536904,-623.41042)"
         id="path210" />
    </clipPath>
    <clipPath
       clipPathUnits="userSpaceOnUse"
       id="clipPath212">
      <path
         d="M 0,0 H 864.567 V 649.134 H 0 Z"
         transform="translate(-56.232401,-616.75732)"
         id="path212" />
    </clipPath>
    <clipPath
       clipPathUnits="userSpaceOnUse"
       id="clipPath214">
      <path
         d="M 0,0 H 864.567 V 649.134 H 0 Z"
         transform="translate(-54.664501,-623.14292)"
         id="path214" />
    </clipPath>
    <clipPath
       clipPathUnits="userSpaceOnUse"
       id="clipPath216">
      <path
         d="M 0,0 H 864.567 V 649.134 H 0 Z"
         transform="translate(-76.329902,-615.65782)"
         id="path216" />
    </clipPath>
    <clipPath
       clipPathUnits="userSpaceOnUse"
       id="clipPath218">
      <path
         d="M 0,0 H 864.567 V 649.134 H 0 Z"
         transform="translate(-74.170902,-622.79552)"
         id="path218" />
    </clipPath>
    <clipPath
       clipPathUnits="userSpaceOnUse"
       id="clipPath220">
      <path
         d="M 0,0 H 864.567 V 649.134 H 0 Z"
         transform="translate(-57.615901,-616.56992)"
         id="path220" />
    </clipPath>
    <clipPath
       clipPathUnits="userSpaceOnUse"
       id="clipPath222">
      <path
         d="M 0,0 H 864.567 V 649.134 H 0 Z"
         transform="translate(-56.946601,-622.97332)"
         id="path222" />
    </clipPath>
    <clipPath
       clipPathUnits="userSpaceOnUse"
       id="clipPath224">
      <path
         d="M 0,0 H 864.567 V 649.134 H 0 Z"
         transform="translate(-74.677202,-617.13812)"
         id="path224" />
    </clipPath>
    <clipPath
       clipPathUnits="userSpaceOnUse"
       id="clipPath226">
      <path
         d="M 0,0 H 864.567 V 649.134 H 0 Z"
         transform="translate(-71.367402,-621.95282)"
         id="path226" />
    </clipPath>
    <clipPath
       clipPathUnits="userSpaceOnUse"
       id="clipPath228">
      <path
         d="M 0,0 H 864.567 V 649.134 H 0 Z"
         transform="translate(-58.874501,-617.28632)"
         id="path228" />
    </clipPath>
    <clipPath
       clipPathUnits="userSpaceOnUse"
       id="clipPath230">
      <path
         d="M 0,0 H 864.567 V 649.134 H 0 Z"
         transform="translate(-75.787802,-617.74292)"
         id="path230" />
    </clipPath>
    <clipPath
       clipPathUnits="userSpaceOnUse"
       id="clipPath232">
      <path
         d="M 0,0 H 864.567 V 649.134 H 0 Z"
         transform="translate(-55.799401,-622.26082)"
         id="path232" />
    </clipPath>
    <clipPath
       clipPathUnits="userSpaceOnUse"
       id="clipPath234">
      <path
         d="M 0,0 H 864.567 V 649.134 H 0 Z"
         transform="translate(-69.563602,-622.03152)"
         id="path234" />
    </clipPath>
    <clipPath
       clipPathUnits="userSpaceOnUse"
       id="clipPath236">
      <path
         d="M 0,0 H 864.567 V 649.134 H 0 Z"
         transform="translate(-54.368201,-621.05292)"
         id="path236" />
    </clipPath>
    <clipPath
       clipPathUnits="userSpaceOnUse"
       id="clipPath238">
      <path
         d="M 0,0 H 864.567 V 649.134 H 0 Z"
         transform="translate(-61.314002,-617.60922)"
         id="path238" />
    </clipPath>
    <clipPath
       clipPathUnits="userSpaceOnUse"
       id="clipPath240">
      <path
         d="M 0,0 H 864.567 V 649.134 H 0 Z"
         transform="translate(-77.111402,-618.43072)"
         id="path240" />
    </clipPath>
    <clipPath
       clipPathUnits="userSpaceOnUse"
       id="clipPath242">
      <path
         d="M 0,0 H 864.567 V 649.134 H 0 Z"
         transform="translate(-67.757102,-621.21842)"
         id="path242" />
    </clipPath>
    <clipPath
       clipPathUnits="userSpaceOnUse"
       id="clipPath244">
      <path
         d="M 0,0 H 864.567 V 649.134 H 0 Z"
         transform="translate(-62.634701,-618.58252)"
         id="path244" />
    </clipPath>
    <clipPath
       clipPathUnits="userSpaceOnUse"
       id="clipPath246">
      <path
         d="M 0,0 H 864.567 V 649.134 H 0 Z"
         transform="translate(-77.622099,-618.34662)"
         id="path246" />
    </clipPath>
    <clipPath
       clipPathUnits="userSpaceOnUse"
       id="clipPath248">
      <path
         d="M 0,0 H 864.567 V 649.134 H 0 Z"
         transform="translate(-52.858601,-621.04662)"
         id="path248" />
    </clipPath>
    <clipPath
       clipPathUnits="userSpaceOnUse"
       id="clipPath250">
      <path
         d="M 0,0 H 864.567 V 649.134 H 0 Z"
         transform="translate(-79.435802,-617.99572)"
         id="path250" />
    </clipPath>
    <clipPath
       clipPathUnits="userSpaceOnUse"
       id="clipPath252">
      <path
         d="M 0,0 H 864.567 V 649.134 H 0 Z"
         transform="translate(-51.837101,-621.88462)"
         id="path252" />
    </clipPath>
    <clipPath
       clipPathUnits="userSpaceOnUse"
       id="clipPath254">
      <path
         d="M 0,0 H 864.567 V 649.134 H 0 Z"
         transform="translate(-67.011802,-620.94302)"
         id="path254" />
    </clipPath>
    <clipPath
       clipPathUnits="userSpaceOnUse"
       id="clipPath256">
      <path
         d="M 0,0 H 864.567 V 649.134 H 0 Z"
         transform="translate(-63.892102,-618.70952)"
         id="path256" />
    </clipPath>
    <clipPath
       clipPathUnits="userSpaceOnUse"
       id="clipPath258">
      <path
         d="M 0,0 H 864.567 V 649.134 H 0 Z"
         transform="translate(-64.850801,-619.24682)"
         id="path258" />
    </clipPath>
    <clipPath
       clipPathUnits="userSpaceOnUse"
       id="clipPath260">
      <path
         d="M 0,0 H 864.567 V 649.134 H 0 Z"
         transform="translate(-66.432602,-620.27522)"
         id="path260" />
    </clipPath>
    <clipPath
       clipPathUnits="userSpaceOnUse"
       id="clipPath262">
      <path
         d="M 0,0 H 864.567 V 649.134 H 0 Z"
         transform="translate(-52.428101,-622.32982)"
         id="path262" />
    </clipPath>
    <clipPath
       clipPathUnits="userSpaceOnUse"
       id="clipPath264">
      <path
         d="M 0,0 H 864.567 V 649.134 H 0 Z"
         transform="translate(-78.796299,-617.50892)"
         id="path264" />
    </clipPath>
  </defs>
  <g
     inkscape:label="Layer 1"
     inkscape:groupmode="layer"
     id="layer1"
     transform="translate(-62.441667,-7.4083333)">
    <g
       id="g136"
       transform="matrix(0.26458333,0,0,0.26458333,47.590574,-0.59933547)">
      <path
         id="path137"
         d="M 0,0 C -1.001,-0.123 -1.84,0.105 -1.888,0.512 -1.941,0.953 -1.086,1.504 -0.18,1.615 0.734,1.726 1.701,1.401 1.756,0.964 1.809,0.549 1.041,0.128 0,0"
         style="fill:#231f20;fill-opacity:1;fill-rule:nonzero;stroke:none"
         transform="matrix(1.3333333,0,0,-1.3333333,105.7692,47.854)"
         clip-path="url(#clipPath138)" />
    </g>
    <g
       id="g138"
       transform="matrix(0.26458333,0,0,0.26458333,47.590574,-0.59933547)">
      <path
         id="path139"
         d="M 0,0 C -0.044,0.358 0.317,0.683 0.966,0.87 1.658,1.068 2.544,1.058 3.095,0.839 3.53,0.667 3.734,0.438 3.52,0.129 3.287,-0.207 2.742,-0.421 2.071,-0.564 0.744,-0.847 0.03,-0.46 0,0"
         style="fill:#231f20;fill-opacity:1;fill-rule:nonzero;stroke:none"
         transform="matrix(1.3333333,0,0,-1.3333333,72.763067,31.6304)"
         clip-path="url(#clipPath140)" />
    </g>
    <g
       id="g140"
       transform="matrix(0.26458333,0,0,0.26458333,47.590574,-0.59933547)">
      <path
         id="path141"
         d="m 0,0 c 0.045,-0.454 -0.898,-1.03 -1.828,-1.11 -0.844,-0.072 -1.798,0.264 -1.828,0.681 -0.029,0.411 0.78,0.839 1.802,0.953 C -0.866,0.635 -0.025,0.397 0,0"
         style="fill:#231f20;fill-opacity:1;fill-rule:nonzero;stroke:none"
         transform="matrix(1.3333333,0,0,-1.3333333,71.271067,31.000267)"
         clip-path="url(#clipPath142)" />
    </g>
    <g
       id="g142"
       transform="matrix(0.26458333,0,0,0.26458333,47.590574,-0.59933547)">
      <path
         id="path143"
         d="m 0,0 c -1.043,-0.128 -2.008,0.149 -2.058,0.59 -0.048,0.422 0.8,0.879 1.882,1.014 C 0.788,1.725 1.472,1.473 1.534,0.977 1.592,0.515 0.97,0.119 0,0"
         style="fill:#231f20;fill-opacity:1;fill-rule:nonzero;stroke:none"
         transform="matrix(1.3333333,0,0,-1.3333333,99.712667,47.8352)"
         clip-path="url(#clipPath144)" />
    </g>
    <g
       id="g144"
       transform="matrix(0.26458333,0,0,0.26458333,47.590574,-0.59933547)">
      <path
         id="path145"
         d="M 0,0 C -1.016,-0.124 -1.862,0.093 -1.921,0.493 -1.982,0.906 -1.162,1.382 -0.184,1.502 0.715,1.612 1.377,1.384 1.431,0.947 1.488,0.481 0.934,0.114 0,0"
         style="fill:#231f20;fill-opacity:1;fill-rule:nonzero;stroke:none"
         transform="matrix(1.3333333,0,0,-1.3333333,63.472533,33.835467)"
         clip-path="url(#clipPath146)" />
    </g>
    <g
       id="g146"
       transform="matrix(0.26458333,0,0,0.26458333,47.590574,-0.59933547)">
      <path
         id="path147"
         d="M 0,0 C -0.922,-0.108 -1.589,0.123 -1.624,0.563 -1.66,1.029 -1.086,1.401 -0.165,1.508 0.828,1.623 1.702,1.389 1.74,0.998 1.78,0.587 0.952,0.112 0,0"
         style="fill:#231f20;fill-opacity:1;fill-rule:nonzero;stroke:none"
         transform="matrix(1.3333333,0,0,-1.3333333,111.29373,46.328667)"
         clip-path="url(#clipPath148)" />
    </g>
    <g
       id="g148"
       transform="matrix(0.26458333,0,0,0.26458333,47.590574,-0.59933547)">
      <path
         id="path149"
         d="M 0,0 C -1.002,-0.122 -1.884,0.082 -1.922,0.446 -1.968,0.888 -1.196,1.401 -0.327,1.508 0.558,1.617 1.387,1.321 1.437,0.879 1.483,0.474 0.885,0.108 0,0"
         style="fill:#231f20;fill-opacity:1;fill-rule:nonzero;stroke:none"
         transform="matrix(1.3333333,0,0,-1.3333333,79.518,33.929733)"
         clip-path="url(#clipPath150)" />
    </g>
    <g
       id="g150"
       transform="matrix(0.26458333,0,0,0.26458333,47.590574,-0.59933547)">
      <path
         id="path151"
         d="M 0,0 C 0.025,0.427 0.662,0.777 1.55,0.852 2.576,0.937 3.383,0.713 3.362,0.346 3.336,-0.122 2.524,-0.608 1.637,-0.685 0.761,-0.762 -0.025,-0.433 0,0"
         style="fill:#231f20;fill-opacity:1;fill-rule:nonzero;stroke:none"
         transform="matrix(1.3333333,0,0,-1.3333333,93.094933,45.346133)"
         clip-path="url(#clipPath152)" />
    </g>
    <g
       id="g152"
       transform="matrix(0.26458333,0,0,0.26458333,47.590574,-0.59933547)">
      <path
         id="path153"
         d="m 0,0 c -0.831,-0.102 -1.434,0.101 -1.481,0.497 -0.051,0.418 0.597,0.851 1.42,0.951 C 0.75,1.547 1.627,1.251 1.676,0.862 1.719,0.521 0.926,0.114 0,0"
         style="fill:#231f20;fill-opacity:1;fill-rule:nonzero;stroke:none"
         transform="matrix(1.3333333,0,0,-1.3333333,94.727067,43.644667)"
         clip-path="url(#clipPath154)" />
    </g>
    <g
       id="g154"
       transform="matrix(0.26458333,0,0,0.26458333,47.590574,-0.59933547)">
      <path
         id="path155"
         d="M 0,0 C -0.049,0.389 0.56,0.732 1.51,0.848 2.396,0.957 3.098,0.761 3.15,0.39 3.208,-0.017 2.499,-0.466 1.631,-0.573 0.778,-0.678 0.053,-0.423 0,0"
         style="fill:#231f20;fill-opacity:1;fill-rule:nonzero;stroke:none"
         transform="matrix(1.3333333,0,0,-1.3333333,112.88573,43.1524)"
         clip-path="url(#clipPath156)" />
    </g>
    <g
       id="g156"
       transform="matrix(0.26458333,0,0,0.26458333,47.590574,-0.59933547)">
      <path
         id="path157"
         d="m 0,0 c -0.927,-0.114 -1.591,0.072 -1.642,0.46 -0.053,0.4 0.657,0.854 1.501,0.958 C 0.711,1.523 1.453,1.261 1.507,0.836 1.555,0.459 0.935,0.115 0,0"
         style="fill:#231f20;fill-opacity:1;fill-rule:nonzero;stroke:none"
         transform="matrix(1.3333333,0,0,-1.3333333,59.63,36.133067)"
         clip-path="url(#clipPath158)" />
    </g>
    <g
       id="g158"
       transform="matrix(0.26458333,0,0,0.26458333,47.590574,-0.59933547)">
      <path
         id="path159"
         d="M 0,0 C 0.055,-0.419 -0.58,-0.85 -1.405,-0.954 -2.244,-1.06 -3.1,-0.771 -3.147,-0.368 -3.186,-0.031 -2.401,0.379 -1.5,0.492 -0.68,0.595 -0.051,0.388 0,0"
         style="fill:#231f20;fill-opacity:1;fill-rule:nonzero;stroke:none"
         transform="matrix(1.3333333,0,0,-1.3333333,81.7668,35.171067)"
         clip-path="url(#clipPath160)" />
    </g>
    <g
       id="g160"
       transform="matrix(0.26458333,0,0,0.26458333,47.590574,-0.59933547)">
      <path
         id="path161"
         d="m 0,0 c -0.002,-0.053 0.007,-0.106 -0.009,-0.159 -0.105,-0.347 -0.482,-0.556 -1.168,-0.653 -0.769,-0.11 -1.454,-10e-4 -1.679,0.266 -0.265,0.314 0.255,0.779 1.095,0.978 C -0.818,0.656 -0.065,0.47 0,0"
         style="fill:#231f20;fill-opacity:1;fill-rule:nonzero;stroke:none"
         transform="matrix(1.3333333,0,0,-1.3333333,99.3272,40.178)"
         clip-path="url(#clipPath162)" />
    </g>
    <g
       id="g162"
       transform="matrix(0.26458333,0,0,0.26458333,47.590574,-0.59933547)">
      <path
         id="path163"
         d="m 0,0 c 0.044,-0.344 -0.645,-0.736 -1.479,-0.841 -0.775,-0.098 -1.418,0.11 -1.469,0.474 C -3,0.01 -2.415,0.394 -1.639,0.493 -0.829,0.595 -0.046,0.36 0,0"
         style="fill:#231f20;fill-opacity:1;fill-rule:nonzero;stroke:none"
         transform="matrix(1.3333333,0,0,-1.3333333,60.065067,37.379733)"
         clip-path="url(#clipPath164)" />
    </g>
    <g
       id="g164"
       transform="matrix(0.26458333,0,0,0.26458333,47.590574,-0.59933547)">
      <path
         id="path165"
         d="M 0,0 C 0.913,0.112 1.631,-0.07 1.669,-0.422 1.71,-0.796 0.988,-1.211 0.109,-1.318 -0.656,-1.411 -1.214,-1.211 -1.26,-0.828 -1.313,-0.401 -0.864,-0.106 0,0"
         style="fill:#231f20;fill-opacity:1;fill-rule:nonzero;stroke:none"
         transform="matrix(1.3333333,0,0,-1.3333333,76.865067,36.8956)"
         clip-path="url(#clipPath166)" />
    </g>
    <g
       id="g166"
       transform="matrix(0.26458333,0,0,0.26458333,47.590574,-0.59933547)">
      <path
         id="path167"
         d="m 0,0 c 0.046,-0.373 -0.537,-0.755 -1.3,-0.851 -0.798,-0.1 -1.6,0.139 -1.652,0.492 -0.051,0.346 0.654,0.739 1.51,0.842 C -0.652,0.579 -0.046,0.375 0,0"
         style="fill:#231f20;fill-opacity:1;fill-rule:nonzero;stroke:none"
         transform="matrix(1.3333333,0,0,-1.3333333,118.3768,40.3092)"
         clip-path="url(#clipPath168)" />
    </g>
    <g
       id="g168"
       transform="matrix(0.26458333,0,0,0.26458333,47.590574,-0.59933547)">
      <path
         id="path169"
         d="m 0,0 c 0.779,0.094 1.419,-0.076 1.455,-0.386 0.038,-0.325 -0.654,-0.76 -1.339,-0.842 -0.655,-0.079 -1.403,0.19 -1.44,0.517 C -1.358,-0.406 -0.778,-0.094 0,0"
         style="fill:#231f20;fill-opacity:1;fill-rule:nonzero;stroke:none"
         transform="matrix(1.3333333,0,0,-1.3333333,101.95227,38.390133)"
         clip-path="url(#clipPath170)" />
    </g>
    <g
       id="g170"
       transform="matrix(0.26458333,0,0,0.26458333,47.590574,-0.59933547)">
      <path
         id="path171"
         d="m 0,0 c -0.807,-0.099 -1.459,0.065 -1.492,0.376 -0.034,0.322 0.668,0.763 1.347,0.845 0.664,0.08 1.39,-0.183 1.43,-0.518 C 1.323,0.392 0.78,0.096 0,0"
         style="fill:#231f20;fill-opacity:1;fill-rule:nonzero;stroke:none"
         transform="matrix(1.3333333,0,0,-1.3333333,72.599333,39.7628)"
         clip-path="url(#clipPath172)" />
    </g>
    <g
       id="g172"
       transform="matrix(0.26458333,0,0,0.26458333,47.590574,-0.59933547)">
      <path
         id="path173"
         d="M 0,0 C 0.705,0.089 1.349,-0.125 1.398,-0.466 1.445,-0.799 0.92,-1.134 0.208,-1.225 -0.566,-1.324 -1.269,-1.139 -1.32,-0.824 -1.374,-0.487 -0.746,-0.095 0,0"
         style="fill:#231f20;fill-opacity:1;fill-rule:nonzero;stroke:none"
         transform="matrix(1.3333333,0,0,-1.3333333,115.96333,37.513067)"
         clip-path="url(#clipPath174)" />
    </g>
    <g
       id="g174"
       transform="matrix(0.26458333,0,0,0.26458333,47.590574,-0.59933547)">
      <path
         id="path175"
         d="M 0,0 C -0.04,0.341 0.471,0.662 1.194,0.75 1.96,0.844 2.667,0.65 2.704,0.336 2.743,0.006 2.103,-0.39 1.382,-0.481 0.662,-0.573 0.042,-0.357 0,0"
         style="fill:#231f20;fill-opacity:1;fill-rule:nonzero;stroke:none"
         transform="matrix(1.3333333,0,0,-1.3333333,56.716133,40.012667)"
         clip-path="url(#clipPath176)" />
    </g>
    <g
       id="g176"
       transform="matrix(0.26458333,0,0,0.26458333,47.590574,-0.59933547)">
      <path
         id="path177"
         d="M 0,0 C -0.686,-0.084 -1.32,0.123 -1.356,0.443 -1.39,0.751 -0.873,1.048 -0.149,1.136 0.573,1.224 1.171,1.057 1.201,0.759 1.234,0.429 0.688,0.084 0,0"
         style="fill:#231f20;fill-opacity:1;fill-rule:nonzero;stroke:none"
         transform="matrix(1.3333333,0,0,-1.3333333,60.513867,42.278667)"
         clip-path="url(#clipPath178)" />
    </g>
    <g
       id="g178"
       transform="matrix(0.26458333,0,0,0.26458333,47.590574,-0.59933547)">
      <path
         id="path179"
         d="M 0,0 C -0.714,-0.094 -1.173,0.047 -1.233,0.379 -1.293,0.715 -0.861,1.03 -0.226,1.112 0.558,1.214 1.272,1.015 1.318,0.682 1.358,0.39 0.81,0.107 0,0"
         style="fill:#231f20;fill-opacity:1;fill-rule:nonzero;stroke:none"
         transform="matrix(1.3333333,0,0,-1.3333333,106.3408,40.163333)"
         clip-path="url(#clipPath180)" />
    </g>
    <g
       id="g180"
       transform="matrix(0.26458333,0,0,0.26458333,47.590574,-0.59933547)">
      <path
         id="path181"
         d="M 0,0 C -0.741,-0.092 -1.303,0.063 -1.343,0.371 -1.386,0.708 -0.865,1.05 -0.179,1.136 0.502,1.222 1.141,1.016 1.183,0.697 1.224,0.384 0.725,0.09 0,0"
         style="fill:#231f20;fill-opacity:1;fill-rule:nonzero;stroke:none"
         transform="matrix(1.3333333,0,0,-1.3333333,114.22267,37.396)"
         clip-path="url(#clipPath182)" />
    </g>
    <g
       id="g182"
       transform="matrix(0.26458333,0,0,0.26458333,47.590574,-0.59933547)">
      <path
         id="path183"
         d="M 0,0 C 0.731,0.09 1.153,-0.055 1.196,-0.409 1.237,-0.751 0.804,-1.044 0.135,-1.127 -0.589,-1.217 -1.297,-1.004 -1.339,-0.685 -1.377,-0.384 -0.825,-0.101 0,0"
         style="fill:#231f20;fill-opacity:1;fill-rule:nonzero;stroke:none"
         transform="matrix(1.3333333,0,0,-1.3333333,68.211867,37.997067)"
         clip-path="url(#clipPath184)" />
    </g>
    <g
       id="g184"
       transform="matrix(0.26458333,0,0,0.26458333,47.590574,-0.59933547)">
      <path
         id="path185"
         d="m 0,0 c 0.027,-0.304 -0.457,-0.606 -1.091,-0.681 -0.69,-0.081 -1.257,0.107 -1.285,0.428 -0.025,0.274 0.508,0.565 1.175,0.643 C -0.55,0.466 -0.026,0.296 0,0"
         style="fill:#231f20;fill-opacity:1;fill-rule:nonzero;stroke:none"
         transform="matrix(1.3333333,0,0,-1.3333333,64.818,42.411067)"
         clip-path="url(#clipPath186)" />
    </g>
    <g
       id="g186"
       transform="matrix(0.26458333,0,0,0.26458333,47.590574,-0.59933547)">
      <path
         id="path187"
         d="m 0,0 c 0.036,-0.278 -0.584,-0.656 -1.205,-0.735 -0.608,-0.077 -1.132,0.113 -1.173,0.425 -0.039,0.302 0.374,0.583 0.968,0.659 C -0.776,0.43 -0.032,0.246 0,0"
         style="fill:#231f20;fill-opacity:1;fill-rule:nonzero;stroke:none"
         transform="matrix(1.3333333,0,0,-1.3333333,67.597867,37.157067)"
         clip-path="url(#clipPath188)" />
    </g>
    <g
       id="g188"
       transform="matrix(0.26458333,0,0,0.26458333,47.590574,-0.59933547)">
      <path
         id="path189"
         d="M 0,0 C 0.612,0.074 1.12,-0.114 1.16,-0.429 1.197,-0.726 0.766,-1.007 0.167,-1.079 -0.468,-1.155 -1.194,-0.976 -1.232,-0.735 -1.275,-0.458 -0.639,-0.077 0,0"
         style="fill:#231f20;fill-opacity:1;fill-rule:nonzero;stroke:none"
         transform="matrix(1.3333333,0,0,-1.3333333,108.55307,40.031867)"
         clip-path="url(#clipPath190)" />
    </g>
    <g
       id="g190"
       transform="matrix(0.26458333,0,0,0.26458333,47.590574,-0.59933547)">
      <path
         id="path191"
         d="M 0,0 C -0.664,-0.082 -1.181,0.078 -1.218,0.377 -1.256,0.683 -0.79,0.979 -0.145,1.059 0.539,1.144 1.121,0.97 1.16,0.668 1.199,0.375 0.696,0.086 0,0"
         style="fill:#231f20;fill-opacity:1;fill-rule:nonzero;stroke:none"
         transform="matrix(1.3333333,0,0,-1.3333333,111.32347,36.2648)"
         clip-path="url(#clipPath192)" />
    </g>
    <g
       id="g192"
       transform="matrix(0.26458333,0,0,0.26458333,47.590574,-0.59933547)">
      <path
         id="path193"
         d="M 0,0 C 0.612,0.075 1.15,-0.082 1.179,-0.344 1.208,-0.602 0.708,-0.89 0.103,-0.963 -0.479,-1.033 -0.95,-0.873 -0.979,-0.595 -1.007,-0.32 -0.602,-0.074 0,0"
         style="fill:#231f20;fill-opacity:1;fill-rule:nonzero;stroke:none"
         transform="matrix(1.3333333,0,0,-1.3333333,107.9112,34.3052)"
         clip-path="url(#clipPath194)" />
    </g>
    <g
       id="g194"
       transform="matrix(0.26458333,0,0,0.26458333,47.590574,-0.59933547)">
      <path
         id="path195"
         d="M 0,0 C 0.591,0.071 1.061,-0.084 1.09,-0.361 1.117,-0.628 0.689,-0.89 0.109,-0.961 -0.502,-1.037 -1.033,-0.88 -1.065,-0.615 -1.098,-0.349 -0.624,-0.075 0,0"
         style="fill:#231f20;fill-opacity:1;fill-rule:nonzero;stroke:none"
         transform="matrix(1.3333333,0,0,-1.3333333,66.4668,42.581333)"
         clip-path="url(#clipPath196)" />
    </g>
    <g
       id="g196"
       transform="matrix(0.26458333,0,0,0.26458333,47.590574,-0.59933547)">
      <path
         id="path197"
         d="M 0,0 C 0.592,0.07 1.037,-0.06 1.065,-0.313 1.096,-0.589 0.575,-0.917 0.001,-0.981 -0.586,-1.047 -1.029,-0.866 -1.064,-0.547 -1.091,-0.297 -0.667,-0.079 0,0"
         style="fill:#231f20;fill-opacity:1;fill-rule:nonzero;stroke:none"
         transform="matrix(1.3333333,0,0,-1.3333333,108.00147,41.897733)"
         clip-path="url(#clipPath198)" />
    </g>
    <g
       id="g198"
       transform="matrix(0.26458333,0,0,0.26458333,47.590574,-0.59933547)">
      <path
         id="path199"
         d="M 0,0 C -0.623,-0.077 -1.041,0.039 -1.077,0.299 -1.116,0.585 -0.633,0.895 -0.034,0.967 0.545,1.037 1.005,0.861 1.045,0.553 1.079,0.295 0.679,0.084 0,0"
         style="fill:#231f20;fill-opacity:1;fill-rule:nonzero;stroke:none"
         transform="matrix(1.3333333,0,0,-1.3333333,66.547467,36.256133)"
         clip-path="url(#clipPath200)" />
    </g>
    <g
       id="g200"
       transform="matrix(0.26458333,0,0,0.26458333,47.590574,-0.59933547)">
      <path
         id="path201"
         d="m 0,0 c -0.595,-0.065 -1.048,0.077 -1.064,0.333 -0.015,0.247 0.468,0.519 1.025,0.579 0.53,0.056 0.982,-0.107 1,-0.363 C 0.979,0.3 0.562,0.061 0,0"
         style="fill:#231f20;fill-opacity:1;fill-rule:nonzero;stroke:none"
         transform="matrix(1.3333333,0,0,-1.3333333,70.148667,44.054933)"
         clip-path="url(#clipPath202)" />
    </g>
    <g
       id="g202"
       transform="matrix(0.26458333,0,0,0.26458333,47.590574,-0.59933547)">
      <path
         id="path203"
         d="M 0,0 C 0.547,0.065 0.987,-0.055 1.011,-0.274 1.038,-0.528 0.579,-0.852 0.118,-0.902 -0.454,-0.964 -1.044,-0.79 -1.06,-0.554 -1.076,-0.326 -0.584,-0.069 0,0"
         style="fill:#231f20;fill-opacity:1;fill-rule:nonzero;stroke:none"
         transform="matrix(1.3333333,0,0,-1.3333333,69.390267,33.648933)"
         clip-path="url(#clipPath204)" />
    </g>
    <g
       id="g204"
       transform="matrix(0.26458333,0,0,0.26458333,47.590574,-0.59933547)">
      <path
         id="path205"
         d="m 0,0 c 0.031,-0.261 -0.388,-0.509 -0.982,-0.581 -0.535,-0.065 -0.997,0.087 -1.034,0.34 -0.035,0.245 0.373,0.488 0.937,0.558 C -0.48,0.391 -0.031,0.259 0,0"
         style="fill:#231f20;fill-opacity:1;fill-rule:nonzero;stroke:none"
         transform="matrix(1.3333333,0,0,-1.3333333,105.76813,34.537733)"
         clip-path="url(#clipPath206)" />
    </g>
    <g
       id="g206"
       transform="matrix(0.26458333,0,0,0.26458333,47.590574,-0.59933547)">
      <path
         id="path207"
         d="m 0,0 c -0.584,-0.071 -0.96,0.033 -0.989,0.273 -0.032,0.261 0.392,0.568 0.856,0.62 C 0.451,0.959 1.02,0.794 1.047,0.551 1.073,0.316 0.615,0.075 0,0"
         style="fill:#231f20;fill-opacity:1;fill-rule:nonzero;stroke:none"
         transform="matrix(1.3333333,0,0,-1.3333333,105.12853,44.5076)"
         clip-path="url(#clipPath208)" />
    </g>
    <g
       id="g208"
       transform="matrix(0.26458333,0,0,0.26458333,47.590574,-0.59933547)">
      <path
         id="path209"
         d="M 0,0 C 0.516,0.073 0.992,-0.05 1.045,-0.271 1.098,-0.493 0.691,-0.773 0.212,-0.843 -0.34,-0.924 -0.824,-0.793 -0.885,-0.545 -0.941,-0.319 -0.549,-0.078 0,0"
         style="fill:#231f20;fill-opacity:1;fill-rule:nonzero;stroke:none"
         transform="matrix(1.3333333,0,0,-1.3333333,100.71587,34.298133)"
         clip-path="url(#clipPath210)" />
    </g>
    <g
       id="g210"
       transform="matrix(0.26458333,0,0,0.26458333,47.590574,-0.59933547)">
      <path
         id="path211"
         d="m 0,0 c 0.026,-0.227 -0.382,-0.468 -0.903,-0.532 -0.524,-0.064 -1.003,0.077 -1.025,0.302 -0.024,0.239 0.42,0.509 0.934,0.568 C -0.487,0.395 -0.027,0.239 0,0"
         style="fill:#231f20;fill-opacity:1;fill-rule:nonzero;stroke:none"
         transform="matrix(1.3333333,0,0,-1.3333333,74.976533,43.168933)"
         clip-path="url(#clipPath212)" />
    </g>
    <g
       id="g212"
       transform="matrix(0.26458333,0,0,0.26458333,47.590574,-0.59933547)">
      <path
         id="path213"
         d="m 0,0 c -0.556,-0.068 -0.846,0.042 -0.882,0.336 -0.03,0.25 0.274,0.451 0.778,0.514 C 0.46,0.92 1.004,0.758 1.023,0.516 1.04,0.297 0.598,0.073 0,0"
         style="fill:#231f20;fill-opacity:1;fill-rule:nonzero;stroke:none"
         transform="matrix(1.3333333,0,0,-1.3333333,72.886,34.6548)"
         clip-path="url(#clipPath214)" />
    </g>
    <g
       id="g214"
       transform="matrix(0.26458333,0,0,0.26458333,47.590574,-0.59933547)">
      <path
         id="path215"
         d="M 0,0 C -0.576,-0.071 -1.087,0.074 -1.122,0.318 -1.154,0.543 -0.715,0.774 -0.109,0.85 0.426,0.918 0.745,0.797 0.784,0.511 0.817,0.261 0.514,0.064 0,0"
         style="fill:#231f20;fill-opacity:1;fill-rule:nonzero;stroke:none"
         transform="matrix(1.3333333,0,0,-1.3333333,101.7732,44.634933)"
         clip-path="url(#clipPath216)" />
    </g>
    <g
       id="g216"
       transform="matrix(0.26458333,0,0,0.26458333,47.590574,-0.59933547)">
      <path
         id="path217"
         d="m 0,0 c 0.021,-0.218 -0.353,-0.445 -0.826,-0.501 -0.455,-0.054 -0.895,0.088 -0.917,0.296 -0.021,0.202 0.378,0.433 0.842,0.488 C -0.424,0.339 -0.021,0.212 0,0"
         style="fill:#231f20;fill-opacity:1;fill-rule:nonzero;stroke:none"
         transform="matrix(1.3333333,0,0,-1.3333333,98.894533,35.118)"
         clip-path="url(#clipPath218)" />
    </g>
    <g
       id="g218"
       transform="matrix(0.26458333,0,0,0.26458333,47.590574,-0.59933547)">
      <path
         id="path219"
         d="M 0,0 C -0.481,-0.056 -0.899,0.072 -0.909,0.28 -0.919,0.492 -0.516,0.736 -0.07,0.786 0.388,0.837 0.813,0.696 0.836,0.483 0.859,0.275 0.481,0.056 0,0"
         style="fill:#231f20;fill-opacity:1;fill-rule:nonzero;stroke:none"
         transform="matrix(1.3333333,0,0,-1.3333333,76.8212,43.4188)"
         clip-path="url(#clipPath220)" />
    </g>
    <g
       id="g220"
       transform="matrix(0.26458333,0,0,0.26458333,47.590574,-0.59933547)">
      <path
         id="path221"
         d="m 0,0 c 0.026,-0.212 -0.278,-0.413 -0.703,-0.464 -0.478,-0.057 -1.026,0.074 -1.035,0.247 -0.011,0.208 0.444,0.486 0.883,0.539 C -0.408,0.376 -0.029,0.233 0,0"
         style="fill:#231f20;fill-opacity:1;fill-rule:nonzero;stroke:none"
         transform="matrix(1.3333333,0,0,-1.3333333,75.9288,34.880933)"
         clip-path="url(#clipPath222)" />
    </g>
    <g
       id="g222"
       transform="matrix(0.26458333,0,0,0.26458333,47.590574,-0.59933547)">
      <path
         id="path223"
         d="M 0,0 C 0.468,0.053 0.985,-0.078 0.996,-0.253 1.009,-0.458 0.542,-0.741 0.111,-0.791 -0.328,-0.841 -0.721,-0.69 -0.742,-0.463 -0.762,-0.247 -0.448,-0.051 0,0"
         style="fill:#231f20;fill-opacity:1;fill-rule:nonzero;stroke:none"
         transform="matrix(1.3333333,0,0,-1.3333333,99.5696,42.6612)"
         clip-path="url(#clipPath224)" />
    </g>
    <g
       id="g224"
       transform="matrix(0.26458333,0,0,0.26458333,47.590574,-0.59933547)">
      <path
         id="path225"
         d="m 0,0 c -0.396,-0.049 -0.742,0.051 -0.771,0.223 -0.03,0.173 0.294,0.37 0.691,0.419 C 0.3,0.689 0.628,0.585 0.651,0.41 0.676,0.224 0.399,0.049 0,0"
         style="fill:#231f20;fill-opacity:1;fill-rule:nonzero;stroke:none"
         transform="matrix(1.3333333,0,0,-1.3333333,95.156533,36.2416)"
         clip-path="url(#clipPath226)" />
    </g>
    <g
       id="g226"
       transform="matrix(0.26458333,0,0,0.26458333,47.590574,-0.59933547)">
      <path
         id="path227"
         d="M 0,0 C -0.022,0.189 0.251,0.359 0.655,0.406 1.064,0.453 1.382,0.356 1.405,0.176 1.429,-0.008 1.125,-0.19 0.716,-0.237 0.333,-0.281 0.021,-0.178 0,0"
         style="fill:#231f20;fill-opacity:1;fill-rule:nonzero;stroke:none"
         transform="matrix(1.3333333,0,0,-1.3333333,78.499333,42.4636)"
         clip-path="url(#clipPath228)" />
    </g>
    <g
       id="g228"
       transform="matrix(0.26458333,0,0,0.26458333,47.590574,-0.59933547)">
      <path
         id="path229"
         d="M 0,0 C 0.016,-0.164 -0.27,-0.313 -0.699,-0.365 -1.103,-0.413 -1.404,-0.329 -1.42,-0.164 -1.439,0.02 -1.099,0.237 -0.717,0.284 -0.348,0.33 -0.02,0.2 0,0"
         style="fill:#231f20;fill-opacity:1;fill-rule:nonzero;stroke:none"
         transform="matrix(1.3333333,0,0,-1.3333333,101.0504,41.8548)"
         clip-path="url(#clipPath230)" />
    </g>
    <g
       id="g230"
       transform="matrix(0.26458333,0,0,0.26458333,47.590574,-0.59933547)">
      <path
         id="path231"
         d="M 0,0 C 0.426,0.052 0.688,-0.02 0.71,-0.196 0.734,-0.387 0.417,-0.589 0.017,-0.638 -0.363,-0.684 -0.675,-0.562 -0.696,-0.358 -0.714,-0.19 -0.453,-0.056 0,0"
         style="fill:#231f20;fill-opacity:1;fill-rule:nonzero;stroke:none"
         transform="matrix(1.3333333,0,0,-1.3333333,74.3992,35.830933)"
         clip-path="url(#clipPath232)" />
    </g>
    <g
       id="g232"
       transform="matrix(0.26458333,0,0,0.26458333,47.590574,-0.59933547)">
      <path
         id="path233"
         d="m 0,0 c 0.326,0.041 0.584,-0.034 0.611,-0.178 0.026,-0.14 -0.23,-0.302 -0.54,-0.34 -0.322,-0.04 -0.605,0.045 -0.627,0.188 C -0.579,-0.185 -0.339,-0.042 0,0"
         style="fill:#231f20;fill-opacity:1;fill-rule:nonzero;stroke:none"
         transform="matrix(1.3333333,0,0,-1.3333333,92.751467,36.136667)"
         clip-path="url(#clipPath234)" />
    </g>
    <g
       id="g234"
       transform="matrix(0.26458333,0,0,0.26458333,47.590574,-0.59933547)">
      <path
         id="path235"
         d="m 0,0 c -0.326,-0.04 -0.58,0.026 -0.598,0.155 -0.02,0.144 0.254,0.331 0.53,0.363 C 0.244,0.554 0.585,0.446 0.592,0.31 0.598,0.178 0.337,0.041 0,0"
         style="fill:#231f20;fill-opacity:1;fill-rule:nonzero;stroke:none"
         transform="matrix(1.3333333,0,0,-1.3333333,72.490933,37.441467)"
         clip-path="url(#clipPath236)" />
    </g>
    <g
       id="g236"
       transform="matrix(0.26458333,0,0,0.26458333,47.590574,-0.59933547)">
      <path
         id="path237"
         d="M 0,0 C -0.309,-0.037 -0.581,0.049 -0.598,0.189 -0.615,0.333 -0.352,0.495 -0.047,0.527 0.267,0.561 0.561,0.467 0.575,0.33 0.589,0.189 0.329,0.039 0,0"
         style="fill:#231f20;fill-opacity:1;fill-rule:nonzero;stroke:none"
         transform="matrix(1.3333333,0,0,-1.3333333,81.752,42.033067)"
         clip-path="url(#clipPath238)" />
    </g>
    <g
       id="g238"
       transform="matrix(0.26458333,0,0,0.26458333,47.590574,-0.59933547)">
      <path
         id="path239"
         d="m 0,0 c 0.015,-0.151 -0.243,-0.32 -0.54,-0.353 -0.309,-0.034 -0.629,0.067 -0.641,0.202 -0.012,0.134 0.271,0.283 0.605,0.32 C -0.261,0.203 -0.013,0.131 0,0"
         style="fill:#231f20;fill-opacity:1;fill-rule:nonzero;stroke:none"
         transform="matrix(1.3333333,0,0,-1.3333333,102.8152,40.937733)"
         clip-path="url(#clipPath240)" />
    </g>
    <g
       id="g240"
       transform="matrix(0.26458333,0,0,0.26458333,47.590574,-0.59933547)">
      <path
         id="path241"
         d="M 0,0 C -0.017,0.129 0.171,0.243 0.458,0.277 0.703,0.306 0.928,0.237 0.951,0.126 0.974,0.016 0.761,-0.124 0.52,-0.158 0.257,-0.194 0.016,-0.122 0,0"
         style="fill:#231f20;fill-opacity:1;fill-rule:nonzero;stroke:none"
         transform="matrix(1.3333333,0,0,-1.3333333,90.3428,37.2208)"
         clip-path="url(#clipPath242)" />
    </g>
    <g
       id="g242"
       transform="matrix(0.26458333,0,0,0.26458333,47.590574,-0.59933547)">
      <path
         id="path243"
         d="M 0,0 C 0.278,0.032 0.499,-0.041 0.503,-0.165 0.506,-0.286 0.309,-0.401 0.042,-0.433 -0.229,-0.465 -0.43,-0.392 -0.436,-0.258 -0.442,-0.139 -0.257,-0.029 0,0"
         style="fill:#231f20;fill-opacity:1;fill-rule:nonzero;stroke:none"
         transform="matrix(1.3333333,0,0,-1.3333333,83.512933,40.735333)"
         clip-path="url(#clipPath244)" />
    </g>
    <g
       id="g244"
       transform="matrix(0.26458333,0,0,0.26458333,47.590574,-0.59933547)">
      <path
         id="path245"
         d="M 0,0 C -0.013,0.128 0.151,0.23 0.415,0.258 0.676,0.286 0.937,0.209 0.949,0.1 0.961,-0.008 0.722,-0.139 0.449,-0.173 0.184,-0.206 0.015,-0.141 0,0"
         style="fill:#231f20;fill-opacity:1;fill-rule:nonzero;stroke:none"
         transform="matrix(1.3333333,0,0,-1.3333333,103.49613,41.049867)"
         clip-path="url(#clipPath246)" />
    </g>
    <g
       id="g246"
       transform="matrix(0.26458333,0,0,0.26458333,47.590574,-0.59933547)">
      <path
         id="path247"
         d="M 0,0 C -0.289,-0.034 -0.508,0.029 -0.523,0.152 -0.537,0.265 -0.318,0.391 -0.044,0.427 0.199,0.459 0.416,0.381 0.428,0.257 0.44,0.129 0.279,0.033 0,0"
         style="fill:#231f20;fill-opacity:1;fill-rule:nonzero;stroke:none"
         transform="matrix(1.3333333,0,0,-1.3333333,70.478133,37.449867)"
         clip-path="url(#clipPath248)" />
    </g>
    <g
       id="g248"
       transform="matrix(0.26458333,0,0,0.26458333,47.590574,-0.59933547)">
      <path
         id="path249"
         d="M 0,0 C 0.009,-0.111 -0.148,-0.204 -0.39,-0.231 -0.647,-0.26 -0.873,-0.2 -0.88,-0.1 -0.889,0.006 -0.665,0.14 -0.435,0.166 -0.206,0.192 -0.009,0.117 0,0"
         style="fill:#231f20;fill-opacity:1;fill-rule:nonzero;stroke:none"
         transform="matrix(1.3333333,0,0,-1.3333333,105.9144,41.517733)"
         clip-path="url(#clipPath250)" />
    </g>
    <g
       id="g250"
       transform="matrix(0.26458333,0,0,0.26458333,47.590574,-0.59933547)">
      <path
         id="path251"
         d="M 0,0 C 0.246,0.028 0.488,-0.037 0.497,-0.134 0.508,-0.236 0.275,-0.378 0.054,-0.403 -0.169,-0.428 -0.379,-0.349 -0.387,-0.237 -0.394,-0.13 -0.223,-0.025 0,0"
         style="fill:#231f20;fill-opacity:1;fill-rule:nonzero;stroke:none"
         transform="matrix(1.3333333,0,0,-1.3333333,69.116133,36.332533)"
         clip-path="url(#clipPath252)" />
    </g>
    <g
       id="g252"
       transform="matrix(0.26458333,0,0,0.26458333,47.590574,-0.59933547)">
      <path
         id="path253"
         d="M 0,0 C 0.238,0.026 0.444,-0.047 0.446,-0.158 0.449,-0.266 0.26,-0.374 0.024,-0.398 -0.233,-0.426 -0.416,-0.361 -0.419,-0.242 -0.421,-0.136 -0.228,-0.025 0,0"
         style="fill:#231f20;fill-opacity:1;fill-rule:nonzero;stroke:none"
         transform="matrix(1.3333333,0,0,-1.3333333,89.349067,37.588)"
         clip-path="url(#clipPath254)" />
    </g>
    <g
       id="g254"
       transform="matrix(0.26458333,0,0,0.26458333,47.590574,-0.59933547)">
      <path
         id="path255"
         d="M 0,0 C -0.249,-0.031 -0.463,0.034 -0.469,0.143 -0.476,0.25 -0.292,0.357 -0.054,0.386 0.205,0.417 0.405,0.356 0.413,0.243 0.42,0.136 0.241,0.03 0,0"
         style="fill:#231f20;fill-opacity:1;fill-rule:nonzero;stroke:none"
         transform="matrix(1.3333333,0,0,-1.3333333,85.189467,40.566)"
         clip-path="url(#clipPath256)" />
    </g>
    <g
       id="g256"
       transform="matrix(0.26458333,0,0,0.26458333,47.590574,-0.59933547)">
      <path
         id="path257"
         d="M 0,0 C -0.195,-0.026 -0.372,0.028 -0.386,0.119 -0.401,0.215 -0.268,0.298 -0.053,0.325 0.156,0.352 0.328,0.303 0.341,0.214 0.353,0.128 0.189,0.026 0,0"
         style="fill:#231f20;fill-opacity:1;fill-rule:nonzero;stroke:none"
         transform="matrix(1.3333333,0,0,-1.3333333,86.467733,39.8496)"
         clip-path="url(#clipPath258)" />
    </g>
    <g
       id="g258"
       transform="matrix(0.26458333,0,0,0.26458333,47.590574,-0.59933547)">
      <path
         id="path259"
         d="M 0,0 C 0.007,-0.089 -0.153,-0.181 -0.355,-0.204 -0.569,-0.228 -0.72,-0.18 -0.728,-0.083 -0.736,0.012 -0.597,0.094 -0.382,0.12 -0.181,0.144 -0.008,0.089 0,0"
         style="fill:#231f20;fill-opacity:1;fill-rule:nonzero;stroke:none"
         transform="matrix(1.3333333,0,0,-1.3333333,88.5768,38.4784)"
         clip-path="url(#clipPath260)" />
    </g>
    <g
       id="g260"
       transform="matrix(0.26458333,0,0,0.26458333,47.590574,-0.59933547)">
      <path
         id="path261"
         d="m 0,0 c 0.017,-0.097 -0.093,-0.163 -0.321,-0.195 -0.216,-0.03 -0.375,0.008 -0.395,0.094 -0.021,0.088 0.15,0.201 0.342,0.227 C -0.177,0.152 -0.017,0.098 0,0"
         style="fill:#231f20;fill-opacity:1;fill-rule:nonzero;stroke:none"
         transform="matrix(1.3333333,0,0,-1.3333333,69.904133,35.738933)"
         clip-path="url(#clipPath262)" />
    </g>
    <g
       id="g262"
       transform="matrix(0.26458333,0,0,0.26458333,47.590574,-0.59933547)">
      <path
         id="path263"
         d="M 0,0 C 0.228,0.028 0.362,-0.008 0.374,-0.101 0.387,-0.195 0.22,-0.299 0.02,-0.321 -0.168,-0.342 -0.334,-0.281 -0.343,-0.188 -0.353,-0.095 -0.23,-0.029 0,0"
         style="fill:#231f20;fill-opacity:1;fill-rule:nonzero;stroke:none"
         transform="matrix(1.3333333,0,0,-1.3333333,105.06173,42.1668)"
         clip-path="url(#clipPath264)" />
    </g>
  </g>
</svg>
