<?xml version="1.0" encoding="utf-8"?>
<!-- Generator: Adobe Illustrator 14.0.0, SVG Export Plug-In . SVG Version: 6.00 Build 43363)  -->
<!DOCTYPE svg PUBLIC "-//W3C//DTD SVG 1.1//EN" "http://www.w3.org/Graphics/SVG/1.1/DTD/svg11.dtd">
<svg version="1.1" id="Layer_1" xmlns="http://www.w3.org/2000/svg" xmlns:xlink="http://www.w3.org/1999/xlink" x="0px" y="0px"
	 width="900px" height="900px" viewBox="0 0 468 468" enable-background="new 0 0 468 468" xml:space="preserve">
<g transform="translate(0,468) scale(0.365625,-0.365625)">
	<path d="M139.999,910V560h90h90v-40v-40h310h310v40v40h90h90v350v350h-490h-490V910z M182.999,1228l5-13L199,1230l10.999,15l10-15
		l10-15l10,15l10,15l10-15l10-15l10,15l10,15l10-15l10-15l10,15l10,15l10-15l10-15l10,15l10,15l10-15l10-15l10,15l10,15l10-15l10-15
		l10,15l10,15l10-15l10-15l10,15l10,15l10-15l10-15l10,15l10,15l10-15l10-15l10,15l10,15l10-15l10-15l10,15l10,15l10-15l10-15l10,15
		l10,15l10-15l10-15l10,15l10,15l10-15l10-15l10,15l10,15l10-15l10-15l10,15l10,15l10-15l10-15l10,15l10,15l10-15l10-15l10,15l10,15
		l10-15l10-15l10,15l10,15l10-15l10-15l10,15l10,15l10-15l10-15l10,15l10,15l10-15l10-15l10,15l10,15l10-15l10-15l10,15l10,15l10-15
		l10-15l9.001,15l10,14l8-6.999l7-8.001l-14.001-10l-15-9l15-10l15-10l-15-10l-15-10l15-10l15-10l-15-10l-15-10l15-10l15-10l-15-10
		l-15-10l15-10l15-10l-15-10l-15-10l15-10l15-10l-15-10l-15-10l15-10l15-10l-15-10l-15-10l15-10l15-10l-15-10l-15-10l15-10l15-10
		l-15-10l-15-10l15-10l15-10l-15-10l-15-10l15-10l15-10l-15-10l-15-10l15-10l15-10l-15-10l-15-10l15-10l15-10l-15-10l-15-10l15-10
		l15-10l-15-10l-15-10l15-10l15-10l-15-10l-15-10l15-10l15-10l-15-10l-15-10l15-9.001l14.001-10l-7-8l-8-7L1079,590l-9.001,15
		l-10-15l-10-15l-10,15l-10,15l-10-15l-10-15l-10,15l-10,15l-10-15l-10-15l-10,15l-10,15l-10-15l-10-15l-10,15l-10,15l-10-15l-10-15
		l-10,15l-10,15l-10-15l-10-15l-10,15l-10,15l-10-15l-10-15l-10,15l-10,15l-10-15l-10-15l-10,15l-10,15l-10-15l-10-15l-10,15l-10,15
		l-10-15l-10-15l-10,15l-10,15l-10-15l-10-15l-10,15l-10,15l-10-15l-10-15l-10,15l-10,15l-10-15l-10-15l-10,15l-10,15l-10-15l-10-15
		l-10,15l-10,15l-10-15l-10-15l-10,15l-10,15l-10-15l-10-15l-10,15l-10,15l-10-15l-10-15l-10,15l-10,15l-10-15l-10-15l-10,15l-10,15
		l-10-15l-10-15l-10,15l-10,15l-10-15l-10-15l-10,15l-10,15l-10-15l-10-15l-10,15l-10,15l-10-15l-10-15l-10,15l-10,15l-8.998-15
		l-10-14.001l-8.002,7l-6.998,8l13.998,10l15,9.001l-15,10l-15,10l15,10l15,10l-15,10l-15,10l15,10l15,10l-15,10l-15,10l15,10l15,10
		l-15,10l-15,10l15,10l15,10l-15,10l-15,10l15,10l15,10l-15,10l-15,10l15,10l15,10l-15,10l-15,10l15,10l15,10l-15,10l-15,10l15,10
		l15,10l-15,10l-15,10l15,10l15,10l-15,10l-15,10l15,10l15,10l-15,10l-15,10l15,10l15,10l-15,10l-15,10l15,10l15,10l-15,10l-15,10
		l15,10l15,10l-15,10l-15,10l15,10l15,10l-15,10l-15,10l15,11l15,11l-12.001,5l-12.999,5v9v9H169h8.998L182.999,1228z
		 M802.999,547.999l5-12.999L819,550l10.999,15l10-15l10-15L859,550l10,14.001l8-7.001l7-7.999l-14.001-10l-15-9.001l15-9.001
		l14.001-10l-7-7.999l-8-7.001L859,510l-9.001,15l-10-15l-10-15l-10,15l-10,15l-8.998-15l-10-14.001l-8.002,7.001l-6.998,7.999
		l13.998,10l15,11.002l-12.001,5l-12.999,5v8.998V560H789h8.998L802.999,547.999z"/>
	<path d="M191.001,1204L177,1188l14.001-9l13.998-9l-15-10l-15-10l15-10l15-10l-15-10l-15-10l15-10l15-10l-15-10l-15-10l15-10l15-10
		l-15-10l-15-10l15-10l15-10l-15-10l-15-10l15-10l15-10l-15-10l-15-10l15-10l15-10l-15-10l-15-10l15-10l15-10l-15-10l-15-10l15-10
		l15-10l-15-10l-15-10l15-10l15-10l-15-10l-15-10l15-10l15-10l-15-10l-15-10l15-10l15-10l-15-10l-15-10l15-10l15-10l-15-10l-15-10
		l15-10l15-10l-13.998-9L177,632L194,614.001L212,597l9.001,13.998L229.999,625l10-15l10-15l10,15l10,15l10-15l10-15l10,15l10,15
		l10-15l10-15l10,15l10,15l10-15l10-15l10,15l10,15l10-15l10-15l10,15l10,15l10-15l10-15l10,15l10,15l10-15l10-15l10,15l10,15l10-15
		l10-15l10,15l10,15l10-15l10-15l10,15l10,15l10-15l10-15l10,15l10,15l10-15l10-15l10,15l10,15l10-15l10-15l10,15l10,15l10-15l10-15
		l10,15l10,15l10-15l10-15l10,15l10,15l10-15l10-15l10,15l10,15l10-15l10-15l10,15l10,15l10-15l10-15l10,15l10,15l10-15l10-15l10,15
		l10,15l10-15l10-15l10,15l10,15l10-15l10-15l10,15l10,15l9.001-14.001l8.998-13.998l18,17.001l17,17.999L1069,641l-14.001,9l15,10
		l15,10l-15,10l-15,10l15,10l15,10l-15,10l-15,10l15,10l15,10l-15,10l-15,10l15,10l15,10l-15,10l-15,10l15,10l15,10l-15,10l-15,10
		l15,10l15,10l-15,10l-15,10l15,10l15,10l-15,10l-15,10l15,10l15,10l-15,10l-15,10l15,10l15,10l-15,10l-15,10l15,10l15,10l-15,10
		l-15,10l15,10l15,10l-15,10l-15,10l15,10l15,10l-15,10l-15,10l15,10l15,10l-15,10l-15,10l14.001,9l13.998,9l-17,18.001l-18,16.999
		l-8.998-14l-9.001-14l-10,15l-10,15l-10-15l-10-15l-10,15l-10,15l-10-15l-10-15l-10,15l-10,15l-10-15l-10-15l-10,15l-10,15l-10-15
		l-10-15l-10,15l-10,15l-10-15l-10-15l-10,15l-10,15l-10-15l-10-15l-10,15l-10,15l-10-15l-10-15l-10,15l-10,15l-10-15l-10-15l-10,15
		l-10,15l-10-15l-10-15l-10,15l-10,15l-10-15l-10-15l-10,15l-10,15l-10-15l-10-15l-10,15l-10,15l-10-15l-10-15l-10,15l-10,15l-10-15
		l-10-15l-10,15l-10,15l-10-15l-10-15l-10,15l-10,15l-10-15l-10-15l-10,15l-10,15l-10-15l-10-15l-10,15l-10,15l-10-15l-10-15l-10,15
		l-10,15l-10-15l-10-15l-10,15l-10,15l-10-15l-10-15l-10,15l-10,15L239,1210l-11.002-15l-5,13l-5,12H212l-7.001-1L191.001,1204z
		 M219.999,1190v-10H629h408.998l5,13l4.001,12l8.998-9l9.001-9l-12-4.001l-13-5V910V642l13-5l12-4.001l-9.001-8.998L1047,615
		l-4.001,12.999l-5,12.001H629.999H222l-5-12.001L212.999,615L204,624.001l-9.001,8.998L207.999,637l12.001,5v269v269h-10h-10v10v10
		h10h10V1190z"/>
	<path d="M252.999,1145l-12.999-14V910V689L254,674l15-14h360.999h360.999l15,14l14.001,15v221v221l-14.001,15l-15,14h-363
		l-362.999-1L252.999,1145z M559.999,1060v-60h200h200V860V720h-230h-230v80v80h-110h-110v120v120h140h140V1060z M339.999,730v-30
		h-30h-30v30v30h30h30V730z M419.999,730v-30h-30h-30v30v30h30h30V730z"/>
	<path d="M299.999,1090v-10h120h120v10v10h-120h-120V1090z"/>
	<path d="M299.999,980v-80h120h120v80v80h-120h-120V980z"/>
	<path d="M559.999,970v-10h190h190v10v10h-190h-190V970z"/>
	<path d="M559.999,931v-9l12.999-5L584.999,913L551.001,881l-35-33.001l15-9l13.998-9l-15-10l-15-10l15-10l15-10l-13.998-9L517,772
		L534,754L552,737l9.001,14l8.998,14l10-15l10-15l10,15l10,15l10-15l10-15l10,15l10,15l10-15l10-15l10,15l10,15l10-15l10-15l10,15
		l10,15l10-15l10-15l10,15l10,15l10-15l10-15l10,15l10,15l10-15l10-15l10,15l10,15l10-15l10-15l10,15l10,15L899,751l8.998-14
		l18,16.999l17,18.001L929,781l-14.001,9l15,10l15,10l-15,10l-15,10l15,10l15,10l-15,10l-15,10l15,10l15,10l-15,10l-15,10l15,9
		L944,929L937,937L929,944l-10-14l-9.001-15l-10,15l-10,15l-10-15l-10-15l-10,15l-10,15l-10-15l-10-15l-10,15l-10,15l-10-15l-10-15
		l-10,15l-10,15l-10-15l-10-15l-10,15l-10,15l-10-15l-10-15l-10,15l-10,15l-10-15l-10-15l-10,15l-10,15l-10-15l-10-15l-10,15l-10,15
		L599,930l-11.002-15l-5,13l-5,12H569h-9.001V931z M622.999,908l5-13L639,910l10.999,15l10-15l10-15l10,15l10,15l10-15l10-15l10,15
		l10,15l10-15l10-15l10,15l10,15l10-15l10-15l10,15l10,15l10-15l10-15l10,15l10,15l10-15l10-15L879,909l8.998,14l18-16.999
		l17-18.001L909,879l-14.001-9l15-10l15-10l-15-10l-15-10l15-10l15-10l-15-10l-15-10l15-9L924,771L917,763L909,756l-10,14l-9.001,15
		l-10-15l-10-15l-10,15l-10,15l-10-15l-10-15l-10,15l-10,15l-10-15l-10-15l-10,15l-10,15l-10-15l-10-15l-10,15l-10,15l-10-15l-10-15
		l-10,15l-10,15l-10-15l-10-15l-10,15l-10,15l-10-15l-10-15l-10,15l-10,15l-10-15l-10-15l-10,15l-10,15l-8.998-15l-10-14
		L542.999,763L536.001,771l13.998,10l15,9l-15,10l-15,10l15,10l15,10l-13.998,9L537,848l34.001,35l33.998,36h7l5.999,1L622.999,908z
		"/>
	<path d="M581.001,873L557,848l14.001-9l13.998-9l-13.998-9L557,812L574,794L592,777l9.001,14l8.998,14l10-15l10-15l10,15l10,15
		l10-15l10-15l10,15l10,15l10-15l10-15l10,15l10,15l10-15l10-15l10,15l10,15l10-15l10-15l10,15l10,15l10-15l10-15l10,15l10,15
		L859,791l8.998-14l18,16.999l17,18.001L889,821l-14.001,9l15,10l15,10l-15,10l-15,10l15,9L904,889L897,897L889,904l-10-14
		l-9.001-15l-10,15l-10,15l-10-15l-10-15l-10,15l-10,15l-10-15l-10-15l-10,15l-10,15l-10-15l-10-15l-10,15l-10,15l-10-15l-10-15
		l-10,15l-10,15l-10-15l-10-15l-10,15l-10,15L639,890l-11.002-15l-5,13l-5,12L612,899h-7L581.001,873z M622.999,868l5-13L639,870
		l10.999,15l10-15l10-15l10,15l10,15l10-15l10-15l10,15l10,15l10-15l10-15l10,15l10,15l10-15l10-15l10,15l10,15l10-15l10-15L839,869
		l8.998,14l18-16.999l17-18.001L869,839l-14.001-9l15-9L884,811L877,803L869,796l-10,14l-9.001,15l-10-15l-10-15l-10,15l-10,15
		l-10-15l-10-15l-10,15l-10,15l-10-15l-10-15l-10,15l-10,15l-10-15l-10-15l-10,15l-10,15l-10-15l-10-15l-10,15l-10,15l-10-15l-10-15
		l-10,15l-10,15l-8.998-15l-10-14L582.999,803L576.001,811l13.998,10l15,9l-13.998,9L577,848l14.001,16l13.998,15l7,1h5.999
		L622.999,868z"/>
	<path d="M599.999,854v-5l16.002-16L632,817l9.001,14l8.998,14l10-15l10-15l10,15l10,15l10-15l10-15l10,15l10,15l10-15l10-15l10,15
		l10,15l10-15l10-15l10,15l10,15L819,831l8.998-14L844.999,834l17,17L855.998,858L849,864l-10-14l-9.001-15l-10,15l-10,15l-10-15
		l-10-15l-10,15l-10,15l-10-15l-10-15l-10,15l-10,15l-10-15l-10-15l-10,15l-10,15l-10-15l-10-15l-10,15l-10,15L639,850l-11.002-15
		l-5,13l-5,12H609h-9.001V854z"/>
	<path d="M299.999,730v-10h10h10v10v10h-10h-10V730z"/>
	<path d="M379.999,730v-10h10h10v10v10h-10h-10V730z"/>
	<path d="M819.999,530v-10h10h10v10v10h-10h-10V530z"/>
	<path d="M132.999,445l-12.999-14.001V415v-15h-10h-10v-20v-20h-10h-10v-15.999v-16.002l-30-27.999l-30-28v-26.002V220h6.002h5
		L47,235.999L62.999,252l-12.999,8L37,267.999L84,315l47.001,47l6.998-7l6.002-5.999L131.001,340L117,332L134,314.001L152,297
		l9.001,13.998L169.999,325l10-15l10-15l10,15l10,15l10-15l10-15l10,15l10,15L259,310.999L267.999,297l18.002,17.001L302.999,332
		L289,340l-12.999,9.001L284,357l8.998,8L297,352.999L302,340h9.001h8.998v30v30h10h10v-29.001V342l-12.001-4.001l-12.999-5
		L332.999,315L352,297l10,13.998L372,325l5-12.001L382,300h9.001h8.998v29.001v28.998l12.999,5l12.001,5l-15,11.002l-13.998,10
		l6.998,7.999l8.002,7.001l8.998-13.002L427.999,377l18.002,17.001L462.999,412L449,420l-12.999,9.001l6.998,7.999l8.002,7.001
		l10-14.001l8.998-15L479,430l10,14.001L497,437l7.001-7.999l-14.001-10l-15-9.001l15-9.001l14.001-10L497,382.999L489,375.999
		l-9.001,13.002l-8,13.998L454,385.999L437,367.999L451.001,360L464,350.999l-7.999-7.999L447,335l-4.001,12.999l-5,12.001H429
		h-9.001v-30v-30H429h8.998l5,12.999l5,12.001l10-14.001l10-13.998l18.002,17.001L502.999,332L489,340l-12.999,9.001L484,357
		l8.998,8L497,352.999L502,340h9.001h8.998v30v30h10h10v-29.001V342l-12.001-4.001l-12.999-5L532.999,315L552,297l10,13.998L572,325
		l5-12.001L582,300h9.001h8.998v30v30h10h10v-30v-30h6.002h5L647,315.999L662.999,332L649,340l-12.999,9.001L644,357l8.998,8
		L657,352.999L662,340h9.001h8.998v30v30h10h10v-29.001V342l-12.001-4.001l-12.999-5L692.999,315L712,297l10,13.998L732,325
		l5-12.001L742,300h9.001h8.998v29.001v28.998l12.999,5l12.001,5l-15,11.002l-13.998,10l6.998,7.999l8.002,7.001l8.998-13.002
		L787.999,377l18.002,17.001L822.999,412L809,420l-12.999,9.001l6.998,7.999l8.002,7.001L820.998,430l9.001-15L839,430l10,14.001
		l8-7.001l7-7.999l-14.001-10l-15-9.001l15-9.001l14.001-10l-7-7.999l-8-7.001l-9.001,13.002l-8,13.998l-18-17.001l-17-17.999
		L811.001,360L824,350.999l-8.002-7.999L807,335l-4.001,12.999l-5,12.001H789h-9.001v-30v-30H789h8.998l5,12.999l5,12.001l10-14.001
		l10-13.998l18,17.001l17,17.999L849,340l-13.002,9.001L844,357l8.998,8L857,352.999L862,340h8.998h9.001v30v30h10h10v-29.001V342
		l-12-4.001l-13-5l18-17.999L912,297l10,13.998L932,325l5-12.001L942,300h8.998h9.001v29.001v28.998l13,5l12,5l-15,11.002
		l-14.001,10l7,7.999l8,7.001l9.001-13.002l8-13.998l18,17.001l17,17.999L1009,420l-13.002,9.001l7,7.999l8,7.001l10-14.001
		l9.001-15l9.001,15l10,14.001l8-7.001l7-7.999l-14.001-10l-15-9.001l15-9.001l14.001-10l-7-7.999l-8-7.001l-9.001,13.002
		L1032,402.999l-18-17.001l-17-17.999l13.998-7.999l13.002-9.001l-8.002-7.999L1007,335l-4.001,12.999l-5,12.001H989h-9.001v-30v-30
		H989h8.998l5,12.999l5,12.001l10-14.001l10-13.998l18,17.001l17,17.999L1049,340l-13.002,9.001l7,7.999l8,7.001l9.001-13.002
		l8-13.998l18,17.001l17,17.999L1089,380.999L1074.999,390l15,10l15,10l-15,9.001l-14.001,10l6.002,6.998l7,6.002l26.998-27
		l27-27.001l-13-7.999L1117,372l52.999-52l53-52.001l-13-7.999L1197,252l15.999-16.002L1229,220h5h5.999v25.999V272l-30,28
		l-30,27.999v16.002V360h-10h-10v20v20h-10h-10v15.999v15l-14.001,15l-15,14.001h-483l-482.999-0.999L132.999,445z M179.999,430.999
		V422l-12.001-5l-12.999-5l15-11.002l14.001-10L177,382.999L169,375.999L159,390l-9.001,15l-8.998-15l-10-14.001L124.999,382
		l-7.001,7.001l23.002,25l23.998,25h7.999l7.001,0.999V430.999z M219.999,430v-10h-10h-10v10v10h10h10V430z M262.999,427.999
		l5-12.999L279,430l10,14.001L297,437l7.001-7.999l-14.001-10l-15-9.001l15-9.001l14.001-10L297,382.999L289,375.999l-9.001,13.002
		L272,402.999L254,385.999L237,367.999L251.001,360L264,350.999L257,342.999L249,335.999L239,350l-9.001,15l-8.998-15l-10-14.001
		l-8.002,7.001l-6.998,7.999l13.998,10l15,9.001l-15,9.001l-13.998,10l6.998,7.999l8.002,7.001l8.998-13.002L227.999,377L247,395
		l17.999,17.999l-12.999,5L239.999,422v8.998V440H249h8.998L262.999,427.999z M339.999,430v-10h-10h-10v10v10h10h10V430z
		 M379.999,410v-30h-10h-10v30v30h10h10V410z M419.999,430v-10h-10h-10v10v10h10h10V430z M539.999,430v-10h-10h-10v10v10h10h10V430z
		 M579.999,410v-30h-10h-10v30v30h10h10V410z M622.999,427.999l5-12.999L639,430l10,14.001l8-7.001l7-7.999l-14.001-10l-15-9.001
		l15-9.001l14.001-10l-7-7.999l-8-7.001L639,390l-9.001,15l-8.998-15l-10-14.001l-8.002,7.001l-6.998,7.999l13.998,10l15,11.002
		l-12.001,5l-12.999,5v8.998V440H609h8.998L622.999,427.999z M699.999,430v-10h-10h-10v10v10h10h10V430z M739.999,410v-30h-10h-10
		v30v30h10h10V410z M779.999,430v-10h-10h-10v10v10h10h10V430z M899.999,430v-10h-10h-10v10v10h10h10V430z M939.999,410v-30h-10h-10
		v30v30h10h10V410z M979.999,430v-10h-10h-10v10v10h10h10V430z M179.999,350v-10h-10h-10v10v10h10h10V350z M379.999,350v-10h-10h-10
		v10v10h10h10V350z M579.999,350v-10h-10h-10v10v10h10h10V350z M739.999,350v-10h-10h-10v10v10h10h10V350z M939.999,350v-10h-10h-10
		v10v10h10h10V350z"/>
	<path d="M1099.999,390v-10h10h10v10v10h-10h-10V390z"/>
	<path d="M1067,317.999l-39.001-42.001l-8.998,15L1009.999,305l-10-15l-10-15l-10,15l-10,15l-10-15l-10-15l-10,15l-10,15l-9.001-15
		l-10-14.001l-20,23.002l-20.999,23.998L849,299.001l-20-23.002L819,290l-9.001,15l-10-15l-10-15l-10,15l-10,15l-10-15l-10-15
		l-10,15l-10,15l-8.998-15l-10-14.001l-20,23.002l-21.002,23.998L649,299.001l-20-23.002L619,290l-9.001,15l-10-15l-10-15l-10,15
		l-10,15l-8.998-15l-10-14.001l-20,23.002l-21.002,23.998L489,299.001l-20-23.002L459,290l-9.001,15l-10-15l-10-15l-10,15l-10,15
		l-10-15l-10-15l-10,15l-10,15l-8.998-15l-10-14.001l-20,23.002l-21.002,23.998L289,299.001l-20-23.002L259,290l-9.001,15l-10-15
		l-10-15l-10,15l-10,15l-10-15l-10-15l-10,15l-10,15l-8.998-15l-10-14.001l-20,23.002l-20,22.999l-26.002-26.002L59,270
		l15.999-17.001L92,237l9.001,13.998L109.999,265l10-15l10-15l10,15l10,15l10-15l10-15l10,15l10,15l10-15l10-15l10,15l10,15l10-15
		l10-15l10,15l10,15l10-15l10-15l10,15l10,15l10-15l10-15l10,15l10,15l10-15l10-15l10,15l10,15l10-15l10-15l10,15l10,15l10-15l10-15
		l10,15l10,15l10-15l10-15l10,15l10,15l10-15l10-15l10,15l10,15l10-15l10-15l10,15l10,15l10-15l10-15l10,15l10,15l10-15l10-15l10,15
		l10,15l10-15l10-15l10,15l10,15l10-15l10-15l10,15l10,15l10-15l10-15l10,15l10,15l10-15l10-15l10,15l10,15l10-15l10-15l10,15l10,15
		l10-15l10-15l10,15l10,15l10-15l10-15l10,15l10,15l10-15l10-15l10,15l10,15l10-15l10-15l10,15l10,15l10-15l10-15l10,15l10,15l10-15
		l10-15l10,15l10,15l10-15l10-15l10,15l10,15l9.001-14.001l8.998-13.998l17,15.999L1200.998,270l-45,45l-45,45l-3-0.999h-3
		L1067,317.999z M1102.999,307.999l5-12.999l10,14.001l10,13.998l17-17.001L1162,289.001l-6.002-7.001l-6.998-6.002L1139,290
		l-9.001,15l-10-15l-10-15l-10,15l-10,15l-9.001-15l-10-14.001l-5.999,6.002l-7,7.001l13,15l14.001,15L1092,320h5.999
		L1102.999,307.999z M119.999,290v-10h-10h-10v10v10h10h10V290z M319.999,290v-10h-10h-10v10v10h10h10V290z M519.999,290v-10h-10
		h-10v10v10h10h10V290z M679.999,290v-10h-10h-10v10v10h10h10V290z M879.999,290v-10h-10h-10v10v10h10h10V290z"/>
	<path d="M1227,200l-19.001,22L1189,244.001L1179,230l-9.001-15l-10,15l-10,15l-10-15l-10-15l-10,15l-10,15l-10-15l-10-15l-10,15
		l-10,15l-10-15l-10-15l-10,15l-10,15l-10-15l-10-15l-10,15l-10,15l-10-15l-10-15l-10,15l-10,15l-10-15l-10-15l-10,15l-10,15l-10-15
		l-10-15l-10,15l-10,15l-10-15l-10-15l-10,15l-10,15l-10-15l-10-15l-10,15l-10,15l-10-15l-10-15l-10,15l-10,15l-10-15l-10-15l-10,15
		l-10,15l-10-15l-10-15l-10,15l-10,15l-10-15l-10-15l-10,15l-10,15l-10-15l-10-15l-10,15l-10,15l-10-15l-10-15l-10,15l-10,15l-10-15
		l-10-15l-10,15l-10,15l-10-15l-10-15l-10,15l-10,15l-10-15l-10-15l-10,15l-10,15l-10-15l-10-15l-10,15l-10,15l-10-15l-10-15l-10,15
		l-10,15l-10-15l-10-15l-10,15l-10,15l-10-15l-10-15l-10,15l-10,15l-10-15l-10-15l-10,15l-10,15l-10-15l-10-15l-10,15l-10,15l-10-15
		l-10-15l-10,15l-10,15l-10-15l-10-15l-10,15l-10,15L99,230l-11.002-15l-5,12.999l-5,12.001h-6.998H64l-14.001-20l-13.998-20"/>
</g>
</svg>
