<?xml version="1.0" encoding="utf-8"?>
<!-- Generator: Adobe Illustrator 14.0.0, SVG Export Plug-In . SVG Version: 6.00 Build 43363)  -->
<!DOCTYPE svg PUBLIC "-//W3C//DTD SVG 1.1//EN" "http://www.w3.org/Graphics/SVG/1.1/DTD/svg11.dtd">
<svg version="1.1" id="Layer_1" xmlns="http://www.w3.org/2000/svg" xmlns:xlink="http://www.w3.org/1999/xlink" x="0px" y="0px"
	 width="830px" height="657px" viewBox="0 0 737 595" enable-background="new 0 0 737 595" xml:space="preserve">
<path fill-rule="evenodd" clip-rule="evenodd" d="M147,159c-8.204,10.017-24.42,36.708-21.611,50c1.515,7.17,8.011,17.127,11.367,24
	c2.483,5.086,5.244,12.228,4.69,18c-1.45,12.363-9.168,24.131-12.725,36c-5.724,19.098-8.485,43.101-8.721,63
	c-0.122,10.73,0.217,23.001-4.173,33C110.79,394.474,90,408.751,92.426,423c0.448,2.755,1.941,5.195,2.363,8
	c1.211,8.138,0.419,15.329,4.625,23c3.308,6.034,8.858,8.511,13.04,13.373C115.481,471,115.884,476,118,480
	c3.734,6.786,9.488,12.169,13,19c3,5.664,3.981,11.694,4,18h1c-0.019-26-15.59-27.187-19-44l6,7h1l-1-5l7,1l3,11h1l-3-11l9.7,3
	l4.282,8L155,512h1l-4-15l-8-18c5.861,2.197,12.918,5.615,19,6.673c21.372,3.718,36.808-11.314,40-31.673h-1
	c-4.321,18.444-17.308,34.273-38,30.673c-7.755-1.349-15.339-5.45-23-7.521c-8.3-2.151-21.56-0.764-26-9.151
	c14.545,0,11-4.863,19-6.527c6.568-1.375,13.97,9.111,20,11.958c2.986,1.569,5.775,1.569,9,1.569c20.565,0.244,32.846-13.651,42-31
	h-1c-9.292,12.655-19.363,29.769-37,30c-4.556,0.055-9,0.211-13-2c-5.757-3.287-10.224-10.74-17-11.759
	c-7.026-1.058-9.239,4.802-15,6.328C109.284,470,98.615,452.449,97,442h1l10,4l-1,5h1c6.44-26.484-15.807-18.959-14.366-31
	c1.826-15.261,17.366-23,23.193-36c4.173-9.7,4.054-22.527,4.173-33c0.236-19.899,2.997-43.902,8.721-63
	c3.564-11.891,11.679-24.795,12.941-37c1.681-16.259-14.395-29.517-16.297-44c-0.456-3.476,1.263-10.584,2.383-14
	c4.175-12.733,14.146-24,20.252-36c-5.304,1.41-18.813,7.006-23,6.697c-4.467-0.331-9.499-4.458-13-7.071
	C95.603,143.639,96.906,135.791,86.541,119c-3.346-5.419-7.867-9.846-11.541-15c5.572-1.229,9.7,1.408,15,0.662
	c3.411-0.48,6.548-2.046,10-2.48c19.704-2.478,45.766-2.37,54.996,18.818c2.6,6,4.366,11.413,4.004,18h1
	c0.482-3.231-1.124-9.281,0.687-11.566c3.212-4.051,9.789-0.058,8.145,4.566c-1.073,3-7.457,7.755-9.832,11l11-8l9-2.299l19-6.949
	l17-9.359l10-6.599h12c3.257,31.63,43.321,49.97,70,35.206c-5-21.179,16-9.204,25-6v1c-4,0-8.269-0.425-12,0.634
	c-10.754,3.054-24.641,15.484-31,24.366c12-8.636,21.557-23.783,38-23.996c5.458-0.004,9.769,1.309,15,1.799
	c4,0.383,8-1.19,12-1.803v6c-21.684,4.398-31.386,29.748-58,25v1c25.652,6.234,37.89-20.718,59-25c1,21.472,19.542,50-19,50v1
	c7.886,0,15,0.109,20.893-6c12.107-12.837-2.527-36.933-1.893-52c0.251-4.535,2.904-10.363,5.634-13.958
	C371,113.217,391.783,123.385,401,112c-7,4.187-10,5-18,5l6-8l-1,6h1l5-11l-2,7h1l1-8l5-2l-1,6h1c1.559-5.925,3-7,9-8l-2,3l7-6l-2,6
	h1l8-10l1,4c-8.134,4.38-11.194,11.063-12,20h1c1.898-12.282,6.746-16.685,17-23v-1l-6,3l-1-4l7-1l7-4l-4,6h1l8-7l-2,3l3-4l4,2l5-2
	l25-9c-10.084,14.303,3.22,17,10,27.001c5.568,8.075,8.234,18.429,7,27.999h1c1.993-11.17-2.427-22.966-9-32
	c15,7.346,25,21.585,30.618,37c3.314,9.128,3.696,19.562,10.382,27c4.398,4.699,9.255,6.579,13.986,10.388
	c5.683,4.612,9.615,12.126,12.756,18.612c1.101,2.273,3.258,6.426,3.052,9c-1.339,11.223-22.217-1.811-25.794,15h1
	c4.197-12.273,9.464-6.892,18-8.331c3.674-0.619,6-2.406,9-4.669l-2,17l-18-2v1l17,2c-7.481,8.189-14.703-5-21,8h1
	c9.422-12.662,14.974,4.223,21-8c7.424-14.728-2.589-37.588-14.039-47.789C534,167,527.524,165,522.646,158
	c-3.093-4.425-3.909-9.912-5.356-15c-2.358-8.297-5.367-17.792-10.29-25c-3.562-5.44-9-11.435-14-15.484
	C486.319,97.253,481.38,96,476.565,88c-5.82-9.621,9.725-17.927,11.435-15l13-4v1c-5.742,0.522-11.713,3-15.774,7.208
	C481.34,81.273,480.963,86,486,89v-1c-8.534-9.411,9.624-16.638,17-17v1l-5,1v1l14-3v1c-4,1.163-9.612,2.256-13,4.699
	c-9.339,6.89,2.419,14.939,9,17.301v-1c-21.744-10.8-5.125-20.771,10-20c2,0,3.994,0,6,0v1l-10,1v1l19-1v1l-13,3v1l16-5l-1,3h1l12,1
	v1l-15,1v1l11-1v1c-16.744,4.097-13.796,16.77,1,21v-1c-22.175-9.621-5.591-21.527,9-20.961c4.807,0.187,9.453,1.484,14,2.961v1
	c-7-1.7-16.806-2.712-22,3c10.851-5.461,20.192-2.858,31,1v1l-19-3v1l23,4v1l-13-1v1l18,4l-5,1v1h10l-4,1v1l10-1v1l-7,1v1
	c11-0.96,12.454,0.335,21,8l-17-5v1c11.333,1.597,17.901,5,26,13l-17-6v1c10.867,2.48,18.509,7,26,15l-18-8v1
	c11,4.448,19.945,8.235,26,19l-17-10v1l21,14l-12-6l15,13l-6-4v1l9,11l-11-8v1c5.484,3.427,11.755,7.718,14,14l-7-4
	c2.534,3,6,5,8.185,8.042c3.638,5.339,4.499,12.397,7.792,17.958c3.92,6.618,10.238,12.371,12.223,20
	c0.801,3.625-1.199,15.287-2.344,19c-1.095,3.201-3.203,5.386-5.23,8c-5.778,7.453-4.625,11.196-4.625,20h1c0-13-0.326-13.842,9-24
	c1.509,9.617,8.564,20.071,12.781,29c1.219,3,3.219,6,3.743,9c1.476,10.543-5.011,18.027-8.524,27c-3.464,9-0.818,21.538,7,27.096
	c2.538,1.904,5,2.979,8,3.904v-1c-15.291-7.368-16.821-15.255-14-31h1c1.523,18.104,18.305,25.337,19.484,41
	c1.03,13.701-11.054,21-12.235,32c-0.425,4,1.322,7.365,2.579,11c0.905,2.618,1.013,5.477,2.098,8c2.695,6.261,6.274,8.459,7.074,16
	h1c-0.442-7.924-3.275-9.535-6.586-16c-2.937-5.734-5.488-16.684-4.414-23h1c1.389,9,6.607,13.514,10.589,21
	c4.953,9.314,3.371,18.249,1.411,28c-5-3.538-10.448-6-14.831-10.299c-7.631-7.23-13.381-16.4-21.173-23.533
	C655,373.142,643.655,365.635,634,356.572c-5.265-5.094-12.016-18.438-4-23.572c0.516,10.554,6.199,21.366,16,26v-1
	c-8.412-6-15.788-16-15-27l11,18c-4.241-6-12.041-14.957-6-22l3,14h1l-3-16h1c0,5.479-0.13,9,4,13c-3.041-6.847-3.792-10.628-2-18h1
	l1,12h1l-1-28h1l2,24h1c-1-6.903,1.475-15.829-1.296-22c-2.51-5.59-5.832-12-9.466-17c-5.368-7.3-9.688-8-11.238-18h-1
	c1,12.104,13,18.259,16.907,30c1.046,3.248,1.093,6.613,0.925,10C638.92,331,620,339.364,602,337v1l19-1
	c-0.746,3.785,0.984,9.206-1,12.284C612,363,534.755,404.74,517,410c-9.309,2.694-20.353,3-30,3c-7.542,0.012-15.655,1-23,2.654
	c-12.078,2.855-33.168,11.809-45,5.893c-4.637-2.319-9.709-8.109-12.331-12.547c-5.722-9.683-6.761-21.812-11.669-32
	c-3.035-6.489-7.047-12.487-10.118-19c-2.295-4.866-3.507-10.258-5.925-15C373.924,333.131,366,323.035,364,312h-1v4h-1l-4-13h-1
	c1,4.084,2.637,12,7,13l5.482,13l1.279,9l4.199,22L370,386h1c4.984-12.556,5.953-25.721,3.677-39c-0.887-5.176-3.194-9.656-3.677-15
	h1l5.824,13l-0.613,6L379,366h1l-1-19h1v14h1l1-6l5.903,13.576L380.238,395L382,415h1l-2.392-15L389,369h1
	c2.888,8.829,1.777,6.328,0,15h1l2-8h1l5.985,20L398,413h1l2-14h1l-1,10h1v-5h1l2,21h1l-2-17h1l6,19h1l-3-12l2,5h1l1-2l2,5h5
	c-13.332,12.678-29.704,12-47,12l-13.484-32L370,361h-1c-0.044,14.648-9.565,25.029-10.676,39C357,416.102,369.625,422.499,372,435
	c-9.077,0-18-0.61-27-0.961c-25.163-0.977-50,12.577-60,35.961l-2-6h-1l0.853,7l-3.155,9L276,496h1c1.708-12,6.175-21.626,12.449-32
	c2.551-4.439,5.749-8.366,9.551-11.908c23.394-21.771,54.812-16.046,84-16.092c9.521,0,18.826-1.612,28-4
	c-9.079,9.079-17.781,19.2-28,27c-5,3.794-13,10.088-12.713,17c0.115,4.265,2.693,8,5.713,10.698
	c13.329,11.93,22.908,2.302,31.424,4.81c5.468,1.618,11.271,5.789,16.576,8.182c6.85,3.089,14,5.318,21,8.311c12,5,24.851,7.13,38,7
	c4.384,0,8.616-0.945,13-0.996c53.535-0.627,94.934-11.004,137-46.327c8.309-6.95,15-15.273,23-22.509
	c10-9.119,29.373-22.744,31-37.168c11.691,9.576,28.597,16.209,36,30h1c-3.131-9.185-14.517-16.913-23.206-21
	c4.551-8.956,4.526-21,0-30c-3.36-5.932-10.371-12.922-10.794-20c-0.059-5.287,8.8-14.94,9.673-25
	c1.526-17.567-19.378-26.222-19.487-43c-0.186-3.702,2.592-6.674,3.814-10c1.866-4.764,3.305-11.9,2.751-17
	c-1.342-12.361-13.516-23.957-16.223-36c-1.945-8.651,4.062-17.494,1.685-26c-2.468-8.824-10.213-14.767-13.747-23
	c-5.491-12.596-8.913-27-15.673-39c-9.608-16.973-25.396-35.692-41.793-46.244C596.562,99,591.468,98,587,95.224
	c-7.391-4.423-13.766-10.224-22-13.415c-5.024-1.809-10.145-1.034-15-2.606c-15-4.817-28.447-7.516-44-9.203
	c-2.736-0.445-5.261-1.652-8-1.835c-5.356-0.357-11.025,2.269-16,3.885c-4.794,1.558-10.074,1.718-15,3.271
	c-5.35,1.686-9.202,4.157-15,4.68c6-11.847,0.824-40.819-14-44c0.858,5.553,2.929,10.266,2.996,16
	c0.235,20.092-6.519,27.12-23.996,35.372C380.62,104.548,354,98.625,317,88c-11-3-24-9.511-35-9.961
	c-11.058-0.446-21.149,1.574-28.832,9.965c-3.868,4.224-13.185,17.999-17.256,19.996c-2.522,1.058-8.912,0.009-11.912,0
	c-0.28-12.732-7.682-30.494-21-34.365C183,68,153.734,79.114,134,84c-29,7-60.467,7.438-88-4.576C27,71.167,18.905,56.266,19,36
	c0-10.316,4.821-14,7-23c-7.461,3.7-10.161,11.536-12.501,19c-6.591,21.023-1.245,39.015,8.254,58
	C32.304,111.086,46.638,125,70,130.349c4.301,0.987,18.49,2.227,20.779,3.249c3.221,1.438,7.041,11.01,9.748,14.402
	c4.289,5.275,19.473,17.036,26.473,17C133.88,164.697,140,160.057,147,159 M647,162l1,1L647,162z M581.987,93.493
	C581.968,93.512,582,93.459,581.987,93.493z M439,37c5.677,21.571,4.74,37.487-17,48.778c-38,19.689-62.64,14.718-102,4.222
	c-12-3.355-26-10.474-38-10.961C261.222,78.2,256.66,84.723,244.641,100c-2.828,3.595-6.726,7.01-6.38,12c0.336,5,3.362,10,5.739,14
	c12.785,22,39.306,28.025,62,19c-1.006-4.279-2.07-7,1.395-10.725c7.018-7.275,19.544,2.537,26.605,5.401
	c3.414,1.385,7.292,2.475,11,2.127c3-0.284,5.985-1.339,9-1.803l2-8h-11v-1c19.698,0,9.382-4.637,23-10.533
	c4-1.761,10.366-1.963,13.677-4.321C387,112.351,390,105.503,396,101.724c4.494-2.895,10.24-2.933,15-5.25
	c5.268-2.474,9.924-7.24,16-7.474c1.887-5.505,17.703-4.794,22.778-8.724c3.623-2.805,4.222-7.986,4.13-12.276
	C453.35,58.093,449.309,40.695,439,37z M650,169l1,1L650,169z M620,120l1,1L620,120z M474,74c-0.392,3-2.101,5.155-2.568,8.004
	C470.25,89.225,477.814,94.525,483,98c-6.297-9-15.139-14-3-23v-1H474z M24,14C5.184,37.644,10.245,65.002,22.753,90
	c5.549,11.089,13.005,22,23.247,29.213C58.682,128.294,76.645,132,92,132c-3-10-10.218-16.405-15.595-24.981
	c-0.405-0.799-0.534-1.795,0-2.701c1.126-3.715,10.362-0.287,13.595-0.68c3.407-0.414,6.555-2.023,10-2.456
	c15.633-1.966,37.94-2.369,49.817,9.921c4.183,4.35,5.995,9.428,8.183,14.897c7.357-1.886,11.552-1.949,13,7
	c10.847-0.887,47.674-15,51.398-25c1.584-4.289-1.667-14-3.723-18c-3.277-6.245-7.797-12.545-14.675-15
	c-32.797-11.891-94.015,33.345-158,5.424C26.209,71.788,17.749,56.12,18,35C18,25.73,24.242,18.396,24,14z M624,335l-4.24,16.085
	L608,360.592l-28,17.859l-59,31.124L487,414l-36,6.523L438,426c-3.419-2.248-14.24-2.858-18-0.978
	c-0.425,0.212-44.06,40.979-45.609,42.979c-2.104,2.719-3.453,5.484-3.021,8.999c1.947,15.824,31.058,19.152,34.63,10h1
	c2.455,7.475,18.954,12.324,26,15.283c15.386,6.46,29.194,10.948,46,11.717c5.793,0.213,11.268-0.929,17-0.996
	c24.17-0.283,48.764-1.713,72-9.22C589.289,497,615.944,481,633,466.677c8.677-7.258,15.608-15.995,24-23.393
	c7.293-6.284,28.362-23.069,28.636-33.284c0.289-10.763-45.811-50.379-56.636-55L624,335z"/>
<path fill-rule="evenodd" clip-rule="evenodd" d="M468,78c-3.384,6.687-6.227,14.82-2,22c1.914,3,4.891,5.178,7,8h1
	c-1.534-3.179-3.398-4.653-5.589-7.284C463.747,95.113,465,89.528,466,83h1c0,10,0.996,16.222,9,23l-8-17h1c1.56,4.702,4.557,8,7,12
	c4.265,7,4.999,12.102,5,20h1c0-9.251,0-12.731-5-21c-2.553-4.337-6.463-8-8.184-13C467.767,84.049,468.442,81.011,468,78"/>
<path fill-rule="evenodd" clip-rule="evenodd" d="M446,120h1c0-16.683,2.787-30.297,19-39c-4-0.396-6.306,2.32-9,5.015
	C446,97.075,446,105.491,446,120"/>
<path fill-rule="evenodd" clip-rule="evenodd" d="M503,82c2.499,7.327,5.84,7.493,10.911,12.207
	c3.815,3.546,6.743,8.206,9.089,12.793c10.535,20.012-1.514,45.108,24,56v-1c-26.19-16.629-11.442-29-20.579-51
	c-2.517-6-5.99-12.211-10.593-16.897C511.602,89.801,507,86.677,503,82"/>
<path fill-rule="evenodd" clip-rule="evenodd" d="M420,107h1l14-14l-4,7c-7.493,1.556-8.759,18.402-28,22v1
	c14.688-1.555,20.208-10.9,26-23h1c-2.471,5.57-6.251,14.73-11.042,18.366c-12.114,9.191-46.282,4.176-48.697,23.634
	c-0.287,2.316,0.334,4.731,0.739,7h1l1-12h1l-5,27l-8-16h-1c1.698,10.819,6.953,12.115,8.452,18c0.883,3.47-1.109,10.438-1.978,14
	c-3.298,13.509-2.795,22.718-15.474,32v1c5.487-2.618,9-7.272,11-13h1l-16,21l14-15h1l-6,13c-9.2,5-10.314,12.484-8,22h1
	c-2.418-13.496,2.965-18.726,12-28l-10,27h1l3-13h1.231c-0.231,4.288-0.518,8.767,0,13c1.057,4.663,2.972,9.3,3.432,14
	c0.191,2-2.994,19.194-3.795,21c-2.135,4.814-5.487,9-7.402,14c-3.558,9.381-1.139,21.484,6.534,28c-8.529-15.257-9.677-25.626,2-40
	c-0.06,16-9.14,16.092,1,34h1c-4.766-11-6.118-12-3-24h1l-1,15h1v-11h1l4,20h1c-1.495-9.71-5-19-5-29c-0.007-4.597-0.421-9.449,0-14
	c0.931-3.717,2.501-7.22,2.814-11c1.058-12.789-7.2-20.639-1.814-35l5,2v-1l-5-2l7.808-37l8.101-35L380,134h-1l-1,4h-1
	c3-18.852,41.993-4.247,49-28h1l-1,9h1c1-4.598,1.21-9.473,2.621-14c3.715-11.918,13.305-16.764,24.379-20
	c-5.199-1-21.507,7-25.575,10.527C424.708,99,422,102.498,420,107 M374,135v11h1C376,142.044,377.614,138,374,135z M427.473,108.343
	C427,108.687,427.519,108.296,427.473,108.343z M435,92l1,1L435,92z"/>
<path fill-rule="evenodd" clip-rule="evenodd" d="M514,84v1c10.961,7.349,20.777,21.348,21.393,35c0.508,11.245-1.95,18.1,3.607,29
	h1c-3.162-7.964-4.094-11.382-4-20c0-3.309,0.901-6.713,0.589-10C535.368,106.167,525.902,89.367,514,84"/>
<path fill-rule="evenodd" clip-rule="evenodd" d="M552,93v1c6,3.377,12.559,11,12.929,18c0.295,4.81-1.134,9.212,0,14
	c1.641,7.205,6.513,11,9.985,17c4.996,8.791,2.688,17,12.086,24c-2.802-4.244-5.734-8-7.454-13c-1.546-3.939-1.546-8.317-3.632-12
	c-3.277-5.766-7.437-7.927-9.471-15c-3.452-11.994,3.846-15.952-6.443-27.985C557.224,95.654,556.191,94.461,552,93"/>
<path fill-rule="evenodd" clip-rule="evenodd" d="M562,94v1c29.996,13.673,5.775,45,30,58v-1c-6.617-5-10.224-10.686-11.312-19
	c-0.797-3.754,0.312-7.259,0-11C580.341,110.615,573.404,97.364,562,94"/>
<path fill-rule="evenodd" clip-rule="evenodd" d="M546,97v1c21,7.218-5.039,22.534,6.749,43c2.581,4.48,4.251,6.321,9.251,8v-1
	C532.178,132,572.865,102.717,546,97"/>
<path fill-rule="evenodd" clip-rule="evenodd" d="M494,99c10.864,13.172,21.391,19.51,24,38h1
	C517.76,122.243,506.623,106.372,494,99"/>
<path fill-rule="evenodd" clip-rule="evenodd" d="M511,103v1l10.453,13l7.246,38L551,172c-6-7.975-17-10.649-22-19
	C519.41,136.721,530.915,113.698,511,103"/>
<path fill-rule="evenodd" clip-rule="evenodd" d="M86,109c8.616,11,28.359,8.268,41,13.065c10.659,4.045,18.847,10.465,28,16.935
	c-8.089-11.196-23.775-17.979-37-20.79C104.466,115.335,98.52,116.825,86,109"/>
<path fill-rule="evenodd" clip-rule="evenodd" d="M540,110c0.654,5,1.571,10.017,1.912,15c0.296,4.341-0.344,8.757,0.875,13
	c2.147,7.468,11.165,17.288,17.213,22l-16.213-23L540,110"/>
<path fill-rule="evenodd" clip-rule="evenodd" d="M513,113l9,30h1C522.327,134.772,519,118.526,513,113"/>
<path fill-rule="evenodd" clip-rule="evenodd" d="M587,116v1c12,7,22.663,16.273,24,31h1C611.277,133.262,599.936,121.603,587,116"
	/>
<path fill-rule="evenodd" clip-rule="evenodd" d="M559,118c-2.686,15.046,5.954,17.29,11.354,29c2.157,4.679,2.405,10.097,4.004,15
	c4.234,13,12.577,22.178,23.643,30l-17.443-19l-8.765-26l-11.438-19L559,118"/>
<path fill-rule="evenodd" clip-rule="evenodd" d="M364,149h1c-3.612-20.516,15-22.998,30-27c-3.579-0.902-6.522,1-10,1.762
	C371.805,127.016,360,132.765,364,149"/>
<path fill-rule="evenodd" clip-rule="evenodd" d="M316,130v1h29C337.633,128.069,323.551,127.817,316,130"/>
<path fill-rule="evenodd" clip-rule="evenodd" d="M599,136c1.304,4.481,3.695,8.492,4.986,13c1.879,6.564,2.535,15,5.014,21
	c3.453,8.521,15.388,18.143,24,21v-1c-8.5-4.369-19.286-11.835-23-21C605.577,158.061,606.814,145.727,599,136"/>
<path fill-rule="evenodd" clip-rule="evenodd" d="M559,140c3.413,5,6.948,9.145,8.781,15c1.865,6,1.551,12,2.685,18
	c1.808,9.555,8.741,20.369,16.534,26c-5.342-7.557-11.308-14-14.454-23C567.959,163,571.807,149.404,559,140"/>
<polyline fill-rule="evenodd" clip-rule="evenodd" points="366,145 369,154 370,154 366,145 "/>
<path fill-rule="evenodd" clip-rule="evenodd" d="M616,147c2,13.036,13.719,22.489,26,26v-1c-7.585-3.29-16.244-7.961-21-15
	C619,154,617.97,150.198,616,147"/>
<path fill-rule="evenodd" clip-rule="evenodd" d="M612,149c0.355,7.613,1.722,12.239,8,17L612,149"/>
<polyline fill-rule="evenodd" clip-rule="evenodd" points="363,152 368,160 369,160 363,152 "/>
<path fill-rule="evenodd" clip-rule="evenodd" d="M602.18,155c-1.709,6.308-0.969,8,0.669,14c1.472,5.437,2.989,10.479,6.539,15
	c5.319,6.775,13.02,11.013,19.612,16.373c6.78,5.627,15.527,16.156,18,24.627h1c-4.247-22.351-30-28.513-39.649-45
	c-2.905-4.9-5.351-12.331-6.171-17.999C602,159.596,602.511,157.392,602.18,155"/>
<path fill-rule="evenodd" clip-rule="evenodd" d="M359,157l6,19h1C365.665,169.161,363.396,162.306,359,157"/>
<path fill-rule="evenodd" clip-rule="evenodd" d="M549,159l11.986,47L560,220h1c1.737-21.432-0.153-20.297-5.397-40
	C553.733,173,552.407,165.518,549,159"/>
<path fill-rule="evenodd" clip-rule="evenodd" d="M551,159c2.569,16.627,16.595,30.05,16.986,47
	c0.014,5.521-0.212,12.31-3.788,16.814C553.676,236.065,539.369,216.656,534,232h1c5.538-9.702,9-3.265,17-2.638
	c6.876,0.638,12.497-3.118,15-9.362h1l5.799,16L565,270h1l8.908-31L568,215h1c1,5.327,2.827,6.575,5.393,11
	c4.404,7.594,2.395,15.061,0.607,23h1c7.619-23.503-5.55-23-7-39h1l8,17h1l-10-22h1c1.948,6.671,6.814,11,9.469,17
	c5.531,12.812-1.878,26.456-8.469,37c9.316-7.336,13.624-24.653,10.202-36c-1.663-5.516-6.202-10-8.914-15
	c-3.288-5.78-4.494-11.976-7.288-18c-2.552-6-6.447-11.455-8-18h1c2.738,9.601,8.562,20.768,14.219,29C583,217,588,216,588,237h1
	c0-22.853-5.23-20.661-16.454-38c-5.733-8.858-10.375-19.318-14.546-29l-2,2L551,159"/>
<path fill-rule="evenodd" clip-rule="evenodd" d="M554,162l7.243,13L602,245c-10.385,6.713-3.4,20-2,29h1
	c-1.034-11.468-8.065-18.584,2-29l4.894,24l-3.136,13v21H606c-1.172-6.434-1.794-12.483-0.677-19c1.376-8,4.508-12.234,3.249-21
	c-3.917-27.291-25.572-54.182-40.03-77C563.365,178,560.502,169.486,554,162"/>
<path fill-rule="evenodd" clip-rule="evenodd" d="M352,163c-1.199,4.473-2.202,9-4.397,13c-6.151,11.584-21.11,22.746-34.603,17.047
	c-8.492-3.587-15-10.467-24-13.047v1c8.232,3.547,14.976,9.657,23,13.047c12.363,5.223,25.759-2.232,33.321-12.047
	C348.914,177.335,353.252,169.014,352,163"/>
<path fill-rule="evenodd" clip-rule="evenodd" d="M533,164v1l19,19h1C549.615,176.071,540.693,167.776,533,164"/>
<path fill-rule="evenodd" clip-rule="evenodd" d="M597,168c-3,16,8,25.255,19,35.168c11.384,10.296,21.807,19.96,27,34.832h1
	c-5.697-24.257-32.558-35.358-44.523-56C595.569,175.257,598.598,173.634,597,168"/>
<path fill-rule="evenodd" clip-rule="evenodd" d="M637,176v1c13,8.136,26.371,25,26.957,41c0.214,6-1.688,11.362-2.957,17h1
	c2-6.482,3.64-13,2.817-20C663,200.157,650.502,182.154,637,176"/>
<path fill-rule="evenodd" clip-rule="evenodd" d="M603,184c6,10.405,17.225,16.231,26,24.168c12,10.889,19.632,24.55,21,40.832h1
	c-1.298-27.817-18.538-39.37-38-55.462C609.43,190.585,606.564,187,603,184"/>
<path fill-rule="evenodd" clip-rule="evenodd" d="M585,188c3.591,5,8.533,8.279,12.382,13.001
	C607.27,213.131,616.194,228.488,622,243h1C618.381,226,599.4,198,585,188"/>
<path fill-rule="evenodd" clip-rule="evenodd" d="M644,189c3.803,5.38,9,10.088,12,16c7.927,15.749-1.647,26.076-2,41
	c-0.101,5.054,0.89,10,1,15h1c-0.037-4-0.804-7.962-1-12c-0.339-9.73,4.883-17.527,4.996-27
	C660.167,207.741,655.923,197.614,644,189"/>
<path fill-rule="evenodd" clip-rule="evenodd" d="M129,206h1c4.929-12.541,24.436-15.717,34.996-8.351
	C170,201.243,172,205.789,175,211C174.967,190,134,185.788,129,206"/>
<path fill-rule="evenodd" clip-rule="evenodd" d="M205,220h1c5.437-18.622,32.718-31.636,49.999-20.858
	C261.244,202.413,263,206,266,211c-0.009-3.464-2-6.38-4.211-8.908C245.777,184.749,209.172,198.039,205,220"/>
<path fill-rule="evenodd" clip-rule="evenodd" d="M359,194c-4.324,5.22-9.108,8-13.817,12.324
	c-9.42,8.968-9.798,19.711-4.183,30.676h1c-4.516-11.356-6-18.947,3.327-28.817C349.703,203.519,357.944,201.007,359,194"/>
<path fill-rule="evenodd" clip-rule="evenodd" d="M341,269c19.346-15.504-8.809-29.329-10-45c-0.203-4.278,0.94-8.18,2.785-11.999
	c2.855-5.908,4.889-7.494,11.215-9.001c-6.669-1.799-10.235,3.748-12.738,9c-4.335,9.097-2.498,18.079,3.344,26
	c4.188,5.678,9.229,9.54,10.394,17C347,260.481,343.477,264.53,341,269"/>
<path fill-rule="evenodd" clip-rule="evenodd" d="M447,210l12-6v1l-5,2v1l10-4v1l-4,3l12-4C463.902,201.001,452.424,203.228,447,210
	"/>
<path fill-rule="evenodd" clip-rule="evenodd" d="M441,212h1l9-7C445.953,203.814,442.965,208,441,212"/>
<path fill-rule="evenodd" clip-rule="evenodd" d="M464,209l13-3C472.411,203,467.406,205.251,464,209"/>
<path fill-rule="evenodd" clip-rule="evenodd" d="M443,205c-7.743,4.621-11.72,3.119-12,14h1v-6h1v3h1l2-6h1l-1,4h1l7-8L443,205
	 M433.896,211.343C433.37,211.651,434,211.261,433.896,211.343z M438,209C437.938,209.018,438,209,438,209z"/>
<path fill-rule="evenodd" clip-rule="evenodd" d="M472,208v1l10-1v1l-8,2v1l12-2v1l-8,2v1l12-2v1l-7,2v1l6-1v1l-3,1v1l12-1
	C491.713,210.395,480.902,205.09,472,208 M489,214v1h5L489,214z"/>
<polyline fill-rule="evenodd" clip-rule="evenodd" points="382,207 382,208 389,214 390,214 382,207 "/>
<polyline fill-rule="evenodd" clip-rule="evenodd" points="386,207 386,208 393,214 394,214 386,207 "/>
<polyline fill-rule="evenodd" clip-rule="evenodd" points="391,207 391,208 396,215 397,215 396,210 400,218 401,218 398,209 
	391,207 "/>
<polyline fill-rule="evenodd" clip-rule="evenodd" points="589,207 593,214 594,214 589,207 "/>
<polyline fill-rule="evenodd" clip-rule="evenodd" points="378,208 378,209 386,213 386,212 378,208 "/>
<polyline fill-rule="evenodd" clip-rule="evenodd" points="373,209 373,210 381,213 373,209 "/>
<path fill-rule="evenodd" clip-rule="evenodd" d="M469.435,209.808C468.983,210.073,469.977,209.49,469.435,209.808"/>
<path fill-rule="evenodd" clip-rule="evenodd" d="M532,213c12.854-6,11.655,1.553,22,0C546.734,210.525,538,206.575,532,213"/>
<path fill-rule="evenodd" clip-rule="evenodd" d="M610,209v1c12.672,9.079,23.923,28.163,23.999,44
	c0.001,9.381-0.048,14.661,8.001,21c-9.634-15.414-4.393-14.268-7.516-29C631.899,233.806,621.443,214.411,610,209"/>
<polyline fill-rule="evenodd" clip-rule="evenodd" points="369,211 369,212 379,214 369,211 "/>
<path fill-rule="evenodd" clip-rule="evenodd" d="M576,211c2.26,3.271,5,6.279,6.519,10c3.202,8,1.481,22.64-2.552,30
	C574,262,563.584,265.374,571,279h1c-1.338-3.18-3.203-6.448-2.309-10c1.309-5.378,8.309-11.749,11.275-17
	C587.656,239.81,587.882,219.725,576,211"/>
<path fill-rule="evenodd" clip-rule="evenodd" d="M142,228c4.313-3.811,5.318-9.887,10-12.994c11.49-7.415,20.998,6.215,23,15.994
	c3.175-11.372-14.114-24.823-24.814-16.351C146.554,217.526,144.168,224,142,228"/>
<path fill-rule="evenodd" clip-rule="evenodd" d="M533,218h1l10-4C539.178,211.21,535.436,213.429,533,218"/>
<polyline fill-rule="evenodd" clip-rule="evenodd" points="366,213 366,214 376,216 366,213 "/>
<polyline fill-rule="evenodd" clip-rule="evenodd" points="599,214 610,229 599,214 "/>
<polyline fill-rule="evenodd" clip-rule="evenodd" points="364,216 364,217 371,217 364,216 "/>
<polyline fill-rule="evenodd" clip-rule="evenodd" points="488,218 488,219 499,219 499,220 491,220 491,221 501,222 501,221 
	500,219 488,218 "/>
<path fill-rule="evenodd" clip-rule="evenodd" d="M213,236h1c4.86-13.888,22.768-23.479,35.996-13.574
	c6.757,5.06,7.544,14.081,16.004,16.574c-6.435-5.22-8.604-12.782-15.004-17.574C237.493,211.315,216.592,220.715,213,236"/>
<polyline fill-rule="evenodd" clip-rule="evenodd" points="362,218 362,219 370,220 362,218 "/>
<polyline fill-rule="evenodd" clip-rule="evenodd" points="362,220 362,221 366,222 366,221 362,220 "/>
<path fill-rule="evenodd" clip-rule="evenodd" d="M435,239h1c0.957-6.749,3.549-12,10-15c21.455-10.248,29.878,15.023,45,12
	c-3.58-0.945-6.716-1-10-3c-5-3.197-8.498-7.714-14-10C452.84,217,436.414,222.192,435,239"/>
<polyline fill-rule="evenodd" clip-rule="evenodd" points="495,223 495,224 508,225 495,223 "/>
<path fill-rule="evenodd" clip-rule="evenodd" d="M598,223l19,23l-4,25l9,40h1l-6-24h1c1.169,4.006,3.439,7.16,4.873,11
	c3.474,9.307,1.335,18.075-3.873,26c8-6.206,6.74-15.789,6-25h1c0.518,3.365,1.807,6.623,2,10c1.301,11-10.469,21.656-21,21.656
	c-8,0-19.075-7.046-19-15.656c0.232-3.947,2-6.71,4-10c-10.039,8.04-8.736,21.368,3,27.086c20.176,9.914,46.867-8.05,38.893-31.086
	c-1.893-5.275-5.49-9.694-9.893-13c3.254,5,7.553,9.252,9.213,15c9.181,31.804-46.383,44.189-47.213,11h1
	c0.692,27,45.181,20.538,42.448-5c-1.448-12.448-13.129-21.175-15.121-34c-0.901-5.802,1.471-11.5,2.918-17
	C622.283,239,608.853,235.421,598,223 M624,298l1,1L624,298z"/>
<path fill-rule="evenodd" clip-rule="evenodd" d="M367,242h1c7.699-16.893,19.575-17.7,34-9C392.481,218.817,371,228.181,367,242"/>
<path fill-rule="evenodd" clip-rule="evenodd" d="M633,228l7.538,21l2.2,16l5.938,8L655,290h1c-0.146-6.448-1.574-11.773-5.529-17
	c-2.229-2.945-5.471-5.486-6.732-9c-0.952-2.485-0.81-5.388-1.162-8C641.337,246.826,639.814,234.83,633,228"/>
<path fill-rule="evenodd" clip-rule="evenodd" d="M403,229l-1,13c-5-0.674-10-2-15-1.958c-5.029,0.168-9,1.503-13,4.321
	C359.547,254.154,382.3,261,393,256c-3.087,7.177-6.238,14.257-7.691,22c-1.418,7.556-1.399,15.571-2.977,23
	c-1.096,5.159-5.723,14.314-4.594,19c1.706,7.073,9.833,9.346,16.262,8.814c6.688-0.555,13.348-3.417,20-4.53
	c5.284-0.883,16.974-0.284,20.957-2.458C438.48,320,439.266,317.714,439,314h-1c-0.321,3.253-1,5.152-4.047,6.826
	c-3.464,1.868-9.953,0.97-13.953,1.458c-8.171,0.979-22.057,5.993-29,5.389c-19-1.644-10-14.895-7.668-25.673
	c2.668-13.205,2.281-26.354,7.979-39C395.752,253.144,407.467,240.258,403,229 M396,242l2,6h1l2-5L396,242z M390,257v-1
	c-9.49-1-11.097-5.621-9-14c-9.109,3-17.216,10.101-3,14.213C381.832,257.321,386,257,390,257z"/>
<path fill-rule="evenodd" clip-rule="evenodd" d="M562,231l-18,10h1c1.804-2.228,3-3.745,6-4.574
	C555.253,235.198,560.424,236.381,562,231"/>
<path fill-rule="evenodd" clip-rule="evenodd" d="M569,231c-7.575,10-12.123,7.201-22,12v1C553.834,241.374,568.294,240,569,231"/>
<path fill-rule="evenodd" clip-rule="evenodd" d="M622,231c1.863,6.531,5.42,12.004,5.793,19c0.421,8-2.271,15.313,1.175,23
	c4.96,11.067,17.918,15.589,20.032,29h1c-1.225-13.47-15-18.622-20.032-30C623.855,258.365,634.996,247.346,622,231"/>
<path fill-rule="evenodd" clip-rule="evenodd" d="M436,245v1c15.529,13.093,31.52,9.342,48,0C471.654,232,449.202,234,436,245
	 M437,245v1c13.339,10.205,32.634,9.582,46-1l-11-5c-5.579,15.543-21.794,15-20-2L437,245z"/>
<path fill-rule="evenodd" clip-rule="evenodd" d="M154,237.531c-18.583,4.511-3.433,19.592,10,15.903
	C183.181,248.167,166.973,234.381,154,237.531 M172,243h-1c-7.826,14.535-22.435,8.696-18-4
	C129.171,247.155,173.713,263.579,172,243z"/>
<path fill-rule="evenodd" clip-rule="evenodd" d="M214,247v1c14.899,14.753,27,11.614,44,2v-2C241.253,236.258,230.867,234,214,247
	 M215,247c11.856,16.398,27,9.443,42,3v-2l-9-4c1.277,16.695-27.46,13.146-19-4L215,247z"/>
<path fill-rule="evenodd" clip-rule="evenodd" d="M352,241l0.624,17L348,271h1C353,261.376,356.731,251.265,352,241"/>
<polyline fill-rule="evenodd" clip-rule="evenodd" points="566,241 552,247 552,248 567,242 566,241 "/>
<path fill-rule="evenodd" clip-rule="evenodd" d="M594,242c-1.399,4.143-4.328,7.027-6,11c-3.395,9.205,5.426,18,9,26h1l-9.606-21
	L594,242"/>
<path fill-rule="evenodd" clip-rule="evenodd" d="M299,244c-0.598,27.317-9.781,62.289-28.171,83
	c-6.231,7.017-12.398,14.204-18.867,21c-5.675,6-12.722,12.672-16.562,20c-5.711,11-6.412,24.07-7.568,36
	c-0.489,5.048-1.832,10-1.832,15h1c0.217-4.734,1.376-9.297,1.832-14c1.156-11.93,1.857-25,7.568-36c3.84-7.329,10.887-14,16.562-20
	c6.964-7.317,14.038-15.194,20.575-23c13.397-16.354,20.463-37.384,23.873-58C298.299,262.477,300.86,248.737,299,244"/>
<path fill-rule="evenodd" clip-rule="evenodd" d="M571,245l-19,8v1C558,251.719,568.987,252.364,571,245"/>
<path fill-rule="evenodd" clip-rule="evenodd" d="M356,250c-0.01,13.528-5.429,21.029-10,33h1
	C351.657,274.66,359.848,259.699,356,250"/>
<path fill-rule="evenodd" clip-rule="evenodd" d="M664,251l-0.701,12l3.186,14L665,288h1c3.273-12.349-0.084-14.671-2-26
	C663.766,258.252,665,254.575,664,251"/>
<path fill-rule="evenodd" clip-rule="evenodd" d="M670,255c2.645,5.499,5.682,9.662,5.96,16c0.442,10.085-4.96,16.235-8.624,25
	c-6.586,15.438-2.019,33.173,11.664,43c-4.589-6.438-10.716-11.958-12.483-20c-1.517-6.244-1.223-12.908,0.702-19
	c2.104-6.66,6.466-12.385,8.678-19C678.862,272.131,676.857,261.418,670,255"/>
<path fill-rule="evenodd" clip-rule="evenodd" d="M349,256c-2.039,13.194-11.132,23.309-12,37c-1.263,24,29.914,34.651,29.923,63
	c0.002,8.064-2.923,16.3-4.923,24h1c19.43-50.585-22.337-54.197-24.814-84C336.974,281.413,351.69,264.19,349,256"/>
<path fill-rule="evenodd" clip-rule="evenodd" d="M579,258c-1,12.323,1.383,22.228,12,30l-11-19L579,258"/>
<path fill-rule="evenodd" clip-rule="evenodd" d="M649,262l11.768,24v24H662c-1.062-6.251,1-11,0.677-17
	C661.857,282.209,656.737,269.723,649,262"/>
<path fill-rule="evenodd" clip-rule="evenodd" d="M586,271c1.431,7.624,6,12.619,10,19c6.483,10.47,10.461,25.382,6,37h1
	C611.18,310.138,595,285,586,271"/>
<path fill-rule="evenodd" clip-rule="evenodd" d="M318,272c0,4.052,0.894,8,0.986,12c0.014,5.354-1.067,9.797-1.986,15
	c-8.259,55.623-53.25,75.024-57,95h1c2.912-10.185,11.906-16.623,18.961-24C301,348,313.507,330.667,318,300
	c0.806-4.457,1.944-8.433,1.996-13C320,282,319.998,276.676,318,272"/>
<path fill-rule="evenodd" clip-rule="evenodd" d="M641,279c7.576,10.626,13,14.124,15,28h1C656,295.608,650.293,285.673,641,279"/>
<path fill-rule="evenodd" clip-rule="evenodd" d="M609.188,285v10l3.706,17L609,323c8.828-7.936,3.886-18.417,1.596-28
	C609.781,291.589,610.307,288.294,609.188,285"/>
<polyline fill-rule="evenodd" clip-rule="evenodd" points="613,287 618,314 619,314 614.634,295 613,287 "/>
<path fill-rule="evenodd" clip-rule="evenodd" d="M309,291c-0.194,21.443-11.444,37.413-23.408,54c-4.025,5.58-7.592,11.58-11.71,17
	c-6.499,8.263-14.605,16.746-19.559,26C242.929,409.283,249,420.277,249,442h1c0-9.882-2.565-20.433-2-30
	c0.499-5.988,3.178-13.433,5.453-19c4.474-10.952,14.147-20.742,21.429-30c4.118-5.42,7.685-11.42,11.71-17
	c10.19-14,15.408-21,20.748-38C308.983,302.705,311,296.382,309,291"/>
<path fill-rule="evenodd" clip-rule="evenodd" d="M674,295c-7,17.59-5.162,35.267,14,44v-1c-11-6.865-19-17.384-16.537-31
	C672.175,303.021,674.574,299,674,295"/>
<path fill-rule="evenodd" clip-rule="evenodd" d="M353,307c3,7,7.476,13.138,10.678,20c4.556,9.764,8.226,24.234,8.322,35h1
	C372.951,345.699,364.628,318.607,353,307"/>
<polyline fill-rule="evenodd" clip-rule="evenodd" points="647,310 650,335 651,335 649.569,323 647,310 "/>
<polyline fill-rule="evenodd" clip-rule="evenodd" points="651,318 654,332 655,332 651,318 "/>
<polyline fill-rule="evenodd" clip-rule="evenodd" points="655,321 657,333 658,333 655,321 "/>
<polyline fill-rule="evenodd" clip-rule="evenodd" points="658,322 661,332 662,332 658,322 "/>
<polyline fill-rule="evenodd" clip-rule="evenodd" points="663,326 666,332 667,332 663,326 "/>
<polyline fill-rule="evenodd" clip-rule="evenodd" points="415,331 415,349 416,349 415,331 "/>
<path fill-rule="evenodd" clip-rule="evenodd" d="M686,331v1c8,6.583,4.938,11.502,3,20h1C692.657,344.027,695.396,335.72,686,331"
	/>
<polyline fill-rule="evenodd" clip-rule="evenodd" points="407,333 411,349 412,349 407,333 "/>
<polyline fill-rule="evenodd" clip-rule="evenodd" points="648,339 666,364 667,364 648,339 "/>
<path fill-rule="evenodd" clip-rule="evenodd" d="M628,340c1.846,11.765,10.572,22.363,22,26v-1c-6.794-3.315-12.5-7.469-16.533-14
	C631.287,347.47,630,343.501,628,340"/>
<path fill-rule="evenodd" clip-rule="evenodd" d="M662,340v1c8.273,6.281,12.489,13.554,13,24h1
	C675.764,354.586,671.424,345.062,662,340"/>
<polyline fill-rule="evenodd" clip-rule="evenodd" points="683,345 680,359 681,359 683,345 "/>
<path fill-rule="evenodd" clip-rule="evenodd" d="M390,357l4,1c0.657,6.156,3.924,10.671,9,14.199
	c11.647,8.094,28.768,4.801,40-2.432c4.692-2.986,8.444-7.256,13-10.174c3.215-2.059,7.484-2.594,11-4.594c-3,0-5.192,1.578-8,1.533
	c-2-0.032-10-2.457-12-3.232c-5.699-2.039-11-6.765-17-7.183c-9.292-0.635-11.424,6.967-16.039,7.025
	c-2.672,0.033-5.401-2.551-7.961-3.418C399.551,347.543,392.799,351.231,390,357 M391,357l7,1v1h-3c5.279,27.677,46.948,16.452,59,0
	h-12v-1h14c-3.273-2.513-7.231-2.882-11-4.463c-6.679-2.802-12.123-8.368-20-5.888c-4.115,1.351-7.458,6.45-11.014,6.494
	c-2.513,0.031-4.77-2.054-6.986-3.012C400.91,348.503,393.887,351.253,391,357z"/>
<path fill-rule="evenodd" clip-rule="evenodd" d="M663,347c4.262,11.227,8.886,18.387,9,31h1
	C672.967,367.123,670.614,355.214,663,347"/>
<polyline fill-rule="evenodd" clip-rule="evenodd" points="623,348 629,354 629,353 623,348 "/>
<polyline fill-rule="evenodd" clip-rule="evenodd" points="688,353 685,358 688,353 "/>
<polyline fill-rule="evenodd" clip-rule="evenodd" points="651,354 651,355 661,365 662,365 651,354 "/>
<path fill-rule="evenodd" clip-rule="evenodd" d="M398,359v1l8.961,0.737l9.039,4.69l10-5.356L442,358
	c-12.585-4.993-19.132,5.17-26,6c-3.167,0.336-5.279-3.182-8.039-4.263C405.334,358.708,400.876,359,398,359"/>
<path fill-rule="evenodd" clip-rule="evenodd" d="M684,359c-8.059,10.11-7.553,19.533-3,31h1c-2.02-7.501-5.368-12-2.561-20
	C680.736,366.312,683.318,362.739,684,359"/>
<path fill-rule="evenodd" clip-rule="evenodd" d="M381,364c-0.132,6.02-1.237,13.26-3.091,19c-3.704,11.463-8.193,17.242-5.909,30h1
	c-0.71-5.409-1-9.633,0.513-15C375.785,389.033,384.685,373.386,381,364"/>
<path fill-rule="evenodd" clip-rule="evenodd" d="M654,366v1l10,13h1C663.659,373,660.211,369.337,654,366"/>
<polyline fill-rule="evenodd" clip-rule="evenodd" points="384,367 382,379 383,379 384,367 "/>
<polyline fill-rule="evenodd" clip-rule="evenodd" points="665,370 667,376 668,376 665,370 "/>
<polyline fill-rule="evenodd" clip-rule="evenodd" points="389,374 385,394 386,394 389,374 "/>
<path fill-rule="evenodd" clip-rule="evenodd" d="M369,379c-5.208,19.651-6.674,31.473,5,49h1c-4.461-9-9.384-15.193-9-26
	C366.285,395.728,370,384.103,369,379"/>
<path fill-rule="evenodd" clip-rule="evenodd" d="M682,379l14,32h1c-1-9.908-6.589-14-11.315-22
	C683.803,386,683.514,382.278,682,379"/>
<path fill-rule="evenodd" clip-rule="evenodd" d="M394,383c-5.671,11.136-5.385,23.294-2,35h1l-2.627-15L394,383"/>
<path fill-rule="evenodd" clip-rule="evenodd" d="M406,389v1c19.501-7.743,22.6-1,41-1c-3-1-6-1-9-1.615
	C425.587,385.198,418,383,406,389"/>
<path fill-rule="evenodd" clip-rule="evenodd" d="M375,400c0,10.712-0.461,20.826,9,28l-7.626-16L375,400"/>
<polyline fill-rule="evenodd" clip-rule="evenodd" points="394,403 398,427 399,427 395.207,413 394,403 "/>
<path fill-rule="evenodd" clip-rule="evenodd" d="M101,412v1c3.301-1.238,6.459-2.57,9.999-1.259
	C120.357,415.206,128.535,439.5,129,449c3-8-8.461-34-16.004-37.826C108.896,409.098,104.895,410.196,101,412"/>
<path fill-rule="evenodd" clip-rule="evenodd" d="M136,448h1c0-14.553,7.532-32.921,25-32.54c6,0.133,11.555,3.198,17,5.54
	c-10.752-10.726-30.049-7.657-38.008,5.004C136.927,432.47,136,440.563,136,448"/>
<polyline fill-rule="evenodd" clip-rule="evenodd" points="436,426 415.742,468 407,487 408,487 436,426 "/>
<path fill-rule="evenodd" clip-rule="evenodd" d="M234,428c-0.598,13.013-2.488,26-7.453,38c-1.839,4.502-4.563,8.551-6.547,13h1
	c5.911-9.852,11.428-21.308,12-33h1l0.907,11l-4.273,14L232,490h1l-1.612-17l4.573-19L234,441V428"/>
<path fill-rule="evenodd" clip-rule="evenodd" d="M178,436c-2.125,2-4.058,4-7,4.282C162,441.547,142.975,428,149.787,452
	c0.774,2.739,2.103,5.382,3.213,8h1l-2-7c13.832,1.11,15.434,2.355,22.217-9.999C175.572,440.532,177.322,438.75,178,436"/>
<polyline fill-rule="evenodd" clip-rule="evenodd" points="222,443 211.355,471 208,495 209,495 211.721,474 222,443 "/>
<path fill-rule="evenodd" clip-rule="evenodd" d="M243,451c0.438,3.321,1,6.632,0.904,10c-0.279,4.084-2.024,8-1.904,12
	c0.916,14.814,5.961,8.572,1,27h1c6.332-15.951-0.811-15-1-28C243.181,464.397,247.486,458.721,243,451"/>
<path fill-rule="evenodd" clip-rule="evenodd" d="M227,452c-4.224,12.65-12,22.289-12,36h1l1-10L227,452"/>
<path fill-rule="evenodd" clip-rule="evenodd" d="M254.183,452l0.631,10l-1.63,9l1.816,9h1c-0.45-2.928-1.635-6-1.817-9
	C254.365,464,258.224,459.27,254.183,452"/>
<path fill-rule="evenodd" clip-rule="evenodd" d="M210,454c-5.525,13.027-8,25.792-8,40c-0.017,11-0.215,19.325-3,30h1l3-29
	l2.296-24L210,454"/>
<polyline fill-rule="evenodd" clip-rule="evenodd" points="264,455 266,482 267,482 265.34,473 264,455 "/>
<polyline fill-rule="evenodd" clip-rule="evenodd" points="240,456 237,473 240,487 241,487 238.208,472 240,456 "/>
<polyline fill-rule="evenodd" clip-rule="evenodd" points="232,459 225,486 228,497 229,497 226.186,482 232,459 "/>
<polyline fill-rule="evenodd" clip-rule="evenodd" points="250,459 248,476 250,492 251,492 249,475 250,459 "/>
<path fill-rule="evenodd" clip-rule="evenodd" d="M275,459l4,15h1C279.982,468.048,279.648,463.179,275,459"/>
<polyline fill-rule="evenodd" clip-rule="evenodd" points="268,460 269,474 270,474 268,460 "/>
<polyline fill-rule="evenodd" clip-rule="evenodd" points="274,464 274,478 275,478 274,464 "/>
<polyline fill-rule="evenodd" clip-rule="evenodd" points="259,472 262,488 263,488 259,472 "/>
<path fill-rule="evenodd" clip-rule="evenodd" d="M198,474l-4,22l-0.664,20L181,549h1c10.62-20,12.895-29.515,13-52
	C195,490.461,199.24,478.438,198,474"/>
<path fill-rule="evenodd" clip-rule="evenodd" d="M676,475c0,10.745,2.357,25.43-7,33l-3-17l1-15h-2c0,12-0.686,24.765-5,36l-6-7h-1
	c0.871,4.057,4.893,10.795,8.864,5c2.136-3.377,2.435-10,3.136-14h1l3,13c5.177-2.601,5.423-4.777,7-10
	c7.864,17.801,17.504,11.765,22-4h1c-0.591,3.285-0.773,7-2.082,10c-2.726,6.444-15.002,22-5.918,27l6.684-23L707,494l-7,9h-1l1-10
	c-7,4.47-5.052,14.354-15,16c5.739-9.418,10-21.892,7-33h-2c-4.696,8.488-8.714,22.444-6,32c-10.143-5.405-6-23.242-6-33H676
	 M695,510c-3.294,6-7.612,14.144-6,21h2C693,525.631,696.855,515.581,695,510z M690,477l-6,30c7.67-6.779,7.999-20.381,8-30H690z"/>
<polyline fill-rule="evenodd" clip-rule="evenodd" points="190,482 188,510 189,510 190,482 "/>
<path fill-rule="evenodd" clip-rule="evenodd" d="M139,484c1.593,7.804,5.782,14.374,7.961,22c4.567,16,0.424,34.152-5.961,49h1
	C153.552,534.598,152.227,503.398,139,484"/>
<path fill-rule="evenodd" clip-rule="evenodd" d="M152,488l4.961,24L156,532h1C157,518.118,161.426,500,152,488"/>
<path fill-rule="evenodd" clip-rule="evenodd" d="M131,489l5.839,19v23H138C138,516.398,139.46,502,131,489"/>
<polyline fill-rule="evenodd" clip-rule="evenodd" points="169,490 169.996,513 167,537 168,537 170.168,500 169,490 "/>
<path fill-rule="evenodd" clip-rule="evenodd" d="M178,494c0.583,26.643,1.894,36.305-9,62h1
	C177.556,542.345,184.258,508.645,178,494"/>
<path fill-rule="evenodd" clip-rule="evenodd" d="M183,494l2,22l-2,18h1C186.192,522.351,188,505.106,183,494"/>
<path fill-rule="evenodd" clip-rule="evenodd" d="M164.681,496l0.184,32L159,552h1c0.862-5.581,3.21-10.554,4.681-16
	C166.902,526,168.959,505.671,164.681,496"/>
<path fill-rule="evenodd" clip-rule="evenodd" d="M215,499c2.528,16.147-8.519,29-16,42C206.934,534.387,221.455,509.043,215,499"/>
<polyline fill-rule="evenodd" clip-rule="evenodd" points="140,502 142,519 143,519 140,502 "/>
<path fill-rule="evenodd" clip-rule="evenodd" d="M161.771,507v19L154,555h1C158,541.367,167.531,520.511,161.771,507"/>
<path fill-rule="evenodd" clip-rule="evenodd" d="M174,520c-0.091,30.238-19.031,39.081-22,58h1
	C156.72,562.172,180.939,537.497,174,520"/>
<path fill-rule="evenodd" clip-rule="evenodd" d="M142,530c-0.24,11-3.011,21.265-8,31C139.581,556,144.786,537.098,142,530"/>
<path fill-rule="evenodd" clip-rule="evenodd" d="M153,556l-7,15C149.762,567.684,153.746,561.183,153,556"/>
</svg>
