<?xml version="1.0" encoding="utf-8"?>
<!-- Generator: Adobe Illustrator 14.0.0, SVG Export Plug-In . SVG Version: 6.00 Build 43363)  -->
<!DOCTYPE svg PUBLIC "-//W3C//DTD SVG 1.1//EN" "http://www.w3.org/Graphics/SVG/1.1/DTD/svg11.dtd">
<svg version="1.1" id="Layer_1" xmlns="http://www.w3.org/2000/svg" xmlns:xlink="http://www.w3.org/1999/xlink" x="0px" y="0px"
	 width="900px" height="900px" viewBox="0 0 468 468" enable-background="new 0 0 468 468" xml:space="preserve">
<g transform="translate(0,468) scale(0.365625,-0.365625)">
	<path d="M639.999,0 M1159.999,126.154v10v10h10h10v15.999v16.002l40,37.999l40,37.999v16.002v15.999h-10h-10v20v20h-10h-10v17.999
		v18l-20,14.001l-20,14.001v17.999v17.999h-10h-10v18v17.999l-20,14.001l-20,14.001v17.999v17.999h-10h-10v20v20h-10h-10v18v17.999
		l-20,14.001l-20,14.001v18v17.999h-10h-10v18v18.001l-20,14l-20,14v18.001v17.999h-10h-10v18v18.001l-20,14l-20,14v18.001v17.999
		h-10h-10v18v18.001l-20,14l-20,14v18.001v17.999h-10h-10v20v20h-10h-10v18v18.001l-20,14l-20,14v18.001v17.999h-10h-10v16v15
		l-13.998,15l-15,14h-83.002l-82.999-1l-12.001-14l-12.999-14v-13.001v-14l-20-14l-20-14v-18.001v-18h-10h-10v-17.999v-18.001
		l-20-14l-20-14v-16v-16l-20-14l-20-14v-18.001v-18h-10h-10v-17.999v-18.001l-20-14l-20-14v-18.001v-18h-10h-10v-17.999v-18.001
		l-20-14l-20-14v-18.001v-18h-10h-10v-17.999v-18.001l-20-14l-20-14.001v-17.999v-18h-10h-10v-17.999v-18l-20-14.001l-20-14.001
		v-17.999v-18h-10h-10v-17.999v-17.999l-20-14.001l-20-14.001v-15.999v-15.999l-20-14.001l-20-14.001v-18v-17.999h-10h-10v-20v-20
		h-10h-10v-15.999v-16.002l30-27.999l30-27.999v-14.001v-13.998l20-14.001l20-14.001v-8v-7.999 M579.999,1126.154v-20h10h10v-17.999
		v-18.001l20-14l20-14v-18.001v-18h10h10v-20v-20h10h10v-17.999v-18.001l20-14l20-14v-14v-13.001l15-15l15-15l16.002,15l15,16
		l-52.001,51l-52,51l13,7.999l12.999,8l-42.999,42l-43,42.001l13,7.999l14.001,9l-22.999,21l-24.001,20l7,7.001l7.001,6.999l10-14
		l8.998-15l10,15l10,15l10-15l10-15l10,15l10,15l10-15l10-15l9.001,15l10,14l8-6.999l7-8.001l-12.999-9L717,1118.154l43-42.001
		l42.999-42l-12.999-8l-13.998-7.999l33.998-32.001l34.001-32l-14.001-8l-13-7.999l42.999-42.001l43-42l-13-8L877,838.154
		l42.999-42.001l43-42l-13-8L937,738.154l42.999-42.001l43-42l-13-8L997,638.154l42.999-42.001l43-42l-13-8L1057,538.154
		l42.999-42.001l43-42l-13-8L1117,438.154l42.999-42.001l43-42.001l-13-7.999l-14.001-9.001L1199,316.154l23.998-20l-7-7.001
		l-6.998-7l-10,14.001l-9.001,15l-10-15l-10-15l-10,15l-10,15l-10-15l-10-15l-10,15l-10,15l-10-15l-10-15l-10,15l-10,15l-10-15
		l-10-15l-10,15l-10,15l-10-15l-10-15l-10,15l-10,15l-10-15l-10-15l-10,15l-10,15l-10-15l-10-15l-10,15l-10,15l-10-15l-10-15l-10,15
		l-10,15l-10-15l-10-15l-10,15l-10,15l-10-15l-10-15l-10,15l-10,15l-10-15l-10-15l-10,15l-10,15l-10-15l-10-15l-10,15l-10,15l-10-15
		l-10-15l-10,15l-10,15l-10-15l-10-15l-10,15l-10,15l-10-15l-10-15l-10,15l-10,15l-10-15l-10-15l-10,15l-10,15l-10-15l-10-15l-10,15
		l-10,15l-10-15l-10-15l-10,15l-10,15l-10-15l-10-15l-10,15l-10,15l-8.998-15l-10-14.001l-7.001,7L397,296.154l24.001,20
		L444,337.153l-12.999,9.001L417,354.153l38,37.001l37,38l9.001-13.998l8.998-14.001l10,15l10,15l10-15l10-15l10,15l10,15l10-15
		l10-15l10,15l10,15l10-15l10-15l10,15l10,15l10-15l10-15l10,15l10,15l10-15l10-15l10,15l10,15l10-15l10-15l10,15l10,15l10-15l10-15
		l10,15l10,15l10-15l10-15l10,15l10,15l10-15l10-15l10,15l10,15l10-15l10-15l10,15l10,15l10-15l10-15l10,15l10,15L979,417.153
		l8.998-13.998l18,17.001l17,17.999L1009,447.153l-14.001,9.001l14.001,9.001l13.998,8.998l-43,42L937,558.154l12.999,7.999l13,8
		L927,610.155l-36.002,35.999h-5.999h-5v-17.999v-18l20-14.001l20-14.001v-17.999v-18H914h-7l-18,22.001l-19.001,20.999l-7-5.999
		L857,576.154l23.998-20L904,535.155l-14.001-9.001l-14.001-9.001l7-6.998l7-7.001l20,22.001l19.001,23l15.999-15l15-16.002v-15
		v-15.999h10h10v-20v-20h-9.001H962l-5,13l-5,12l-11.002-15l-10.999-15l-10.999,15l-11.002,15l-5-12l-5-13H869h-29.001v20v20H849
		h8.998l5-12l4.001-13l7.999,7.001l7.001,7.001l-17.001,16.998l-17,17.001l-7.999-13l-8-12.999l-18,17.001l-17,18l14.001,7.999
		L824,535.155l-8.002,8L807,551.154l-4.001-12l-5-13H789h-9.001v19.001v18.998l-12.001,5l-12.999,4.001l24.001,22l23.998,20.999
		L797,623.154l-7,5.999l-18.998-20.999l-18.002-22.001h-6.998h-6.002v19.001v18.998l12,4.001l13,5l-18,17.999l-19.001,18l-7.999-13
		l-8-12.999l-15.999,15.999l-16.002,16v13.001v14l-20,14l-20,14v16v16l-20,14l-20,14v15v14l-22.001,19.001l-21.998,19l12.999,9
		l13.998,8l-16.998,17L549,908.154l-7-6l-5.999-7l12.999-9l13.998-7.999l-16.998-17.001l-17.001-17l-19.001,23.001l-20,21.999
		l-7.001-5.999L477,876.154l20.999-19l22.001-18.001v-16.999v-16h-8.998H502l-5,13l-4.001,12l-8.998-9l-9.001-9l12.999-4.001
		l12.001-5v-14v-15l-25.999-26l-26.002-25.999l-7.999,14l-8.998,13l-8.002-8l-7.999-9l12.999-4.001l12.001-5v-25v-24l-15-16
		l-15.999-15l-7.001,6l-5.999,7l13.998,9l14.001,9l-6.002,7l-6.998,6l-18.002-18.001l-17.999-16.999l12.999-5l12.001-4.001v-18.998
		v-19.001h-10h-10v-15.999v-15L364,559.153l-16.002-15.999l-7.999,13.998l-8.998,13.002l-8.002-8.002l-7.999-8.998l12.999-4.001
		l12.001-5v-18.998v-19.001h-10h-10v-15.999v-15L304,459.153l-16.002-15.999l-7.999,13.998l-8.998,13.002l-8.002-8.002l-7.999-8.998
		l12.999-4.001l12.001-5v-18.998v-19.001h-10h-10v-15.999v-15L244,359.153l-16.002-15.999l-7.999,13.998l-8.998,13.002l-8.002-7.001
		l-6.998-7.999l13.998-10l15-11.002l-12.001-5l-12.999-5v-18.998v-19.001h-10h-10v-17.999v-17.999l-20-14.001l-20-14.001v-13.998
		v-12.999l-13.998-15l-15-14.001h-5h-6.002v15.999v16.002l-30,27.999l-30,27.999v16.002v15.999H49h8.998l5-12.001L67,261.154
		l9.001,9.001l8.998,8.998l-12.001,4.001l-12.999,5v15v13.998l16.002,16.002L92,349.153l7.999-13.998L109,322.153l7.999,8.002
		l7.999,8.998l-12.001,4.001l-12.999,5v18.998v19.001h10h10v15.999v15l15,16.002l16.002,15l6.998-6.002l6.002-6.998l-14.001-9.001
		l-13.998-9.001l5.999-6.998l7.001-6.002l17.999,18l17.999,17.001l-12.999,5l-12.001,4.001v18.998v19.001h10h10v15.999v15l15,16.002
		l16.002,15l6.998-6.002l6.002-6.998l-14.001-9.001l-13.998-9.001l5.999-6.998l7.001-6.002L227,522.153l17.999,17.001l-12.999,5
		l-12.001,4.001v18.998v19.001h10h10v18v17.999l20,14.001l20,14v18.001v17.999h10h10v18v18.001l20,14l20,14v18.001v17.999h10h10v18
		v18.001l20,14l20,14v14v13.001l15,16l16.002,15l6.998-6l6.002-7l-12.999-9L417,878.154L434,861.154l17.001-17l6.998,6l6.002,7
		l-14.001,10l-15,9l15,11l15,11l-12.001,5l-12.999,5v19v19h10h10v18v18.001l20,14l20,14v18.001v17.999h10h10v18v18.001l20,14l20,14
		v18.001v17.999h10h10V1126.154z M559.999,796.154v-10h-10h-10v10v10h10h10V796.154z M599.999,756.154v-10h-10h-10v10v10h10h10
		V756.154z M499.999,716.154v-10h-10h-10v10v10h10h10V716.154z M559.999,716.154v-10h-10h-10v10v10h10h10V716.154z M599.999,696.154
		v-10h-10h-10v10v10h10h10V696.154z M659.999,691.154v-16l26.002-26L712,623.154l8,13.998L729,650.154l8-8l8-9l-12.001-4.001
		l-12.999-5v-18.998v-19.001h10h10v-15.999v-16.002l40-38l40-37.999v-16.002v-15.999h-170h-170v10v10h10h10v20v20h10h10v20v20h10h10
		v18v17.999l20,14.001l20,14.001v15.999v16l20,14l20,14v18.001v17.999h20h20V691.154z M479.999,676.154v-10h-10h-10v10v10h10h10
		V676.154z M559.999,656.154v-10h-10h-10v10v10h10h10V656.154z M519.999,616.154v-10h-10h-10v10v10h10h10V616.154z M439.999,596.154
		v-10h-10h-10v10v10h10h10V596.154z M479.999,596.154v-10h-10h-10v10v10h10h10V596.154z M419.999,536.154v-10h-10h-10v10v10h10h10
		V536.154z M499.999,536.154v-10h-10h-10v10v10h10h10V536.154z M439.999,496.154v-10h-10h-10v10v10h10h10V496.154z M379.999,476.154
		v-10h-10h-10v10v10h10h10V476.154z M459.999,456.154v-10h-10h-10v10v10h10h10V456.154z M339.999,436.154v-10h-10h-10v10v10h10h10
		V436.154z M439.999,416.154v-10h-10h-10v10v10h10h10V416.154z M379.999,396.154v-10h-10h-10v10v10h10h10V396.154z M319.999,376.154
		v-10h-10h-10v10v10h10h10V376.154z M379.999,336.154v-10h-10h-10v10v10h10h10V336.154z M299.999,316.154v-10h-10h-10v10v10h10h10
		V316.154z M259.999,296.154v-10h-10h-10v10v10h10h10V296.154z M359.999,296.154v-10h-10h-10v10v10h10h10V296.154z M659.999,256.154
		v-10h-10h-10v10v10h10h10V256.154z M839.999,256.154v-10h-10h-10v10v10h10h10V256.154z M1059.999,256.154v-10h-10h-10v10v10h10h10
		V256.154z M219.999,236.154v-10h-10h-10v10v10h10h10V236.154z M299.999,236.154v-10h-10h-10v10v10h10h10V236.154z M359.999,236.154
		v-10h-10h-10v10v10h10h10V236.154z M419.999,236.154v-10h-10h-10v10v10h10h10V236.154z M479.999,236.154v-10h-10h-10v10v10h10h10
		V236.154z M559.999,236.154v-10h-10h-10v10v10h10h10V236.154z M619.999,236.154v-10h-10h-10v10v10h10h10V236.154z M699.999,236.154
		v-10h-10h-10v10v10h10h10V236.154z M779.999,236.154v-10h-10h-10v10v10h10h10V236.154z M899.999,236.154v-10h-10h-10v10v10h10h10
		V236.154z M999.999,236.154v-10h-10h-10v10v10h10h10V236.154z M1119.999,236.154v-10h-10h-10v10v10h10h10V236.154z
		 M1179.999,236.154v-10h-10h-10v10v10h10h10V236.154z M259.999,216.154v-10h-10h-10v10v10h10h10V216.154z M839.999,216.154v-10h-10
		h-10v10v10h10h10V216.154z M959.999,216.154v-10h-10h-10v10v10h10h10V216.154z M379.999,196.154v-10h-10h-10v10v10h10h10V196.154z
		 M499.999,196.154v-10h-10h-10v10v10h10h10V196.154z M739.999,196.154v-10h-10h-10v10v10h10h10V196.154z M1019.999,196.154v-10h-10
		h-10v10v10h10h10V196.154z M199.999,176.154v-10h-10h-10v10v10h10h10V176.154z M299.999,176.154v-10h-10h-10v10v10h10h10V176.154z
		 M439.999,176.154v-10h-10h-10v10v10h10h10V176.154z M559.999,176.154v-10h-10h-10v10v10h10h10V176.154z M619.999,176.154v-10h-10
		h-10v10v10h10h10V176.154z M659.999,176.154v-10h-10h-10v10v10h10h10V176.154z M779.999,176.154v-10h-10h-10v10v10h10h10V176.154z
		 M879.999,176.154v-10h-10h-10v10v10h10h10V176.154z M939.999,176.154v-10h-10h-10v10v10h10h10V176.154z M1139.999,176.154v-10h-10
		h-10v10v10h10h10V176.154z M259.999,156.154v-10h-10h-10v10v10h10h10V156.154z M359.999,156.154v-10h-10h-10v10v10h10h10V156.154z
		 M499.999,156.154v-10h-10h-10v10v10h10h10V156.154z M719.999,156.154v-10h-10h-10v10v10h10h10V156.154z M819.999,156.154v-10h-10
		h-10v10v10h10h10V156.154z M999.999,156.154v-10h-10h-10v10v10h10h10V156.154z M1079.999,156.154v-10h-10h-10v10v10h10h10V156.154z
		"/>
	<path d="M639.999,1117.154v-9l12.999-5l12.001-5l-13.998-10l-14.001-10l43-42.001l42.999-42l-12.999-8l-13-7.999l52-51l53-52
		l-20.999-18l-21.002-18.001v-16.999v-16h10h10v-19v-19l12.999-5l12.001-5l-15-11l-13.998-10l7.999-8.001l8.998-8l4.001,13l5,12
		h9.001h8.998v-19v-19l12.999-5l12.001-5l-15-11l-14.001-10l8.002-8.001l8.998-8l4.001,13l5,12h8.998h9.001v-20v-20H869h8.998
		L882,658.154l3.998,11.999l49.001-48.001l48-47.999l-13-8L957,558.154l42.999-42.001l43-42L1029,465.155l-14.001-9.001
		l14.001-9.001l13.998-8.998l-28-27.001l-27-27.999L979,397.153l-9.001,14.001l-10-15l-10-15l-10,15l-10,15l-10-15l-10-15l-10,15
		l-10,15l-10-15l-10-15l-10,15l-10,15l-10-15l-10-15l-10,15l-10,15l-10-15l-10-15l-10,15l-10,15l-10-15l-10-15l-10,15l-10,15l-10-15
		l-10-15l-10,15l-10,15l-10-15l-10-15l-10,15l-10,15l-10-15l-10-15l-10,15l-10,15l-10-15l-10-15l-10,15l-10,15l-10-15l-10-15l-10,15
		l-10,15l-10-15l-10-15l-8.998,14.001L492,409.153l-27-27.999l-28-27.001l14.001-8.998l13.998-9.001l-15-9.001l-13.998-10l6.998-8
		l8.002-7l10,14.001l8.998,15l10-15l10-15l10,15l10,15l10-15l10-15l10,15l10,15l10-15l10-15l10,15l10,15l10-15l10-15l10,15l10,15
		l10-15l10-15l10,15l10,15l10-15l10-15l10,15l10,15l10-15l10-15l10,15l10,15l10-15l10-15l10,15l10,15l10-15l10-15l10,15l10,15l10-15
		l10-15l10,15l10,15l10-15l10-15l10,15l10,15l10-15l10-15l10,15l10,15l10-15l10-15l10,15l10,15l10-15l10-15l10,15l10,15l10-15l10-15
		l10,15l10,15l10-15l10-15l10,15l10,15l10-15l10-15l10,15l10,15l9.001-15l10-14.001l8,7l7,8l-14.001,10l-15,9.001l14.001,9.001
		l13.998,8.998l-43,42.001L1097,438.154l12.999,7.999l13,8l-43,42L1037,538.154l12.999,7.999l13,8l-43,42L977,638.154l12.999,7.999
		l13,8l-43,42L917,738.154l12.999,7.999l13,8l-43,42L857,838.154l12.999,7.999l13,8l-42.999,42l-43,42.001l13,7.999l14.001,8
		l-34.001,32l-33.998,32.001l12.999,7.999l13.998,8l-47.999,47l-47.001,48l-10-14l-10-14l-5,13l-5,12H649h-9.001V1117.154z
		 M727,1070.154l35.999-36l-12.999-8l-13.998-7.999l33.998-32.001l34.001-32l-14.001-8l-13-7.999l43-42.001l42.999-42l-13-8
		L837,838.154l42.999-42.001l43-42l-13-8L897,738.154l42.999-42.001l43-42l-13-8L957,638.154l42.999-42.001l43-42l-13-8
		L1017,538.154l42.999-42.001l43-42l-13-8L1077,438.154l42-41.002l43-40.999l-17.001-17.001l-17-15.999L1119,337.153l-9.001,14.001
		l-10-15l-10-15l-10,15l-10,15l-10-15l-10-15l-10,15l-10,15l-10-15l-10-15l-10,15l-10,15l-10-15l-10-15l-10,15l-10,15l-10-15l-10-15
		l-10,15l-10,15l-10-15l-10-15l-10,15l-10,15l-10-15l-10-15l-10,15l-10,15l-10-15l-10-15l-10,15l-10,15l-10-15l-10-15l-10,15l-10,15
		l-10-15l-10-15l-10,15l-10,15l-10-15l-10-15l-10,15l-10,15l-10-15l-10-15l-10,15l-10,15l-10-15l-10-15l-10,15l-10,15l-10-15l-10-15
		l-10,15l-10,15l-10-15l-10-15l-10,15l-10,15l-8.998-14.001L492,323.154l-17,15.999L459,356.154l15.999,17.001l17,15.999
		l9.001-13.998l8.998-14.001l10,15l10,15l10-15l10-15l10,15l10,15l10-15l10-15l10,15l10,15l10-15l10-15l10,15l10,15l10-15l10-15
		l10,15l10,15l10-15l10-15l10,15l10,15l10-15l10-15l10,15l10,15l10-15l10-15l10,15l10,15l10-15l10-15l10,15l10,15l10-15l10-15l10,15
		l10,15l10-15l10-15l10,15l10,15l10-15l10-15l10,15l10,15L979,377.153l8.998-13.998l37,37.999l38,37.001L1049,447.153l-14.001,9.001
		l14.001,9.001l13.998,8.998l-43,42L977,558.154l12.999,7.999l13,8l-103,102L797,778.154l14.001,7.999l12.999,9l-22.999,20
		l-24.001,21l23,20l22,19l-53,52l-52,51l13,7.999l12.999,8l-41.998,41l-42.001,41l13,14l13,15l2.999,1h3.002L727,1070.154z"/>
	<path d="M679.999,1081.154v-6l26.002-26l25-25l5.999,5l5,6l-25,25l-25.999,26h-6.002h-5V1081.154z"/>
	<path d="M739.999,980.154v-5l15-16l16.002-15l5.999,5l5,6l-15,16l-15.999,15h-5h-6.002V980.154z"/>
	<path d="M812,850.154l-14.001-15l23-20l23.002-20l-13.002-8l-13.998-9l67-67.001l66.998-67l6.002,6l5,5l-42.001,41L877,738.154
		l12.999,7.999l13,8L859,797.154l-44.001,41.999l12.999,4.001l12.001,5v9v9h-7.001l-7.999-1L812,850.154z M867,771.154l15-16l-5-6
		l-6.002-5l-15.999,15l-15,16v5v6h5.999h5L867,771.154z"/>
	<path d="M999.999,556.154v-10h10h10v10v10h-10h-10V556.154z"/>
	<path d="M1059.999,456.154v-10h10h10v10v10h-10h-10V456.154z"/>
	<path d="M1032,390.155l-34.001-35l7-7.001l5.999-6.002l10,14.001l9.001,15l10-15l10-15l10,15l10,15l10-15l10-15l10,15l10,15
		l9.001-15l10-14.001l5.999,6.002l7.001,7.001l-36.002,35l-35,35.999l-3-0.999h-3L1032,390.155z M1087,391.154l15-15.999
		l-6.002-7.001l-6.998-6.002l-10,14.001l-9.001,15l-9.001-15l-10-14.001l-5.999,6.002l-7,7.001l13,15l14.001,15l3,0.999h3
		L1087,391.154z"/>
	<path d="M479.999,356.154v-10h10h10v10v10h-10h-10V356.154z"/>
	<path d="M519.999,356.154v-10h10h10v10v10h-10h-10V356.154z"/>
	<path d="M559.999,356.154v-10h10h10v10v10h-10h-10V356.154z"/>
	<path d="M599.999,356.154v-10h10h10v10v10h-10h-10V356.154z"/>
	<path d="M639.999,356.154v-10h10h10v10v10h-10h-10V356.154z"/>
	<path d="M679.999,356.154v-10h10h10v10v10h-10h-10V356.154z"/>
	<path d="M719.999,356.154v-10h10h10v10v10h-10h-10V356.154z"/>
	<path d="M759.999,356.154v-10h10h10v10v10h-10h-10V356.154z"/>
	<path d="M799.999,356.154v-10h10h10v10v10h-10h-10V356.154z"/>
	<path d="M839.999,356.154v-10h10h10v10v10h-10h-10V356.154z"/>
	<path d="M879.999,356.154v-10h10h10v10v10h-10h-10V356.154z"/>
	<path d="M919.999,356.154v-10h10h10v10v10h-10h-10V356.154z"/>
	<path d="M959.999,356.154v-10h10h10v10v10h-10h-10V356.154z"/>
	<path d="M559.999,1096.154v-10h10h10v10v10h-10h-10V1096.154z"/>
	<path d="M531.001,1050.154l-13.002-15l7.001-6.999l6.002-6l10,14l8.998,15l9.001-15l10-14l7.001,6l5.999,6.999l-15,16l-15.999,15
		h-3.002l-2.999-1L531.001,1050.154z"/>
	<path d="M599.999,1016.154v-10h10h10v10v10h-10h-10V1016.154z"/>
	<path d="M519.999,996.154v-10h10h10v10v10h-10h-10V996.154z"/>
	<path d="M559.999,996.154v-10h10h10v10v10h-10h-10V996.154z"/>
	<path d="M479.999,977.154v-9l12.999-5l12.001-5l-13.998-10l-14.001-10L494,921.154l17.001-17l6.998,6l6.002,7l-14.001,10l-15,9
		l14.001,9l13.998,9l-15.999,16l-15.999,16h-5h-6.002V977.154z"/>
	<path d="M599.999,980.154v-5l15-16l16.002-15l5.999,5l5,6l-15,16l-15.999,15h-5h-6.002V980.154z"/>
	<path d="M539.999,960.154v-5l15-16l16.002-15l5.999,5l5,6l-15,16l-15.999,15h-5h-6.002V960.154z"/>
	<path d="M599.999,920.154v-5l15-15l15-15l16.002,16l15.999,16l-5.999,6.999l-7.001,6l-10-14l-11.002-15l-5,13l-5,12H609h-9.001
		V920.154z"/>
	<path d="M671.001,890.154l-13.002-15l6.002-6l5-5l15.999,15l15,16v5v6h-7.001l-7.999-1L671.001,890.154z"/>
	<path d="M599.999,860.154v-5l15-16l16.002-15l5.999,5l5,6l-15,16l-15.999,15h-5h-6.002V860.154z"/>
	<path d="M659.999,836.154v-10h10h10v10v10h-10h-10V836.154z"/>
	<path d="M699.999,840.154v-5l15-16l16.002-15l5.999,5l5,6l-15,16l-15.999,15h-5h-6.002V840.154z"/>
	<path d="M382,800.154l-22.999-24l15.999-16l16.002-16l6.998,6l6.002,7l-14.001,9l-13.998,9l21.998,19l22.001,19.001v6.999v6
		l-7.001-1h-7.999L382,800.154z"/>
	<path d="M439.999,816.154v-10h10h10v10v10h-10h-10V816.154z"/>
	<path d="M639.999,796.154v-10h10h10v10v10h-10h-10V796.154z"/>
	<path d="M679.999,796.154v-10h10h10v10v10h-10h-10V796.154z"/>
	<path d="M439.999,776.154v-10h10h10v10v10h-10h-10V776.154z"/>
	<path d="M719.999,780.154v-5l15-16l16.002-15l5.999,5l5,6l-15,16l-15.999,15h-5h-6.002V780.154z"/>
	<path d="M659.999,760.154v-5l15-16l16.002-15l5.999,5l5,6l-15,16l-15.999,15h-5h-6.002V760.154z"/>
	<path d="M331.001,730.154l-13.002-15l6.002-6l5-5l15.999,15l15,16v5v6h-7.001l-7.999-1L331.001,730.154z"/>
	<path d="M371.001,710.154l-13.002-15l6.002-6l5-5l15.999,15l15,16v5v6h-7.001l-7.999-1L371.001,710.154z"/>
	<path d="M711.001,710.154l-13.002-15l7.001-6.999l6.002-6l10,14l8.998,15l9.001-15l10-14l7.001,6l5.999,6.999l-15,16l-15.999,15
		h-3.002l-2.999-1L711.001,710.154z"/>
	<path d="M779.999,696.154v-10h10h10v10v10h-10h-10V696.154z"/>
	<path d="M312,670.154l-14.001-15l23.002-19.999l22.999-20l-14.001-9.001l-13.998-9.001l5.999-6.998l7.001-6.002l17.001,16.002
		L362,617.153L339,638.154l-24.001,20.999l12.999,4.001l12.001,5v9v9h-7.001l-7.999-1L312,670.154z"/>
	<path d="M779.999,656.154v-10h10h10v10v10h-10h-10V656.154z"/>
	<path d="M819.999,640.154v-4.999l15-16.002l15.999-15l6.002,5l5,6.002l-15,15.999l-16.002,15h-5h-5.999V640.154z"/>
	<path d="M259.999,617.153v-8.998l12.999-5l12.001-5l-15-11.002l-15-10.999l15-10l15-10l-15-9.001l-13.998-10l5.999-6.998
		l7.001-6.002l17.001,17l16.998,17.001L289,567.153l-14.001,9.001L289,585.155l13.998,8.998L287,610.155l-15.999,15.999h-5h-6.002
		V617.153z"/>
	<path d="M799.999,576.154v-10h10h10v10v10h-10h-10V576.154z"/>
	<path d="M839.999,536.154v-10h10h10v10v10h-10h-10V536.154z"/>
	<path d="M239.999,496.154v-10h10h10v10v10h-10h-10V496.154z"/>
	<path d="M279.999,496.154v-10h10h10v10v10h-10h-10V496.154z"/>
	<path d="M919.999,496.154v-10h10h10v10v10h-10h-10V496.154z"/>
	<path d="M199.999,480.155v-5l15-16.002l16.002-15l5.999,5l5,6.002l-15,15.999l-15.999,15h-5h-6.002V480.155z"/>
	<path d="M199.999,420.155v-5l15-16.002l16.002-15l5.999,5l5,6.002l-15,15.999l-15.999,15h-5h-6.002V420.155z"/>
	<path d="M119.999,380.155v-5l15-15l15-15l16.002,15.999L182,377.153l-5.999,7L169,390.155l-10-14.001l-11.002-15l-5,12.999
		l-5,12.001H129h-9.001V380.155z"/>
	<path d="M139.999,320.155v-5l15-16.002l16.002-15l5.999,5l5,6.002l-15,15.999l-15.999,15h-5h-6.002V320.155z"/>
	<path d="M99.999,296.154v-10h10h10v10v10h-10h-10V296.154z"/>
	<path d="M92,250.155L79,236.154l15.999-15.999l16.002-16.002l6.998,6.002l6.002,6.998l-14.001,10l-15,11.002l12.999,5l12.001,5
		v8.998v9.001h-7.001l-7.999-0.999L92,250.155z"/>
	<path d="M139.999,256.154v-10h10h10v10v10h-10h-10V256.154z"/>
</g>
</svg>
