<?xml version="1.0" encoding="UTF-8" standalone="no"?>
<!-- Created with Inkscape (http://www.inkscape.org/) -->

<svg
   width="386"
   height="57"
   viewBox="0 0 102.12917 15.08125"
   version="1.1"
   id="svg1"
   xmlns="http://www.w3.org/2000/svg"
   xmlns:svg="http://www.w3.org/2000/svg">
  <defs
     id="defs1">
    <clipPath
       clipPathUnits="userSpaceOnUse"
       id="clipPath4842">
      <path
         d="M 0,0 H 864.567 V 649.134 H 0 Z"
         id="path4842" />
    </clipPath>
    <clipPath
       clipPathUnits="userSpaceOnUse"
       id="clipPath7338">
      <path
         d="M 0,0 H 864.567 V 649.134 H 0 Z"
         id="path7338" />
    </clipPath>
  </defs>
  <g
     id="layer1"
     transform="translate(-57.414571,-135.73125)">
    <path
       id="path4841"
       d="m 593.3147,337.9702 c -11.253,0 -20.376,-9.123 -20.376,-20.376 0,-11.253 9.123,-20.376 20.376,-20.376 h 249.414 c 11.253,0 20.376,9.123 20.376,20.376 0,11.253 -9.123,20.376 -20.376,20.376 z"
       style="fill:#ff0000;fill-opacity:1;fill-rule:nonzero;stroke:none"
       transform="matrix(0.35196807,0,0,-0.37007386,-144.24156,260.80519)"
       clip-path="url(#clipPath4842)" />
    <path
       id="path7337"
       d="m 610.5956,301.1366 c 7.068,0 12.621,2.425 12.621,9.748 0,5.421 -4.342,8.179 -9.087,9.462 3.332,0.761 6.159,3.139 6.159,6.467 0,4.946 -3.635,8.369 -10.097,8.369 -3.937,0 -8.481,-0.808 -13.731,-0.808 -1.666,0 -3.08,0.143 -4.14,0.428 0.101,0 -1.262,0.571 -1.565,0.571 -0.151,0 -0.202,-0.096 -0.202,-0.238 0,-0.19 0.404,-0.761 1.111,-1.665 v -30.622 c -0.707,-0.904 -1.111,-1.427 -1.111,-1.617 0,-0.143 0.101,-0.238 0.202,-0.238 0.303,0 1.515,0.666 1.969,0.761 0.808,0.238 2.07,0.333 3.433,0.333 5.654,0 8.784,-0.951 14.438,-0.951 m -3.837,18.592 c 2.676,0 5.2,-1.759 5.2,-4.184 0,-3.376 -3.433,-4.803 -3.433,-8.179 0,-2.52 1.919,-4.089 4.039,-5.088 -1.313,-0.142 -6.512,0.095 -9.743,0.476 v 16.642 c 1.464,0.143 2.473,0.333 3.937,0.333 m -0.959,14.408 c 2.423,0 4.14,-1.189 4.14,-2.805 0,-2.806 -2.07,-4.09 -2.07,-6.895 0,-1.522 1.414,-2.901 2.07,-3.376 -1.767,-0.048 -6.26,-0.381 -7.118,-0.523 v 13.219 c 0.303,0.095 1.767,0.38 2.978,0.38 m 38.75,-21.017 2.12,-10.224 c -0.757,-0.903 -1.161,-1.474 -1.161,-1.664 0,-0.19 0.101,-0.238 0.253,-0.238 0.303,0 0.908,0.333 1.817,1.094 h 9.592 c 0.909,-0.761 1.514,-1.094 1.817,-1.094 0.152,0 0.253,0.048 0.253,0.238 0,0.19 -0.404,0.761 -1.161,1.664 l -6.008,30.575 c 0.757,0.904 1.161,1.475 1.161,1.665 0,0.19 -0.101,0.238 -0.252,0.238 -2.171,-0.381 -1.515,-0.999 -5.553,-0.999 -3.484,0 -5.402,0.523 -8.885,0.523 -1.717,0 -2.575,-0.38 -4.241,-0.618 -0.909,0.761 -1.514,1.094 -1.817,1.094 -0.152,0 -0.253,-0.048 -0.253,-0.238 0,-0.19 0.404,-0.761 1.161,-1.665 l -3.634,-19.448 c -0.758,-4.137 -3.13,-9.32 -4.493,-11.127 -0.455,-0.618 -1.161,-1.474 -1.161,-1.664 0,-0.19 0.1,-0.238 0.252,-0.238 0.303,0 0.909,0.333 1.817,1.094 h 4.493 c 0.909,-0.761 1.515,-1.094 1.818,-1.094 0.151,0 0.252,0.048 0.252,0.238 0,0.19 -0.404,0.761 -1.161,1.664 -0.959,2.996 -1.313,5.279 -1.313,7.038 0,1.379 0.152,2.14 0.404,3.186 0.505,0.428 2.02,0.903 3.383,0.903 2.978,0 4.493,-1.426 7.471,-1.426 1.262,0 3.13,0.523 3.13,0.523 z m -13.58,1.426 3.484,18.593 c 0.858,0.475 1.968,0.665 3.129,0.665 1.414,0 2.929,-0.237 3.282,-0.333 l 3.584,-19.162 c 0,0 -1.767,-0.476 -2.928,-0.476 -2.978,0 -4.493,1.427 -7.471,1.427 -1.262,0 -2.676,-0.333 -3.13,-0.714 z m 45.767,19.449 c 3.029,0 5.856,-2.283 6.512,-5.184 l 0.303,-1.474 5.755,4.232 -0.959,0.048 c -0.859,0 -6.462,3.471 -11.41,3.471 -8.834,0 -12.62,-4.089 -12.62,-9.367 0,-3.804 1.767,-6.277 7.976,-9.273 l 7.522,-3.614 c 3.231,-1.569 4.897,-3.043 4.897,-5.183 0,-2.33 -1.666,-5.23 -6.109,-5.23 -4.644,0 -7.673,1.379 -7.673,4.184 0,1.046 0.555,2.283 1.868,2.283 0.858,0 1.161,-0.095 1.716,-0.666 0.303,0.476 0.455,1.141 0.455,1.902 0,3.376 -2.928,5.278 -6.513,5.278 -3.685,0 -6.108,-2.52 -6.108,-5.896 0,-6.942 9.743,-8.369 16.356,-8.369 9.592,0 13.681,5.231 13.681,11.697 0,4.898 -2.675,7.704 -9.44,10.509 l -7.219,2.996 c -2.171,1.236 -3.282,2.425 -3.282,4.517 0,1.76 2.474,3.139 4.292,3.139 m 31.378,-31.051 v 20.161 c 0,0 2.575,1.475 4.241,1.475 3.281,0 4.846,-3.709 9.137,-3.709 2.322,0 3.837,1.806 3.837,3.851 0,1.379 -1.313,2.853 -2.171,2.853 -0.151,0 -0.202,-0.142 -0.202,-0.142 0,0 0.202,-0.619 0.202,-0.951 0,-0.952 -1.464,-2.045 -2.625,-2.045 -2.928,0 -4.392,1.474 -7.32,1.474 -2.07,0 -5.099,-1.427 -5.099,-1.427 v 8.702 h 9.693 c 1.312,0 2.625,-0.238 3.483,-0.808 0.404,-0.285 1.414,-0.856 2.12,-1.664 0.202,-0.286 0.505,-0.191 0.354,0.142 l -1.767,4.327 c 0,0 -0.152,0.381 -0.353,0.143 -0.303,-0.38 -1.565,-1.046 -2.726,-1.046 h -21.001 c -0.909,0.761 -1.515,1.094 -1.818,1.094 -0.151,0 -0.252,-0.048 -0.252,-0.238 0,-0.19 0.404,-0.761 1.161,-1.665 v -30.575 c -0.707,-0.951 -1.111,-1.474 -1.111,-1.711 0,-0.096 0.101,-0.191 0.202,-0.191 0.253,-0.047 1.515,0.571 1.767,0.666 1.06,0.285 2.474,0.428 4.241,0.428 5.3,0 11.358,-1.426 15.044,-1.426 5.906,0 9.743,2.425 9.743,8.083 0,3.329 -1.262,5.04 -2.575,6.372 -2.171,-2.14 -6.916,-4.708 -10.349,-5.659 2.171,-0.428 3.08,-2.187 3.08,-3.709 0,-2.234 -2.02,-3.518 -4.493,-3.518 -1.464,0 -3.383,0.38 -4.493,0.713 z m 42.838,3.709 c 0,-2.235 -1.918,-4.137 -4.392,-4.137 -1.464,0 -2.423,0.143 -3.634,0.333 v 30.622 c 0.757,0.904 1.161,1.475 1.161,1.665 0,0.19 -0.101,0.238 -0.253,0.238 -0.303,0 -0.908,-0.333 -1.817,-1.094 h -9.289 c -0.909,0.761 -1.514,1.094 -1.817,1.094 -0.152,0 -0.253,-0.048 -0.253,-0.238 0,-0.19 0.404,-0.761 1.161,-1.665 v -30.575 c -0.706,-0.951 -1.11,-1.474 -1.11,-1.711 0,-0.096 0.101,-0.191 0.202,-0.191 0.252,-0.047 1.514,0.571 1.767,0.666 1.06,0.285 2.473,0.428 4.24,0.428 5.301,0 9.238,-0.903 12.924,-0.903 5.906,0 11.055,1.902 11.055,7.56 0,3.329 -2.069,5.421 -2.069,5.991 0,0.476 0.05,0.714 0.05,0.856 0,0.143 -0.05,0.333 -0.303,0.333 -0.303,0 -1.161,-1.949 -4.341,-3.233 -0.657,-0.285 -4.998,-0.618 -6.361,-2.473 2.575,-0.57 3.079,-2.044 3.079,-3.566 m 24.564,26.818 c 0.757,0.904 1.161,1.475 1.161,1.665 0,0.19 -0.101,0.238 -0.252,0.238 -0.303,0 -0.909,-0.333 -1.818,-1.094 h -9.289 c -0.908,0.761 -1.514,1.094 -1.817,1.094 -0.151,0 -0.252,-0.048 -0.252,-0.238 0,-0.19 0.403,-0.761 1.161,-1.665 v -30.575 c -0.758,-0.903 -1.161,-1.474 -1.161,-1.664 0,-0.19 0.101,-0.238 0.252,-0.238 0.303,0 0.909,0.333 1.817,1.094 h 9.289 c 0.909,-0.761 1.515,-1.094 1.818,-1.094 0.151,0 0.252,0.048 0.252,0.238 0,0.19 -0.404,0.761 -1.161,1.664 z m 34.61,-25.439 c 0,0 0.404,-2.52 0,-4.09 0,-0.285 0,-0.523 -0.202,-0.76 -0.556,-0.666 -1.262,-1.807 -1.262,-1.855 0,-0.095 0.05,-0.19 0.101,-0.238 0.404,0 0.858,0.238 1.968,1.094 1.111,-0.856 1.565,-1.094 1.969,-1.094 0.051,0.048 0.101,0.143 0.101,0.238 0,0.048 -0.555,1.189 -1.262,1.855 -0.151,0.142 -0.303,0.475 -0.303,0.76 v 23.443 c 0,2.71 0.657,5.231 1.969,6.467 0.555,0.666 0.808,1.046 0.808,1.236 0,0.19 -0.202,0.238 -0.253,0.238 -0.252,0 -0.858,-0.333 -1.867,-1.094 h -2.171 c -1.111,0.856 -1.565,1.094 -1.969,1.094 -0.05,-0.048 -0.101,-0.143 -0.101,-0.238 0,-0.047 0.555,-1.189 1.262,-1.854 0.808,-1.427 1.212,-3.376 1.212,-5.849 v -6.182 c 0,0 -2.575,1.617 -4.342,2.521 -3.029,1.521 -5.099,2.33 -7.875,3.661 -2.524,1.331 -3.736,4.327 -3.786,6.372 0.504,0.523 0.908,1.189 0.908,1.379 0,0.19 -0.101,0.238 -0.252,0.238 -0.303,0 -0.909,-0.333 -1.817,-1.094 h -10.249 c -0.959,0.761 -1.564,1.094 -1.867,1.094 -0.152,0 -0.253,-0.143 -0.253,-0.286 0,-0.19 1.464,-1.759 2.272,-3.233 1.262,-2.283 1.615,-6.61 1.615,-6.61 v -12.411 c 0,-3.994 -0.454,-6.894 -3.079,-10.175 -0.606,-0.714 -0.909,-1.189 -0.909,-1.427 0,-0.095 0.101,-0.19 0.253,-0.19 0.303,0 0.858,0.38 1.767,1.094 h 4.644 c 0.909,-0.714 1.514,-1.094 1.817,-1.094 0.152,0 0.253,0.047 0.253,0.285 0,0.095 -0.253,0.476 -0.909,1.332 -2.07,2.567 -2.675,6.181 -2.675,10.175 v 10.319 c 0,0 2.221,-3.233 7.673,-6.324 4.594,-2.616 7.825,-2.853 12.469,-5.659 1.767,-1.093 4.342,-3.091 4.342,-3.091 z m 20.07,-5.088 v 20.161 c 0,0 2.575,1.475 4.241,1.475 3.281,0 4.846,-3.709 9.137,-3.709 2.322,0 3.837,1.806 3.837,3.851 0,1.379 -1.313,2.853 -2.171,2.853 -0.151,0 -0.202,-0.142 -0.202,-0.142 0,0 0.202,-0.619 0.202,-0.951 0,-0.952 -1.464,-2.045 -2.625,-2.045 -2.928,0 -4.392,1.474 -7.32,1.474 -2.07,0 -5.099,-1.427 -5.099,-1.427 v 8.702 h 9.693 c 1.312,0 2.625,-0.238 3.483,-0.808 0.404,-0.285 1.414,-0.856 2.12,-1.664 0.202,-0.286 0.505,-0.191 0.354,0.142 l -1.767,4.327 c 0,0 -0.151,0.381 -0.353,0.143 -0.303,-0.38 -1.565,-1.046 -2.727,-1.046 h -21 c -0.909,0.761 -1.515,1.094 -1.818,1.094 -0.151,0 -0.252,-0.048 -0.252,-0.238 0,-0.19 0.404,-0.761 1.161,-1.665 v -30.575 c -0.707,-0.951 -1.111,-1.474 -1.111,-1.711 0,-0.096 0.101,-0.191 0.202,-0.191 0.253,-0.047 1.515,0.571 1.767,0.666 1.06,0.285 2.474,0.428 4.241,0.428 5.3,0 11.358,-1.426 15.044,-1.426 5.906,0 9.743,2.425 9.743,8.083 0,3.329 -1.262,5.04 -2.575,6.372 -2.171,-2.14 -6.916,-4.708 -10.349,-5.659 2.171,-0.428 3.08,-2.187 3.08,-3.709 0,-2.234 -2.02,-3.518 -4.493,-3.518 -1.464,0 -3.383,0.38 -4.493,0.713 z"
       style="fill:#231f20;fill-opacity:1;fill-rule:nonzero;stroke:none"
       transform="matrix(0.35277776,0,0,-0.35277776,-144.70546,255.48879)"
       clip-path="url(#clipPath7338)" />
  </g>
</svg>
