<?xml version="1.0" encoding="UTF-8" standalone="no"?>
<!-- Created with Inkscape (http://www.inkscape.org/) -->

<svg
   width="386"
   height="57"
   viewBox="0 0 102.12917 15.08125"
   version="1.1"
   id="svg1"
   xmlns="http://www.w3.org/2000/svg"
   xmlns:svg="http://www.w3.org/2000/svg">
  <defs
     id="defs1">
    <clipPath
       clipPathUnits="userSpaceOnUse"
       id="clipPath4840">
      <path
         d="M 0,0 H 864.567 V 649.134 H 0 Z"
         id="path4840" />
    </clipPath>
    <clipPath
       clipPathUnits="userSpaceOnUse"
       id="clipPath7340">
      <path
         d="M 0,0 H 864.567 V 649.134 H 0 Z"
         transform="translate(-719.67932,-294.3922)"
         id="path7340" />
    </clipPath>
    <clipPath
       clipPathUnits="userSpaceOnUse"
       id="clipPath7342">
      <path
         d="M 0,0 H 864.567 V 649.134 H 0 Z"
         id="path7342" />
    </clipPath>
  </defs>
  <g
     id="layer1"
     transform="translate(-3661.3042,-1238.25)">
    <path
       id="path4839"
       d="m 595.7759,297.1384 c -10.853,0 -19.651,-8.798 -19.651,-19.651 0,-10.852 8.798,-19.65 19.651,-19.65 h 249.14 c 10.853,0 19.651,8.798 19.651,19.65 0,10.853 -8.798,19.651 -19.651,19.651 z"
       style="fill:#82bbc0;fill-opacity:1;fill-rule:nonzero;stroke:none"
       transform="matrix(0.35407176,0,0,-0.38373706,3457.3146,1352.273)"
       clip-path="url(#clipPath4840)" />
    <path
       id="path7339"
       d="m 0,0 h 14.791 c 0.12,-0.341 0.18,-1.214 0.18,-2.617 v -4.096 l 1.093,-0.569 c 0.728,0.455 1.153,1.062 1.274,1.821 h 1.822 l 0.182,-1.252 c 0.728,-0.379 1.699,-0.607 2.914,-0.682 0.242,-0.304 0.607,-0.569 1.092,-0.797 h 13.295 c 0,-1.214 1.032,-1.859 3.096,-1.934 -1.724,-0.171 -2.586,-0.484 -2.586,-0.939 0,-0.19 0.136,-0.408 0.409,-0.654 0.574,-0.095 1.163,-0.142 1.769,-0.142 0.302,0 0.619,0.009 0.952,0.028 h 3.629 c 0.242,-0.303 0.726,-0.607 1.452,-0.91 h 2.722 l 0.363,-0.114 v -2.844 c 0.363,-0.304 0.846,-0.569 1.451,-0.797 v -7.736 c -0.121,-0.456 -0.605,-0.911 -1.451,-1.366 v -3.754 c -1.332,0 -2.722,-0.19 -4.174,-0.569 -0.151,-0.361 -0.227,-0.73 -0.227,-1.11 0,-0.189 0.015,-0.388 0.046,-0.597 v -2.275 c -0.967,-0.456 -1.51,-1.1 -1.63,-1.935 H 23.263 c -0.604,0.607 -1.51,0.911 -2.717,0.911 -0.725,-0.588 -1.752,-0.882 -3.08,-0.882 v 0.563 c 0,0.919 -0.499,1.632 -1.497,2.139 -0.666,-0.531 -0.998,-1.176 -0.998,-1.934 v -0.683 l -4.87,-0.114 c 0,0.759 -0.481,1.366 -1.443,1.821 -0.601,-0.455 -0.962,-1.062 -1.082,-1.821 H 0.542 l -0.722,0.114 v 11.036 c -0.363,0.304 -0.847,0.569 -1.452,0.797 v 1.934 c 1.089,0.474 1.633,1.365 1.633,2.674 0,0.607 -0.121,1.308 -0.362,2.105 l -1.271,0.569 v 1.024 c 0.847,0 1.754,0.189 2.722,0.568 v 0.569 c -0.938,0.531 -1.406,1.071 -1.406,1.622 0,0.777 0.953,1.564 2.858,2.361 -0.243,0.758 -1.15,1.137 -2.722,1.137 v 4.665 c 0.483,0.152 0.967,0.417 1.452,0.797 -0.243,0.303 -0.726,0.606 -1.452,0.91 v 2.617 z m 23.805,-4.523 c 0.945,0 1.418,-0.237 1.418,-0.711 0,-0.152 -0.063,-0.341 -0.189,-0.569 -0.221,-0.019 -0.441,-0.028 -0.662,-0.028 -0.945,0 -1.417,0.237 -1.417,0.711 0,0.152 0.063,0.341 0.189,0.569 0.22,0.019 0.44,0.028 0.661,0.028 z m 2.7,-13.112 c -0.783,0.075 -1.49,0.113 -2.123,0.113 -2.497,0 -3.656,-0.607 -3.476,-1.82 -0.993,-0.38 -1.489,-0.939 -1.489,-1.678 v -0.484 -4.323 c 1.149,-0.437 2.449,-0.655 3.901,-0.655 0.544,0 1.118,0.029 1.724,0.086 0.241,-0.304 0.664,-0.607 1.27,-0.91 0.483,0.227 0.967,0.568 1.451,1.024 l 0.545,0.113 0.363,0.342 c 0.483,0.227 1.027,0.569 1.633,1.024 -0.243,0.303 -0.726,0.606 -1.452,0.91 v 6.485 c -0.241,0.228 -0.663,0.455 -1.264,0.683 -0.361,-0.228 -0.723,-0.531 -1.083,-0.91 z m -1.282,-1.593 c -0.393,-0.209 -0.741,-0.313 -1.043,-0.313 -0.363,0 -0.681,0.142 -0.953,0.427 z m 29.213,11.036 h 39.557 c 0.967,-0.759 2.479,-1.1 4.536,-1.024 -0.121,-0.284 -0.182,-0.55 -0.182,-0.796 0,-0.778 0.545,-1.423 1.633,-1.935 v -0.682 c 0.121,-0.835 -0.363,-1.518 -1.451,-2.048 0.242,-0.304 0.726,-0.607 1.451,-0.91 v -20.139 c -0.544,-0.076 -1.935,-0.114 -4.173,-0.114 H 84.013 l -0.726,0.114 v 4.665 c 0.483,0.152 0.968,0.379 1.452,0.683 -0.243,0.455 -0.726,0.796 -1.452,1.024 v 5.575 c 1.452,-0.076 2.419,0.265 2.903,1.024 -0.726,0.379 -1.694,0.606 -2.903,0.682 v 2.959 l -0.181,0.227 c -0.363,0.095 -0.681,0.142 -0.953,0.142 -0.726,0 -1.089,-0.341 -1.089,-1.024 v -0.483 l -0.499,-0.114 -0.181,1.252 c -0.726,0.53 -1.694,1.061 -2.903,1.592 l -0.545,0.569 -0.544,0.228 c -0.968,-0.683 -1.391,-1.593 -1.27,-2.731 -1.21,-0.076 -2.239,0.228 -3.085,0.91 -0.363,-0.152 -0.726,-0.379 -1.089,-0.682 v -16.498 c -0.544,-0.076 -1.119,-0.114 -1.723,-0.114 -0.606,0 -1.241,0.038 -1.906,0.114 0.091,0.265 0.137,0.521 0.137,0.768 0,0.721 -0.409,1.337 -1.225,1.849 -0.968,-0.683 -1.392,-1.593 -1.27,-2.731 h -3.267 c -0.181,0.209 -0.514,0.455 -0.998,0.74 -0.484,0.284 -0.816,0.531 -0.998,0.739 l -0.725,0.342 c -0.726,-0.455 -1.15,-1.062 -1.27,-1.821 -0.485,0.303 -1.15,0.645 -1.996,1.024 0.12,0.683 -0.363,1.366 -1.452,2.048 v 8.989 c 0.483,0.151 0.967,0.417 1.452,0.796 -0.243,0.379 -0.726,0.683 -1.452,0.91 v 13.198 z m 3.72,-2.844 c 0,-0.228 0.272,-0.455 0.817,-0.683 0.604,0.189 0.907,0.398 0.907,0.626 0,0.227 -0.303,0.474 -0.907,0.739 -0.545,-0.227 -0.817,-0.455 -0.817,-0.682 z m 6.986,-19.229 c 0.363,-0.303 0.786,-0.493 1.27,-0.568 0.454,0.208 0.681,0.426 0.681,0.654 0,0.227 -0.288,0.464 -0.862,0.711 -0.484,-0.152 -0.847,-0.417 -1.089,-0.797 z M 137.813,0 c 0.363,0 0.726,-0.076 1.088,-0.228 0.03,-0.17 0.046,-0.36 0.046,-0.568 0,-0.38 -0.076,-0.797 -0.227,-1.252 0.06,-0.114 0.091,-0.247 0.091,-0.398 0,-0.152 -0.031,-0.323 -0.091,-0.512 l 0.181,-0.797 v -1.593 l -0.181,-0.455 c -0.605,-0.152 -1.21,-0.455 -1.815,-0.91 -0.605,0 -1.209,-0.076 -1.814,-0.227 l -0.544,-0.228 c 0,-0.227 0.12,-0.493 0.362,-0.796 0.726,-0.228 1.089,-0.645 1.089,-1.252 -2.057,0 -3.569,-0.341 -4.536,-1.024 0.242,-0.227 0.665,-0.455 1.27,-0.683 h 5.807 l 0.362,-0.227 v -4.324 c 0,-0.303 -0.061,-0.682 -0.181,-1.137 l 0.181,-0.797 c -0.998,-0.17 -2.132,-0.256 -3.402,-0.256 -0.424,0 -0.862,0.009 -1.315,0.029 -1.573,-0.531 -2.541,-1.442 -2.903,-2.731 -0.273,-0.038 -0.515,-0.057 -0.726,-0.057 -0.847,0 -1.27,0.36 -1.27,1.081 -0.303,0.417 -0.636,0.626 -0.998,0.626 -0.363,0 -0.757,-0.209 -1.18,-0.626 v -16.384 l -14.334,-0.114 -0.908,0.114 c 0.121,0.303 0.182,0.616 0.182,0.939 0,0.322 -0.061,0.654 -0.182,0.995 0.968,0 1.935,0.228 2.904,0.683 -0.363,0.683 -1.332,1.024 -2.904,1.024 0.121,0.607 0.182,1.365 0.182,2.276 l -0.182,0.568 c 0.061,0.114 0.091,0.237 0.091,0.37 0,0.133 -0.03,0.275 -0.091,0.427 l 0.182,0.796 c 0,0.303 -0.061,0.683 -0.182,1.138 1.21,0.379 2.178,1.024 2.904,1.934 -0.726,0.379 -1.694,0.607 -2.904,0.683 0.061,0.151 0.091,0.313 0.091,0.483 0,0.171 -0.03,0.351 -0.091,0.541 0.605,0.151 1.089,0.455 1.452,0.91 -0.363,0.303 -0.847,0.569 -1.452,0.797 0.151,0.416 0.227,0.853 0.227,1.308 0,0.607 -0.136,1.232 -0.408,1.877 -1.119,0.266 -2.359,0.399 -3.72,0.399 -0.575,0 -1.149,-0.02 -1.724,-0.057 0.121,0.834 -0.423,1.479 -1.633,1.934 0.121,0.265 0.182,0.55 0.182,0.853 0,0.303 -0.061,0.626 -0.182,0.967 0.061,0.114 0.091,0.246 0.091,0.398 0,0.152 -0.03,0.323 -0.091,0.512 0.061,0.417 0.091,0.787 0.091,1.11 0,0.322 -0.03,0.597 -0.091,0.825 l 0.363,0.113 c 0.333,-0.038 0.681,-0.056 1.044,-0.056 0.907,0 1.829,0.132 2.767,0.398 0,0.777 -0.62,1.166 -1.86,1.166 -0.212,0 -0.439,-0.01 -0.681,-0.028 0,0.303 -0.061,0.682 -0.181,1.137 0.363,-0.019 0.695,-0.028 0.998,-0.028 1.753,0 2.933,0.351 3.538,1.052 0.696,0.228 1.044,0.474 1.044,0.74 0,0.284 -0.409,0.607 -1.225,0.967 0.998,0.322 1.497,0.796 1.497,1.422 0,0.133 -0.016,0.265 -0.046,0.398 0.786,0.266 1.18,0.541 1.18,0.825 0,0.285 -0.394,0.578 -1.18,0.882 0.061,0.152 0.091,0.313 0.091,0.484 0,0.17 -0.03,0.35 -0.091,0.54 0.605,0.152 1.149,0.493 1.633,1.024 z m -1.906,-19.712 c 0,-0.209 -0.211,-0.426 -0.635,-0.654 -0.061,0.189 -0.09,0.388 -0.09,0.597 0,0.209 0.029,0.427 0.09,0.655 0.424,-0.19 0.635,-0.389 0.635,-0.598 z m -19.324,-12.487 c -0.363,-0.152 -0.726,-0.417 -1.089,-0.796 0.574,-0.361 1.013,-0.541 1.316,-0.541 0.453,0 0.68,0.332 0.68,0.996 z"
       style="fill:none;stroke:#231f20;stroke-width:1;stroke-linecap:butt;stroke-linejoin:miter;stroke-miterlimit:4;stroke-dasharray:none;stroke-opacity:1"
       transform="matrix(0.35277776,0,0,-0.35277776,3713.7777,1239.748)"
       clip-path="url(#clipPath7340)" />
    <path
       id="path7341"
       d="m 575.5928,297.1384 h 15.018 c 0.122,-0.374 0.183,-1.331 0.183,-2.87 v -4.491 l 1.11,-0.624 c 0.739,0.499 1.17,1.164 1.294,1.996 h 1.85 l 0.185,-1.372 c 0.739,-0.416 1.725,-0.666 2.958,-0.749 0.246,-0.333 0.616,-0.624 1.109,-0.873 h 13.499 c 0,-1.331 1.048,-2.038 3.144,-2.121 -1.75,-0.187 -2.625,-0.53 -2.625,-1.03 0,-0.208 0.138,-0.447 0.414,-0.717 0.583,-0.104 1.182,-0.156 1.796,-0.156 0.307,0 0.63,0.01 0.968,0.031 h 3.685 c 0.245,-0.333 0.737,-0.665 1.473,-0.998 h 2.764 l 0.369,-0.125 v -3.119 c 0.368,-0.333 0.859,-0.624 1.473,-0.873 v -8.484 c -0.123,-0.499 -0.614,-0.998 -1.473,-1.497 v -4.118 c -1.352,0 -2.764,-0.208 -4.238,-0.623 -0.154,-0.396 -0.23,-0.801 -0.23,-1.217 0,-0.208 0.015,-0.426 0.046,-0.655 v -2.495 c -0.982,-0.499 -1.533,-1.207 -1.655,-2.121 h -19.497 c -0.613,0.665 -1.533,0.998 -2.758,0.998 -0.737,-0.645 -1.779,-0.967 -3.127,-0.967 v 0.617 c 0,1.008 -0.507,1.79 -1.52,2.346 -0.676,-0.582 -1.014,-1.289 -1.014,-2.121 v -0.749 l -4.945,-0.124 c 0,0.831 -0.488,1.497 -1.465,1.996 -0.61,-0.499 -0.977,-1.165 -1.099,-1.996 h -7.142 l -0.733,0.124 v 12.103 c -0.368,0.332 -0.86,0.624 -1.474,0.873 v 2.121 c 1.106,0.52 1.658,1.497 1.658,2.932 0,0.665 -0.123,1.435 -0.368,2.308 l -1.29,0.624 v 1.123 c 0.86,0 1.781,0.208 2.764,0.624 v 0.624 c -0.952,0.582 -1.428,1.174 -1.428,1.778 0,0.852 0.967,1.715 2.902,2.589 -0.246,0.831 -1.167,1.247 -2.764,1.247 v 5.116 c 0.491,0.166 0.983,0.457 1.474,0.873 -0.246,0.332 -0.737,0.665 -1.474,0.998 v 2.87 z m 24.171,-4.959 c 0.96,0 1.44,-0.261 1.44,-0.78 0,-0.167 -0.064,-0.375 -0.192,-0.624 -0.224,-0.021 -0.448,-0.031 -0.672,-0.031 -0.96,0 -1.439,0.259 -1.439,0.779 0,0.167 0.064,0.375 0.192,0.624 0.223,0.021 0.447,0.032 0.671,0.032 m 2.741,-14.38 c -0.795,0.083 -1.513,0.125 -2.155,0.125 -2.536,0 -3.713,-0.666 -3.529,-1.996 -1.009,-0.416 -1.513,-1.03 -1.513,-1.841 v -0.53 -4.741 c 1.167,-0.478 2.487,-0.717 3.961,-0.717 0.553,0 1.136,0.031 1.751,0.093 0.245,-0.333 0.675,-0.665 1.289,-0.998 0.491,0.25 0.983,0.624 1.474,1.123 l 0.553,0.125 0.368,0.374 c 0.491,0.25 1.044,0.624 1.659,1.123 -0.247,0.332 -0.737,0.665 -1.474,0.998 v 7.112 c -0.245,0.249 -0.673,0.499 -1.284,0.748 -0.367,-0.249 -0.734,-0.582 -1.1,-0.998 m -1.301,-1.746 c -0.4,-0.23 -0.753,-0.344 -1.06,-0.344 -0.368,0 -0.69,0.156 -0.967,0.468 z m 29.662,12.102 h 40.165 c 0.982,-0.832 2.517,-1.206 4.606,-1.123 -0.123,-0.312 -0.184,-0.603 -0.184,-0.873 0,-0.853 0.552,-1.56 1.658,-2.121 v -0.749 c 0.122,-0.915 -0.369,-1.664 -1.474,-2.246 0.245,-0.333 0.737,-0.666 1.474,-0.998 v -22.084 c -0.553,-0.083 -1.966,-0.124 -4.238,-0.124 h -11.975 l -0.737,0.124 v 5.116 c 0.49,0.166 0.982,0.416 1.474,0.748 -0.247,0.5 -0.737,0.874 -1.474,1.123 v 6.114 c 1.474,-0.083 2.456,0.291 2.948,1.123 -0.737,0.416 -1.721,0.665 -2.948,0.748 v 3.244 l -0.185,0.25 c -0.368,0.104 -0.69,0.156 -0.967,0.156 -0.737,0 -1.105,-0.375 -1.105,-1.123 v -0.53 l -0.507,-0.125 -0.184,1.372 c -0.737,0.582 -1.72,1.165 -2.948,1.747 l -0.553,0.624 -0.552,0.249 c -0.984,-0.748 -1.413,-1.746 -1.29,-2.994 -1.229,-0.083 -2.273,0.25 -3.132,0.998 -0.369,-0.167 -0.737,-0.416 -1.106,-0.748 v -18.092 c -0.552,-0.083 -1.136,-0.124 -1.75,-0.124 -0.615,0 -1.259,0.041 -1.935,0.124 0.093,0.291 0.139,0.572 0.139,0.843 0,0.79 -0.415,1.466 -1.244,2.027 -0.983,-0.749 -1.413,-1.747 -1.29,-2.994 h -3.316 c -0.184,0.228 -0.522,0.499 -1.013,0.811 -0.492,0.312 -0.829,0.582 -1.014,0.811 l -0.737,0.374 c -0.736,-0.499 -1.167,-1.165 -1.289,-1.996 -0.492,0.332 -1.168,0.706 -2.027,1.123 0.122,0.748 -0.368,1.497 -1.474,2.245 v 9.857 c 0.491,0.166 0.983,0.457 1.474,0.873 -0.246,0.416 -0.737,0.749 -1.474,0.998 v 14.473 z m 3.777,-3.119 c 0,-0.25 0.277,-0.499 0.829,-0.749 0.614,0.208 0.922,0.437 0.922,0.686 0,0.25 -0.308,0.52 -0.922,0.811 -0.552,-0.249 -0.829,-0.499 -0.829,-0.748 m 7.094,-21.086 c 0.368,-0.333 0.798,-0.541 1.289,-0.624 0.461,0.229 0.691,0.468 0.691,0.718 0,0.249 -0.292,0.509 -0.875,0.78 -0.491,-0.167 -0.86,-0.458 -1.105,-0.874 m 73.788,33.188 c 0.368,0 0.737,-0.083 1.105,-0.25 0.03,-0.187 0.046,-0.395 0.046,-0.623 0,-0.417 -0.077,-0.874 -0.23,-1.373 0.061,-0.125 0.092,-0.27 0.092,-0.436 0,-0.167 -0.031,-0.354 -0.092,-0.562 l 0.184,-0.873 v -1.747 l -0.184,-0.499 c -0.615,-0.167 -1.229,-0.499 -1.842,-0.998 -0.615,0 -1.229,-0.084 -1.843,-0.25 l -0.553,-0.249 c 0,-0.25 0.123,-0.541 0.369,-0.874 0.737,-0.249 1.105,-0.707 1.105,-1.372 -2.088,0 -3.623,-0.374 -4.606,-1.123 0.246,-0.249 0.675,-0.499 1.29,-0.749 h 5.896 l 0.368,-0.249 v -4.741 c 0,-0.333 -0.062,-0.749 -0.184,-1.248 l 0.184,-0.873 c -1.013,-0.187 -2.165,-0.281 -3.454,-0.281 -0.431,0 -0.875,0.01 -1.336,0.031 -1.597,-0.582 -2.579,-1.58 -2.948,-2.994 -0.276,-0.042 -0.522,-0.063 -0.737,-0.063 -0.86,0 -1.29,0.395 -1.29,1.186 -0.307,0.457 -0.644,0.686 -1.013,0.686 -0.368,0 -0.768,-0.229 -1.197,-0.686 v -17.967 l -14.555,-0.124 -0.922,0.124 c 0.123,0.333 0.185,0.676 0.185,1.03 0,0.353 -0.062,0.717 -0.185,1.091 0.983,0 1.965,0.25 2.948,0.749 -0.368,0.749 -1.351,1.123 -2.948,1.123 0.123,0.665 0.185,1.497 0.185,2.495 l -0.185,0.624 c 0.062,0.125 0.093,0.26 0.093,0.406 0,0.145 -0.031,0.301 -0.093,0.467 l 0.185,0.874 c 0,0.332 -0.062,0.748 -0.185,1.248 1.228,0.415 2.211,1.122 2.948,2.121 -0.737,0.415 -1.72,0.665 -2.948,0.748 0.062,0.166 0.093,0.343 0.093,0.53 0,0.188 -0.031,0.385 -0.093,0.593 0.614,0.166 1.106,0.499 1.474,0.998 -0.368,0.333 -0.86,0.624 -1.474,0.874 0.154,0.457 0.231,0.935 0.231,1.434 0,0.666 -0.138,1.352 -0.415,2.059 -1.136,0.291 -2.395,0.437 -3.777,0.437 -0.583,0 -1.167,-0.021 -1.75,-0.063 0.122,0.915 -0.43,1.622 -1.658,2.121 0.122,0.291 0.184,0.603 0.184,0.936 0,0.332 -0.062,0.686 -0.184,1.061 0.061,0.124 0.092,0.27 0.092,0.436 0,0.166 -0.031,0.354 -0.092,0.562 0.061,0.457 0.092,0.862 0.092,1.216 0,0.353 -0.031,0.655 -0.092,0.905 l 0.368,0.124 c 0.338,-0.041 0.691,-0.062 1.06,-0.062 0.921,0 1.857,0.145 2.809,0.437 0,0.852 -0.629,1.279 -1.888,1.279 -0.215,0 -0.446,-0.011 -0.691,-0.032 0,0.333 -0.062,0.749 -0.184,1.248 0.368,-0.021 0.706,-0.031 1.013,-0.031 1.781,0 2.978,0.384 3.593,1.154 0.706,0.249 1.059,0.519 1.059,0.811 0,0.312 -0.414,0.665 -1.243,1.06 1.013,0.354 1.52,0.874 1.52,1.56 0,0.145 -0.016,0.291 -0.047,0.437 0.799,0.291 1.198,0.592 1.198,0.904 0,0.312 -0.399,0.634 -1.198,0.967 0.062,0.166 0.093,0.343 0.093,0.53 0,0.188 -0.031,0.385 -0.093,0.593 0.614,0.166 1.167,0.541 1.659,1.123 z m -1.935,-21.616 c 0,-0.229 -0.215,-0.468 -0.645,-0.717 -0.061,0.207 -0.092,0.426 -0.092,0.655 0,0.228 0.031,0.468 0.092,0.717 0.43,-0.208 0.645,-0.426 0.645,-0.655 m -19.621,-13.693 c -0.369,-0.166 -0.737,-0.457 -1.106,-0.873 0.583,-0.395 1.029,-0.593 1.336,-0.593 0.461,0 0.691,0.364 0.691,1.092 z"
       style="fill:#231f20;fill-opacity:1;fill-rule:nonzero;stroke:none"
       transform="matrix(0.35277776,0,0,-0.35277776,3459.8908,1343.603)"
       clip-path="url(#clipPath7342)" />
  </g>
</svg>
