<?xml version="1.0" encoding="UTF-8" standalone="no"?>
<!-- Created with Inkscape (http://www.inkscape.org/) -->

<svg
   width="386"
   height="57"
   viewBox="0 0 102.12916 15.08125"
   version="1.1"
   id="svg1"
   xmlns="http://www.w3.org/2000/svg"
   xmlns:svg="http://www.w3.org/2000/svg">
  <defs
     id="defs1">
    <clipPath
       clipPathUnits="userSpaceOnUse"
       id="clipPath7324">
      <path
         d="M 0,0 H 864.567 V 649.134 H 0 Z"
         id="path7324" />
    </clipPath>
    <clipPath
       clipPathUnits="userSpaceOnUse"
       id="clipPath7326">
      <path
         d="M 0,0 H 864.567 V 649.134 H 0 Z"
         id="path7326" />
    </clipPath>
    <clipPath
       clipPathUnits="userSpaceOnUse"
       id="clipPath7328">
      <path
         d="M 0,0 H 864.567 V 649.134 H 0 Z"
         id="path7328" />
    </clipPath>
    <clipPath
       clipPathUnits="userSpaceOnUse"
       id="clipPath7330">
      <path
         d="M 0,0 H 864.567 V 649.134 H 0 Z"
         transform="translate(-733.90342,-442.96991)"
         id="path7330" />
    </clipPath>
  </defs>
  <g
     id="layer1"
     transform="translate(-57.41457,-135.20208)">
    <path
       id="path7323"
       d="m 594.6378,465.4915 c -11.743,0 -21.262,-9.519 -21.262,-21.262 0,-11.743 9.519,-21.262 21.262,-21.262 h 247.205 c 11.743,0 21.262,9.519 21.262,21.262 0,11.743 -9.519,21.262 -21.262,21.262 z"
       style="fill:#ff0087;fill-opacity:1;fill-rule:nonzero;stroke:none"
       transform="matrix(0.35249894,0,0,-0.35465267,-144.69979,300.28988)"
       clip-path="url(#clipPath7324)" />
    <path
       id="path7325"
       d="m 603.945,443.5274 c 0,1.595 0.951,3.096 2.857,4.503 1.904,1.406 3.855,2.109 5.852,2.109 h 11.775 c 2.462,0 4.448,0.44 5.958,1.319 1.508,0.878 2.264,1.994 2.264,3.346 0,1.352 -0.756,2.468 -2.264,3.347 -1.51,0.879 -3.496,1.319 -5.958,1.319 h -12.332 c -6.55,0 -12.17,-1.759 -16.861,-5.274 -4.32,-3.245 -6.48,-6.802 -6.48,-10.669 0,-3.894 2.136,-7.464 6.41,-10.71 4.644,-3.516 10.288,-5.273 16.931,-5.273 h 12.332 c 2.462,0 4.448,0.44 5.958,1.318 1.508,0.879 2.264,1.994 2.264,3.347 v 0.101 0.102 8.032 c 0,1.433 -0.744,2.616 -2.23,3.549 -1.487,0.934 -3.483,1.4 -5.992,1.4 h -11.148 c -2.323,0 -4.204,-0.433 -5.643,-1.298 -1.441,-0.866 -2.16,-1.907 -2.16,-3.124 0,-0.405 0.069,-0.798 0.209,-1.176 -1.162,1.19 -1.742,2.434 -1.742,3.732 m -7.664,-10.223 c -4.088,3.083 -6.132,6.491 -6.132,10.223 0,3.678 2.067,7.072 6.201,10.182 4.413,3.299 9.661,4.949 15.747,4.949 h 12.332 c 2.091,0 3.751,-0.363 4.982,-1.089 1.23,-0.727 1.846,-1.641 1.846,-2.744 0,-1.103 -0.616,-2.018 -1.846,-2.744 -1.231,-0.727 -2.891,-1.09 -4.982,-1.09 h -11.775 c -2.462,0 -4.762,-0.8 -6.897,-2.4 -2.138,-1.6 -3.205,-3.282 -3.205,-5.044 0,-1.844 1.033,-3.552 3.1,-5.125 2.066,-1.573 4.4,-2.359 7.002,-2.359 h 4.669 c 0.463,0 0.696,0.135 0.696,0.405 v 0.487 c 0,0.27 -0.233,0.406 -0.696,0.406 h -4.042 c -2.044,0 -3.623,0.351 -4.737,1.055 -1.115,0.703 -1.673,1.541 -1.673,2.515 0,0.973 0.569,1.825 1.707,2.555 1.138,0.731 2.706,1.096 4.703,1.096 h 11.148 c 2.091,0 3.751,-0.379 4.982,-1.136 1.23,-0.758 1.846,-1.758 1.846,-3.002 v -8.032 -0.102 -0.101 c 0,-1.109 -0.616,-2.028 -1.846,-2.759 -1.231,-0.73 -2.891,-1.095 -4.982,-1.095 h -12.332 c -6.178,0 -11.451,1.649 -15.816,4.949 m 32.12,-3.286 c -0.976,-0.568 -2.299,-0.852 -3.972,-0.852 h -12.332 c -5.668,0 -10.568,1.542 -14.701,4.625 -3.902,2.921 -5.853,6.166 -5.853,9.736 0,3.515 1.951,6.734 5.853,9.655 4.18,3.109 9.08,4.665 14.701,4.665 h 12.332 c 1.673,0 2.996,-0.284 3.972,-0.852 0.975,-0.568 1.463,-1.298 1.463,-2.191 0,-0.892 -0.488,-1.622 -1.463,-2.19 -0.976,-0.568 -2.299,-0.852 -3.972,-0.852 h -11.775 c -2.973,0 -5.632,-0.892 -7.977,-2.677 -2.347,-1.785 -3.519,-3.638 -3.519,-5.558 0,-2.002 1.138,-3.881 3.414,-5.639 2.275,-1.758 4.97,-2.637 8.082,-2.637 h 6.759 v 2.921 h -6.132 c -1.672,0 -2.95,0.298 -3.832,0.893 -0.883,0.594 -1.278,1.271 -1.184,2.028 0.046,0.703 0.522,1.325 1.428,1.866 0.906,0.541 2.101,0.811 3.588,0.811 h 11.148 c 1.673,0 2.996,-0.298 3.972,-0.892 0.975,-0.595 1.463,-1.407 1.463,-2.434 v -8.032 -0.102 -0.101 c 0,-0.893 -0.488,-1.623 -1.463,-2.191 m 27.138,-0.04 c -0.906,-0.542 -2.102,-0.812 -3.588,-0.812 h -11.148 c -1.672,0 -2.996,0.298 -3.972,0.893 -0.975,0.594 -1.463,1.406 -1.463,2.434 v 22.393 c 0,1 0.488,1.778 1.463,2.332 0.976,0.554 2.23,0.832 3.763,0.832 1.533,0 2.787,-0.278 3.762,-0.832 0.976,-0.554 1.463,-1.332 1.463,-2.332 v -20.121 h 6.132 c 1.672,0 2.972,-0.312 3.901,-0.933 0.79,-0.568 1.161,-1.231 1.115,-1.988 -0.047,-0.704 -0.522,-1.326 -1.428,-1.866 m -3.588,-2.434 c 2.414,0 4.342,0.473 5.783,1.42 1.3,0.838 1.951,1.852 1.951,3.042 0,1.19 -0.628,2.191 -1.882,3.002 -1.44,0.919 -3.391,1.379 -5.852,1.379 h -3.345 v 18.499 c 0,1.433 -0.755,2.589 -2.264,3.468 -1.51,0.879 -3.426,1.318 -5.748,1.318 -2.277,0 -4.181,-0.439 -5.714,-1.318 -1.532,-0.879 -2.299,-2.035 -2.299,-3.468 v -22.393 c 0,-1.434 0.743,-2.617 2.23,-3.55 1.486,-0.933 3.483,-1.399 5.992,-1.399 z m -16.13,1.947 c -1.231,0.757 -1.846,1.758 -1.846,3.002 v 22.393 c 0,1.217 0.627,2.183 1.881,2.9 1.254,0.716 2.833,1.075 4.738,1.075 1.951,0 3.541,-0.359 4.772,-1.075 1.231,-0.717 1.847,-1.683 1.847,-2.9 v -18.904 c 0,-0.271 0.232,-0.406 0.697,-0.406 h 4.041 c 2.043,0 3.623,-0.352 4.738,-1.055 1.114,-0.703 1.672,-1.541 1.672,-2.515 0,-0.973 -0.535,-1.812 -1.603,-2.515 -1.208,-0.757 -2.811,-1.136 -4.807,-1.136 h -11.148 c -2.09,0 -3.752,0.379 -4.982,1.136 m 36.405,23.245 -1.115,-0.284 c -2.045,-0.514 -3.345,-1.231 -3.902,-2.15 -0.604,0.919 -1.928,1.636 -3.971,2.15 l -1.185,0.284 c -0.743,0.188 -1.382,0.527 -1.916,1.014 -0.534,0.487 -0.801,1.041 -0.801,1.663 0,0.757 0.348,1.386 1.045,1.886 0.697,0.5 1.602,0.751 2.717,0.751 2.136,0 3.484,-0.744 4.041,-2.231 h 0.07 c 0.65,1.487 1.974,2.231 3.972,2.231 1.114,0 2.031,-0.251 2.752,-0.751 0.719,-0.5 1.08,-1.129 1.08,-1.886 0,-1.325 -0.93,-2.218 -2.787,-2.677 m -1.429,-22.677 c -0.952,-0.595 -2.149,-0.893 -3.588,-0.893 -1.487,0 -2.694,0.298 -3.623,0.893 -0.93,0.594 -1.394,1.379 -1.394,2.353 v 16.794 c 0,0.838 0.349,1.555 1.046,2.15 0.742,-0.324 1.486,-0.635 2.229,-0.933 0.882,-0.379 1.463,-0.784 1.742,-1.217 0.232,0.433 0.812,0.838 1.742,1.217 0.697,0.298 1.416,0.609 2.16,0.933 0.742,-0.595 1.115,-1.312 1.115,-2.15 v -16.794 c 0,-0.974 -0.477,-1.759 -1.429,-2.353 m -9.232,-1.116 c 1.44,-0.933 3.321,-1.399 5.644,-1.399 2.275,0 4.146,0.466 5.609,1.399 1.463,0.933 2.195,2.09 2.195,3.469 v 16.794 c 0,0.784 -0.326,1.555 -0.976,2.313 2.508,0.892 3.763,2.19 3.763,3.894 0,1.136 -0.558,2.109 -1.673,2.921 -1.254,0.892 -2.903,1.338 -4.946,1.338 -1.627,0 -2.951,-0.284 -3.972,-0.851 -1.208,0.567 -2.578,0.851 -4.111,0.851 -1.997,0 -3.588,-0.425 -4.772,-1.277 -1.185,-0.852 -1.777,-1.846 -1.777,-2.982 0,-0.757 0.324,-1.515 0.975,-2.272 0.697,-0.838 1.603,-1.42 2.718,-1.744 -0.558,-0.73 -0.836,-1.461 -0.836,-2.191 v -16.794 c 0,-1.379 0.719,-2.536 2.159,-3.469 m -0.766,20.263 c 0,0.703 0.348,1.433 1.045,2.191 0.232,0.297 0.093,0.487 -0.418,0.568 -1.022,0.216 -1.858,0.675 -2.508,1.379 -0.651,0.703 -0.976,1.393 -0.976,2.069 0,0.946 0.476,1.758 1.429,2.434 0.951,0.676 2.194,1.014 3.727,1.014 1.439,0 2.648,-0.298 3.623,-0.892 0.14,-0.081 0.279,-0.122 0.418,-0.122 0.093,0 0.546,0.169 1.359,0.507 0.812,0.338 1.707,0.507 2.683,0.507 1.578,0 2.844,-0.338 3.797,-1.014 0.951,-0.676 1.428,-1.488 1.428,-2.434 0,-0.866 -0.348,-1.582 -1.045,-2.15 -0.418,-0.325 -1.069,-0.649 -1.951,-0.974 -0.697,-0.27 -1.045,-0.473 -1.045,-0.608 0,-0.081 0.046,-0.149 0.139,-0.203 0.743,-0.785 1.115,-1.542 1.115,-2.272 v -16.794 c 0,-1.163 -0.604,-2.13 -1.811,-2.901 -1.209,-0.77 -2.742,-1.156 -4.599,-1.156 -1.905,0 -3.449,0.386 -4.633,1.156 -1.185,0.771 -1.777,1.738 -1.777,2.901 z m 53.649,0.933 c -0.79,-0.541 -1.975,-0.811 -3.553,-0.811 H 703.3 v -16.997 c 0,-1.001 -0.488,-1.779 -1.463,-2.333 -0.976,-0.555 -2.23,-0.832 -3.763,-0.832 -1.532,0 -2.787,0.277 -3.762,0.832 -0.975,0.554 -1.463,1.332 -1.463,2.333 v 16.997 h -7.595 c -1.579,0 -2.764,0.27 -3.553,0.811 -0.79,0.541 -1.185,1.203 -1.185,1.988 0,0.757 0.427,1.413 1.282,1.968 0.854,0.554 1.997,0.831 3.43,0.831 h 7.621 c 0,0.974 0.489,1.738 1.467,2.292 0.978,0.554 2.236,0.832 3.775,0.832 1.537,0 2.794,-0.278 3.773,-0.832 0.978,-0.554 1.468,-1.318 1.468,-2.292 h 7.548 c 1.444,0 2.597,-0.277 3.459,-0.831 0.862,-0.555 1.293,-1.211 1.293,-1.968 0,-0.785 -0.395,-1.447 -1.184,-1.988 m -3.553,-2.434 c 2.461,0 4.389,0.487 5.783,1.461 1.16,0.811 1.741,1.798 1.741,2.961 0,1.163 -0.651,2.163 -1.951,3.002 -1.44,0.946 -3.298,1.42 -5.573,1.42 h -5.156 c -1.115,2.082 -3.647,3.123 -7.595,3.123 -3.948,0 -6.48,-1.041 -7.594,-3.123 h -5.296 c -2.276,0 -4.135,-0.474 -5.574,-1.42 -1.301,-0.839 -1.951,-1.839 -1.951,-3.002 0,-1.163 0.581,-2.15 1.742,-2.961 1.394,-0.974 3.321,-1.461 5.783,-1.461 h 4.808 v -15.374 c 0,-1.434 0.754,-2.59 2.264,-3.469 1.509,-0.878 3.425,-1.318 5.748,-1.318 2.323,0 4.239,0.44 5.749,1.318 1.508,0.879 2.264,2.035 2.264,3.469 v 15.374 z m -6.201,0.406 v -15.78 c 0,-1.217 -0.628,-2.185 -1.882,-2.901 -1.254,-0.716 -2.833,-1.075 -4.738,-1.075 -1.905,0 -3.483,0.359 -4.737,1.075 -1.255,0.716 -1.882,1.684 -1.882,2.901 v 15.78 c 0,0.27 -0.233,0.406 -0.696,0.406 h -5.505 c -1.997,0 -3.553,0.378 -4.668,1.136 -0.975,0.675 -1.463,1.5 -1.463,2.474 0,0.946 0.557,1.785 1.672,2.515 1.115,0.73 2.601,1.096 4.459,1.096 h 5.783 c 0.325,0 0.697,0.27 1.115,0.811 0.557,0.676 1.138,1.176 1.742,1.501 1.068,0.54 2.484,0.811 4.25,0.811 1.765,0 3.181,-0.271 4.25,-0.811 0.603,-0.325 1.161,-0.825 1.672,-1.501 0.464,-0.541 0.837,-0.811 1.115,-0.811 h 5.714 c 1.857,0 3.344,-0.366 4.459,-1.096 1.114,-0.73 1.672,-1.569 1.672,-2.515 0,-0.974 -0.488,-1.799 -1.463,-2.474 -1.115,-0.758 -2.672,-1.136 -4.668,-1.136 h -5.505 c -0.465,0 -0.696,-0.136 -0.696,-0.406"
       style="fill:#231f20;fill-opacity:1;fill-rule:nonzero;stroke:none"
       transform="matrix(0.35277776,0,0,-0.35277776,-144.85966,299.41713)"
       clip-path="url(#clipPath7326)" />
    <path
       id="path7327"
       d="m 733.9034,442.9699 c 0,1.564 0.946,3.035 2.841,4.414 1.894,1.378 3.835,2.067 5.822,2.067 h 11.712 c 2.449,0 4.424,0.431 5.926,1.293 1.5,0.861 2.252,1.954 2.252,3.28 0,1.325 -0.752,2.419 -2.252,3.281 -1.502,0.861 -3.477,1.292 -5.926,1.292 h -12.267 c -6.514,0 -12.105,-1.723 -16.771,-5.169 -4.297,-3.181 -6.445,-6.667 -6.445,-10.458 0,-3.817 2.124,-7.316 6.376,-10.498 4.619,-3.446 10.233,-5.169 16.84,-5.169 h 12.267 c 2.449,0 4.424,0.431 5.926,1.293 1.5,0.861 2.252,1.954 2.252,3.28 v 0.099 0.1 7.873 c 0,1.405 -0.74,2.565 -2.218,3.479 -1.479,0.915 -3.465,1.372 -5.96,1.372 h -11.088 c -2.311,0 -4.182,-0.424 -5.614,-1.272 -1.433,-0.849 -2.148,-1.869 -2.148,-3.062 0,-0.398 0.069,-0.782 0.208,-1.153 -1.156,1.166 -1.733,2.386 -1.733,3.658 m -7.623,-10.02 c -4.067,3.022 -6.099,6.362 -6.099,10.02 0,3.605 2.055,6.932 6.168,9.981 4.389,3.233 9.609,4.851 15.662,4.851 h 12.267 c 2.079,0 3.731,-0.356 4.955,-1.068 1.224,-0.712 1.837,-1.609 1.837,-2.69 0,-1.081 -0.613,-1.978 -1.837,-2.69 -1.224,-0.712 -2.876,-1.068 -4.955,-1.068 h -11.712 c -2.45,0 -4.737,-0.784 -6.861,-2.352 -2.126,-1.569 -3.188,-3.217 -3.188,-4.944 0,-1.808 1.028,-3.483 3.084,-5.024 2.055,-1.542 4.377,-2.312 6.965,-2.312 h 4.643 c 0.462,0 0.693,0.132 0.693,0.397 v 0.477 c 0,0.265 -0.231,0.398 -0.693,0.398 h -4.019 c -2.034,0 -3.604,0.344 -4.713,1.034 -1.109,0.689 -1.663,1.511 -1.663,2.465 0,0.954 0.565,1.79 1.698,2.505 1.131,0.716 2.691,1.074 4.678,1.074 h 11.088 c 2.079,0 3.731,-0.372 4.955,-1.114 1.224,-0.742 1.837,-1.723 1.837,-2.942 v -7.873 -0.1 -0.099 c 0,-1.087 -0.613,-1.988 -1.837,-2.704 -1.224,-0.716 -2.876,-1.073 -4.955,-1.073 h -12.267 c -6.145,0 -11.389,1.616 -15.731,4.851 m 31.948,-3.221 c -0.97,-0.557 -2.287,-0.835 -3.95,-0.835 h -12.267 c -5.637,0 -10.511,1.511 -14.623,4.533 -3.881,2.863 -5.821,6.044 -5.821,9.543 0,3.446 1.94,6.601 5.821,9.464 4.159,3.048 9.033,4.572 14.623,4.572 h 12.267 c 1.663,0 2.98,-0.278 3.95,-0.835 0.971,-0.556 1.456,-1.272 1.456,-2.147 0,-0.875 -0.485,-1.59 -1.456,-2.147 -0.97,-0.557 -2.287,-0.835 -3.95,-0.835 h -11.712 c -2.957,0 -5.603,-0.875 -7.935,-2.624 -2.334,-1.75 -3.5,-3.566 -3.5,-5.448 0,-1.962 1.131,-3.804 3.396,-5.527 2.263,-1.724 4.943,-2.585 8.039,-2.585 h 6.722 v 2.863 h -6.098 c -1.664,0 -2.935,0.292 -3.812,0.875 -0.878,0.583 -1.271,1.246 -1.178,1.988 0.045,0.689 0.52,1.299 1.421,1.829 0.9,0.53 2.089,0.796 3.569,0.796 h 11.088 c 1.663,0 2.98,-0.292 3.95,-0.875 0.971,-0.584 1.456,-1.379 1.456,-2.386 v -7.873 -0.1 -0.099 c 0,-0.875 -0.485,-1.591 -1.456,-2.147 m 26.994,-0.04 c -0.901,-0.531 -2.091,-0.795 -3.569,-0.795 h -11.089 c -1.663,0 -2.98,0.291 -3.95,0.875 -0.97,0.582 -1.455,1.378 -1.455,2.385 v 21.95 c 0,0.98 0.485,1.742 1.455,2.286 0.97,0.543 2.218,0.815 3.742,0.815 1.525,0 2.773,-0.272 3.743,-0.815 0.97,-0.544 1.455,-1.306 1.455,-2.286 v -19.723 h 6.099 c 1.663,0 2.956,-0.305 3.881,-0.914 0.785,-0.557 1.154,-1.207 1.109,-1.949 -0.047,-0.689 -0.52,-1.299 -1.421,-1.829 m -3.569,-2.386 c 2.402,0 4.319,0.464 5.752,1.392 1.293,0.821 1.941,1.815 1.941,2.982 0,1.166 -0.624,2.147 -1.872,2.943 -1.432,0.901 -3.373,1.352 -5.821,1.352 h -3.327 v 18.132 c 0,1.404 -0.751,2.538 -2.252,3.4 -1.502,0.861 -3.408,1.292 -5.718,1.292 -2.264,0 -4.158,-0.431 -5.682,-1.292 -1.525,-0.862 -2.287,-1.996 -2.287,-3.4 v -21.95 c 0,-1.405 0.738,-2.564 2.217,-3.479 1.478,-0.914 3.465,-1.372 5.96,-1.372 z m -16.044,1.909 c -1.225,0.742 -1.836,1.723 -1.836,2.942 v 21.95 c 0,1.193 0.623,2.14 1.871,2.843 1.247,0.702 2.817,1.054 4.712,1.054 1.941,0 3.523,-0.352 4.748,-1.054 1.223,-0.703 1.836,-1.65 1.836,-2.843 v -18.53 c 0,-0.265 0.231,-0.398 0.693,-0.398 h 4.02 c 2.032,0 3.604,-0.344 4.712,-1.033 1.109,-0.69 1.664,-1.511 1.664,-2.466 0,-0.954 -0.532,-1.776 -1.594,-2.465 -1.202,-0.742 -2.796,-1.113 -4.782,-1.113 h -11.089 c -2.079,0 -3.731,0.371 -4.955,1.113 m 36.211,22.784 -1.109,-0.278 c -2.034,-0.504 -3.327,-1.207 -3.881,-2.108 -0.601,0.901 -1.918,1.604 -3.95,2.108 l -1.179,0.278 c -0.739,0.185 -1.375,0.517 -1.905,0.994 -0.532,0.478 -0.797,1.021 -0.797,1.631 0,0.741 0.346,1.358 1.039,1.849 0.693,0.49 1.594,0.735 2.703,0.735 2.125,0 3.465,-0.729 4.02,-2.187 h 0.069 c 0.646,1.458 1.963,2.187 3.95,2.187 1.109,0 2.021,-0.245 2.738,-0.735 0.715,-0.491 1.074,-1.108 1.074,-1.849 0,-1.299 -0.925,-2.174 -2.772,-2.625 m -1.421,-22.227 c -0.948,-0.584 -2.138,-0.875 -3.569,-0.875 -1.479,0 -2.68,0.291 -3.604,0.875 -0.925,0.582 -1.386,1.352 -1.386,2.306 v 16.462 c 0,0.821 0.347,1.524 1.04,2.107 0.738,-0.318 1.478,-0.623 2.217,-0.914 0.877,-0.372 1.456,-0.769 1.733,-1.193 0.231,0.424 0.808,0.821 1.732,1.193 0.693,0.291 1.409,0.596 2.149,0.914 0.738,-0.583 1.109,-1.286 1.109,-2.107 v -16.462 c 0,-0.954 -0.475,-1.724 -1.421,-2.306 m -9.183,-1.094 c 1.432,-0.914 3.303,-1.372 5.614,-1.372 2.263,0 4.123,0.458 5.579,1.372 1.455,0.915 2.183,2.048 2.183,3.4 v 16.462 c 0,0.768 -0.324,1.524 -0.97,2.266 2.495,0.875 3.742,2.148 3.742,3.818 0,1.113 -0.554,2.067 -1.663,2.863 -1.248,0.874 -2.888,1.312 -4.921,1.312 -1.618,0 -2.934,-0.279 -3.95,-0.835 -1.202,0.556 -2.564,0.835 -4.089,0.835 -1.987,0 -3.569,-0.418 -4.747,-1.253 -1.178,-0.835 -1.768,-1.809 -1.768,-2.922 0,-0.743 0.323,-1.485 0.971,-2.227 0.693,-0.822 1.594,-1.392 2.703,-1.71 -0.555,-0.716 -0.832,-1.431 -0.832,-2.147 v -16.462 c 0,-1.352 0.716,-2.485 2.148,-3.4 m -0.762,19.862 c 0,0.689 0.346,1.405 1.04,2.147 0.23,0.291 0.092,0.477 -0.416,0.557 -1.017,0.212 -1.849,0.662 -2.495,1.352 -0.648,0.689 -0.97,1.365 -0.97,2.028 0,0.927 0.473,1.723 1.42,2.385 0.947,0.663 2.183,0.995 3.708,0.995 1.432,0 2.633,-0.292 3.604,-0.875 0.138,-0.08 0.277,-0.12 0.416,-0.12 0.092,0 0.542,0.166 1.351,0.498 0.808,0.331 1.698,0.497 2.668,0.497 1.57,0 2.83,-0.332 3.777,-0.995 0.947,-0.662 1.421,-1.458 1.421,-2.385 0,-0.849 -0.347,-1.551 -1.04,-2.108 -0.415,-0.318 -1.063,-0.636 -1.94,-0.954 -0.693,-0.265 -1.04,-0.464 -1.04,-0.597 0,-0.079 0.046,-0.146 0.139,-0.198 0.738,-0.77 1.109,-1.511 1.109,-2.227 v -16.462 c 0,-1.14 -0.601,-2.088 -1.802,-2.843 -1.202,-0.756 -2.727,-1.133 -4.574,-1.133 -1.895,0 -3.431,0.377 -4.609,1.133 -1.178,0.755 -1.767,1.703 -1.767,2.843 z m 53.363,0.914 c -0.786,-0.53 -1.964,-0.795 -3.534,-0.795 h -7.554 v -16.661 c 0,-0.981 -0.486,-1.743 -1.456,-2.286 -0.97,-0.544 -2.218,-0.815 -3.742,-0.815 -1.525,0 -2.772,0.271 -3.743,0.815 -0.97,0.543 -1.455,1.305 -1.455,2.286 v 16.661 h -7.554 c -1.571,0 -2.749,0.265 -3.535,0.795 -0.786,0.53 -1.178,1.18 -1.178,1.949 0,0.742 0.425,1.385 1.275,1.928 0.85,0.543 1.987,0.815 3.412,0.815 h 7.58 c 0,0.955 0.486,1.703 1.46,2.247 0.972,0.543 2.224,0.815 3.754,0.815 1.529,0 2.78,-0.272 3.753,-0.815 0.973,-0.544 1.46,-1.292 1.46,-2.247 h 7.508 c 1.436,0 2.583,-0.272 3.441,-0.815 0.857,-0.543 1.286,-1.186 1.286,-1.928 0,-0.769 -0.393,-1.419 -1.178,-1.949 m -3.534,-2.385 c 2.448,0 4.366,0.477 5.752,1.431 1.154,0.795 1.732,1.763 1.732,2.903 0,1.139 -0.647,2.12 -1.94,2.942 -1.433,0.928 -3.281,1.392 -5.544,1.392 h -5.129 c -1.109,2.041 -3.627,3.062 -7.554,3.062 -3.927,0 -6.445,-1.021 -7.554,-3.062 h -5.267 c -2.264,0 -4.113,-0.464 -5.544,-1.392 -1.294,-0.822 -1.941,-1.803 -1.941,-2.942 0,-1.14 0.577,-2.108 1.733,-2.903 1.386,-0.954 3.303,-1.431 5.752,-1.431 h 4.782 v -15.071 c 0,-1.405 0.75,-2.538 2.252,-3.399 1.501,-0.862 3.407,-1.293 5.718,-1.293 2.31,0 4.215,0.431 5.717,1.293 1.501,0.861 2.253,1.994 2.253,3.399 v 15.071 z m -6.168,0.397 v -15.468 c 0,-1.193 -0.624,-2.141 -1.872,-2.843 -1.247,-0.702 -2.818,-1.053 -4.712,-1.053 -1.895,0 -3.465,0.351 -4.713,1.053 -1.247,0.702 -1.871,1.65 -1.871,2.843 v 15.468 c 0,0.265 -0.232,0.398 -0.693,0.398 h -5.475 c -1.987,0 -3.535,0.371 -4.643,1.113 -0.971,0.663 -1.456,1.471 -1.456,2.426 0,0.927 0.555,1.749 1.663,2.465 1.109,0.716 2.587,1.074 4.436,1.074 h 5.752 c 0.323,0 0.693,0.264 1.109,0.795 0.554,0.662 1.132,1.153 1.733,1.471 1.062,0.53 2.471,0.796 4.227,0.796 1.755,0 3.164,-0.266 4.228,-0.796 0.599,-0.318 1.154,-0.809 1.663,-1.471 0.461,-0.531 0.831,-0.795 1.109,-0.795 h 5.683 c 1.847,0 3.326,-0.358 4.435,-1.074 1.109,-0.716 1.663,-1.538 1.663,-2.465 0,-0.955 -0.485,-1.763 -1.455,-2.426 -1.109,-0.742 -2.657,-1.113 -4.643,-1.113 h -5.475 c -0.463,0 -0.693,-0.133 -0.693,-0.398"
       style="fill:#ffffff;fill-opacity:1;fill-rule:nonzero;stroke:none"
       transform="matrix(0.35277776,0,0,-0.35277776,-144.85966,299.41713)"
       clip-path="url(#clipPath7328)" />
    <path
       id="path7329"
       d="m 0,0 c 0,1.564 0.946,3.035 2.841,4.414 1.894,1.378 3.835,2.067 5.822,2.067 h 11.712 c 2.449,0 4.424,0.431 5.926,1.293 1.5,0.861 2.252,1.954 2.252,3.28 0,1.325 -0.752,2.419 -2.252,3.281 -1.502,0.861 -3.477,1.292 -5.926,1.292 H 8.108 C 1.594,15.627 -3.997,13.904 -8.663,10.458 -12.96,7.277 -15.108,3.791 -15.108,0 c 0,-3.817 2.124,-7.316 6.376,-10.498 4.619,-3.446 10.233,-5.169 16.84,-5.169 h 12.267 c 2.449,0 4.424,0.431 5.926,1.293 1.5,0.861 2.252,1.954 2.252,3.28 v 0.099 0.1 7.873 c 0,1.405 -0.74,2.565 -2.218,3.479 -1.479,0.915 -3.465,1.372 -5.96,1.372 H 9.287 C 6.976,1.829 5.105,1.405 3.673,0.557 2.24,-0.292 1.525,-1.312 1.525,-2.505 1.525,-2.903 1.594,-3.287 1.733,-3.658 0.577,-2.492 0,-1.272 0,0 Z m -7.623,-10.02 c -4.067,3.022 -6.099,6.362 -6.099,10.02 0,3.605 2.055,6.932 6.168,9.981 4.389,3.233 9.609,4.851 15.662,4.851 h 12.267 c 2.079,0 3.731,-0.356 4.955,-1.068 1.224,-0.712 1.837,-1.609 1.837,-2.69 0,-1.081 -0.613,-1.978 -1.837,-2.69 C 24.106,7.672 22.454,7.316 20.375,7.316 H 8.663 C 6.213,7.316 3.926,6.532 1.802,4.964 -0.324,3.395 -1.386,1.747 -1.386,0.02 c 0,-1.808 1.028,-3.483 3.084,-5.024 2.055,-1.542 4.377,-2.312 6.965,-2.312 h 4.643 c 0.462,0 0.693,0.132 0.693,0.397 v 0.477 c 0,0.265 -0.231,0.398 -0.693,0.398 H 9.287 c -2.034,0 -3.604,0.344 -4.713,1.034 -1.109,0.689 -1.663,1.511 -1.663,2.465 0,0.954 0.565,1.79 1.698,2.505 C 5.74,0.676 7.3,1.034 9.287,1.034 h 11.088 c 2.079,0 3.731,-0.372 4.955,-1.114 1.224,-0.742 1.837,-1.723 1.837,-2.942 v -7.873 -0.1 -0.099 c 0,-1.087 -0.613,-1.988 -1.837,-2.704 -1.224,-0.716 -2.876,-1.073 -4.955,-1.073 H 8.108 c -6.145,0 -11.389,1.616 -15.731,4.851 z m 31.948,-3.221 c -0.97,-0.557 -2.287,-0.835 -3.95,-0.835 H 8.108 c -5.637,0 -10.511,1.511 -14.623,4.533 -3.881,2.863 -5.821,6.044 -5.821,9.543 0,3.446 1.94,6.601 5.821,9.464 4.159,3.048 9.033,4.572 14.623,4.572 h 12.267 c 1.663,0 2.98,-0.278 3.95,-0.835 0.971,-0.556 1.456,-1.272 1.456,-2.147 0,-0.875 -0.485,-1.59 -1.456,-2.147 C 23.355,8.35 22.038,8.072 20.375,8.072 H 8.663 C 5.706,8.072 3.06,7.197 0.728,5.448 -1.606,3.698 -2.772,1.882 -2.772,0 c 0,-1.962 1.131,-3.804 3.396,-5.527 2.263,-1.724 4.943,-2.585 8.039,-2.585 h 6.722 v 2.863 H 9.287 c -1.664,0 -2.935,0.292 -3.812,0.875 -0.878,0.583 -1.271,1.246 -1.178,1.988 0.045,0.689 0.52,1.299 1.421,1.829 0.9,0.53 2.089,0.796 3.569,0.796 h 11.088 c 1.663,0 2.98,-0.292 3.95,-0.875 0.971,-0.584 1.456,-1.379 1.456,-2.386 v -7.873 -0.1 -0.099 c 0,-0.875 -0.485,-1.591 -1.456,-2.147 z m 26.994,-0.04 c -0.901,-0.531 -2.091,-0.795 -3.569,-0.795 H 36.661 c -1.663,0 -2.98,0.291 -3.95,0.875 -0.97,0.582 -1.455,1.378 -1.455,2.385 v 21.95 c 0,0.98 0.485,1.742 1.455,2.286 0.97,0.543 2.218,0.815 3.742,0.815 1.525,0 2.773,-0.272 3.743,-0.815 0.97,-0.544 1.455,-1.306 1.455,-2.286 V -8.589 h 6.099 c 1.663,0 2.956,-0.305 3.881,-0.914 0.785,-0.557 1.154,-1.207 1.109,-1.949 -0.047,-0.689 -0.52,-1.299 -1.421,-1.829 z m -3.569,-2.386 c 2.402,0 4.319,0.464 5.752,1.392 1.293,0.821 1.941,1.815 1.941,2.982 0,1.166 -0.624,2.147 -1.872,2.943 -1.432,0.901 -3.373,1.352 -5.821,1.352 h -3.327 v 18.132 c 0,1.404 -0.751,2.538 -2.252,3.4 -1.502,0.861 -3.408,1.292 -5.718,1.292 -2.264,0 -4.158,-0.431 -5.682,-1.292 -1.525,-0.862 -2.287,-1.996 -2.287,-3.4 v -21.95 c 0,-1.405 0.738,-2.564 2.217,-3.479 1.478,-0.914 3.465,-1.372 5.96,-1.372 z m -16.044,1.909 c -1.225,0.742 -1.836,1.723 -1.836,2.942 v 21.95 c 0,1.193 0.623,2.14 1.871,2.843 1.247,0.702 2.817,1.054 4.712,1.054 1.941,0 3.523,-0.352 4.748,-1.054 1.223,-0.703 1.836,-1.65 1.836,-2.843 v -18.53 c 0,-0.265 0.231,-0.398 0.693,-0.398 h 4.02 c 2.032,0 3.604,-0.344 4.712,-1.033 1.109,-0.69 1.664,-1.511 1.664,-2.466 0,-0.954 -0.532,-1.776 -1.594,-2.465 -1.202,-0.742 -2.796,-1.113 -4.782,-1.113 H 36.661 c -2.079,0 -3.731,0.371 -4.955,1.113 z M 67.917,9.026 66.808,8.748 C 64.774,8.244 63.481,7.541 62.927,6.64 62.326,7.541 61.009,8.244 58.977,8.748 l -1.179,0.278 c -0.739,0.185 -1.375,0.517 -1.905,0.994 -0.532,0.478 -0.797,1.021 -0.797,1.631 0,0.741 0.346,1.358 1.039,1.849 0.693,0.49 1.594,0.735 2.703,0.735 2.125,0 3.465,-0.729 4.02,-2.187 h 0.069 c 0.646,1.458 1.963,2.187 3.95,2.187 1.109,0 2.021,-0.245 2.738,-0.735 0.715,-0.491 1.074,-1.108 1.074,-1.849 0,-1.299 -0.925,-2.174 -2.772,-2.625 z m -1.421,-22.227 c -0.948,-0.584 -2.138,-0.875 -3.569,-0.875 -1.479,0 -2.68,0.291 -3.604,0.875 -0.925,0.582 -1.386,1.352 -1.386,2.306 V 5.567 c 0,0.821 0.347,1.524 1.04,2.107 0.738,-0.318 1.478,-0.623 2.217,-0.914 0.877,-0.372 1.456,-0.769 1.733,-1.193 0.231,0.424 0.808,0.821 1.732,1.193 0.693,0.291 1.409,0.596 2.149,0.914 0.738,-0.583 1.109,-1.286 1.109,-2.107 v -16.462 c 0,-0.954 -0.475,-1.724 -1.421,-2.306 z m -9.183,-1.094 c 1.432,-0.914 3.303,-1.372 5.614,-1.372 2.263,0 4.123,0.458 5.579,1.372 1.455,0.915 2.183,2.048 2.183,3.4 V 5.567 c 0,0.768 -0.324,1.524 -0.97,2.266 2.495,0.875 3.742,2.148 3.742,3.818 0,1.113 -0.554,2.067 -1.663,2.863 -1.248,0.874 -2.888,1.312 -4.921,1.312 -1.618,0 -2.934,-0.279 -3.95,-0.835 -1.202,0.556 -2.564,0.835 -4.089,0.835 -1.987,0 -3.569,-0.418 -4.747,-1.253 -1.178,-0.835 -1.768,-1.809 -1.768,-2.922 0,-0.743 0.323,-1.485 0.971,-2.227 0.693,-0.822 1.594,-1.392 2.703,-1.71 C 55.442,6.998 55.165,6.283 55.165,5.567 v -16.462 c 0,-1.352 0.716,-2.485 2.148,-3.4 z M 56.551,5.567 c 0,0.689 0.346,1.405 1.04,2.147 0.23,0.291 0.092,0.477 -0.416,0.557 -1.017,0.212 -1.849,0.662 -2.495,1.352 -0.648,0.689 -0.97,1.365 -0.97,2.028 0,0.927 0.473,1.723 1.42,2.385 0.947,0.663 2.183,0.995 3.708,0.995 1.432,0 2.633,-0.292 3.604,-0.875 0.138,-0.08 0.277,-0.12 0.416,-0.12 0.092,0 0.542,0.166 1.351,0.498 0.808,0.331 1.698,0.497 2.668,0.497 1.57,0 2.83,-0.332 3.777,-0.995 0.947,-0.662 1.421,-1.458 1.421,-2.385 0,-0.849 -0.347,-1.551 -1.04,-2.108 -0.415,-0.318 -1.063,-0.636 -1.94,-0.954 -0.693,-0.265 -1.04,-0.464 -1.04,-0.597 0,-0.079 0.046,-0.146 0.139,-0.198 0.738,-0.77 1.109,-1.511 1.109,-2.227 v -16.462 c 0,-1.14 -0.601,-2.088 -1.802,-2.843 -1.202,-0.756 -2.727,-1.133 -4.574,-1.133 -1.895,0 -3.431,0.377 -4.609,1.133 -1.178,0.755 -1.767,1.703 -1.767,2.843 z m 53.363,0.914 C 109.128,5.951 107.95,5.686 106.38,5.686 h -7.554 v -16.661 c 0,-0.981 -0.486,-1.743 -1.456,-2.286 -0.97,-0.544 -2.218,-0.815 -3.742,-0.815 -1.525,0 -2.772,0.271 -3.743,0.815 -0.97,0.543 -1.455,1.305 -1.455,2.286 V 5.686 h -7.554 c -1.571,0 -2.749,0.265 -3.535,0.795 -0.786,0.53 -1.178,1.18 -1.178,1.949 0,0.742 0.425,1.385 1.275,1.928 0.85,0.543 1.987,0.815 3.412,0.815 h 7.58 c 0,0.955 0.486,1.703 1.46,2.247 0.972,0.543 2.224,0.815 3.754,0.815 1.529,0 2.78,-0.272 3.753,-0.815 0.973,-0.544 1.46,-1.292 1.46,-2.247 h 7.508 c 1.436,0 2.583,-0.272 3.441,-0.815 0.857,-0.543 1.286,-1.186 1.286,-1.928 0,-0.769 -0.393,-1.419 -1.178,-1.949 z M 106.38,4.096 c 2.448,0 4.366,0.477 5.752,1.431 1.154,0.795 1.732,1.763 1.732,2.903 0,1.139 -0.647,2.12 -1.94,2.942 -1.433,0.928 -3.281,1.392 -5.544,1.392 h -5.129 c -1.109,2.041 -3.627,3.062 -7.554,3.062 -3.927,0 -6.445,-1.021 -7.554,-3.062 h -5.267 c -2.264,0 -4.113,-0.464 -5.544,-1.392 -1.294,-0.822 -1.941,-1.803 -1.941,-2.942 0,-1.14 0.577,-2.108 1.733,-2.903 1.386,-0.954 3.303,-1.431 5.752,-1.431 h 4.782 v -15.071 c 0,-1.405 0.75,-2.538 2.252,-3.399 1.501,-0.862 3.407,-1.293 5.718,-1.293 2.31,0 4.215,0.431 5.717,1.293 1.501,0.861 2.253,1.994 2.253,3.399 V 4.096 Z m -6.168,0.397 v -15.468 c 0,-1.193 -0.624,-2.141 -1.872,-2.843 -1.247,-0.702 -2.818,-1.053 -4.712,-1.053 -1.895,0 -3.465,0.351 -4.713,1.053 -1.247,0.702 -1.871,1.65 -1.871,2.843 V 4.493 c 0,0.265 -0.232,0.398 -0.693,0.398 h -5.475 c -1.987,0 -3.535,0.371 -4.643,1.113 -0.971,0.663 -1.456,1.471 -1.456,2.426 0,0.927 0.555,1.749 1.663,2.465 1.109,0.716 2.587,1.074 4.436,1.074 h 5.752 c 0.323,0 0.693,0.264 1.109,0.795 0.554,0.662 1.132,1.153 1.733,1.471 1.062,0.53 2.471,0.796 4.227,0.796 1.755,0 3.164,-0.266 4.228,-0.796 0.599,-0.318 1.154,-0.809 1.663,-1.471 0.461,-0.531 0.831,-0.795 1.109,-0.795 h 5.683 c 1.847,0 3.326,-0.358 4.435,-1.074 1.109,-0.716 1.663,-1.538 1.663,-2.465 0,-0.955 -0.485,-1.763 -1.455,-2.426 -1.109,-0.742 -2.657,-1.113 -4.643,-1.113 h -5.475 c -0.463,0 -0.693,-0.133 -0.693,-0.398 z"
       style="fill:none;stroke:#231f20;stroke-width:0.5;stroke-linecap:butt;stroke-linejoin:miter;stroke-miterlimit:4;stroke-dasharray:none;stroke-opacity:1"
       transform="matrix(0.35277776,0,0,-0.35277776,114.04515,143.1472)"
       clip-path="url(#clipPath7330)" />
  </g>
</svg>
