<?xml version="1.0" encoding="UTF-8" standalone="no"?>
<!-- Created with Inkscape (http://www.inkscape.org/) -->

<svg
   width="386.30533"
   height="56.698666"
   viewBox="0 0 102.20995 15.001522"
   version="1.1"
   id="svg1"
   inkscape:version="1.4 (e7c3feb1, 2024-10-09)"
   sodipodi:docname="habitus.svg"
   xmlns:inkscape="http://www.inkscape.org/namespaces/inkscape"
   xmlns:sodipodi="http://sodipodi.sourceforge.net/DTD/sodipodi-0.dtd"
   xmlns="http://www.w3.org/2000/svg"
   xmlns:svg="http://www.w3.org/2000/svg">
  <sodipodi:namedview
     id="namedview1"
     pagecolor="#ffffff"
     bordercolor="#666666"
     borderopacity="1.0"
     inkscape:showpageshadow="2"
     inkscape:pageopacity="0.0"
     inkscape:pagecheckerboard="0"
     inkscape:deskcolor="#d1d1d1"
     inkscape:document-units="mm"
     inkscape:zoom="2.0054645"
     inkscape:cx="191.22752"
     inkscape:cy="28.920981"
     inkscape:window-width="1424"
     inkscape:window-height="793"
     inkscape:window-x="0"
     inkscape:window-y="23"
     inkscape:window-maximized="0"
     inkscape:current-layer="layer1" />
  <defs
     id="defs1">
    <clipPath
       clipPathUnits="userSpaceOnUse"
       id="clipPath6075">
      <path
         d="M 0,0 H 864.567 V 649.134 H 0 Z"
         transform="translate(-594.63781,-465.49151)"
         id="path6075" />
    </clipPath>
    <clipPath
       clipPathUnits="userSpaceOnUse"
       id="clipPath6089">
      <path
         d="M 0,0 H 864.567 V 649.134 H 0 Z"
         transform="translate(-624.70502,-462.54931)"
         id="path6089" />
    </clipPath>
  </defs>
  <g
     inkscape:label="Layer 1"
     inkscape:groupmode="layer"
     id="layer1"
     transform="translate(-1673.7541,-1226.0792)">
    <g
       id="g6073"
       transform="matrix(0.26437421,0,0,0.26598951,1471.6398,1160.9499)">
      <path
         id="path6074"
         d="m 0,0 c -11.743,0 -21.262,-9.519 -21.262,-21.262 0,-11.743 9.519,-21.262 21.262,-21.262 h 247.205 c 11.743,0 21.262,9.519 21.262,21.262 C 268.467,-9.519 258.948,0 247.205,0 Z"
         style="fill:#c7b000;fill-opacity:1;fill-rule:nonzero;stroke:none"
         transform="matrix(1.3333333,0,0,-1.3333333,792.8504,244.85667)"
         clip-path="url(#clipPath6075)" />
    </g>
    <g
       id="g6087"
       transform="matrix(0.26458333,0,0,0.26458333,1471.4799,1161.2942)">
      <path
         id="path6088"
         d="M 0,0 C -0.491,0.467 -1.085,0.701 -1.781,0.701 -2.478,0.701 -3.071,0.467 -3.563,0 -4.054,-0.467 -4.3,-1.055 -4.3,-1.764 l 0.308,-13.335 c -2.99,-0.097 -6.327,-0.145 -10.012,-0.145 -3.686,0 -7.576,0.032 -11.671,0.096 l 0.307,13.384 c 0,0.709 -0.245,1.297 -0.737,1.764 -0.491,0.467 -1.085,0.701 -1.781,0.701 -0.697,0 -1.29,-0.234 -1.781,-0.701 -0.492,-0.467 -0.737,-1.055 -0.737,-1.764 l 0.307,-13.239 h -1.106 c -0.901,0 -1.618,-0.169 -2.15,-0.507 -0.532,-0.338 -0.798,-0.797 -0.798,-1.377 0,-1.192 0.983,-1.788 2.948,-1.788 h 1.106 c 0,-5.218 -0.083,-9.487 -0.246,-12.804 -0.041,-1.449 -0.061,-2.416 -0.061,-2.899 0,-0.483 0.245,-0.959 0.737,-1.425 0.491,-0.467 1.084,-0.701 1.781,-0.701 0.696,0 1.29,0.234 1.781,0.701 0.492,0.466 0.737,0.942 0.737,1.425 0,0.483 -0.051,1.933 -0.153,4.349 -0.103,2.415 -0.154,6.233 -0.154,11.451 3.071,0.097 5.948,0.145 8.63,0.145 2.682,0 7.033,-0.048 13.053,-0.145 L -4.3,-34.04 c 0,-0.709 0.246,-1.297 0.737,-1.763 0.492,-0.467 1.085,-0.701 1.782,-0.701 0.696,0 1.29,0.234 1.781,0.701 0.491,0.466 0.737,1.054 0.737,1.763 L 0.43,-18.723 h 0.983 c 0.941,0 1.698,0.169 2.272,0.507 0.573,0.338 0.86,0.781 0.86,1.329 0,0.547 -0.297,1.006 -0.89,1.377 -0.594,0.37 -1.342,0.556 -2.242,0.556 H 0.43 l 0.307,13.19 C 0.737,-1.055 0.491,-0.467 0,0 m 32.308,-5.967 c -0.86,2.061 -1.475,3.454 -1.843,4.179 -0.369,0.725 -0.829,1.321 -1.382,1.788 -0.553,0.467 -1.342,0.701 -2.365,0.701 -1.515,0 -2.702,-0.967 -3.562,-2.899 -5.242,-12.08 -7.924,-18.249 -8.047,-18.506 -0.737,0.032 -1.577,0.048 -2.518,0.048 -1.966,0 -2.948,-0.596 -2.948,-1.788 0,-1.192 0.982,-1.787 2.948,-1.787 h 1.106 c -0.452,-1.16 -1.055,-2.609 -1.812,-4.349 -0.759,-1.739 -1.321,-3.1 -1.69,-4.083 -0.368,-0.983 -0.552,-1.707 -0.552,-2.174 0,-0.467 0.184,-0.862 0.552,-1.184 0.369,-0.321 0.86,-0.483 1.475,-0.483 1.023,0 1.821,0.596 2.395,1.788 0.163,0.354 1.515,3.881 4.054,10.581 2.661,0.097 4.954,0.145 6.879,0.145 1.925,0 5.344,-0.048 10.258,-0.145 0.614,-1.514 1.341,-3.366 2.18,-5.556 0.839,-2.191 1.546,-3.898 2.12,-5.122 0.614,-1.128 1.514,-1.691 2.702,-1.691 0.655,0 1.167,0.177 1.536,0.532 0.368,0.354 0.552,0.756 0.552,1.207 0,0.451 -0.532,1.837 -1.596,4.156 -0.533,1.127 -0.953,2.061 -1.26,2.802 -0.307,0.741 -0.789,1.9 -1.443,3.479 2.866,0 4.299,0.612 4.299,1.836 0,0.548 -0.286,0.998 -0.859,1.353 -0.574,0.354 -1.311,0.532 -2.212,0.532 l -2.702,-0.049 c -1.474,3.318 -3.563,8.214 -6.265,14.689 M 21.129,-16.79 c 3.234,7.988 5.138,11.982 5.712,11.982 0.491,0 2.846,-5.331 7.064,-15.993 -2.13,-0.096 -4.495,-0.145 -7.095,-0.145 -2.601,0 -5.047,0.049 -7.34,0.145 z M 51.84,-31.672 c -0.533,0 -0.952,-0.129 -1.259,-0.387 -0.307,-0.258 -0.461,-0.58 -0.461,-0.966 0,-1.096 1.341,-1.989 4.023,-2.682 2.682,-0.692 6.091,-1.039 10.227,-1.039 5.937,0 10.688,0.926 14.25,2.779 3.563,1.852 5.344,4.485 5.344,7.9 0,2.222 -0.942,4.243 -2.825,6.064 -1.884,1.819 -4.28,3.051 -7.187,3.696 4.423,1.836 6.634,4.622 6.634,8.359 0,2.061 -1.229,3.994 -3.685,5.798 -1.27,0.901 -3.001,1.643 -5.191,2.222 -2.191,0.58 -4.545,0.87 -7.063,0.87 -2.519,0 -5.355,-0.306 -8.507,-0.918 -1.516,-0.322 -2.806,-0.781 -3.87,-1.377 -1.065,-0.596 -1.597,-1.249 -1.597,-1.957 0,-1.063 0.614,-1.594 1.843,-1.594 0.163,0 0.491,0.031 0.982,0.096 0,-0.419 0.021,-2.311 0.062,-5.677 0.04,-3.366 0.061,-5.951 0.061,-7.755 l -0.184,-13.77 c -0.533,0.225 -1.065,0.338 -1.597,0.338 m 6.449,-1.401 c -0.164,2.48 -0.245,7.263 -0.245,14.35 1.146,-0.226 2.364,-0.338 3.654,-0.338 1.29,0 3.716,0.241 7.279,0.724 2.457,-0.322 4.76,-1.135 6.91,-2.44 2.15,-1.304 3.225,-2.971 3.225,-5 0,-2.481 -1.352,-4.39 -4.054,-5.726 -2.703,-1.337 -6.327,-2.005 -10.872,-2.005 -2.007,0 -3.972,0.145 -5.897,0.435 m 14.895,28.99 c 1.945,-1.159 2.918,-2.472 2.918,-3.938 0,-1.466 -0.553,-2.762 -1.658,-3.889 -1.106,-1.128 -2.263,-1.925 -3.471,-2.392 -1.208,-0.467 -2.242,-0.717 -3.102,-0.749 -1.72,0.258 -3.593,0.387 -5.62,0.387 -2.027,0 -3.43,-0.162 -4.207,-0.484 0,6.378 0.061,10.42 0.184,12.128 2.17,0.451 4.156,0.677 5.958,0.677 4.054,0 7.053,-0.58 8.998,-1.74 m 28.777,-13.964 c 0,2.61 0.102,7.618 0.307,15.027 3.276,-0.161 5.231,-0.241 5.866,-0.241 0.635,0 1.238,0.169 1.812,0.507 0.573,0.338 0.86,0.781 0.86,1.329 0,0.547 -0.297,1.006 -0.89,1.377 -0.595,0.37 -1.168,0.555 -1.72,0.555 -0.553,0 -1.751,-0.048 -3.594,-0.145 -1.842,-0.096 -3.46,-0.145 -4.852,-0.145 l -8.108,0.242 c -0.901,0 -1.618,-0.169 -2.15,-0.507 -0.532,-0.339 -0.798,-0.798 -0.798,-1.377 0,-1.192 0.983,-1.788 2.948,-1.788 0.123,0 1.986,0.064 5.59,0.193 0.204,-7.247 0.307,-12.217 0.307,-14.906 0,-2.69 -0.103,-7.658 -0.307,-14.906 -3.277,0.161 -5.14,0.242 -5.59,0.242 -2.048,0 -3.071,-0.613 -3.071,-1.836 0,-1.225 1.023,-1.836 3.071,-1.836 l 8.108,0.241 7.924,-0.29 c 0.9,0 1.637,0.178 2.211,0.532 0.573,0.354 0.86,0.805 0.86,1.353 0,0.547 -0.277,0.99 -0.829,1.328 -0.553,0.339 -1.301,0.508 -2.242,0.508 l -5.406,-0.242 c -0.205,7.248 -0.307,12.176 -0.307,14.785 m 15.724,18.506 c -1.966,0 -2.948,-0.612 -2.948,-1.836 0,-1.225 0.982,-1.836 2.948,-1.836 l 9.275,0.241 c 0.204,-7.247 0.307,-12.272 0.307,-15.075 L 126.96,-34.04 c 0,-0.741 0.224,-1.337 0.675,-1.788 0.45,-0.45 1.065,-0.676 1.843,-0.676 0.777,0 1.392,0.226 1.843,0.676 0.45,0.451 0.675,1.047 0.675,1.788 l -0.307,15.993 c 0,2.77 0.102,7.78 0.307,15.027 l 8.6,-0.241 c 0.941,0 1.698,0.169 2.272,0.507 0.573,0.338 0.86,0.797 0.86,1.377 0,0.58 -0.287,1.039 -0.86,1.377 -0.574,0.338 -1.331,0.507 -2.272,0.507 l -11.118,-0.29 z m 63.511,-24.594 c 0.245,8.858 0.368,16.315 0.368,22.371 0,0.741 -0.225,1.337 -0.675,1.788 -0.452,0.451 -1.066,0.677 -1.843,0.677 -0.778,0 -1.393,-0.226 -1.843,-0.677 -0.451,-0.451 -0.675,-1.047 -0.675,-1.788 0,-0.065 0.05,-2.19 0.153,-6.378 0.102,-4.187 0.154,-8.189 0.154,-12.006 0,-3.818 -0.656,-6.886 -1.966,-9.205 -1.515,-2.674 -4.422,-4.01 -8.722,-4.01 -3.44,0 -6.04,0.949 -7.801,2.85 -0.737,0.805 -1.32,1.852 -1.75,3.141 -0.43,1.288 -0.717,2.528 -0.86,3.721 -0.144,1.191 -0.215,3.655 -0.215,7.392 0,3.736 0.082,7.586 0.246,11.548 0.04,1.675 0.061,2.77 0.061,3.286 0,0.515 -0.225,0.998 -0.676,1.449 -0.451,0.451 -1.065,0.677 -1.842,0.677 -0.779,0 -1.393,-0.226 -1.843,-0.677 -0.451,-0.451 -0.676,-0.894 -0.676,-1.329 0,-0.434 0.123,-8.029 0.369,-22.781 0.082,-3.512 1.402,-6.499 3.962,-8.963 2.558,-2.464 6.234,-3.697 11.025,-3.697 4.791,0 8.476,1.224 11.056,3.673 2.58,2.447 3.91,5.427 3.993,8.938 m 35.103,2.948 c -1.536,1.578 -3.4,2.906 -5.59,3.986 -2.191,1.079 -4.382,2.109 -6.572,3.092 -2.191,0.982 -4.054,2.03 -5.589,3.141 -1.536,1.111 -2.304,2.335 -2.304,3.672 0,1.336 0.819,2.48 2.457,3.431 1.637,0.949 3.348,1.425 5.129,1.425 1.781,0 3.204,-0.137 4.269,-0.411 1.064,-0.274 1.852,-0.58 2.365,-0.918 0.511,-0.338 1.075,-0.645 1.689,-0.918 0.614,-0.274 1.228,-0.411 1.842,-0.411 0.615,0 1.116,0.145 1.505,0.435 0.389,0.29 0.584,0.693 0.584,1.208 0,1.127 -1.188,2.142 -3.563,3.044 -2.375,0.902 -5.242,1.353 -8.599,1.353 -3.358,0 -6.296,-0.838 -8.814,-2.512 -2.518,-1.676 -3.778,-3.657 -3.778,-5.943 0,-1.74 0.768,-3.334 2.304,-4.784 1.535,-1.449 3.398,-2.69 5.589,-3.72 2.19,-1.032 4.381,-2.038 6.572,-3.02 2.191,-0.983 4.054,-2.094 5.59,-3.334 1.536,-1.24 2.303,-2.569 2.303,-3.986 0,-2.126 -0.952,-3.826 -2.856,-5.098 -1.904,-1.273 -4.29,-1.908 -7.156,-1.908 -1.679,0 -3.204,0.209 -4.576,0.628 -1.372,0.418 -2.395,0.877 -3.071,1.377 -0.675,0.499 -1.392,0.958 -2.15,1.377 -0.758,0.418 -1.443,0.628 -2.057,0.628 -0.614,0 -1.116,-0.162 -1.505,-0.483 -0.39,-0.323 -0.584,-0.725 -0.584,-1.208 0,-1.256 1.475,-2.521 4.423,-3.793 2.948,-1.272 6.121,-1.909 9.52,-1.909 4.382,0 7.964,0.999 10.749,2.996 2.785,1.997 4.177,4.461 4.177,7.393 0,1.868 -0.768,3.591 -2.303,5.17"
         style="fill:#231f20;fill-opacity:1;fill-rule:nonzero;stroke:none"
         transform="matrix(1.3333333,0,0,-1.3333333,832.94,248.7796)"
         clip-path="url(#clipPath6089)" />
    </g>
  </g>
</svg>
