<?xml version="1.0" encoding="UTF-8" standalone="no"?>
<!-- Created with Inkscape (http://www.inkscape.org/) -->

<svg
   width="386"
   height="57"
   viewBox="0 0 102.12916 15.08125"
   version="1.1"
   id="svg1"
   xmlns="http://www.w3.org/2000/svg"
   xmlns:svg="http://www.w3.org/2000/svg">
  <defs
     id="defs1">
    <clipPath
       clipPathUnits="userSpaceOnUse"
       id="clipPath2658">
      <path
         d="M 0,0 H 864.567 V 649.134 H 0 Z"
         id="path2658" />
    </clipPath>
    <clipPath
       clipPathUnits="userSpaceOnUse"
       id="clipPath7332">
      <path
         d="M 0,0 H 864.567 V 649.134 H 0 Z"
         id="path7332" />
    </clipPath>
    <clipPath
       clipPathUnits="userSpaceOnUse"
       id="clipPath7334">
      <path
         d="M 0,0 H 864.567 V 649.134 H 0 Z"
         id="path7334" />
    </clipPath>
  </defs>
  <g
     id="layer1"
     transform="translate(0.66654857,0.47868193)">
    <path
       id="path2657"
       d="m 565.5582,438.3444 c -0.075,-0.008 -0.127,0.045 -0.152,0.156 -0.023,0.105 0.006,0.182 0.073,0.192 0.069,0.01 0.157,-0.073 0.177,-0.166 0.02,-0.096 -0.022,-0.174 -0.098,-0.182"
       style="fill:#231f20;fill-opacity:1;fill-rule:nonzero;stroke:none"
       transform="matrix(0.35277776,0,0,-0.35277776,-176.11125,163.36972)"
       clip-path="url(#clipPath2658)" />
    <path
       id="path7331"
       d="m 596.6926,422.9674 c -11.687,0 -21.16,-9.474 -21.16,-21.16 0,-11.687 9.473,-21.161 21.16,-21.161 h 241.333 c 11.686,0 21.16,9.474 21.16,21.161 0,11.686 -9.474,21.16 -21.16,21.16 z"
       style="fill:#ad8dff;fill-opacity:1;fill-rule:nonzero;stroke:none"
       transform="matrix(0.36004966,0,0,-0.35635382,-207.88687,150.24737)"
       clip-path="url(#clipPath7332)" />
    <path
       id="path7333"
       d="m 616.3912,412.9222 c 0.071,0.058 0.106,0.128 0.106,0.212 0,0.083 -0.035,0.149 -0.106,0.199 -0.071,0.05 -0.157,0.075 -0.258,0.075 -0.081,0 -0.152,0.025 -0.213,0.074 -0.041,0.033 -0.061,0.083 -0.061,0.15 0,0.05 0.02,0.091 0.061,0.124 0.061,0.05 0.132,0.075 0.213,0.075 0.263,0 0.486,-0.075 0.668,-0.224 0.182,-0.133 0.274,-0.291 0.274,-0.473 0,-0.2 -0.092,-0.366 -0.274,-0.498 -0.182,-0.133 -0.405,-0.2 -0.668,-0.2 -0.446,0 -0.82,0.116 -1.124,0.349 -0.304,0.232 -0.456,0.514 -0.456,0.847 0,0.315 0.152,0.589 0.456,0.822 0.304,0.249 0.678,0.373 1.124,0.373 0.627,0 1.154,-0.166 1.579,-0.498 0.426,-0.332 0.638,-0.731 0.638,-1.195 0,-0.465 -0.212,-0.864 -0.638,-1.196 -0.425,-0.332 -0.952,-0.498 -1.579,-0.498 -0.79,0 -1.469,0.216 -2.036,0.648 -0.546,0.415 -0.82,0.929 -0.82,1.544 0,0.597 0.274,1.104 0.82,1.519 0.567,0.432 1.246,0.647 2.036,0.647 0.972,0 1.802,-0.257 2.491,-0.772 0.688,-0.531 1.033,-1.162 1.033,-1.892 0,-0.747 -0.345,-1.379 -1.033,-1.893 -0.689,-0.532 -1.519,-0.797 -2.491,-0.797 -1.155,0 -2.137,0.315 -2.947,0.946 -0.81,0.614 -1.215,1.362 -1.215,2.242 0,0.863 0.405,1.61 1.215,2.241 0.81,0.614 1.792,0.922 2.947,0.922 1.336,0 2.461,-0.358 3.372,-1.071 0.891,-0.698 1.367,-1.561 1.428,-2.59 v -16.213 c 0,-1.678 -0.385,-3.255 -1.155,-4.732 -0.77,-1.478 -1.833,-2.765 -3.19,-3.861 -1.357,-1.112 -2.931,-1.988 -4.723,-2.627 -1.793,-0.639 -3.712,-0.959 -5.757,-0.959 -2.066,0 -3.995,0.32 -5.787,0.959 -1.793,0.639 -3.368,1.515 -4.724,2.627 -1.357,1.096 -2.421,2.383 -3.19,3.861 -0.77,1.477 -1.155,3.054 -1.155,4.732 v 0.025 c 0.061,1.046 0.537,1.9 1.428,2.565 0.952,0.713 2.076,1.071 3.372,1.071 1.155,0 2.137,-0.308 2.947,-0.922 0.81,-0.614 1.215,-1.361 1.215,-2.241 0,-0.88 -0.405,-1.628 -1.215,-2.242 -0.81,-0.631 -1.792,-0.946 -2.947,-0.946 -0.972,0 -1.803,0.265 -2.491,0.797 -0.689,0.531 -1.033,1.162 -1.033,1.893 0,0.73 0.344,1.361 1.033,1.892 0.688,0.532 1.519,0.797 2.491,0.797 0.79,0 1.468,-0.216 2.036,-0.647 0.566,-0.432 0.85,-0.947 0.85,-1.544 0,-0.598 -0.284,-1.113 -0.85,-1.544 -0.568,-0.432 -1.246,-0.648 -2.036,-0.648 -0.628,0 -1.154,0.166 -1.579,0.498 -0.426,0.332 -0.638,0.731 -0.638,1.196 0,0.464 0.212,0.863 0.638,1.195 0.425,0.332 0.951,0.498 1.579,0.498 0.446,0 0.821,-0.116 1.124,-0.348 0.304,-0.233 0.456,-0.515 0.456,-0.847 0,-0.333 -0.152,-0.615 -0.456,-0.847 -0.303,-0.233 -0.678,-0.349 -1.124,-0.349 -0.263,0 -0.486,0.066 -0.668,0.2 -0.182,0.149 -0.274,0.315 -0.274,0.498 0,0.199 0.092,0.365 0.274,0.498 0.182,0.132 0.405,0.199 0.668,0.199 0.081,0 0.152,-0.017 0.213,-0.05 0.061,-0.05 0.091,-0.099 0.091,-0.149 0,-0.05 -0.03,-0.1 -0.091,-0.15 -0.061,-0.033 -0.132,-0.049 -0.213,-0.049 -0.101,0 -0.182,-0.03 -0.243,-0.088 -0.061,-0.058 -0.091,-0.128 -0.091,-0.211 0,-0.084 0.03,-0.154 0.091,-0.212 0.061,-0.058 0.142,-0.087 0.243,-0.087 0.263,0 0.496,0.075 0.699,0.224 0.202,0.166 0.304,0.357 0.304,0.573 0,0.215 -0.102,0.398 -0.304,0.548 -0.203,0.149 -0.436,0.224 -0.699,0.224 -0.445,0 -0.83,-0.125 -1.154,-0.374 -0.324,-0.249 -0.486,-0.548 -0.486,-0.896 0,-0.349 0.162,-0.648 0.486,-0.897 0.324,-0.249 0.709,-0.373 1.154,-0.373 0.628,0 1.165,0.165 1.61,0.498 0.446,0.348 0.669,0.772 0.669,1.27 0,0.498 -0.223,0.913 -0.669,1.245 -0.445,0.349 -0.982,0.523 -1.61,0.523 -0.81,0 -1.499,-0.216 -2.066,-0.648 -0.567,-0.448 -0.85,-0.988 -0.85,-1.618 0,-0.632 0.283,-1.171 0.85,-1.619 0.567,-0.432 1.256,-0.648 2.066,-0.648 0.972,0 1.813,0.266 2.522,0.797 0.708,0.548 1.063,1.204 1.063,1.968 0,0.763 -0.355,1.419 -1.063,1.967 -0.709,0.531 -1.55,0.797 -2.522,0.797 -1.154,0 -2.147,-0.315 -2.977,-0.946 -0.831,-0.648 -1.245,-1.42 -1.245,-2.316 0,-0.897 0.414,-1.669 1.245,-2.316 0.83,-0.632 1.823,-0.947 2.977,-0.947 1.337,0 2.481,0.365 3.433,1.096 0.952,0.73 1.428,1.619 1.428,2.665 0,1.029 -0.476,1.917 -1.428,2.665 -0.952,0.713 -2.096,1.07 -3.433,1.07 -1.478,0 -2.764,-0.407 -3.858,-1.22 -1.013,-0.78 -1.56,-1.777 -1.64,-2.988 v -0.025 c 0,-1.76 0.405,-3.412 1.215,-4.956 0.81,-1.544 1.924,-2.898 3.341,-4.06 1.418,-1.162 3.069,-2.076 4.952,-2.739 1.884,-0.665 3.899,-0.997 6.046,-0.997 2.146,0 4.156,0.332 6.03,0.997 1.873,0.663 3.519,1.577 4.937,2.739 1.437,1.162 2.556,2.516 3.356,4.06 0.8,1.544 1.2,3.196 1.2,4.956 v 16.213 c -0.06,1.211 -0.607,2.216 -1.64,3.013 -1.053,0.813 -2.339,1.22 -3.858,1.22 -1.337,0 -2.481,-0.365 -3.433,-1.095 -0.952,-0.731 -1.428,-1.611 -1.428,-2.64 0,-1.046 0.476,-1.935 1.428,-2.665 0.952,-0.731 2.096,-1.096 3.433,-1.096 1.154,0 2.146,0.315 2.977,0.947 0.83,0.63 1.245,1.402 1.245,2.316 0,0.896 -0.415,1.66 -1.245,2.291 -0.831,0.631 -1.823,0.946 -2.977,0.946 -0.972,0 -1.813,-0.265 -2.522,-0.797 -0.688,-0.531 -1.033,-1.179 -1.033,-1.942 0,-0.764 0.345,-1.42 1.033,-1.968 0.709,-0.531 1.55,-0.797 2.522,-0.797 0.81,0 1.498,0.216 2.066,0.648 0.566,0.448 0.85,0.988 0.85,1.619 0,0.63 -0.284,1.162 -0.85,1.594 -0.568,0.448 -1.256,0.672 -2.066,0.672 -0.628,0 -1.165,-0.174 -1.61,-0.523 -0.446,-0.349 -0.669,-0.764 -0.669,-1.245 0,-0.498 0.223,-0.922 0.669,-1.27 0.445,-0.333 0.982,-0.498 1.61,-0.498 0.445,0 0.83,0.115 1.154,0.348 0.324,0.249 0.486,0.556 0.486,0.922 0,0.348 -0.162,0.647 -0.486,0.896 -0.324,0.249 -0.709,0.374 -1.154,0.374 -0.264,0 -0.497,-0.075 -0.699,-0.224 -0.203,-0.15 -0.304,-0.333 -0.304,-0.548 0,-0.233 0.101,-0.424 0.304,-0.573 0.202,-0.149 0.435,-0.224 0.699,-0.224 0.101,0 0.187,0.029 0.258,0.087 m 15.448,0.486 c 0,0.049 -0.011,0.099 -0.031,0.149 -0.06,0.183 -0.182,0.34 -0.364,0.473 -0.163,0.083 -0.324,0.125 -0.486,0.125 -0.061,0 -0.132,-0.009 -0.213,-0.025 -0.243,-0.05 -0.446,-0.166 -0.608,-0.349 -0.162,-0.249 -0.243,-0.498 -0.243,-0.747 0,-0.149 0.031,-0.299 0.092,-0.448 0.141,-0.415 0.486,-0.681 1.032,-0.797 v -0.498 c -0.769,0.132 -1.22,0.402 -1.351,0.809 -0.132,0.407 -0.198,0.701 -0.198,0.884 0,0.399 0.142,0.78 0.425,1.146 0.324,0.332 0.679,0.498 1.064,0.498 0.121,0 0.232,-0.017 0.334,-0.05 0.486,-0.099 0.8,-0.407 0.942,-0.921 0.02,-0.067 0.03,-0.133 0.03,-0.2 0,-0.149 -0.03,-0.307 -0.091,-0.473 -0.081,-0.232 -0.233,-0.415 -0.456,-0.548 v 0.573 c 0.081,0.133 0.122,0.266 0.122,0.399 m -1.17,-0.71 c -0.051,0.124 -0.076,0.245 -0.076,0.361 v 0.1 c 0.041,0.149 0.096,0.257 0.167,0.323 0.071,0.066 0.126,0.1 0.167,0.1 0.041,0 0.071,-0.009 0.091,-0.025 0.061,-0.033 0.092,-0.075 0.092,-0.124 v -0.025 c 0,-0.067 -0.021,-0.133 -0.061,-0.2 -0.021,-0.049 -0.031,-0.091 -0.031,-0.124 v -0.697 c -0.182,0.082 -0.299,0.186 -0.349,0.311 m 2.871,-0.81 c 0.344,0.565 0.516,1.096 0.516,1.594 0,0.2 -0.02,0.407 -0.06,0.623 -0.163,0.747 -0.649,1.345 -1.459,1.793 -0.486,0.216 -0.982,0.324 -1.488,0.324 -0.284,0 -0.567,-0.034 -0.851,-0.1 -0.79,-0.216 -1.418,-0.631 -1.883,-1.245 -0.466,-0.681 -0.699,-1.345 -0.699,-1.992 0,-0.465 0.122,-0.922 0.365,-1.37 0.546,-1.096 1.559,-1.702 3.037,-1.818 v -0.847 c -0.688,0.199 -1.377,0.515 -2.065,0.946 -0.972,0.648 -1.504,1.266 -1.595,1.856 -0.091,0.589 -0.137,0.984 -0.137,1.183 0,0.747 0.213,1.452 0.638,2.117 0.547,0.846 1.387,1.403 2.522,1.668 0.283,0.05 0.556,0.075 0.82,0.075 0.708,0 1.336,-0.183 1.883,-0.548 0.729,-0.498 1.185,-1.17 1.367,-2.017 0.041,-0.183 0.061,-0.374 0.061,-0.573 0,-0.614 -0.182,-1.212 -0.547,-1.793 -0.486,-0.764 -1.235,-1.254 -2.248,-1.469 v 0.473 c 0.871,0.182 1.478,0.556 1.823,1.12 m -0.668,0.885 c 0.04,0.389 0.06,0.618 0.06,0.684 0,0.631 -0.324,1.138 -0.972,1.52 -0.324,0.149 -0.648,0.224 -0.972,0.224 -0.182,0 -0.364,-0.025 -0.547,-0.075 -0.506,-0.133 -0.911,-0.398 -1.215,-0.797 -0.304,-0.448 -0.456,-0.896 -0.456,-1.345 0,-0.315 0.071,-0.631 0.213,-0.946 0.344,-0.747 1.023,-1.187 2.035,-1.32 v -0.448 c -1.256,0.116 -2.02,0.502 -2.293,1.158 -0.274,0.655 -0.41,1.149 -0.41,1.482 0,0.614 0.243,1.228 0.729,1.843 0.607,0.597 1.265,0.896 1.974,0.896 0.183,0 0.375,-0.017 0.578,-0.05 0.911,-0.199 1.488,-0.772 1.731,-1.718 0.02,-0.133 0.031,-0.266 0.031,-0.399 0,-0.365 -0.102,-0.739 -0.304,-1.12 -0.264,-0.498 -0.709,-0.839 -1.337,-1.021 v 0.473 c 0.729,0.249 1.114,0.568 1.155,0.959 m -1.747,-24.967 c -0.011,-0.05 -0.036,-0.092 -0.076,-0.125 -0.041,-0.017 -0.081,-0.025 -0.122,-0.025 -0.041,0 -0.091,0.025 -0.152,0.075 -0.101,0.149 -0.151,0.307 -0.151,0.473 v 0.149 c 0.04,0.216 0.171,0.382 0.394,0.499 v -0.698 c 0,-0.083 0.031,-0.149 0.092,-0.199 0.02,-0.05 0.025,-0.1 0.015,-0.149 m -1.079,1.021 c -0.101,-0.283 -0.152,-0.49 -0.152,-0.623 0,-0.283 0.112,-0.548 0.335,-0.797 0.141,-0.166 0.288,-0.261 0.44,-0.286 0.152,-0.025 0.268,-0.038 0.349,-0.038 0.142,0 0.294,0.042 0.456,0.125 0.202,0.132 0.324,0.307 0.365,0.523 v 0.099 c 0,0.15 -0.041,0.291 -0.122,0.424 v 0.548 c 0.365,-0.216 0.547,-0.44 0.547,-0.673 v -0.373 c 0,-0.432 -0.213,-0.764 -0.638,-0.996 -0.203,-0.1 -0.395,-0.15 -0.577,-0.15 -0.122,0 -0.233,0.016 -0.334,0.05 -0.324,0.066 -0.588,0.215 -0.79,0.448 -0.304,0.365 -0.456,0.755 -0.456,1.171 0,0.182 0.031,0.365 0.091,0.548 0.202,0.597 0.689,0.962 1.458,1.095 v -0.473 c -0.546,-0.133 -0.871,-0.34 -0.972,-0.622 m -0.941,0.66 c -0.224,-0.54 -0.335,-0.951 -0.335,-1.233 0,-0.498 0.193,-0.988 0.578,-1.47 0.506,-0.498 1.052,-0.747 1.64,-0.747 0.162,0 0.324,0.017 0.486,0.05 0.77,0.166 1.256,0.639 1.458,1.42 0.02,0.116 0.031,0.224 0.031,0.323 0,0.283 -0.072,0.556 -0.213,0.822 -0.203,0.382 -0.547,0.639 -1.033,0.772 v 0.474 c 0.972,-0.299 1.494,-0.715 1.565,-1.246 0.07,-0.531 0.106,-0.855 0.106,-0.971 0,-0.747 -0.395,-1.362 -1.185,-1.843 -0.364,-0.166 -0.729,-0.249 -1.093,-0.249 -0.243,0 -0.486,0.033 -0.729,0.1 -0.608,0.165 -1.094,0.489 -1.459,0.971 -0.385,0.581 -0.577,1.146 -0.577,1.693 0,0.365 0.081,0.723 0.243,1.071 0.425,0.913 1.235,1.428 2.43,1.544 v -0.448 c -1.053,-0.149 -1.691,-0.494 -1.913,-1.033 m -0.881,0.709 c -0.385,-0.764 -0.578,-1.369 -0.578,-1.818 0,-0.664 0.233,-1.336 0.699,-2.017 0.77,-0.897 1.661,-1.345 2.673,-1.345 0.203,0 0.405,0.017 0.608,0.05 1.276,0.199 2.086,0.93 2.43,2.192 0.02,0.165 0.031,0.323 0.031,0.473 0,0.531 -0.152,1.037 -0.456,1.519 -0.405,0.648 -1.043,1.054 -1.914,1.22 v 0.474 c 1.013,-0.2 1.732,-0.636 2.157,-1.308 0.425,-0.672 0.638,-1.332 0.638,-1.98 0,-0.216 -0.02,-0.432 -0.061,-0.647 -0.162,-0.881 -0.719,-1.578 -1.671,-2.092 -0.526,-0.249 -1.063,-0.374 -1.61,-0.374 -0.344,0 -0.688,0.05 -1.033,0.149 -0.891,0.249 -1.6,0.723 -2.126,1.42 -0.527,0.73 -0.79,1.502 -0.79,2.316 0,0.183 0.01,0.365 0.03,0.548 0.142,0.996 0.709,1.81 1.702,2.441 0.566,0.348 1.255,0.581 2.065,0.697 v -0.573 c -1.478,-0.133 -2.41,-0.581 -2.794,-1.345 m 6.258,14.196 c 0.587,0.199 1.164,0.299 1.731,0.299 0.628,0 1.256,-0.125 1.884,-0.374 1.195,-0.465 2.075,-1.195 2.643,-2.191 0.222,-0.449 0.334,-0.889 0.334,-1.32 0,-0.299 -0.051,-0.59 -0.152,-0.872 -0.243,-0.714 -0.82,-1.254 -1.732,-1.619 -0.486,-0.149 -0.972,-0.224 -1.458,-0.224 -0.486,0 -0.972,0.075 -1.458,0.224 -0.952,0.332 -1.661,0.793 -2.127,1.383 -0.466,0.589 -0.698,1.149 -0.698,1.681 0,0.232 0.04,0.473 0.121,0.722 0.506,1.062 1.418,1.589 2.734,1.581 1.317,-0.008 2.39,-0.56 3.221,-1.656 0.243,-0.382 0.364,-0.756 0.364,-1.121 0,-0.166 -0.02,-0.323 -0.061,-0.473 -0.162,-0.531 -0.577,-0.93 -1.245,-1.195 -0.365,-0.1 -0.709,-0.15 -1.033,-0.15 -0.648,0 -1.256,0.183 -1.823,0.548 -0.709,0.482 -1.063,1.038 -1.063,1.669 0,0.133 0.02,0.274 0.061,0.423 0.304,0.648 0.84,0.972 1.61,0.972 h 0.121 c 0.851,-0.017 1.529,-0.366 2.036,-1.046 0.121,-0.233 0.182,-0.449 0.182,-0.648 0,-0.233 -0.091,-0.44 -0.273,-0.623 -0.224,-0.216 -0.527,-0.323 -0.912,-0.323 -0.182,0 -0.385,0.025 -0.607,0.074 -0.507,0.183 -0.805,0.386 -0.897,0.611 -0.091,0.224 -0.136,0.369 -0.136,0.435 0,0.216 0.131,0.382 0.395,0.498 0.101,0.034 0.212,0.05 0.334,0.05 0.121,0 0.243,-0.025 0.364,-0.074 0.223,-0.084 0.37,-0.175 0.441,-0.274 0.071,-0.1 0.106,-0.167 0.106,-0.2 0,-0.066 -0.03,-0.116 -0.091,-0.149 h -0.091 c -0.041,0 -0.081,0.008 -0.122,0.025 -0.081,0.033 -0.132,0.075 -0.151,0.124 -0.082,0.1 -0.183,0.146 -0.304,0.137 -0.122,-0.008 -0.213,-0.041 -0.274,-0.099 -0.06,-0.059 -0.091,-0.121 -0.091,-0.187 0,-0.034 0.01,-0.075 0.031,-0.125 0.243,-0.298 0.556,-0.448 0.941,-0.448 0.385,0 0.658,0.166 0.821,0.498 0.019,0.083 0.03,0.158 0.03,0.224 0,0.2 -0.081,0.382 -0.243,0.548 -0.243,0.249 -0.497,0.407 -0.76,0.473 -0.263,0.067 -0.466,0.1 -0.607,0.1 -0.223,0 -0.456,-0.05 -0.699,-0.149 -0.364,-0.167 -0.572,-0.353 -0.623,-0.561 -0.05,-0.207 -0.076,-0.353 -0.076,-0.436 0,-0.215 0.061,-0.423 0.183,-0.622 0.546,-0.697 1.255,-1.046 2.126,-1.046 0.871,0 1.478,0.365 1.823,1.096 0.04,0.149 0.061,0.299 0.061,0.448 0,0.681 -0.385,1.253 -1.155,1.718 -0.567,0.349 -1.154,0.523 -1.762,0.523 -0.405,0 -0.82,-0.074 -1.245,-0.224 -0.649,-0.315 -1.018,-0.652 -1.109,-1.008 -0.091,-0.358 -0.137,-0.611 -0.137,-0.76 0,-0.382 0.122,-0.756 0.365,-1.121 0.83,-1.112 1.914,-1.668 3.25,-1.668 h 0.061 c 1.377,0.016 2.319,0.589 2.825,1.718 0.081,0.265 0.122,0.523 0.122,0.772 0,0.548 -0.203,1.071 -0.608,1.569 -0.587,0.714 -1.24,1.179 -1.959,1.395 -0.719,0.215 -1.302,0.324 -1.747,0.324 -0.588,0 -1.175,-0.117 -1.762,-0.349 -0.911,-0.448 -1.428,-0.926 -1.549,-1.432 -0.122,-0.507 -0.183,-0.876 -0.183,-1.108 0,-0.548 0.172,-1.088 0.517,-1.619 0.648,-0.947 1.417,-1.561 2.309,-1.843 0.891,-0.283 1.599,-0.424 2.126,-0.424 0.689,0 1.367,0.141 2.036,0.424 1.052,0.498 1.65,1.037 1.792,1.619 0.141,0.581 0.213,1.004 0.213,1.27 0,0.631 -0.193,1.253 -0.578,1.868 -0.729,1.046 -1.579,1.739 -2.551,2.079 -0.972,0.34 -1.783,0.511 -2.431,0.511 -0.668,0 -1.336,-0.117 -2.005,-0.349 -0.992,-0.332 -1.822,-0.955 -2.491,-1.868 v 5.056 c 0.567,-0.083 1.124,-0.125 1.671,-0.125 1.053,0 2.096,0.166 3.129,0.498 1.58,0.532 3.099,1.275 4.557,2.229 1.458,0.955 2.835,1.947 4.131,2.977 0.77,0.597 1.489,1.145 2.157,1.643 1.256,0.863 2.42,1.337 3.494,1.42 0.202,0.016 0.405,0.025 0.608,0.025 1.073,0 1.964,-0.233 2.673,-0.698 1.033,-0.681 1.584,-1.319 1.656,-1.917 0.07,-0.598 0.106,-0.955 0.106,-1.071 0,-0.93 -0.345,-1.793 -1.033,-2.59 -0.871,-0.864 -1.823,-1.295 -2.856,-1.295 -0.263,0 -0.536,0.025 -0.82,0.074 -1.357,0.266 -2.218,1.096 -2.582,2.491 -0.041,0.182 -0.061,0.365 -0.061,0.548 0,0.614 0.182,1.203 0.547,1.768 0.445,0.747 1.164,1.237 2.157,1.469 0.243,0.034 0.476,0.05 0.699,0.05 1.032,0 1.812,-0.39 2.339,-1.17 0.304,-0.449 0.455,-0.914 0.455,-1.395 0,-0.548 -0.192,-1.129 -0.577,-1.743 -0.607,-0.714 -1.306,-1.071 -2.096,-1.071 -0.162,0 -0.324,0.016 -0.486,0.05 -0.972,0.149 -1.59,0.722 -1.853,1.718 -0.02,0.133 -0.03,0.265 -0.03,0.399 0,0.381 0.101,0.763 0.303,1.145 0.284,0.515 0.76,0.855 1.428,1.021 0.142,0.017 0.274,0.025 0.395,0.025 0.668,0 1.174,-0.257 1.519,-0.772 0.182,-0.266 0.273,-0.548 0.273,-0.847 0,-0.348 -0.132,-0.722 -0.394,-1.12 -0.021,-0.034 -0.041,-0.059 -0.061,-0.075 -0.345,-0.332 -0.709,-0.498 -1.094,-0.498 -0.101,0 -0.203,0.008 -0.304,0.025 -0.486,0.116 -0.8,0.423 -0.941,0.921 v 0.224 c 0,0.365 0.121,0.656 0.364,0.872 0.182,0.166 0.375,0.249 0.577,0.249 0.122,0 0.253,-0.033 0.395,-0.1 0.182,-0.133 0.278,-0.257 0.289,-0.373 0.01,-0.116 0.015,-0.191 0.015,-0.224 0,-0.166 -0.051,-0.324 -0.152,-0.473 -0.061,-0.067 -0.121,-0.1 -0.182,-0.1 -0.041,0 -0.071,0.008 -0.091,0.025 -0.061,0.05 -0.091,0.108 -0.091,0.174 0,0.066 0.02,0.125 0.06,0.174 0.041,0.05 0.061,0.1 0.061,0.15 0,0.05 -0.02,0.091 -0.061,0.124 -0.081,0.083 -0.157,0.129 -0.228,0.137 -0.071,0.009 -0.116,0.013 -0.136,0.013 -0.102,0 -0.182,-0.042 -0.243,-0.125 -0.102,-0.149 -0.152,-0.307 -0.152,-0.473 v -0.124 c 0.04,-0.2 0.162,-0.366 0.364,-0.498 0.183,-0.084 0.355,-0.125 0.517,-0.125 h 0.152 c 0.243,0.033 0.435,0.133 0.577,0.299 0.223,0.282 0.334,0.556 0.334,0.822 0,0.215 -0.071,0.431 -0.213,0.647 -0.243,0.399 -0.638,0.598 -1.184,0.598 -0.122,0 -0.243,-0.009 -0.365,-0.025 -0.77,-0.216 -1.18,-0.523 -1.23,-0.921 -0.051,-0.399 -0.076,-0.64 -0.076,-0.723 0,-0.631 0.324,-1.137 0.972,-1.519 0.304,-0.149 0.618,-0.224 0.942,-0.224 0.162,0 0.323,0.016 0.486,0.05 0.486,0.099 0.881,0.324 1.185,0.672 0.404,0.465 0.607,0.972 0.607,1.519 0,0.116 -0.01,0.233 -0.03,0.349 -0.122,0.681 -0.537,1.212 -1.246,1.594 -0.405,0.199 -0.81,0.299 -1.215,0.299 -0.243,0 -0.476,-0.034 -0.699,-0.1 -0.648,-0.183 -1.174,-0.523 -1.579,-1.021 -0.385,-0.548 -0.578,-1.112 -0.578,-1.693 0,-0.167 0.02,-0.341 0.061,-0.523 0.162,-0.781 0.658,-1.395 1.489,-1.843 0.486,-0.233 0.972,-0.349 1.458,-0.349 0.304,0 0.597,0.041 0.881,0.125 0.79,0.199 1.417,0.605 1.883,1.22 0.446,0.631 0.669,1.286 0.669,1.967 0,0.216 -0.021,0.432 -0.061,0.648 -0.162,0.93 -0.74,1.66 -1.732,2.191 -0.587,0.266 -1.164,0.399 -1.731,0.399 -0.345,0 -0.679,-0.042 -1.003,-0.125 -0.931,-0.249 -1.681,-0.739 -2.248,-1.469 -0.506,-0.731 -0.759,-1.494 -0.759,-2.291 0,-0.233 0.02,-0.473 0.061,-0.722 0.202,-1.063 0.86,-1.902 1.974,-2.516 0.669,-0.315 1.337,-0.473 2.005,-0.473 0.405,0 0.8,0.058 1.185,0.174 1.073,0.282 1.924,0.839 2.552,1.669 0.607,0.83 0.911,1.702 0.911,2.615 0,0.216 -0.02,0.44 -0.061,0.672 -0.162,1.146 -0.82,2.084 -1.974,2.815 -0.81,0.531 -1.853,0.797 -3.129,0.797 -0.203,0 -0.416,-0.009 -0.638,-0.025 -1.195,-0.1 -2.481,-0.623 -3.858,-1.569 -0.689,-0.515 -1.418,-1.071 -2.188,-1.669 -1.256,-0.996 -2.592,-1.959 -4.01,-2.889 -1.417,-0.93 -2.754,-1.602 -4.01,-2.017 -1.256,-0.415 -2.38,-0.623 -3.372,-0.623 -0.547,0 -1.083,0.05 -1.61,0.15 v 1.021 c 1.215,0.199 2.096,0.688 2.643,1.469 0.547,0.78 0.82,1.569 0.82,2.366 0,0.183 -0.01,0.374 -0.03,0.573 -0.142,1.012 -0.719,1.851 -1.732,2.515 -0.729,0.415 -1.478,0.623 -2.248,0.623 -1.579,-0.05 -2.835,-0.664 -3.767,-1.843 -0.607,-0.83 -0.911,-1.694 -0.911,-2.59 0,-0.216 0.02,-0.44 0.061,-0.673 0.202,-1.129 0.86,-2.067 1.974,-2.814 0.831,-0.515 1.661,-0.88 2.491,-1.096 v -15.565 c -2.491,-0.349 -3.969,-1.536 -4.435,-3.562 -0.041,-0.249 -0.061,-0.489 -0.061,-0.722 0,-0.963 0.324,-1.859 0.973,-2.689 0.809,-1.063 1.994,-1.644 3.554,-1.744 1.073,0 1.984,0.287 2.734,0.859 0.749,0.573 1.215,1.308 1.397,2.204 0.041,0.216 0.061,0.424 0.061,0.623 0,0.764 -0.243,1.503 -0.729,2.217 -0.608,0.879 -1.539,1.427 -2.795,1.643 v 0.623 c 1.316,0 2.653,-0.49 4.01,-1.469 0.669,-0.482 1.387,-1.03 2.157,-1.644 1.661,-1.329 3.458,-2.487 5.392,-3.474 1.934,-0.988 3.944,-1.507 6.031,-1.557 h 0.152 c 1.701,0 3.402,0.515 5.103,1.544 1.134,0.764 1.752,1.486 1.853,2.167 0.101,0.68 0.152,1.137 0.152,1.37 0,0.846 -0.253,1.643 -0.759,2.391 -0.649,0.962 -1.621,1.593 -2.917,1.892 -0.344,0.066 -0.678,0.1 -1.002,0.1 -0.851,0 -1.61,-0.216 -2.279,-0.648 -0.911,-0.581 -1.468,-1.386 -1.67,-2.415 -0.041,-0.216 -0.061,-0.432 -0.061,-0.648 0,-0.714 0.212,-1.403 0.638,-2.067 0.567,-0.864 1.428,-1.436 2.582,-1.718 0.283,-0.05 0.567,-0.075 0.851,-0.075 0.729,0 1.387,0.182 1.974,0.548 0.81,0.514 1.307,1.212 1.489,2.092 0.02,0.166 0.03,0.332 0.03,0.498 0,0.631 -0.182,1.245 -0.547,1.843 -0.466,0.747 -1.195,1.245 -2.187,1.494 -0.243,0.033 -0.476,0.05 -0.699,0.05 -0.628,0 -1.195,-0.158 -1.701,-0.473 -0.689,-0.432 -1.104,-1.021 -1.245,-1.769 -0.021,-0.166 -0.031,-0.323 -0.031,-0.473 0,-0.515 0.142,-1.004 0.426,-1.469 0.384,-0.631 0.992,-1.046 1.822,-1.245 0.202,-0.034 0.395,-0.05 0.577,-0.05 0.912,0 1.6,0.332 2.066,0.996 0.284,0.382 0.425,0.78 0.425,1.195 0,0.449 -0.162,0.913 -0.486,1.395 -0.506,0.581 -1.083,0.872 -1.731,0.872 -0.142,0 -0.274,-0.009 -0.395,-0.025 -0.831,-0.133 -1.357,-0.606 -1.58,-1.42 -0.02,-0.083 -0.03,-0.166 -0.03,-0.249 0,-0.315 0.091,-0.631 0.273,-0.946 0.202,-0.382 0.557,-0.639 1.064,-0.772 0.101,-0.017 0.202,-0.025 0.303,-0.025 0.527,0 0.922,0.191 1.185,0.573 0.162,0.215 0.243,0.439 0.243,0.672 0,0.249 -0.091,0.506 -0.273,0.772 -0.142,0.183 -0.294,0.291 -0.456,0.324 -0.162,0.033 -0.284,0.05 -0.364,0.05 -0.163,0 -0.315,-0.042 -0.456,-0.125 -0.223,-0.149 -0.34,-0.286 -0.35,-0.411 -0.01,-0.124 -0.015,-0.203 -0.015,-0.236 0,-0.183 0.051,-0.333 0.152,-0.449 0.081,-0.099 0.172,-0.149 0.274,-0.149 0.06,0 0.121,0.016 0.182,0.05 0.101,0.05 0.156,0.095 0.167,0.137 0.01,0.041 0.015,0.07 0.015,0.087 0,0.066 -0.02,0.125 -0.061,0.174 -0.02,0.033 -0.03,0.066 -0.03,0.1 v 0.075 c 0,0.066 0.03,0.116 0.091,0.149 0.04,0.016 0.071,0.025 0.091,0.025 0.061,0 0.111,-0.017 0.152,-0.05 0.081,-0.083 0.132,-0.174 0.152,-0.274 0.02,-0.099 0.03,-0.174 0.03,-0.224 0,-0.1 -0.02,-0.191 -0.06,-0.274 -0.041,-0.133 -0.142,-0.249 -0.304,-0.349 -0.122,-0.049 -0.243,-0.074 -0.365,-0.074 -0.202,0 -0.395,0.091 -0.577,0.274 -0.243,0.215 -0.364,0.489 -0.364,0.822 0,0.066 0.01,0.14 0.03,0.224 0.141,0.548 0.364,0.846 0.668,0.896 0.304,0.05 0.496,0.075 0.578,0.075 0.445,0 0.83,-0.199 1.154,-0.598 0.243,-0.365 0.364,-0.722 0.364,-1.071 0,-0.315 -0.091,-0.614 -0.273,-0.896 -0.324,-0.498 -0.82,-0.747 -1.489,-0.747 -0.141,0 -0.283,0.008 -0.425,0.025 -0.648,0.149 -1.099,0.448 -1.352,0.896 -0.253,0.448 -0.379,0.88 -0.379,1.295 0,0.166 0.02,0.332 0.06,0.498 0.142,0.581 0.517,1.038 1.124,1.37 0.385,0.183 0.77,0.274 1.155,0.274 0.222,0 0.445,-0.033 0.668,-0.1 0.608,-0.183 1.094,-0.514 1.458,-0.996 0.405,-0.598 0.608,-1.179 0.608,-1.743 0,-0.482 -0.152,-0.938 -0.456,-1.37 -0.547,-0.797 -1.347,-1.195 -2.4,-1.195 -0.202,0 -0.415,0.016 -0.638,0.049 -0.992,0.25 -1.691,0.702 -2.096,1.358 -0.405,0.655 -0.607,1.282 -0.607,1.88 0,0.232 0.03,0.473 0.091,0.722 0.182,0.863 0.729,1.544 1.64,2.043 0.567,0.265 1.124,0.398 1.671,0.398 0.324,0 0.648,-0.05 0.972,-0.149 0.891,-0.266 1.61,-0.748 2.157,-1.445 0.506,-0.714 0.759,-1.478 0.759,-2.291 0,-0.183 -0.01,-0.366 -0.03,-0.548 -0.162,-0.996 -0.729,-1.827 -1.701,-2.491 -1.621,-0.946 -3.231,-1.419 -4.83,-1.419 -0.243,0 -0.486,0.008 -0.729,0.025 -1.844,0.166 -3.631,0.713 -5.362,1.644 -1.732,0.929 -3.347,2 -4.846,3.212 -0.77,0.598 -1.499,1.154 -2.187,1.669 -1.499,1.062 -2.988,1.594 -4.466,1.594 v 0.398 3.076 c 0,1.386 0.031,2.681 0.091,3.885 0.061,1.204 0.162,1.988 0.304,2.354 0.587,0.996 1.377,1.652 2.37,1.967 m 32.201,8.941 c -0.06,-0.05 -0.091,-0.116 -0.091,-0.199 0,-0.084 0.031,-0.154 0.091,-0.212 0.061,-0.058 0.142,-0.087 0.243,-0.087 0.263,0 0.496,0.075 0.699,0.224 0.202,0.149 0.304,0.34 0.304,0.573 0,0.215 -0.102,0.398 -0.304,0.548 -0.203,0.149 -0.436,0.224 -0.699,0.224 -0.445,0 -0.83,-0.125 -1.154,-0.374 -0.324,-0.249 -0.486,-0.548 -0.486,-0.896 0,-0.366 0.162,-0.673 0.486,-0.922 0.324,-0.233 0.709,-0.348 1.154,-0.348 0.628,0 1.165,0.165 1.611,0.498 0.445,0.348 0.668,0.772 0.668,1.27 0,0.481 -0.223,0.896 -0.668,1.245 -0.446,0.349 -0.983,0.523 -1.611,0.523 -0.81,0 -1.499,-0.224 -2.065,-0.672 -0.568,-0.432 -0.851,-0.964 -0.851,-1.594 0,-0.631 0.283,-1.171 0.851,-1.619 0.566,-0.432 1.255,-0.648 2.065,-0.648 0.992,0 1.833,0.266 2.522,0.797 0.709,0.548 1.063,1.204 1.063,1.968 0,0.763 -0.354,1.411 -1.063,1.942 -0.689,0.532 -1.53,0.797 -2.522,0.797 -1.154,0 -2.147,-0.315 -2.977,-0.946 -0.83,-0.631 -1.245,-1.395 -1.245,-2.291 0,-0.914 0.415,-1.686 1.245,-2.316 0.83,-0.632 1.823,-0.947 2.977,-0.947 1.337,0 2.481,0.365 3.433,1.096 0.952,0.73 1.428,1.619 1.428,2.665 0,1.029 -0.476,1.909 -1.428,2.64 -0.952,0.73 -2.096,1.095 -3.433,1.095 -1.499,0 -2.784,-0.407 -3.858,-1.22 -1.013,-0.797 -1.559,-1.793 -1.64,-2.988 v -28.691 c 0,-0.083 0.035,-0.153 0.106,-0.211 0.071,-0.059 0.157,-0.088 0.258,-0.088 0.081,0 0.157,0.029 0.228,0.088 0.071,0.058 0.107,0.128 0.107,0.211 v 25.876 c 0.182,-0.348 0.394,-0.681 0.638,-0.996 1.194,-1.511 2.511,-2.698 3.949,-3.561 l 20.08,-12.677 c 1.641,-0.996 2.896,-1.859 3.767,-2.59 0.81,-0.664 1.225,-1.345 1.246,-2.042 v -0.075 c 0,-0.98 -0.446,-1.835 -1.337,-2.565 -0.891,-0.697 -2.035,-1.063 -3.433,-1.096 h -0.03 c -1.154,0 -2.137,0.315 -2.947,0.947 -0.81,0.614 -1.215,1.361 -1.215,2.241 0,0.88 0.405,1.627 1.215,2.241 0.81,0.631 1.793,0.947 2.947,0.947 0.972,0 1.802,-0.266 2.491,-0.797 0.688,-0.532 1.033,-1.162 1.033,-1.893 0,-0.747 -0.345,-1.378 -1.033,-1.893 -0.689,-0.531 -1.519,-0.797 -2.491,-0.797 -0.79,0 -1.469,0.216 -2.035,0.648 -0.547,0.431 -0.821,0.946 -0.821,1.544 0,0.598 0.274,1.112 0.821,1.544 0.566,0.432 1.245,0.648 2.035,0.648 0.627,0 1.154,-0.166 1.58,-0.498 0.445,-0.333 0.668,-0.731 0.668,-1.196 0,-0.465 -0.223,-0.863 -0.668,-1.195 -0.426,-0.333 -0.953,-0.498 -1.58,-0.498 -0.446,0 -0.82,0.116 -1.124,0.348 -0.304,0.233 -0.456,0.515 -0.456,0.847 0,0.332 0.152,0.614 0.456,0.847 0.304,0.232 0.678,0.348 1.124,0.348 0.263,0 0.486,-0.066 0.668,-0.199 0.183,-0.149 0.274,-0.315 0.274,-0.498 0,-0.199 -0.091,-0.365 -0.274,-0.498 -0.182,-0.133 -0.405,-0.199 -0.668,-0.199 -0.081,0 -0.152,0.016 -0.213,0.05 -0.041,0.049 -0.06,0.099 -0.06,0.149 0,0.05 0.019,0.1 0.06,0.149 0.061,0.034 0.132,0.05 0.213,0.05 0.101,0 0.187,0.029 0.258,0.087 0.071,0.058 0.106,0.129 0.106,0.212 0,0.083 -0.035,0.15 -0.106,0.199 -0.071,0.05 -0.157,0.075 -0.258,0.075 -0.263,0 -0.497,-0.075 -0.699,-0.224 -0.182,-0.15 -0.273,-0.332 -0.273,-0.548 0,-0.216 0.091,-0.398 0.273,-0.548 0.202,-0.149 0.436,-0.224 0.699,-0.224 0.445,0 0.83,0.116 1.154,0.349 0.324,0.249 0.486,0.556 0.486,0.921 0,0.349 -0.162,0.648 -0.486,0.897 -0.324,0.249 -0.709,0.373 -1.154,0.373 -0.628,0 -1.165,-0.174 -1.61,-0.523 -0.446,-0.332 -0.668,-0.747 -0.668,-1.245 0,-0.498 0.222,-0.921 0.668,-1.27 0.445,-0.332 0.982,-0.498 1.61,-0.498 0.81,0 1.499,0.215 2.066,0.647 0.587,0.449 0.881,0.988 0.881,1.619 0,0.631 -0.294,1.162 -0.881,1.594 -0.567,0.448 -1.256,0.672 -2.066,0.672 -0.972,0 -1.813,-0.265 -2.522,-0.796 -0.688,-0.548 -1.032,-1.204 -1.032,-1.968 0,-0.764 0.344,-1.42 1.032,-1.967 0.709,-0.532 1.55,-0.797 2.522,-0.797 1.154,0 2.146,0.315 2.977,0.946 0.83,0.648 1.246,1.42 1.246,2.316 0,0.897 -0.416,1.669 -1.246,2.316 -0.831,0.631 -1.823,0.947 -2.977,0.947 -1.337,0 -2.471,-0.366 -3.402,-1.096 -0.973,-0.731 -1.459,-1.619 -1.459,-2.665 0,-1.046 0.486,-1.934 1.459,-2.665 0.931,-0.731 2.065,-1.096 3.402,-1.096 h 0.03 c 1.58,0.05 2.876,0.474 3.889,1.271 1.053,0.83 1.58,1.818 1.58,2.963 v 28.691 c 0,0.066 -0.031,0.128 -0.092,0.186 -0.06,0.058 -0.142,0.087 -0.243,0.087 -0.101,0 -0.187,-0.029 -0.258,-0.087 -0.071,-0.058 -0.106,-0.12 -0.106,-0.186 v -26.923 c -0.203,0.25 -0.446,0.499 -0.729,0.748 -0.892,0.747 -2.178,1.627 -3.858,2.64 l -20.081,12.676 c -1.377,0.83 -2.633,1.959 -3.767,3.387 -0.77,0.996 -1.185,2.092 -1.245,3.288 v 0.224 c 0.06,1.029 0.536,1.892 1.427,2.59 0.932,0.713 2.056,1.071 3.372,1.071 1.155,0 2.137,-0.308 2.947,-0.922 0.81,-0.631 1.215,-1.378 1.215,-2.241 0,-0.88 -0.405,-1.628 -1.215,-2.242 -0.81,-0.631 -1.792,-0.946 -2.947,-0.946 -0.972,0 -1.802,0.265 -2.491,0.797 -0.688,0.514 -1.033,1.146 -1.033,1.893 0,0.73 0.345,1.361 1.033,1.892 0.689,0.515 1.519,0.772 2.491,0.772 0.79,0 1.469,-0.215 2.036,-0.647 0.567,-0.415 0.85,-0.922 0.85,-1.519 0,-0.615 -0.283,-1.129 -0.85,-1.544 -0.567,-0.432 -1.246,-0.648 -2.036,-0.648 -0.607,0 -1.134,0.166 -1.579,0.498 -0.426,0.332 -0.638,0.731 -0.638,1.196 0,0.464 0.212,0.863 0.638,1.195 0.445,0.332 0.972,0.498 1.579,0.498 0.446,0 0.821,-0.124 1.124,-0.373 0.304,-0.233 0.456,-0.507 0.456,-0.822 0,-0.333 -0.152,-0.615 -0.456,-0.847 -0.303,-0.233 -0.678,-0.349 -1.124,-0.349 -0.263,0 -0.486,0.067 -0.668,0.2 -0.182,0.132 -0.273,0.298 -0.273,0.498 0,0.182 0.091,0.34 0.273,0.473 0.182,0.149 0.405,0.224 0.668,0.224 0.081,0 0.152,-0.025 0.213,-0.075 0.061,-0.033 0.091,-0.074 0.091,-0.124 0,-0.067 -0.03,-0.117 -0.091,-0.15 -0.061,-0.049 -0.132,-0.074 -0.213,-0.074 -0.101,0 -0.182,-0.025 -0.243,-0.075 m 46.435,-4.197 c -0.071,-0.058 -0.107,-0.128 -0.107,-0.211 0,-0.084 0.036,-0.15 0.107,-0.199 0.07,-0.05 0.156,-0.075 0.258,-0.075 0.608,0 1.134,0.116 1.58,0.348 0.486,0.25 0.729,0.565 0.729,0.947 0,0.382 -0.243,0.705 -0.729,0.971 -0.446,0.232 -0.972,0.349 -1.58,0.349 -1.154,0 -2.137,-0.216 -2.947,-0.648 -0.871,-0.465 -1.306,-1.029 -1.306,-1.693 0,-0.664 0.435,-1.221 1.306,-1.669 0.81,-0.432 1.793,-0.647 2.947,-0.647 1.681,0 3.129,0.315 4.344,0.946 1.256,0.648 1.884,1.444 1.884,2.391 0,0.946 -0.628,1.751 -1.884,2.416 -1.215,0.614 -2.663,0.921 -4.344,0.921 -2.228,0 -4.132,-0.407 -5.711,-1.22 -1.641,-0.864 -2.461,-1.91 -2.461,-3.138 0,-1.229 0.82,-2.267 2.461,-3.113 1.579,-0.831 3.483,-1.246 5.711,-1.246 2.774,0 5.144,0.515 7.109,1.545 2.025,1.046 3.037,2.324 3.037,3.835 0,1.51 -1.012,2.797 -3.037,3.86 -1.965,1.013 -4.335,1.519 -7.109,1.519 -3.301,0 -6.137,-0.606 -8.506,-1.818 -1.114,-0.597 -1.99,-1.287 -2.628,-2.067 -0.638,-0.78 -0.957,-1.619 -0.957,-2.515 0,-0.897 0.319,-1.735 0.957,-2.516 0.638,-0.78 1.514,-1.461 2.628,-2.042 2.369,-1.229 5.205,-1.843 8.506,-1.843 3.848,0 7.139,0.714 9.873,2.142 1.316,0.681 2.344,1.473 3.084,2.378 0.739,0.905 1.108,1.872 1.108,2.902 0,1.046 -0.369,2.021 -1.108,2.926 -0.74,0.905 -1.768,1.698 -3.084,2.379 -2.734,1.411 -6.025,2.116 -9.873,2.116 -2.187,0 -4.248,-0.215 -6.182,-0.647 -1.934,-0.432 -3.631,-1.021 -5.089,-1.768 -1.478,-0.781 -2.638,-1.686 -3.478,-2.715 -0.841,-1.03 -1.261,-2.134 -1.261,-3.312 0,-2.391 1.458,-4.417 4.375,-6.077 1.336,-0.747 2.906,-1.329 4.708,-1.743 1.803,-0.416 3.787,-0.623 5.955,-0.623 2.086,0 3.999,-0.203 5.741,-0.61 1.742,-0.407 3.251,-0.959 4.527,-1.656 2.714,-1.544 4.071,-3.412 4.071,-5.604 0,-1.063 -0.395,-2.067 -1.185,-3.013 -0.79,-0.947 -1.874,-1.777 -3.251,-2.491 -2.997,-1.577 -6.622,-2.366 -10.875,-2.366 -3.727,0 -6.896,0.689 -9.509,2.067 -1.215,0.614 -2.162,1.333 -2.84,2.155 -0.679,0.821 -1.018,1.697 -1.018,2.627 0,0.946 0.339,1.831 1.018,2.652 0.678,0.822 1.625,1.54 2.84,2.155 2.613,1.361 5.782,2.042 9.509,2.042 3.159,0 5.863,-0.582 8.111,-1.743 2.187,-1.13 3.281,-2.491 3.281,-4.085 0,-1.577 -1.094,-2.939 -3.281,-4.084 -2.248,-1.163 -4.952,-1.744 -8.111,-1.744 -2.654,0 -4.902,0.482 -6.744,1.445 -1.803,0.946 -2.704,2.067 -2.704,3.362 0,1.311 0.901,2.432 2.704,3.362 1.842,0.98 4.09,1.47 6.744,1.47 2.085,0 3.868,-0.391 5.346,-1.171 1.418,-0.731 2.127,-1.611 2.127,-2.64 0,-1.013 -0.709,-1.893 -2.127,-2.64 -1.478,-0.764 -3.261,-1.145 -5.346,-1.145 -1.56,0 -2.886,0.282 -3.98,0.846 -1.033,0.548 -1.549,1.187 -1.549,1.918 0,0.747 0.516,1.395 1.549,1.943 1.094,0.564 2.42,0.846 3.98,0.846 1.012,0 1.873,-0.183 2.582,-0.548 0.648,-0.348 0.972,-0.755 0.972,-1.22 0,-0.448 -0.324,-0.847 -0.972,-1.195 -0.709,-0.366 -1.57,-0.548 -2.582,-0.548 -0.486,0 -0.892,0.083 -1.215,0.249 -0.264,0.149 -0.395,0.307 -0.395,0.473 0,0.183 0.131,0.349 0.395,0.498 0.323,0.166 0.729,0.249 1.215,0.249 0.08,0 0.156,0.029 0.227,0.087 0.071,0.058 0.107,0.121 0.107,0.187 0,0.083 -0.036,0.153 -0.107,0.212 -0.071,0.058 -0.147,0.087 -0.227,0.087 -0.608,0 -1.135,-0.116 -1.58,-0.349 -0.486,-0.249 -0.729,-0.572 -0.729,-0.971 0,-0.382 0.243,-0.697 0.729,-0.946 0.445,-0.233 0.972,-0.349 1.58,-0.349 1.134,0 2.116,0.216 2.946,0.648 0.871,0.448 1.307,1.004 1.307,1.668 0,0.681 -0.436,1.245 -1.307,1.694 -0.83,0.431 -1.812,0.647 -2.946,0.647 -1.702,0 -3.15,-0.315 -4.345,-0.946 -1.256,-0.648 -1.883,-1.453 -1.883,-2.416 0,-0.946 0.627,-1.743 1.883,-2.391 1.195,-0.631 2.643,-0.946 4.345,-0.946 2.227,0 4.131,0.415 5.711,1.245 1.64,0.847 2.461,1.884 2.461,3.113 0,1.229 -0.821,2.275 -2.461,3.138 -1.58,0.83 -3.484,1.245 -5.711,1.245 -2.775,0 -5.145,-0.514 -7.109,-1.544 -2.025,-1.046 -3.038,-2.333 -3.038,-3.86 0,-1.511 1.013,-2.789 3.038,-3.835 1.964,-1.03 4.334,-1.544 7.109,-1.544 3.301,0 6.126,0.614 8.475,1.843 1.134,0.581 2.021,1.261 2.659,2.042 0.638,0.78 0.956,1.619 0.956,2.515 0,0.897 -0.318,1.735 -0.956,2.516 -0.638,0.78 -1.525,1.469 -2.659,2.067 -2.349,1.211 -5.174,1.818 -8.475,1.818 -3.869,0 -7.17,-0.706 -9.904,-2.117 -1.296,-0.681 -2.314,-1.474 -3.053,-2.379 -0.74,-0.905 -1.109,-1.88 -1.109,-2.926 0,-1.03 0.369,-1.997 1.109,-2.901 0.739,-0.906 1.757,-1.698 3.053,-2.379 2.734,-1.428 6.035,-2.142 9.904,-2.142 2.187,0 4.242,0.216 6.167,0.648 1.923,0.431 3.615,1.029 5.073,1.793 1.478,0.78 2.643,1.681 3.493,2.702 0.851,1.021 1.276,2.121 1.276,3.3 0,2.391 -1.458,4.416 -4.374,6.077 -1.337,0.73 -2.907,1.307 -4.709,1.731 -1.803,0.423 -3.787,0.635 -5.954,0.635 -2.086,0 -4,0.199 -5.742,0.598 -1.742,0.398 -3.25,0.954 -4.526,1.668 -2.714,1.544 -4.071,3.412 -4.071,5.604 0,1.079 0.39,2.092 1.17,3.038 0.779,0.947 1.868,1.777 3.265,2.491 2.997,1.56 6.623,2.341 10.876,2.341 3.726,0 6.896,-0.681 9.509,-2.042 1.194,-0.632 2.136,-1.358 2.825,-2.18 0.688,-0.822 1.033,-1.697 1.033,-2.627 0,-0.93 -0.345,-1.806 -1.033,-2.628 -0.689,-0.821 -1.631,-1.548 -2.825,-2.179 -2.613,-1.361 -5.783,-2.042 -9.509,-2.042 -3.18,0 -5.884,0.581 -8.111,1.743 -2.188,1.146 -3.281,2.507 -3.281,4.085 0,1.594 1.093,2.955 3.281,4.084 2.227,1.162 4.931,1.744 8.111,1.744 2.632,0 4.88,-0.482 6.744,-1.445 1.802,-0.93 2.704,-2.051 2.704,-3.362 0,-1.295 -0.902,-2.416 -2.704,-3.362 -1.864,-0.963 -4.112,-1.445 -6.744,-1.445 -2.086,0 -3.869,0.382 -5.347,1.146 -1.418,0.747 -2.126,1.627 -2.126,2.64 0,1.029 0.708,1.909 2.126,2.64 1.478,0.763 3.261,1.145 5.347,1.145 1.559,0 2.886,-0.282 3.98,-0.846 1.032,-0.532 1.549,-1.171 1.549,-1.918 0,-0.731 -0.517,-1.37 -1.549,-1.918 -1.094,-0.564 -2.421,-0.847 -3.98,-0.847 -1.013,0 -1.874,0.183 -2.582,0.548 -0.649,0.349 -0.972,0.747 -0.972,1.196 0,0.464 0.323,0.863 0.972,1.195 0.708,0.382 1.569,0.573 2.582,0.573 0.466,0 0.86,-0.091 1.185,-0.274 0.283,-0.133 0.425,-0.291 0.425,-0.473 0,-0.166 -0.142,-0.324 -0.425,-0.473 -0.325,-0.166 -0.719,-0.249 -1.185,-0.249 -0.102,0 -0.188,-0.03 -0.258,-0.088 m 24.531,4.272 c 0,0.049 -0.011,0.099 -0.031,0.149 -0.06,0.183 -0.182,0.34 -0.364,0.473 -0.163,0.083 -0.324,0.125 -0.486,0.125 -0.061,0 -0.132,-0.009 -0.213,-0.025 -0.243,-0.05 -0.446,-0.166 -0.607,-0.349 -0.163,-0.249 -0.244,-0.498 -0.244,-0.747 0,-0.149 0.031,-0.299 0.092,-0.448 0.141,-0.415 0.486,-0.681 1.033,-0.797 v -0.498 c -0.77,0.132 -1.221,0.402 -1.352,0.809 -0.132,0.407 -0.198,0.701 -0.198,0.884 0,0.399 0.142,0.78 0.425,1.146 0.324,0.332 0.679,0.498 1.064,0.498 0.121,0 0.232,-0.017 0.334,-0.05 0.486,-0.099 0.8,-0.407 0.942,-0.921 0.02,-0.067 0.03,-0.133 0.03,-0.2 0,-0.149 -0.03,-0.307 -0.091,-0.473 -0.081,-0.232 -0.233,-0.415 -0.456,-0.548 v 0.573 c 0.081,0.133 0.122,0.266 0.122,0.399 m -1.17,-0.71 c -0.051,0.124 -0.076,0.245 -0.076,0.361 v 0.1 c 0.04,0.149 0.096,0.257 0.167,0.323 0.071,0.066 0.127,0.1 0.167,0.1 0.041,0 0.071,-0.009 0.092,-0.025 0.06,-0.033 0.091,-0.075 0.091,-0.124 v -0.025 c 0,-0.067 -0.021,-0.133 -0.061,-0.2 -0.021,-0.049 -0.03,-0.091 -0.03,-0.124 v -0.697 c -0.183,0.082 -0.3,0.186 -0.35,0.311 m 2.871,-0.81 c 0.344,0.565 0.516,1.096 0.516,1.594 0,0.2 -0.02,0.407 -0.06,0.623 -0.163,0.747 -0.649,1.345 -1.459,1.793 -0.486,0.216 -0.982,0.324 -1.488,0.324 -0.284,0 -0.567,-0.034 -0.851,-0.1 -0.79,-0.216 -1.418,-0.631 -1.883,-1.245 -0.466,-0.681 -0.699,-1.345 -0.699,-1.992 0,-0.465 0.122,-0.922 0.365,-1.37 0.546,-1.096 1.559,-1.702 3.038,-1.818 v -0.847 c -0.689,0.199 -1.378,0.515 -2.066,0.946 -0.972,0.648 -1.504,1.266 -1.595,1.856 -0.091,0.589 -0.137,0.984 -0.137,1.183 0,0.747 0.213,1.452 0.638,2.117 0.547,0.846 1.387,1.403 2.522,1.668 0.283,0.05 0.556,0.075 0.82,0.075 0.708,0 1.336,-0.183 1.883,-0.548 0.729,-0.498 1.185,-1.17 1.367,-2.017 0.041,-0.183 0.061,-0.374 0.061,-0.573 0,-0.614 -0.182,-1.212 -0.547,-1.793 -0.486,-0.764 -1.235,-1.254 -2.248,-1.469 v 0.473 c 0.871,0.182 1.478,0.556 1.823,1.12 m -0.668,0.885 c 0.04,0.389 0.06,0.618 0.06,0.684 0,0.631 -0.324,1.138 -0.972,1.52 -0.324,0.149 -0.648,0.224 -0.972,0.224 -0.182,0 -0.364,-0.025 -0.547,-0.075 -0.506,-0.133 -0.911,-0.398 -1.215,-0.797 -0.304,-0.448 -0.456,-0.896 -0.456,-1.345 0,-0.315 0.071,-0.631 0.213,-0.946 0.344,-0.747 1.023,-1.187 2.036,-1.32 v -0.448 c -1.256,0.116 -2.021,0.502 -2.294,1.158 -0.274,0.655 -0.41,1.149 -0.41,1.482 0,0.614 0.243,1.228 0.729,1.843 0.607,0.597 1.265,0.896 1.975,0.896 0.182,0 0.374,-0.017 0.577,-0.05 0.911,-0.199 1.488,-0.772 1.731,-1.718 0.02,-0.133 0.031,-0.266 0.031,-0.399 0,-0.365 -0.102,-0.739 -0.304,-1.12 -0.264,-0.498 -0.709,-0.839 -1.337,-1.021 v 0.473 c 0.729,0.249 1.114,0.568 1.155,0.959 m -1.747,-24.967 c -0.011,-0.05 -0.036,-0.092 -0.076,-0.125 -0.041,-0.017 -0.081,-0.025 -0.122,-0.025 -0.04,0 -0.091,0.025 -0.152,0.075 -0.101,0.149 -0.151,0.307 -0.151,0.473 v 0.149 c 0.04,0.216 0.171,0.382 0.395,0.499 v -0.698 c 0,-0.083 0.03,-0.149 0.091,-0.199 0.02,-0.05 0.025,-0.1 0.015,-0.149 m -1.079,1.021 c -0.101,-0.283 -0.152,-0.49 -0.152,-0.623 0,-0.283 0.112,-0.548 0.335,-0.797 0.141,-0.166 0.288,-0.261 0.44,-0.286 0.152,-0.025 0.268,-0.038 0.35,-0.038 0.141,0 0.293,0.042 0.455,0.125 0.202,0.132 0.324,0.307 0.365,0.523 v 0.099 c 0,0.15 -0.041,0.291 -0.122,0.424 v 0.548 c 0.365,-0.216 0.547,-0.44 0.547,-0.673 v -0.373 c 0,-0.432 -0.213,-0.764 -0.638,-0.996 -0.203,-0.1 -0.395,-0.15 -0.577,-0.15 -0.122,0 -0.233,0.016 -0.334,0.05 -0.324,0.066 -0.588,0.215 -0.79,0.448 -0.304,0.365 -0.456,0.755 -0.456,1.171 0,0.182 0.031,0.365 0.091,0.548 0.203,0.597 0.689,0.962 1.459,1.095 v -0.473 c -0.547,-0.133 -0.872,-0.34 -0.973,-0.622 m -0.941,0.66 c -0.223,-0.54 -0.335,-0.951 -0.335,-1.233 0,-0.498 0.193,-0.988 0.578,-1.47 0.506,-0.498 1.052,-0.747 1.64,-0.747 0.162,0 0.324,0.017 0.486,0.05 0.77,0.166 1.256,0.639 1.458,1.42 0.02,0.116 0.031,0.224 0.031,0.323 0,0.283 -0.071,0.556 -0.213,0.822 -0.203,0.382 -0.547,0.639 -1.033,0.772 v 0.474 c 0.972,-0.299 1.494,-0.715 1.565,-1.246 0.07,-0.531 0.106,-0.855 0.106,-0.971 0,-0.747 -0.395,-1.362 -1.185,-1.843 -0.364,-0.166 -0.729,-0.249 -1.093,-0.249 -0.243,0 -0.486,0.033 -0.729,0.1 -0.608,0.165 -1.094,0.489 -1.459,0.971 -0.385,0.581 -0.577,1.146 -0.577,1.693 0,0.365 0.081,0.723 0.243,1.071 0.425,0.913 1.235,1.428 2.431,1.544 v -0.448 c -1.054,-0.149 -1.692,-0.494 -1.914,-1.033 m -0.881,0.709 c -0.385,-0.764 -0.578,-1.369 -0.578,-1.818 0,-0.664 0.233,-1.336 0.699,-2.017 0.77,-0.897 1.661,-1.345 2.674,-1.345 0.202,0 0.404,0.017 0.607,0.05 1.276,0.199 2.086,0.93 2.43,2.192 0.02,0.165 0.031,0.323 0.031,0.473 0,0.531 -0.152,1.037 -0.456,1.519 -0.405,0.648 -1.043,1.054 -1.914,1.22 v 0.474 c 1.013,-0.2 1.732,-0.636 2.157,-1.308 0.425,-0.672 0.638,-1.332 0.638,-1.98 0,-0.216 -0.02,-0.432 -0.061,-0.647 -0.162,-0.881 -0.719,-1.578 -1.671,-2.092 -0.526,-0.249 -1.063,-0.374 -1.61,-0.374 -0.344,0 -0.688,0.05 -1.032,0.149 -0.892,0.249 -1.601,0.723 -2.127,1.42 -0.527,0.73 -0.79,1.502 -0.79,2.316 0,0.183 0.01,0.365 0.031,0.548 0.141,0.996 0.708,1.81 1.701,2.441 0.566,0.348 1.255,0.581 2.066,0.697 v -0.573 c -1.479,-0.133 -2.411,-0.581 -2.795,-1.345 m 6.258,14.196 c 0.587,0.199 1.164,0.299 1.731,0.299 0.628,0 1.256,-0.125 1.884,-0.374 1.195,-0.465 2.076,-1.195 2.643,-2.191 0.222,-0.449 0.334,-0.889 0.334,-1.32 0,-0.299 -0.051,-0.59 -0.152,-0.872 -0.243,-0.714 -0.82,-1.254 -1.732,-1.619 -0.486,-0.149 -0.972,-0.224 -1.458,-0.224 -0.486,0 -0.972,0.075 -1.458,0.224 -0.952,0.332 -1.661,0.793 -2.126,1.383 -0.467,0.589 -0.699,1.149 -0.699,1.681 0,0.232 0.04,0.473 0.121,0.722 0.506,1.062 1.418,1.589 2.734,1.581 1.317,-0.008 2.39,-0.56 3.221,-1.656 0.243,-0.382 0.364,-0.756 0.364,-1.121 0,-0.166 -0.02,-0.323 -0.061,-0.473 -0.162,-0.531 -0.577,-0.93 -1.245,-1.195 -0.365,-0.1 -0.709,-0.15 -1.033,-0.15 -0.648,0 -1.256,0.183 -1.823,0.548 -0.709,0.482 -1.063,1.038 -1.063,1.669 0,0.133 0.02,0.274 0.061,0.423 0.304,0.648 0.84,0.972 1.61,0.972 h 0.121 c 0.851,-0.017 1.529,-0.366 2.036,-1.046 0.121,-0.233 0.182,-0.449 0.182,-0.648 0,-0.233 -0.091,-0.44 -0.273,-0.623 -0.224,-0.216 -0.527,-0.323 -0.912,-0.323 -0.182,0 -0.385,0.025 -0.607,0.074 -0.507,0.183 -0.805,0.386 -0.897,0.611 -0.091,0.224 -0.136,0.369 -0.136,0.435 0,0.216 0.131,0.382 0.395,0.498 0.101,0.034 0.212,0.05 0.334,0.05 0.121,0 0.243,-0.025 0.364,-0.074 0.223,-0.084 0.37,-0.175 0.441,-0.274 0.071,-0.1 0.106,-0.167 0.106,-0.2 0,-0.066 -0.03,-0.116 -0.091,-0.149 h -0.091 c -0.041,0 -0.081,0.008 -0.122,0.025 -0.081,0.033 -0.132,0.075 -0.151,0.124 -0.082,0.1 -0.183,0.146 -0.304,0.137 -0.122,-0.008 -0.213,-0.041 -0.274,-0.099 -0.06,-0.059 -0.091,-0.121 -0.091,-0.187 0,-0.034 0.01,-0.075 0.031,-0.125 0.243,-0.298 0.556,-0.448 0.941,-0.448 0.385,0 0.658,0.166 0.821,0.498 0.019,0.083 0.03,0.158 0.03,0.224 0,0.2 -0.081,0.382 -0.243,0.548 -0.243,0.249 -0.497,0.407 -0.76,0.473 -0.263,0.067 -0.466,0.1 -0.607,0.1 -0.223,0 -0.456,-0.05 -0.699,-0.149 -0.364,-0.167 -0.572,-0.353 -0.623,-0.561 -0.05,-0.207 -0.076,-0.353 -0.076,-0.436 0,-0.215 0.061,-0.423 0.183,-0.622 0.546,-0.697 1.255,-1.046 2.126,-1.046 0.871,0 1.478,0.365 1.823,1.096 0.04,0.149 0.061,0.299 0.061,0.448 0,0.681 -0.385,1.253 -1.155,1.718 -0.567,0.349 -1.154,0.523 -1.762,0.523 -0.405,0 -0.82,-0.074 -1.245,-0.224 -0.649,-0.315 -1.018,-0.652 -1.109,-1.008 -0.091,-0.358 -0.137,-0.611 -0.137,-0.76 0,-0.382 0.122,-0.756 0.365,-1.121 0.83,-1.112 1.914,-1.668 3.25,-1.668 h 0.061 c 1.377,0.016 2.319,0.589 2.825,1.718 0.081,0.265 0.122,0.523 0.122,0.772 0,0.548 -0.203,1.071 -0.608,1.569 -0.587,0.714 -1.24,1.179 -1.959,1.395 -0.719,0.215 -1.302,0.324 -1.747,0.324 -0.588,0 -1.175,-0.117 -1.762,-0.349 -0.911,-0.448 -1.428,-0.926 -1.549,-1.432 -0.122,-0.507 -0.183,-0.876 -0.183,-1.108 0,-0.548 0.172,-1.088 0.517,-1.619 0.648,-0.947 1.417,-1.561 2.309,-1.843 0.891,-0.283 1.599,-0.424 2.126,-0.424 0.689,0 1.367,0.141 2.036,0.424 1.053,0.498 1.65,1.037 1.792,1.619 0.141,0.581 0.213,1.004 0.213,1.27 0,0.631 -0.193,1.253 -0.578,1.868 -0.729,1.046 -1.579,1.739 -2.551,2.079 -0.973,0.34 -1.783,0.511 -2.431,0.511 -0.668,0 -1.336,-0.117 -2.005,-0.349 -0.992,-0.332 -1.822,-0.955 -2.491,-1.868 v 5.056 c 0.567,-0.083 1.124,-0.125 1.671,-0.125 1.053,0 2.096,0.166 3.129,0.498 1.58,0.532 3.099,1.275 4.557,2.229 1.458,0.955 2.835,1.947 4.132,2.977 0.769,0.597 1.488,1.145 2.156,1.643 1.256,0.863 2.42,1.337 3.494,1.42 0.202,0.016 0.405,0.025 0.608,0.025 1.073,0 1.964,-0.233 2.673,-0.698 1.033,-0.681 1.584,-1.319 1.656,-1.917 0.07,-0.598 0.106,-0.955 0.106,-1.071 0,-0.93 -0.345,-1.793 -1.033,-2.59 -0.871,-0.864 -1.823,-1.295 -2.856,-1.295 -0.263,0 -0.536,0.025 -0.82,0.074 -1.357,0.266 -2.218,1.096 -2.582,2.491 -0.041,0.182 -0.061,0.365 -0.061,0.548 0,0.614 0.182,1.203 0.547,1.768 0.445,0.747 1.164,1.237 2.157,1.469 0.243,0.034 0.476,0.05 0.699,0.05 1.032,0 1.812,-0.39 2.339,-1.17 0.304,-0.449 0.455,-0.914 0.455,-1.395 0,-0.548 -0.192,-1.129 -0.577,-1.743 -0.607,-0.714 -1.306,-1.071 -2.096,-1.071 -0.162,0 -0.324,0.016 -0.486,0.05 -0.972,0.149 -1.59,0.722 -1.853,1.718 -0.02,0.133 -0.03,0.265 -0.03,0.399 0,0.381 0.101,0.763 0.303,1.145 0.284,0.515 0.76,0.855 1.428,1.021 0.142,0.017 0.274,0.025 0.395,0.025 0.668,0 1.174,-0.257 1.519,-0.772 0.182,-0.266 0.273,-0.548 0.273,-0.847 0,-0.348 -0.132,-0.722 -0.394,-1.12 -0.021,-0.034 -0.041,-0.059 -0.061,-0.075 -0.345,-0.332 -0.709,-0.498 -1.094,-0.498 -0.101,0 -0.203,0.008 -0.304,0.025 -0.486,0.116 -0.8,0.423 -0.941,0.921 v 0.224 c 0,0.365 0.121,0.656 0.364,0.872 0.182,0.166 0.375,0.249 0.577,0.249 0.122,0 0.253,-0.033 0.395,-0.1 0.183,-0.133 0.278,-0.257 0.289,-0.373 0.01,-0.116 0.015,-0.191 0.015,-0.224 0,-0.166 -0.051,-0.324 -0.152,-0.473 -0.061,-0.067 -0.121,-0.1 -0.182,-0.1 -0.041,0 -0.071,0.008 -0.091,0.025 -0.061,0.05 -0.091,0.108 -0.091,0.174 0,0.066 0.02,0.125 0.06,0.174 0.041,0.05 0.061,0.1 0.061,0.15 0,0.05 -0.02,0.091 -0.061,0.124 -0.081,0.083 -0.157,0.129 -0.227,0.137 -0.072,0.009 -0.117,0.013 -0.137,0.013 -0.102,0 -0.182,-0.042 -0.243,-0.125 -0.102,-0.149 -0.152,-0.307 -0.152,-0.473 v -0.124 c 0.04,-0.2 0.162,-0.366 0.364,-0.498 0.183,-0.084 0.355,-0.125 0.517,-0.125 h 0.152 c 0.243,0.033 0.435,0.133 0.577,0.299 0.223,0.282 0.334,0.556 0.334,0.822 0,0.215 -0.071,0.431 -0.213,0.647 -0.243,0.399 -0.637,0.598 -1.184,0.598 -0.122,0 -0.243,-0.009 -0.365,-0.025 -0.77,-0.216 -1.18,-0.523 -1.23,-0.921 -0.051,-0.399 -0.076,-0.64 -0.076,-0.723 0,-0.631 0.324,-1.137 0.972,-1.519 0.304,-0.149 0.618,-0.224 0.942,-0.224 0.162,0 0.323,0.016 0.486,0.05 0.486,0.099 0.881,0.324 1.185,0.672 0.405,0.465 0.607,0.972 0.607,1.519 0,0.116 -0.01,0.233 -0.03,0.349 -0.122,0.681 -0.537,1.212 -1.246,1.594 -0.405,0.199 -0.81,0.299 -1.215,0.299 -0.243,0 -0.476,-0.034 -0.699,-0.1 -0.648,-0.183 -1.174,-0.523 -1.579,-1.021 -0.385,-0.548 -0.578,-1.112 -0.578,-1.693 0,-0.167 0.02,-0.341 0.061,-0.523 0.162,-0.781 0.658,-1.395 1.489,-1.843 0.486,-0.233 0.972,-0.349 1.458,-0.349 0.304,0 0.597,0.041 0.881,0.125 0.79,0.199 1.417,0.605 1.883,1.22 0.446,0.631 0.669,1.286 0.669,1.967 0,0.216 -0.021,0.432 -0.061,0.648 -0.162,0.93 -0.74,1.66 -1.732,2.191 -0.587,0.266 -1.164,0.399 -1.731,0.399 -0.345,0 -0.679,-0.042 -1.003,-0.125 -0.931,-0.249 -1.681,-0.739 -2.248,-1.469 -0.506,-0.731 -0.759,-1.494 -0.759,-2.291 0,-0.233 0.02,-0.473 0.061,-0.722 0.202,-1.063 0.86,-1.902 1.974,-2.516 0.669,-0.315 1.337,-0.473 2.005,-0.473 0.405,0 0.8,0.058 1.185,0.174 1.073,0.282 1.924,0.839 2.552,1.669 0.607,0.83 0.911,1.702 0.911,2.615 0,0.216 -0.02,0.44 -0.061,0.672 -0.162,1.146 -0.82,2.084 -1.974,2.815 -0.81,0.531 -1.853,0.797 -3.129,0.797 -0.203,0 -0.416,-0.009 -0.638,-0.025 -1.195,-0.1 -2.481,-0.623 -3.858,-1.569 -0.689,-0.515 -1.418,-1.071 -2.188,-1.669 -1.256,-0.996 -2.592,-1.959 -4.01,-2.889 -1.417,-0.93 -2.754,-1.602 -4.01,-2.017 -1.256,-0.415 -2.38,-0.623 -3.372,-0.623 -0.547,0 -1.083,0.05 -1.61,0.15 v 1.021 c 1.215,0.199 2.096,0.688 2.643,1.469 0.547,0.78 0.82,1.569 0.82,2.366 0,0.183 -0.01,0.374 -0.03,0.573 -0.142,1.012 -0.719,1.851 -1.732,2.515 -0.729,0.415 -1.478,0.623 -2.248,0.623 -1.579,-0.05 -2.835,-0.664 -3.767,-1.843 -0.607,-0.83 -0.911,-1.694 -0.911,-2.59 0,-0.216 0.02,-0.44 0.061,-0.673 0.202,-1.129 0.86,-2.067 1.974,-2.814 0.831,-0.515 1.661,-0.88 2.492,-1.096 v -15.565 c -2.492,-0.349 -3.97,-1.536 -4.436,-3.562 -0.041,-0.249 -0.061,-0.489 -0.061,-0.722 0,-0.963 0.324,-1.859 0.973,-2.689 0.809,-1.063 1.994,-1.644 3.554,-1.744 1.073,0 1.985,0.287 2.734,0.859 0.749,0.573 1.215,1.308 1.397,2.204 0.041,0.216 0.061,0.424 0.061,0.623 0,0.764 -0.243,1.503 -0.729,2.217 -0.608,0.879 -1.539,1.427 -2.795,1.643 v 0.623 c 1.317,0 2.653,-0.49 4.01,-1.469 0.669,-0.482 1.387,-1.03 2.157,-1.644 1.661,-1.329 3.458,-2.487 5.392,-3.474 1.934,-0.988 3.944,-1.507 6.031,-1.557 h 0.152 c 1.701,0 3.402,0.515 5.103,1.544 1.134,0.764 1.752,1.486 1.853,2.167 0.101,0.68 0.152,1.137 0.152,1.37 0,0.846 -0.253,1.643 -0.759,2.391 -0.649,0.962 -1.621,1.593 -2.917,1.892 -0.344,0.066 -0.678,0.1 -1.002,0.1 -0.851,0 -1.61,-0.216 -2.279,-0.648 -0.911,-0.581 -1.468,-1.386 -1.67,-2.415 -0.041,-0.216 -0.061,-0.432 -0.061,-0.648 0,-0.714 0.212,-1.403 0.638,-2.067 0.567,-0.864 1.428,-1.436 2.582,-1.718 0.283,-0.05 0.567,-0.075 0.851,-0.075 0.729,0 1.387,0.182 1.974,0.548 0.81,0.514 1.307,1.212 1.489,2.092 0.02,0.166 0.03,0.332 0.03,0.498 0,0.631 -0.182,1.245 -0.547,1.843 -0.466,0.747 -1.195,1.245 -2.187,1.494 -0.243,0.033 -0.476,0.05 -0.699,0.05 -0.628,0 -1.195,-0.158 -1.701,-0.473 -0.689,-0.432 -1.104,-1.021 -1.245,-1.769 -0.021,-0.166 -0.031,-0.323 -0.031,-0.473 0,-0.515 0.142,-1.004 0.426,-1.469 0.384,-0.631 0.992,-1.046 1.822,-1.245 0.202,-0.034 0.395,-0.05 0.577,-0.05 0.912,0 1.6,0.332 2.066,0.996 0.284,0.382 0.426,0.78 0.426,1.195 0,0.449 -0.163,0.913 -0.487,1.395 -0.506,0.581 -1.083,0.872 -1.731,0.872 -0.142,0 -0.274,-0.009 -0.395,-0.025 -0.831,-0.133 -1.357,-0.606 -1.58,-1.42 -0.02,-0.083 -0.03,-0.166 -0.03,-0.249 0,-0.315 0.091,-0.631 0.273,-0.946 0.202,-0.382 0.557,-0.639 1.064,-0.772 0.101,-0.017 0.202,-0.025 0.303,-0.025 0.527,0 0.922,0.191 1.185,0.573 0.162,0.215 0.243,0.439 0.243,0.672 0,0.249 -0.091,0.506 -0.273,0.772 -0.142,0.183 -0.294,0.291 -0.456,0.324 -0.162,0.033 -0.284,0.05 -0.364,0.05 -0.163,0 -0.315,-0.042 -0.456,-0.125 -0.223,-0.149 -0.34,-0.286 -0.35,-0.411 -0.01,-0.124 -0.015,-0.203 -0.015,-0.236 0,-0.183 0.051,-0.333 0.152,-0.449 0.081,-0.099 0.172,-0.149 0.274,-0.149 0.06,0 0.121,0.016 0.182,0.05 0.101,0.05 0.156,0.095 0.167,0.137 0.01,0.041 0.015,0.07 0.015,0.087 0,0.066 -0.02,0.125 -0.061,0.174 -0.02,0.033 -0.03,0.066 -0.03,0.1 v 0.075 c 0,0.066 0.03,0.116 0.091,0.149 0.041,0.016 0.071,0.025 0.091,0.025 0.061,0 0.111,-0.017 0.152,-0.05 0.081,-0.083 0.132,-0.174 0.152,-0.274 0.02,-0.099 0.03,-0.174 0.03,-0.224 0,-0.1 -0.02,-0.191 -0.06,-0.274 -0.041,-0.133 -0.142,-0.249 -0.304,-0.349 -0.122,-0.049 -0.243,-0.074 -0.365,-0.074 -0.202,0 -0.395,0.091 -0.577,0.274 -0.243,0.215 -0.364,0.489 -0.364,0.822 0,0.066 0.01,0.14 0.03,0.224 0.141,0.548 0.365,0.846 0.668,0.896 0.304,0.05 0.496,0.075 0.578,0.075 0.445,0 0.83,-0.199 1.154,-0.598 0.243,-0.365 0.364,-0.722 0.364,-1.071 0,-0.315 -0.091,-0.614 -0.273,-0.896 -0.324,-0.498 -0.82,-0.747 -1.489,-0.747 -0.141,0 -0.283,0.008 -0.425,0.025 -0.648,0.149 -1.099,0.448 -1.352,0.896 -0.253,0.448 -0.379,0.88 -0.379,1.295 0,0.166 0.02,0.332 0.06,0.498 0.142,0.581 0.517,1.038 1.124,1.37 0.385,0.183 0.77,0.274 1.155,0.274 0.222,0 0.445,-0.033 0.668,-0.1 0.608,-0.183 1.094,-0.514 1.458,-0.996 0.405,-0.598 0.608,-1.179 0.608,-1.743 0,-0.482 -0.152,-0.938 -0.456,-1.37 -0.547,-0.797 -1.347,-1.195 -2.4,-1.195 -0.202,0 -0.415,0.016 -0.638,0.049 -0.992,0.25 -1.691,0.702 -2.096,1.358 -0.405,0.655 -0.607,1.282 -0.607,1.88 0,0.232 0.03,0.473 0.091,0.722 0.182,0.863 0.729,1.544 1.64,2.043 0.567,0.265 1.124,0.398 1.671,0.398 0.324,0 0.648,-0.05 0.972,-0.149 0.891,-0.266 1.61,-0.748 2.157,-1.445 0.506,-0.714 0.759,-1.478 0.759,-2.291 0,-0.183 -0.01,-0.366 -0.03,-0.548 -0.162,-0.996 -0.729,-1.827 -1.701,-2.491 -1.621,-0.946 -3.231,-1.419 -4.83,-1.419 -0.243,0 -0.486,0.008 -0.729,0.025 -1.844,0.166 -3.631,0.713 -5.362,1.644 -1.732,0.929 -3.347,2 -4.846,3.212 -0.77,0.598 -1.499,1.154 -2.187,1.669 -1.499,1.062 -2.988,1.594 -4.466,1.594 v 0.398 3.076 c 0,1.386 0.031,2.681 0.091,3.885 0.061,1.204 0.162,1.988 0.304,2.354 0.587,0.996 1.377,1.652 2.37,1.967 m 35.573,9.439 c 0,0.116 -0.01,0.224 -0.03,0.324 -0.142,0.962 -0.588,1.735 -1.337,2.316 -0.769,0.598 -1.691,0.896 -2.764,0.896 -0.122,0 -0.233,-0.008 -0.334,-0.024 -1.215,-0.133 -2.218,-0.607 -3.008,-1.42 -0.77,-0.781 -1.154,-1.718 -1.154,-2.814 0,-0.117 0.01,-0.216 0.03,-0.299 0.122,-0.831 0.506,-1.503 1.155,-2.017 0.668,-0.515 1.468,-0.772 2.4,-0.772 0.101,0 0.202,0.008 0.303,0.024 1.053,0.116 1.924,0.523 2.613,1.221 0.668,0.68 1.002,1.494 1.002,2.44 -0.02,0.1 -0.03,0.191 -0.03,0.274 -0.101,0.698 -0.436,1.262 -1.002,1.694 -0.547,0.432 -1.226,0.648 -2.036,0.648 h -0.243 c -0.891,-0.1 -1.63,-0.449 -2.217,-1.047 -0.568,-0.581 -0.851,-1.27 -0.851,-2.067 0.02,-0.083 0.03,-0.158 0.03,-0.224 0.081,-0.564 0.354,-1.029 0.821,-1.394 0.425,-0.349 0.951,-0.523 1.579,-0.523 h 0.304 c 0.729,0.082 1.337,0.365 1.823,0.846 0.445,0.482 0.668,1.046 0.668,1.694 v 0.174 c -0.081,0.448 -0.294,0.814 -0.638,1.096 -0.364,0.282 -0.81,0.423 -1.337,0.423 -0.04,0 -0.091,-0.008 -0.151,-0.025 -0.568,-0.066 -1.044,-0.282 -1.428,-0.647 -0.345,-0.382 -0.517,-0.822 -0.517,-1.32 v -0.124 c 0.041,-0.316 0.193,-0.582 0.456,-0.797 0.263,-0.2 0.587,-0.299 0.972,-0.299 h 0.122 c 0.404,0.049 0.739,0.207 1.002,0.473 0.263,0.265 0.395,0.581 0.395,0.946 v 0.075 c -0.041,0.199 -0.132,0.357 -0.273,0.473 -0.183,0.133 -0.385,0.199 -0.608,0.199 h -0.091 c -0.264,-0.033 -0.476,-0.133 -0.638,-0.298 -0.142,-0.15 -0.213,-0.333 -0.213,-0.548 0,-0.084 0.035,-0.15 0.107,-0.2 0.07,-0.049 0.156,-0.074 0.258,-0.074 0.101,0 0.182,0.025 0.243,0.074 0.061,0.05 0.091,0.116 0.091,0.2 0,0.083 0.02,0.149 0.061,0.199 0.061,0.05 0.121,0.075 0.182,0.075 0.04,0 0.081,-0.009 0.122,-0.025 0.04,-0.034 0.06,-0.075 0.06,-0.125 v -0.025 c 0,-0.232 -0.081,-0.423 -0.243,-0.573 -0.142,-0.149 -0.324,-0.24 -0.547,-0.274 h -0.06 c -0.183,0 -0.334,0.05 -0.456,0.15 -0.142,0.116 -0.223,0.257 -0.243,0.423 v 0.075 c 0,0.365 0.122,0.681 0.365,0.946 0.263,0.266 0.587,0.424 0.972,0.474 h 0.091 c 0.324,0 0.597,-0.092 0.82,-0.274 0.243,-0.183 0.385,-0.432 0.425,-0.748 v -0.099 c 0,-0.515 -0.172,-0.963 -0.516,-1.345 -0.365,-0.365 -0.82,-0.573 -1.367,-0.623 -0.041,0 -0.081,-0.008 -0.122,-0.024 -0.466,0 -0.861,0.132 -1.184,0.398 -0.345,0.265 -0.547,0.614 -0.608,1.046 -0.02,0.05 -0.03,0.1 -0.03,0.149 0,0.664 0.232,1.237 0.698,1.719 0.466,0.464 1.053,0.738 1.762,0.822 h 0.183 c 0.607,0 1.113,-0.166 1.519,-0.498 0.445,-0.333 0.708,-0.781 0.789,-1.345 0,-0.067 0.01,-0.133 0.031,-0.2 0,-0.813 -0.284,-1.511 -0.851,-2.091 -0.567,-0.582 -1.286,-0.914 -2.157,-0.997 -0.081,-0.016 -0.152,-0.025 -0.212,-0.025 -0.75,0 -1.388,0.208 -1.914,0.623 -0.527,0.415 -0.841,0.963 -0.942,1.644 -0.02,0.083 -0.03,0.166 -0.03,0.249 0,0.946 0.334,1.768 1.002,2.465 0.668,0.681 1.509,1.079 2.522,1.196 0.101,0.016 0.192,0.025 0.273,0.025 0.891,0 1.65,-0.241 2.278,-0.723 0.628,-0.498 1.003,-1.154 1.124,-1.967 0.02,-0.1 0.031,-0.191 0.031,-0.274 v -26.15 c 0,-0.116 0.01,-0.224 0.03,-0.324 0.142,-0.946 0.587,-1.71 1.337,-2.291 0.749,-0.598 1.671,-0.897 2.764,-0.897 0.101,0 0.213,0.009 0.334,0.025 1.216,0.133 2.208,0.598 2.978,1.395 0.769,0.78 1.154,1.702 1.154,2.764 v 0.374 c -0.142,0.83 -0.537,1.502 -1.185,2.017 -0.648,0.515 -1.448,0.772 -2.4,0.772 -0.101,-0.016 -0.192,-0.025 -0.273,-0.025 -1.074,-0.116 -1.944,-0.523 -2.613,-1.22 -0.668,-0.697 -1.002,-1.519 -1.002,-2.465 0,-0.084 0.01,-0.167 0.03,-0.25 0.101,-0.697 0.425,-1.262 0.972,-1.693 0.567,-0.448 1.256,-0.673 2.066,-0.673 0.081,0.017 0.152,0.025 0.213,0.025 0.911,0.1 1.65,0.449 2.217,1.046 0.567,0.581 0.851,1.271 0.851,2.067 v 0.2 c -0.102,0.581 -0.375,1.046 -0.82,1.394 -0.466,0.365 -1.033,0.548 -1.701,0.548 h -0.183 c -0.749,-0.083 -1.357,-0.365 -1.822,-0.846 -0.467,-0.482 -0.699,-1.055 -0.699,-1.719 0,-0.05 0.01,-0.099 0.03,-0.149 0.061,-0.449 0.274,-0.814 0.638,-1.096 0.344,-0.283 0.78,-0.423 1.306,-0.423 h 0.152 c 0.588,0.066 1.064,0.29 1.428,0.672 0.365,0.365 0.547,0.805 0.547,1.32 v 0.124 c -0.061,0.316 -0.213,0.573 -0.456,0.772 -0.284,0.216 -0.607,0.324 -0.972,0.324 -0.041,0 -0.081,-0.008 -0.121,-0.025 -0.426,-0.033 -0.77,-0.191 -1.033,-0.473 -0.264,-0.266 -0.395,-0.581 -0.395,-0.946 0.02,-0.017 0.03,-0.034 0.03,-0.05 0.02,-0.199 0.111,-0.365 0.274,-0.498 0.162,-0.133 0.364,-0.199 0.607,-0.199 0.02,0 0.041,0.008 0.061,0.025 0.263,0.016 0.476,0.107 0.638,0.273 0.162,0.166 0.243,0.357 0.243,0.573 -0.02,0.083 -0.061,0.15 -0.122,0.199 -0.06,0.05 -0.141,0.075 -0.243,0.075 -0.101,0 -0.182,-0.029 -0.243,-0.087 -0.06,-0.058 -0.091,-0.129 -0.091,-0.212 0,-0.066 -0.03,-0.124 -0.091,-0.174 -0.041,-0.05 -0.091,-0.083 -0.152,-0.1 h -0.03 c -0.041,0 -0.071,0.017 -0.091,0.05 -0.041,0.033 -0.061,0.075 -0.061,0.125 l -0.03,0.025 c 0,0.215 0.08,0.406 0.243,0.572 0.141,0.15 0.323,0.241 0.546,0.274 h 0.061 c 0.182,0 0.344,-0.049 0.486,-0.149 0.122,-0.116 0.202,-0.266 0.243,-0.448 v -0.075 c 0,-0.365 -0.132,-0.681 -0.395,-0.946 -0.243,-0.249 -0.557,-0.399 -0.941,-0.449 h -0.092 c -0.324,0 -0.597,0.091 -0.82,0.274 -0.243,0.183 -0.385,0.424 -0.425,0.723 -0.02,0.049 -0.03,0.091 -0.03,0.124 0,0.514 0.182,0.955 0.546,1.32 0.365,0.365 0.81,0.581 1.337,0.648 h 0.152 c 0.466,0 0.861,-0.125 1.185,-0.374 0.323,-0.266 0.526,-0.615 0.607,-1.046 v -0.174 c 0,-0.648 -0.233,-1.213 -0.698,-1.694 -0.446,-0.465 -1.023,-0.739 -1.732,-0.822 -0.061,-0.017 -0.122,-0.025 -0.182,-0.025 -0.608,0 -1.124,0.166 -1.55,0.498 -0.425,0.349 -0.678,0.797 -0.759,1.345 -0.02,0.083 -0.03,0.158 -0.03,0.224 0,0.797 0.283,1.495 0.85,2.092 0.567,0.565 1.276,0.897 2.127,0.997 0.08,0.016 0.162,0.025 0.243,0.025 0.749,0 1.377,-0.208 1.883,-0.623 0.547,-0.415 0.871,-0.963 0.972,-1.644 v -0.349 c 0,-0.913 -0.334,-1.702 -1.002,-2.365 -0.649,-0.698 -1.489,-1.096 -2.522,-1.196 -0.101,-0.017 -0.192,-0.025 -0.273,-0.025 -0.892,0 -1.641,0.241 -2.248,0.722 -0.628,0.499 -1.003,1.154 -1.124,1.968 -0.021,0.083 -0.031,0.174 -0.031,0.274 z m 29.438,-1.992 c 0.141,-0.067 0.283,-0.1 0.425,-0.1 0.061,0 0.132,0.008 0.213,0.025 0.202,0.033 0.374,0.124 0.516,0.274 l 0.03,0.025 c 0.02,0.016 0.031,0.033 0.031,0.05 0.182,0.249 0.273,0.498 0.273,0.747 0,0.083 -0.01,0.157 -0.03,0.224 -0.061,0.349 -0.263,0.631 -0.608,0.847 -0.02,0.016 -0.05,0.033 -0.091,0.049 -0.223,0.1 -0.455,0.15 -0.699,0.15 -0.101,0 -0.202,-0.009 -0.303,-0.025 -0.365,-0.067 -0.659,-0.233 -0.881,-0.498 -0.304,-0.415 -0.456,-0.806 -0.456,-1.171 0,-0.099 0.01,-0.199 0.03,-0.299 0.081,-0.465 0.354,-0.846 0.821,-1.145 0.04,-0.034 0.08,-0.058 0.121,-0.075 0.324,-0.149 0.648,-0.224 0.972,-0.224 0.142,0 0.294,0.016 0.456,0.05 0.466,0.099 0.861,0.324 1.185,0.672 l 0.03,0.025 c 0.04,0.033 0.071,0.075 0.091,0.125 0.324,0.448 0.486,0.913 0.486,1.394 0,0.116 -0.01,0.233 -0.03,0.349 -0.122,0.614 -0.476,1.112 -1.063,1.494 -0.061,0.033 -0.112,0.066 -0.152,0.1 -0.406,0.182 -0.82,0.274 -1.246,0.274 -0.182,0 -0.364,-0.017 -0.547,-0.05 -0.607,-0.133 -1.124,-0.432 -1.549,-0.897 -0.061,-0.049 -0.111,-0.108 -0.152,-0.174 -0.385,-0.548 -0.577,-1.112 -0.577,-1.693 0,-0.15 0.01,-0.299 0.03,-0.449 0.142,-0.747 0.567,-1.345 1.276,-1.793 0.081,-0.05 0.152,-0.091 0.213,-0.124 0.466,-0.233 0.962,-0.349 1.489,-0.349 0.222,0 0.455,0.025 0.698,0.075 0.729,0.149 1.357,0.506 1.884,1.071 0.061,0.066 0.121,0.141 0.182,0.224 0.445,0.631 0.668,1.286 0.668,1.967 0,0.183 -0.02,0.374 -0.06,0.573 -0.163,0.88 -0.659,1.585 -1.489,2.117 -0.081,0.05 -0.162,0.091 -0.243,0.124 -0.547,0.266 -1.124,0.399 -1.732,0.399 -0.263,0 -0.536,-0.025 -0.82,-0.075 -0.871,-0.166 -1.62,-0.581 -2.248,-1.245 -0.061,-0.083 -0.121,-0.174 -0.182,-0.274 -0.527,-0.731 -0.79,-1.478 -0.79,-2.241 0,-0.216 0.02,-0.44 0.061,-0.673 0.182,-1.013 0.759,-1.826 1.731,-2.44 0.081,-0.067 0.172,-0.117 0.274,-0.15 0.648,-0.315 1.316,-0.473 2.005,-0.473 0.304,0 0.607,0.033 0.911,0.1 1.013,0.199 1.873,0.68 2.582,1.444 l 0.243,0.299 c 0.608,0.847 0.912,1.718 0.912,2.615 0,0.232 -0.021,0.464 -0.061,0.697 -0.223,1.162 -0.881,2.084 -1.975,2.765 -0.83,0.548 -1.894,0.821 -3.189,0.821 -0.183,0 -0.385,-0.008 -0.608,-0.024 -1.195,-0.1 -2.481,-0.623 -3.858,-1.569 -0.608,-0.465 -1.246,-0.947 -1.914,-1.445 -1.519,-1.212 -3.155,-2.37 -4.906,-3.474 -1.752,-1.104 -3.205,-1.756 -4.36,-1.955 -1.154,-0.199 -1.954,-0.299 -2.4,-0.299 -1.458,0 -2.916,0.432 -4.374,1.295 -0.932,0.614 -1.489,1.428 -1.671,2.441 -0.041,0.215 -0.061,0.431 -0.061,0.647 0,0.764 0.263,1.511 0.79,2.242 0.385,0.514 0.851,0.904 1.398,1.17 0.566,0.266 1.164,0.399 1.792,0.399 0.304,0 0.617,-0.042 0.942,-0.125 0.303,-0.083 0.587,-0.208 0.85,-0.373 0.83,-0.515 1.317,-1.204 1.458,-2.068 0.041,-0.199 0.061,-0.39 0.061,-0.572 0,-0.681 -0.223,-1.337 -0.668,-1.968 -0.061,-0.083 -0.122,-0.158 -0.182,-0.224 -0.507,-0.548 -1.114,-0.897 -1.823,-1.046 -0.203,-0.033 -0.405,-0.05 -0.608,-0.05 -0.486,0 -0.962,0.108 -1.428,0.324 -0.06,0.016 -0.121,0.05 -0.182,0.1 -0.689,0.431 -1.104,1.012 -1.245,1.743 -0.041,0.166 -0.061,0.324 -0.061,0.473 0,0.581 0.202,1.137 0.608,1.669 0.04,0.066 0.08,0.124 0.121,0.174 0.425,0.448 0.931,0.731 1.519,0.847 0.182,0.033 0.365,0.05 0.547,0.05 0.364,0 0.729,-0.084 1.093,-0.249 0.041,-0.017 0.092,-0.042 0.152,-0.075 0.547,-0.349 0.881,-0.822 1.003,-1.42 0.02,-0.116 0.03,-0.241 0.03,-0.373 0,-0.482 -0.192,-0.996 -0.577,-1.544 -0.324,-0.349 -0.709,-0.565 -1.154,-0.648 -0.142,-0.033 -0.284,-0.05 -0.426,-0.05 -0.284,0 -0.567,0.066 -0.85,0.2 -0.041,0.033 -0.081,0.058 -0.122,0.074 -0.425,0.266 -0.679,0.631 -0.759,1.096 -0.021,0.1 -0.031,0.199 -0.031,0.299 0,0.365 0.152,0.755 0.456,1.17 0.223,0.25 0.496,0.407 0.82,0.474 0.101,0.016 0.202,0.025 0.304,0.025 0.182,0 0.365,-0.042 0.547,-0.125 0.04,-0.017 0.071,-0.033 0.091,-0.05 0.304,-0.199 0.486,-0.465 0.547,-0.797 0.02,-0.066 0.03,-0.141 0.03,-0.224 0,-0.249 -0.101,-0.515 -0.304,-0.797 -0.142,-0.149 -0.303,-0.241 -0.486,-0.274 -0.06,-0.016 -0.121,-0.025 -0.182,-0.025 -0.121,0 -0.243,0.025 -0.364,0.075 -0.183,0.133 -0.294,0.299 -0.335,0.498 v 0.075 c 0,0.182 0.051,0.349 0.152,0.498 0.061,0.083 0.132,0.124 0.213,0.124 0.101,0 0.162,-0.058 0.182,-0.174 0,-0.066 -0.02,-0.133 -0.061,-0.199 -0.04,-0.034 -0.06,-0.075 -0.06,-0.125 0,-0.033 0.01,-0.066 0.03,-0.099 0.02,-0.067 0.071,-0.125 0.152,-0.175 0.061,-0.016 0.111,-0.024 0.152,-0.024 h 0.091 c 0.101,0.016 0.182,0.058 0.243,0.124 0.101,0.133 0.152,0.274 0.152,0.423 l -0.031,0.15 c -0.04,0.215 -0.162,0.39 -0.364,0.523 -0.182,0.099 -0.365,0.149 -0.547,0.149 -0.041,0 -0.091,-0.008 -0.152,-0.025 -0.223,-0.049 -0.405,-0.149 -0.547,-0.298 -0.202,-0.299 -0.303,-0.573 -0.303,-0.822 0,-0.084 0.01,-0.158 0.03,-0.224 0.061,-0.349 0.253,-0.623 0.577,-0.822 0.304,-0.15 0.577,-0.224 0.82,-0.224 0.102,0 0.203,0.008 0.304,0.024 0.344,0.083 0.638,0.249 0.881,0.499 0.304,0.414 0.456,0.805 0.456,1.17 0,0.1 -0.011,0.199 -0.03,0.299 -0.082,0.481 -0.355,0.863 -0.821,1.146 -0.041,0.033 -0.091,0.058 -0.152,0.074 -0.303,0.15 -0.618,0.224 -0.941,0.224 -0.142,0 -0.294,-0.016 -0.456,-0.049 -0.466,-0.1 -0.871,-0.324 -1.215,-0.673 -0.385,-0.548 -0.577,-1.054 -0.577,-1.519 0,-0.116 0.01,-0.241 0.03,-0.374 0.122,-0.614 0.476,-1.112 1.063,-1.494 0.041,-0.033 0.091,-0.058 0.152,-0.075 0.385,-0.199 0.78,-0.298 1.185,-0.298 0.202,0 0.405,0.024 0.607,0.074 0.608,0.116 1.125,0.407 1.55,0.872 0.061,0.05 0.111,0.108 0.152,0.174 0.384,0.565 0.577,1.129 0.577,1.694 0,0.149 -0.011,0.299 -0.03,0.448 -0.142,0.747 -0.578,1.345 -1.307,1.793 -0.06,0.05 -0.121,0.091 -0.182,0.125 -0.486,0.232 -0.983,0.348 -1.489,0.348 -0.243,0 -0.476,-0.024 -0.698,-0.074 -0.729,-0.15 -1.357,-0.507 -1.884,-1.071 -0.061,-0.067 -0.121,-0.141 -0.182,-0.224 -0.446,-0.648 -0.668,-1.312 -0.668,-1.993 0,-0.183 0.01,-0.357 0.03,-0.523 0.162,-0.896 0.668,-1.61 1.519,-2.142 0.081,-0.049 0.162,-0.091 0.243,-0.124 0.547,-0.266 1.124,-0.399 1.732,-0.399 0.263,0 0.536,0.025 0.82,0.075 0.87,0.183 1.61,0.606 2.217,1.27 0.081,0.083 0.152,0.166 0.213,0.249 0.526,0.747 0.79,1.503 0.79,2.267 0,0.215 -0.02,0.431 -0.061,0.647 -0.182,1.029 -0.759,1.851 -1.731,2.466 -0.345,0.199 -0.699,0.348 -1.064,0.448 -0.385,0.1 -0.77,0.149 -1.154,0.149 -0.75,0 -1.469,-0.157 -2.157,-0.473 -0.648,-0.315 -1.195,-0.772 -1.64,-1.369 -0.588,-0.831 -0.881,-1.686 -0.881,-2.566 0,-0.249 0.019,-0.49 0.06,-0.722 0.223,-1.146 0.871,-2.076 1.945,-2.789 1.64,-0.963 3.26,-1.445 4.86,-1.445 0.567,0 1.124,0.058 1.671,0.175 2.147,0.448 4.192,1.328 6.137,2.64 v -26.35 c 0,-0.083 0.035,-0.153 0.106,-0.211 0.071,-0.059 0.157,-0.088 0.258,-0.088 0.101,0 0.182,0.029 0.243,0.088 0.061,0.058 0.091,0.128 0.091,0.211 v 26.823 c 1.256,0.863 2.451,1.735 3.585,2.615 0.668,0.514 1.306,0.987 1.914,1.419 1.255,0.88 2.41,1.361 3.463,1.445 0.182,0.016 0.354,0.025 0.517,0.025 1.113,0 2.035,-0.241 2.764,-0.723 0.931,-0.581 1.499,-1.378 1.701,-2.39 0.041,-0.2 0.061,-0.407 0.061,-0.623 0,-0.764 -0.273,-1.528 -0.82,-2.291 -0.061,-0.084 -0.132,-0.166 -0.213,-0.249 -0.587,-0.665 -1.306,-1.08 -2.157,-1.246 -0.263,-0.049 -0.516,-0.074 -0.759,-0.074 -0.567,0 -1.114,0.124 -1.641,0.373 -0.081,0.033 -0.162,0.075 -0.243,0.125 -0.81,0.514 -1.296,1.203 -1.458,2.067 -0.041,0.182 -0.061,0.373 -0.061,0.573 0,0.68 0.233,1.336 0.699,1.967 0.061,0.083 0.122,0.158 0.182,0.224 0.506,0.548 1.114,0.897 1.823,1.046 0.223,0.033 0.435,0.05 0.638,0.05 0.486,0 0.952,-0.099 1.397,-0.299 l 0.183,-0.099 c 0.688,-0.449 1.103,-1.038 1.245,-1.769 0.02,-0.149 0.031,-0.298 0.031,-0.448 0,-0.564 -0.193,-1.129 -0.578,-1.693 -0.04,-0.067 -0.091,-0.125 -0.151,-0.175 -0.406,-0.448 -0.902,-0.731 -1.489,-0.846 -0.182,-0.034 -0.365,-0.05 -0.547,-0.05 -0.364,0 -0.729,0.083 -1.094,0.249 -0.04,0.033 -0.091,0.058 -0.151,0.074 -0.568,0.366 -0.902,0.847 -1.003,1.445 -0.02,0.133 -0.03,0.274 -0.03,0.423 0,0.449 0.152,0.888 0.455,1.32 l 0.122,0.15 c 0.324,0.348 0.709,0.564 1.154,0.647 0.142,0.033 0.284,0.05 0.426,0.05 0.303,0 0.587,-0.066 0.85,-0.199 0.041,-0.017 0.071,-0.042 0.091,-0.075 0.446,-0.266 0.709,-0.631 0.79,-1.096 0.02,-0.099 0.031,-0.199 0.031,-0.299 0,-0.365 -0.122,-0.722 -0.365,-1.07 -0.041,-0.034 -0.071,-0.067 -0.091,-0.1 -0.223,-0.249 -0.497,-0.407 -0.82,-0.473 -0.081,-0.017 -0.163,-0.025 -0.243,-0.025 -0.223,0 -0.436,0.05 -0.638,0.149 l -0.061,0.05 c -0.304,0.183 -0.486,0.44 -0.547,0.772 -0.02,0.066 -0.03,0.141 -0.03,0.224 0.02,0.349 0.121,0.623 0.304,0.822 0.141,0.133 0.303,0.224 0.486,0.274 0.06,0.016 0.111,0.025 0.151,0.025 0.122,0 0.233,-0.034 0.335,-0.1 0.02,0 0.04,-0.008 0.06,-0.025 0.183,-0.116 0.284,-0.265 0.304,-0.448 v -0.124 c 0,-0.167 -0.051,-0.324 -0.152,-0.474 v -0.024 c -0.04,-0.034 -0.091,-0.059 -0.152,-0.075 h -0.03 c -0.02,0 -0.041,0.008 -0.061,0.025 h -0.03 c -0.041,0.033 -0.071,0.074 -0.091,0.124 0,0.066 0.02,0.133 0.061,0.199 0.019,0.05 0.03,0.1 0.03,0.15 v 0.075 c -0.021,0.066 -0.071,0.124 -0.152,0.174 -0.061,0.016 -0.122,0.025 -0.182,0.025 h -0.091 c -0.082,-0.017 -0.152,-0.058 -0.213,-0.125 -0.102,-0.149 -0.152,-0.315 -0.152,-0.498 v -0.074 c 0.04,-0.2 0.162,-0.366 0.365,-0.499 l 0.03,-0.024 c 0.02,-0.017 0.04,-0.025 0.061,-0.025 m 23.68,-2.703 c -0.071,-0.058 -0.106,-0.128 -0.106,-0.211 0,-0.084 0.035,-0.15 0.106,-0.199 0.071,-0.05 0.157,-0.075 0.258,-0.075 0.608,0 1.134,0.116 1.58,0.348 0.486,0.25 0.729,0.565 0.729,0.947 0,0.382 -0.243,0.705 -0.729,0.971 -0.446,0.232 -0.972,0.349 -1.58,0.349 -1.154,0 -2.137,-0.216 -2.946,-0.648 -0.871,-0.465 -1.307,-1.029 -1.307,-1.693 0,-0.664 0.436,-1.221 1.307,-1.669 0.809,-0.432 1.792,-0.647 2.946,-0.647 1.681,0 3.129,0.315 4.345,0.946 1.255,0.648 1.883,1.444 1.883,2.391 0,0.946 -0.628,1.751 -1.883,2.416 -1.216,0.614 -2.664,0.921 -4.345,0.921 -2.228,0 -4.131,-0.407 -5.711,-1.22 -1.64,-0.864 -2.461,-1.91 -2.461,-3.138 0,-1.229 0.821,-2.267 2.461,-3.113 1.58,-0.831 3.483,-1.246 5.711,-1.246 2.775,0 5.144,0.515 7.109,1.545 2.025,1.046 3.038,2.324 3.038,3.835 0,1.51 -1.013,2.797 -3.038,3.86 -1.965,1.013 -4.334,1.519 -7.109,1.519 -3.301,0 -6.136,-0.606 -8.506,-1.818 -1.114,-0.597 -1.99,-1.287 -2.628,-2.067 -0.638,-0.78 -0.956,-1.619 -0.956,-2.515 0,-0.897 0.318,-1.735 0.956,-2.516 0.638,-0.78 1.514,-1.461 2.628,-2.042 2.37,-1.229 5.205,-1.843 8.506,-1.843 3.848,0 7.139,0.714 9.874,2.142 1.316,0.681 2.344,1.473 3.083,2.378 0.739,0.905 1.109,1.872 1.109,2.902 0,1.046 -0.37,2.021 -1.109,2.926 -0.739,0.905 -1.767,1.698 -3.083,2.379 -2.735,1.411 -6.026,2.116 -9.874,2.116 -2.187,0 -4.248,-0.215 -6.182,-0.647 -1.934,-0.432 -3.63,-1.021 -5.088,-1.768 -1.479,-0.781 -2.638,-1.686 -3.479,-2.715 -0.84,-1.03 -1.26,-2.134 -1.26,-3.312 0,-2.391 1.458,-4.417 4.374,-6.077 1.337,-0.747 2.906,-1.329 4.709,-1.743 1.802,-0.416 3.787,-0.623 5.954,-0.623 2.086,0 4,-0.203 5.742,-0.61 1.741,-0.407 3.25,-0.959 4.526,-1.656 2.714,-1.544 4.071,-3.412 4.071,-5.604 0,-1.063 -0.395,-2.067 -1.185,-3.013 -0.79,-0.947 -1.873,-1.777 -3.25,-2.491 -2.998,-1.577 -6.623,-2.366 -10.876,-2.366 -3.726,0 -6.896,0.689 -9.508,2.067 -1.216,0.614 -2.163,1.333 -2.841,2.155 -0.679,0.821 -1.018,1.697 -1.018,2.627 0,0.946 0.339,1.831 1.018,2.652 0.678,0.822 1.625,1.54 2.841,2.155 2.612,1.361 5.782,2.042 9.508,2.042 3.16,0 5.863,-0.582 8.111,-1.743 2.188,-1.13 3.281,-2.491 3.281,-4.085 0,-1.577 -1.093,-2.939 -3.281,-4.084 -2.248,-1.163 -4.951,-1.744 -8.111,-1.744 -2.653,0 -4.901,0.482 -6.744,1.445 -1.803,0.946 -2.704,2.067 -2.704,3.362 0,1.311 0.901,2.432 2.704,3.362 1.843,0.98 4.091,1.47 6.744,1.47 2.086,0 3.868,-0.391 5.347,-1.171 1.417,-0.731 2.126,-1.611 2.126,-2.64 0,-1.013 -0.709,-1.893 -2.126,-2.64 -1.479,-0.764 -3.261,-1.145 -5.347,-1.145 -1.56,0 -2.886,0.282 -3.98,0.846 -1.032,0.548 -1.549,1.187 -1.549,1.918 0,0.747 0.517,1.395 1.549,1.943 1.094,0.564 2.42,0.846 3.98,0.846 1.013,0 1.873,-0.183 2.582,-0.548 0.648,-0.348 0.972,-0.755 0.972,-1.22 0,-0.448 -0.324,-0.847 -0.972,-1.195 -0.709,-0.366 -1.569,-0.548 -2.582,-0.548 -0.486,0 -0.891,0.083 -1.215,0.249 -0.264,0.149 -0.395,0.307 -0.395,0.473 0,0.183 0.131,0.349 0.395,0.498 0.324,0.166 0.729,0.249 1.215,0.249 0.081,0 0.157,0.029 0.228,0.087 0.071,0.058 0.106,0.121 0.106,0.187 0,0.083 -0.035,0.153 -0.106,0.212 -0.071,0.058 -0.147,0.087 -0.228,0.087 -0.607,0 -1.134,-0.116 -1.58,-0.349 -0.486,-0.249 -0.729,-0.572 -0.729,-0.971 0,-0.382 0.243,-0.697 0.729,-0.946 0.446,-0.233 0.973,-0.349 1.58,-0.349 1.134,0 2.116,0.216 2.947,0.648 0.87,0.448 1.306,1.004 1.306,1.668 0,0.681 -0.436,1.245 -1.306,1.694 -0.831,0.431 -1.813,0.647 -2.947,0.647 -1.701,0 -3.149,-0.315 -4.344,-0.946 -1.256,-0.648 -1.884,-1.453 -1.884,-2.416 0,-0.946 0.628,-1.743 1.884,-2.391 1.195,-0.631 2.643,-0.946 4.344,-0.946 2.228,0 4.132,0.415 5.711,1.245 1.641,0.847 2.461,1.884 2.461,3.113 0,1.229 -0.82,2.275 -2.461,3.138 -1.579,0.83 -3.483,1.245 -5.711,1.245 -2.775,0 -5.144,-0.514 -7.109,-1.544 -2.025,-1.046 -3.037,-2.333 -3.037,-3.86 0,-1.511 1.012,-2.789 3.037,-3.835 1.965,-1.03 4.334,-1.544 7.109,-1.544 3.301,0 6.126,0.614 8.476,1.843 1.134,0.581 2.02,1.261 2.658,2.042 0.638,0.78 0.957,1.619 0.957,2.515 0,0.897 -0.319,1.735 -0.957,2.516 -0.638,0.78 -1.524,1.469 -2.658,2.067 -2.35,1.211 -5.175,1.818 -8.476,1.818 -3.868,0 -7.169,-0.706 -9.903,-2.117 -1.297,-0.681 -2.314,-1.474 -3.054,-2.379 -0.739,-0.905 -1.108,-1.88 -1.108,-2.926 0,-1.03 0.369,-1.997 1.108,-2.901 0.74,-0.906 1.757,-1.698 3.054,-2.379 2.734,-1.428 6.035,-2.142 9.903,-2.142 2.187,0 4.243,0.216 6.167,0.648 1.924,0.431 3.615,1.029 5.073,1.793 1.478,0.78 2.643,1.681 3.494,2.702 0.851,1.021 1.276,2.121 1.276,3.3 0,2.391 -1.458,4.416 -4.375,6.077 -1.336,0.73 -2.906,1.307 -4.708,1.731 -1.803,0.423 -3.788,0.635 -5.955,0.635 -2.086,0 -4,0.199 -5.741,0.598 -1.742,0.398 -3.251,0.954 -4.527,1.668 -2.714,1.544 -4.071,3.412 -4.071,5.604 0,1.079 0.39,2.092 1.17,3.038 0.779,0.947 1.868,1.777 3.266,2.491 2.997,1.56 6.622,2.341 10.875,2.341 3.727,0 6.896,-0.681 9.509,-2.042 1.195,-0.632 2.136,-1.358 2.825,-2.18 0.688,-0.822 1.033,-1.697 1.033,-2.627 0,-0.93 -0.345,-1.806 -1.033,-2.628 -0.689,-0.821 -1.63,-1.548 -2.825,-2.179 -2.613,-1.361 -5.782,-2.042 -9.509,-2.042 -3.179,0 -5.883,0.581 -8.111,1.743 -2.187,1.146 -3.281,2.507 -3.281,4.085 0,1.594 1.094,2.955 3.281,4.084 2.228,1.162 4.932,1.744 8.111,1.744 2.633,0 4.881,-0.482 6.744,-1.445 1.803,-0.93 2.704,-2.051 2.704,-3.362 0,-1.295 -0.901,-2.416 -2.704,-3.362 -1.863,-0.963 -4.111,-1.445 -6.744,-1.445 -2.086,0 -3.868,0.382 -5.346,1.146 -1.418,0.747 -2.127,1.627 -2.127,2.64 0,1.029 0.709,1.909 2.127,2.64 1.478,0.763 3.26,1.145 5.346,1.145 1.56,0 2.886,-0.282 3.98,-0.846 1.033,-0.532 1.549,-1.171 1.549,-1.918 0,-0.731 -0.516,-1.37 -1.549,-1.918 -1.094,-0.564 -2.42,-0.847 -3.98,-0.847 -1.013,0 -1.873,0.183 -2.582,0.548 -0.648,0.349 -0.972,0.747 -0.972,1.196 0,0.464 0.324,0.863 0.972,1.195 0.709,0.382 1.569,0.573 2.582,0.573 0.466,0 0.861,-0.091 1.185,-0.274 0.284,-0.133 0.425,-0.291 0.425,-0.473 0,-0.166 -0.141,-0.324 -0.425,-0.473 -0.324,-0.166 -0.719,-0.249 -1.185,-0.249 -0.101,0 -0.187,-0.03 -0.258,-0.088"
       style="fill:#231f20;fill-opacity:1;fill-rule:nonzero;stroke:none"
       transform="matrix(0.35277776,0,0,-0.35277776,-203.70165,148.73481)"
       clip-path="url(#clipPath7334)" />
  </g>
</svg>
