<?xml version="1.0" encoding="UTF-8" standalone="no"?>
<!-- Created with Inkscape (http://www.inkscape.org/) -->

<svg
   width="384.97333"
   height="56.698666"
   viewBox="0 0 101.85752 15.001522"
   version="1.1"
   id="svg1"
   xmlns="http://www.w3.org/2000/svg"
   xmlns:svg="http://www.w3.org/2000/svg">
  <defs
     id="defs1">
    <clipPath
       clipPathUnits="userSpaceOnUse"
       id="clipPath4838">
      <path
         d="M 0,0 H 864.567 V 649.134 H 0 Z"
         id="path4838" />
    </clipPath>
    <clipPath
       clipPathUnits="userSpaceOnUse"
       id="clipPath7336">
      <path
         d="M 0,0 H 864.567 V 649.134 H 0 Z"
         id="path7336" />
    </clipPath>
  </defs>
  <g
     id="layer1"
     transform="translate(-57.679166,-141.02292)">
    <path
       id="path4837"
       d="m 595.637,380.5743 c -11.743,0 -21.262,-9.519 -21.262,-21.262 0,-11.743 9.519,-21.262 21.262,-21.262 h 246.206 c 11.742,0 21.262,9.519 21.262,21.262 0,11.743 -9.52,21.262 -21.262,21.262 z"
       style="fill:#009600;fill-opacity:1;fill-rule:nonzero;stroke:none"
       transform="matrix(0.35371858,0,0,-0.35465267,-145.48795,275.99461)"
       clip-path="url(#clipPath4838)" />
    <path
       id="path7335"
       d="m 608.4521,373.1156 c -5.439,0.541 -12.303,1.157 -15.879,-2.979 -0.976,-1.129 -1.052,-2.746 -2.019,-3.864 2.933,3.392 8.01,3.58 12.774,3.247 -0.006,-7.524 -0.012,-15.049 -0.018,-22.573 -0.452,0.001 -0.904,0.001 -1.357,0.002 -0.451,0 -0.874,-4.067 -1.248,-4.067 3.726,-0.003 7.453,-0.007 11.18,-0.011 0.451,0 0.874,4.067 1.248,4.066 -0.774,10e-4 -1.549,0.002 -2.324,0.003 0.006,7.35 0.012,14.701 0.018,22.051 4.383,-0.01 8.869,0.878 10.836,4.347 0.65,1.147 1.423,2.829 1.935,3.731 -2.611,-4.603 -9.849,-4.479 -15.146,-3.953 m -1.994,-26.172 c 0.006,7.434 0.012,14.867 0.018,22.301 0.212,-0.02 0.422,-0.04 0.629,-0.06 0.19,-0.018 0.381,-0.035 0.574,-0.051 -0.006,-7.397 -0.012,-14.794 -0.018,-22.191 -0.401,0 -0.802,10e-4 -1.203,10e-4 m 50.075,14.168 c 1.06,1.222 1.518,2.778 2.103,4.169 0.543,1.295 0.975,2.503 0.695,3.888 -0.697,3.458 -4.749,5.449 -8.82,5.921 -4.654,0.541 -9.749,-0.074 -14.295,-0.9 -3.572,-0.65 -9.59,-3.214 -12.077,0.232 0.152,-0.209 -0.756,-1.71 -0.869,-1.975 -0.132,-0.311 -1.032,-1.695 -0.82,-1.989 1.57,-2.176 4.445,-1.876 7.064,-1.313 -0.007,-7.066 -0.013,-14.132 -0.019,-21.198 -1.631,-0.135 -3.263,-0.332 -4.9,-0.598 -0.191,-0.031 0.703,-4.14 0.589,-4.159 4.062,0.659 8.191,0.968 12.336,0.859 4.013,-0.106 7.992,-1.021 11.995,-0.967 3.202,0.043 6.485,1.109 7.751,3.614 0.423,0.835 0.465,1.647 0.395,2.491 0.002,-0.01 0.005,-0.019 0.007,-0.028 -0.004,0.03 -0.008,0.059 -0.013,0.089 -0.021,0.241 -0.05,0.484 -0.082,0.733 -0.164,1.249 -0.283,2.517 -0.6,3.75 0.122,-0.472 0.186,-0.953 0.234,-1.437 -0.011,0.08 -0.023,0.159 -0.034,0.239 -0.014,0.123 -0.028,0.246 -0.041,0.369 0.006,-2.188 -1.56,-4.074 -4.054,-4.982 -2.71,-0.986 -5.735,-0.693 -8.58,-0.347 -2.514,0.307 -5.012,0.504 -7.504,0.572 0.002,2.851 0.005,5.703 0.007,8.554 4.568,0.177 9.727,-1.797 13.233,1.186 1.151,0.98 1.157,2.802 2.292,3.768 -4.105,-3.493 -10.487,-0.19 -15.522,-1.508 0.003,3.493 0.006,6.986 0.01,10.479 2.07,0.294 4.162,0.494 6.262,0.592 3.634,0.168 7.538,0.106 10.658,-1.579 1.327,-0.716 2.44,-1.685 3.11,-2.851 0.325,-0.565 0.543,-1.17 0.639,-1.788 0.041,-0.261 0.038,-0.549 0.02,-0.815 -0.402,-1.022 -0.446,-2.237 -1.17,-3.071 m -22.686,-12.952 c -0.402,-0.006 -0.803,-0.017 -1.204,-0.031 0.006,7.243 0.013,14.485 0.019,21.728 0.4,0.085 0.802,0.164 1.204,0.241 -0.007,-7.313 -0.013,-14.625 -0.019,-21.938 m 42.716,-0.861 c -0.536,0.051 -1.087,0.102 -1.647,0.152 0.006,7.298 0.013,14.597 0.019,21.896 1.42,0.489 2.576,1.387 3.318,2.507 1.093,1.645 2.04,3.496 2.699,5.283 -0.194,-0.526 -0.475,-1.032 -0.772,-1.534 -0.841,-1.163 -2.045,-2.102 -3.685,-2.542 -2.194,-0.587 -4.504,-0.018 -6.691,0.29 -3.998,0.563 -7.033,-0.457 -8.713,-3.473 -0.485,-0.872 -0.937,-1.758 -1.39,-2.641 -0.092,-0.179 -0.71,-1.388 -0.329,-0.705 0.032,0.059 0.065,0.116 0.097,0.174 1.053,1.58 2.75,2.698 5.027,2.937 0.99,0.105 1.966,0.031 2.939,-0.1 -0.007,-7.324 -0.013,-14.647 -0.019,-21.97 -2.961,-0.296 -5.693,-1.176 -7.579,-3.252 -1.004,-1.106 -1.025,-2.77 -2.019,-3.865 3.971,4.374 11.587,3.44 17.393,2.916 5.439,-0.491 12.644,-0.432 15.371,4.15 0.676,1.136 1.403,2.837 1.934,3.731 -2.793,-4.697 -10.523,-4.465 -15.953,-3.954 m -4.776,21.654 c -0.007,-7.097 -0.013,-14.193 -0.019,-21.29 -0.401,0.016 -0.803,0.027 -1.204,0.032 0.006,7.122 0.012,14.244 0.018,21.366 0.4,-0.051 0.802,-0.088 1.205,-0.108 m 36.743,-21.654 c -0.536,0.051 -1.087,0.102 -1.647,0.152 0.007,7.298 0.013,14.597 0.019,21.896 1.42,0.489 2.576,1.387 3.319,2.507 1.092,1.645 2.04,3.496 2.698,5.283 -0.194,-0.526 -0.475,-1.032 -0.772,-1.534 -0.841,-1.163 -2.045,-2.102 -3.685,-2.542 -2.194,-0.587 -4.504,-0.018 -6.691,0.29 -3.998,0.563 -7.033,-0.457 -8.712,-3.473 -0.486,-0.872 -0.937,-1.758 -1.391,-2.641 -0.092,-0.179 -0.709,-1.388 -0.329,-0.705 0.033,0.059 0.065,0.116 0.097,0.174 1.053,1.58 2.75,2.698 5.027,2.937 0.99,0.105 1.966,0.031 2.939,-0.1 -0.007,-7.324 -0.013,-14.647 -0.019,-21.97 -2.961,-0.296 -5.693,-1.176 -7.579,-3.252 -1.004,-1.106 -1.025,-2.77 -2.019,-3.865 3.971,4.374 11.587,3.44 17.394,2.916 5.438,-0.491 12.644,-0.432 15.37,4.15 0.676,1.136 1.403,2.837 1.934,3.731 -2.793,-4.697 -10.523,-4.465 -15.953,-3.954 m -4.776,21.654 c -0.006,-7.097 -0.013,-14.193 -0.019,-21.29 -0.401,0.016 -0.802,0.027 -1.204,0.032 0.006,7.122 0.012,14.244 0.018,21.366 0.4,-0.051 0.802,-0.088 1.205,-0.108 m 72.224,0.873 c -1.611,-1.893 -3.121,-3.855 -4.59,-5.819 -1.583,-2.118 -2.957,-4.269 -4.17,-6.48 -1.477,3.809 -2.953,7.618 -4.429,11.427 2.432,0.085 4.837,0.743 6.539,2.183 1.831,1.552 2.677,3.986 3.607,5.928 -0.448,-0.934 -1.393,-2.537 -1.96,-3.722 2.344,4.892 1.291,2.15 -0.479,1.035 -0.838,-0.528 -1.807,-0.919 -2.822,-1.18 -2.531,-0.649 -5.185,-0.348 -7.758,-0.044 -4.797,0.567 -10.204,0.801 -12.989,-3.016 -0.875,-1.199 -1.15,-2.673 -2.02,-3.866 2.292,3.141 5.949,3.475 9.794,3.24 2.745,-7.183 5.49,-14.365 8.235,-21.548 -1.051,-3.038 -1.575,-6.463 1.302,-8.316 2.11,-1.358 5.357,-0.038 6.344,0.41 0,0 0.133,0.058 0.27,0.126 3.12,1.526 6.364,6.349 4.814,10.678 -0.425,1.185 -1.141,2.144 -1.815,3.045 -1.467,1.964 -3.396,3.684 -3.355,3.716 0.001,0.001 0.025,-0.016 0.074,-0.051 0.106,-0.078 -0.771,-1.798 -0.847,-1.981 -0.085,-0.206 -0.979,-1.861 -0.797,-1.995 1.957,-1.441 3.674,-2.909 4.023,-5.247 0.378,-2.533 -3.767,-5.714 -5.98,-5.244 -0.307,0.064 -0.557,0.196 -0.794,0.375 -2.652,2.004 -0.441,7.638 0.295,9.513 1.389,3.541 3.229,6.048 3.874,6.897 1.748,2.304 4.787,5.696 9.824,9.021 0.771,0.443 2.492,1.388 2.513,2.699 0.013,0.737 -0.513,1.633 -1.335,1.834 -1.475,0.361 -3.601,-1.544 -5.368,-3.618 m -16.78,-0.715 c 2.011,-5.189 4.022,-10.378 6.032,-15.567 -0.165,-0.368 -0.324,-0.739 -0.483,-1.111 -2.134,5.586 -4.27,11.172 -6.404,16.758 0.286,-0.028 0.571,-0.055 0.855,-0.08 z m 51.329,7.954 c -0.448,-0.934 -1.393,-2.537 -1.96,-3.722 2.344,4.892 1.291,2.15 -0.479,1.035 -0.837,-0.528 -1.807,-0.919 -2.822,-1.18 -2.53,-0.649 -5.185,-0.348 -7.758,-0.044 -4.797,0.567 -10.204,0.801 -12.989,-3.016 -0.875,-1.199 -1.15,-2.673 -2.019,-3.866 1.367,1.875 3.223,2.748 5.313,3.098 -8.016,-6.755 -8.566,-19.654 -2.137,-24.331 1.804,-1.312 3.897,-1.788 4.203,-1.855 4.025,-0.88 8.313,0.396 10.873,2.041 4.886,3.138 5.117,8.67 5.453,16.748 0.14,3.323 -0.045,6.197 -0.3,8.446 0.359,0.215 0.7,0.452 1.015,0.718 1.831,1.552 2.676,3.986 3.607,5.928 z m -25.107,-13.573 c 0.164,0.301 0.45,0.76 0.844,1.296 -0.005,-4.764 -0.011,-9.529 -0.015,-14.293 -2.934,3.573 -3.014,8.977 -0.829,12.997 m 3.974,-15.512 c 0.007,6.671 0.014,13.342 0.021,20.013 0.378,0.282 0.779,0.546 1.202,0.787 -0.007,-7.112 -0.014,-14.223 -0.02,-21.335 -0.462,0.174 -0.867,0.359 -1.203,0.535 m 13.571,5.948 c -0.391,-2.808 -1.272,-3.94 -1.922,-4.583 -1.577,-1.559 -4.196,-2.61 -6.952,-2.566 -0.118,0.002 -0.233,0.009 -0.348,0.015 0.007,7.534 0.015,15.069 0.021,22.604 2.004,-0.178 4.019,-0.431 5.881,-0.454 1.038,-0.013 2.083,0.078 3.084,0.283 0.347,-2.844 0.937,-10.277 0.236,-15.299 m 39.828,19.32 c -0.324,0 -1.407,-1.431 -1.619,-1.651 -0.376,-0.392 -0.752,-0.785 -1.123,-1.18 -0.062,-0.066 -0.386,-0.496 -0.453,-0.496 h 4.205 c 0.015,-2.289 -0.034,-4.578 -0.167,-6.865 -0.184,-3.168 -0.152,-6.626 -1.446,-9.662 -2.455,-5.76 -10.3,-7.025 -16.966,-5.768 0.005,7.106 0.011,14.212 0.017,21.319 0.01,0 0.021,-10e-4 0.031,-10e-4 2.675,-0.032 5.401,0.607 7.274,2.193 1.832,1.552 2.677,3.986 3.607,5.928 -0.448,-0.934 -1.392,-2.537 -1.96,-3.722 2.344,4.892 1.292,2.15 -0.479,1.035 -0.837,-0.528 -1.807,-0.919 -2.822,-1.18 -2.53,-0.649 -5.185,-0.348 -7.758,-0.044 -4.797,0.567 -10.203,0.801 -12.989,-3.016 -0.875,-1.199 -1.149,-2.673 -2.019,-3.866 2.256,3.093 5.836,3.465 9.617,3.251 -0.007,-8.618 -0.015,-17.236 -0.022,-25.854 -10e-4,-1.589 3.147,-0.5 3.149,0.808 0.006,8.26 0.014,16.52 0.02,24.78 0.403,-0.04 0.805,-0.079 1.204,-0.116 -0.008,-8.491 -0.015,-16.982 -0.022,-25.472 -10e-4,-1.27 2.008,-0.827 2.816,0.068 6.886,-1.634 15.52,-0.574 18.118,5.522 1.259,2.955 1.244,6.304 1.43,9.387 0.221,3.662 0.249,7.327 0.109,10.991 -0.004,0.095 -0.014,0.19 -0.023,0.284 h 0.551 c 0.323,0 1.406,1.43 1.618,1.651 0.377,0.392 0.753,0.784 1.124,1.179 0.062,0.067 0.386,0.497 0.453,0.497 z"
       style="fill:#231f20;fill-opacity:1;fill-rule:nonzero;stroke:none"
       transform="matrix(0.35277776,0,0,-0.35277776,-144.94756,275.28107)"
       clip-path="url(#clipPath7336)" />
  </g>
</svg>
