<?xml version="1.0" encoding="UTF-8" standalone="no"?>
<!-- Created with Inkscape (http://www.inkscape.org/) -->

<svg
   width="18.530666"
   height="22.055998"
   viewBox="0 0 4.9032 5.836"
   version="1.1"
   id="svg1"
   xmlns="http://www.w3.org/2000/svg"
   xmlns:svg="http://www.w3.org/2000/svg">
  <defs
     id="defs1">
    <clipPath
       clipPathUnits="userSpaceOnUse"
       id="clipPath8">
      <path
         d="M 0,0 H 864.567 V 649.134 H 0 Z"
         id="path8" />
    </clipPath>
  </defs>
  <g
     id="layer1"
     transform="translate(-149.75416,-106.62709)">
    <path
       id="path7"
       d="m 438.3033,635.8476 c -0.726,0.691 -1.089,1.279 -1.089,1.763 0,0.484 0.06,1.21 0.181,2.178 0.121,0.968 0.182,1.677 0.182,2.126 0,0.691 -0.363,1.037 -1.089,1.037 -0.553,0 -1.003,-0.32 -1.348,-0.959 -0.346,-0.64 -0.606,-0.959 -0.778,-0.959 -0.381,0 -0.917,0.371 -1.608,1.115 -0.692,0.743 -1.262,1.115 -1.711,1.115 -0.277,0 -0.57,-0.139 -0.882,-0.415 -0.173,0.898 -0.605,1.348 -1.296,1.348 -0.588,0 -0.959,-0.381 -1.115,-1.141 -0.156,-0.761 -0.389,-1.141 -0.7,-1.141 -0.692,0 -1.124,-0.069 -1.296,-0.207 -0.174,-0.139 -0.26,-0.537 -0.26,-1.193 0.104,-0.242 0.371,-0.51 0.804,-0.804 0.432,-0.294 0.7,-0.562 0.804,-0.803 0,-0.139 -0.035,-0.329 -0.104,-0.571 -0.07,-0.242 -0.104,-0.433 -0.104,-0.57 0,-0.796 0.38,-1.193 1.141,-1.193 0.691,0.345 1.089,0.519 1.193,0.519 0.207,0 0.449,-0.122 0.726,-0.363 0.276,-0.243 0.536,-0.363 0.778,-0.363 0.241,0 0.363,-0.243 0.363,-0.726 -0.657,-1.141 -1.297,-2.3 -1.919,-3.475 -1.072,-1.902 -1.607,-2.939 -1.607,-3.111 0,-0.726 0.38,-1.089 1.14,-1.089 0.519,0 1.253,0.319 2.204,0.959 0.951,0.639 1.668,0.959 2.152,0.959 0.346,0 0.623,-0.372 0.83,-1.115 0.208,-0.743 0.605,-1.114 1.193,-1.114 0.552,0 0.915,0.535 1.089,1.607 l 0.467,2.593 c 0.137,0.38 0.63,0.743 1.478,1.089 0.846,0.345 1.27,0.674 1.27,0.985 0,0.588 -0.363,1.227 -1.089,1.919 m -7.623,3.656 c -0.346,-0.156 -0.519,-0.303 -0.519,-0.441 v -0.104 c 0,-0.103 0.052,-0.242 0.156,-0.414 0.104,-0.174 0.156,-0.312 0.156,-0.415 0,-0.104 -0.035,-0.208 -0.104,-0.311 -0.622,0.622 -1.037,0.933 -1.245,0.933 -0.138,0 -0.372,-0.104 -0.7,-0.311 -0.329,-0.208 -0.596,-0.311 -0.804,-0.311 l -0.155,0.052 c 0.138,0.345 0.207,0.881 0.207,1.607 0,0.208 -0.207,0.467 -0.622,0.778 -0.277,0.207 -0.553,0.432 -0.83,0.674 0.138,0.069 0.311,0.104 0.519,0.104 h 0.415 c 0.207,-0.035 0.363,-0.052 0.466,-0.052 0.346,0 0.536,0.276 0.571,0.83 0.069,0.76 0.138,1.192 0.207,1.296 0.242,-0.277 0.441,-0.726 0.597,-1.348 0.155,-0.622 0.302,-1.02 0.44,-1.193 0.76,-0.518 1.366,-0.881 1.815,-1.089 -0.034,-0.035 -0.225,-0.129 -0.57,-0.285 m 4.952,-6.223 c -0.501,-0.329 -0.752,-0.942 -0.752,-1.841 0,-1.037 -0.121,-1.729 -0.363,-2.074 -0.207,0.449 -0.414,0.915 -0.622,1.4 -0.277,0.726 -0.501,1.089 -0.674,1.089 -0.622,0 -1.435,-0.346 -2.437,-1.037 -1.141,-0.761 -2.006,-1.193 -2.593,-1.297 1.556,2.697 2.696,4.736 3.422,6.12 0,0.241 -0.051,0.431 -0.155,0.57 0.345,0.345 0.518,0.743 0.518,1.193 0,0.276 -0.069,0.535 -0.207,0.778 0.622,0.207 0.933,0.57 0.933,1.089 0,0.38 -0.363,0.837 -1.089,1.374 -0.726,0.535 -1.089,1.097 -1.089,1.685 0,0.104 0.121,0.225 0.363,0.363 1.383,-1.348 2.403,-2.368 3.06,-3.059 0.864,1.209 1.521,2.108 1.971,2.696 0.068,-0.242 0.103,-0.501 0.103,-0.778 0,-0.346 -0.052,-0.847 -0.155,-1.504 -0.104,-0.657 -0.156,-1.14 -0.156,-1.452 0,-1.383 0.726,-2.662 2.178,-3.837 -1.003,-0.657 -1.755,-1.15 -2.256,-1.478"
       style="fill:#231f20;fill-opacity:1;fill-rule:nonzero;stroke:none"
       transform="matrix(0.35277776,0,0,-0.35277776,-0.35076333,333.88532)"
       clip-path="url(#clipPath8)" />
  </g>
</svg>
