<?xml version="1.0" encoding="UTF-8" standalone="no"?>
<!-- Created with Inkscape (http://www.inkscape.org/) -->

<svg
   width="30.783237"
   height="29.506664"
   viewBox="0 0 8.1447314 7.8069715"
   version="1.1"
   id="svg1"
   xmlns="http://www.w3.org/2000/svg"
   xmlns:svg="http://www.w3.org/2000/svg">
  <defs
     id="defs1">
    <clipPath
       clipPathUnits="userSpaceOnUse"
       id="clipPath89087">
      <path
         d="M 0,0 H 864.567 V 649.134 H 0 Z"
         transform="translate(-48.351001,-431.74601)"
         id="path89087" />
    </clipPath>
  </defs>
  <g
     id="layer1"
     transform="translate(-14.022754,-145.25625)">
    <path
       id="path89086"
       d="m 0,0 c 0,0.234 0,0.398 0.013,0.613 l 0.296,17.708 v 0.436 c -0.013,0.373 -0.072,0.449 -0.44,0.449 h -0.71 c -0.035,0.005 -0.091,0.009 -0.126,0.009 -0.238,0 -0.553,-0.146 -0.702,-0.325 V 18.416 L -1.748,11.617 C -1.788,7.916 -1.832,4.212 -1.88,0.506 -1.873,0.462 -1.868,0.39 -1.868,0.345 c 0,-0.101 -0.026,-0.261 -0.058,-0.358 l -0.512,-0.113 v -1.006 l -0.428,-0.044 0.099,-1.67 c 0.62,-0.038 1.627,-0.069 2.248,-0.069 0.415,0 1.09,0.014 1.505,0.031 -0.013,0.55 -0.059,1.094 -0.118,1.626 l -0.369,0.094 -0.091,1.006 z m -9.366,8.038 c 0.25,0 0.401,0.006 0.598,-0.025 0.947,-0.019 1.893,-0.064 2.846,-0.064 0.789,0 1.578,0.045 2.373,0.045 2.215,0.019 4.423,0.012 6.638,0.075 1.847,0.038 3.694,0.038 5.541,0.038 h 0.506 c 0.302,-0.328 0.302,-0.335 0.696,-0.29 0.184,0.018 0.375,0.056 0.553,0.088 0.194,0.331 0.352,0.909 0.352,1.289 0,0.083 -0.008,0.216 -0.017,0.298 -0.015,0.253 -0.224,0.536 -0.467,0.633 -0.125,0.044 -0.334,0.079 -0.466,0.079 -0.028,0 -0.072,-0.001 -0.099,-0.003 -0.011,10e-4 -0.029,10e-4 -0.039,10e-4 -0.17,0 -0.358,-0.122 -0.421,-0.273 C 9.172,9.77 8.985,9.641 8.811,9.641 8.77,9.641 8.707,9.651 8.669,9.663 8.367,9.704 7.874,9.737 7.569,9.737 7.451,9.737 7.261,9.732 7.144,9.726 L 0.572,9.676 C 0.046,9.669 -0.48,9.631 -1.006,9.631 -1.663,9.613 -2.32,9.575 -2.977,9.575 h -4.22 c -0.243,0 -0.447,0.063 -0.657,0.063 -0.041,0.011 -0.109,0.019 -0.151,0.019 -0.043,0 -0.11,-0.008 -0.151,-0.019 -0.218,-0.097 -0.59,-0.176 -0.83,-0.176 -0.108,0 -0.281,0.016 -0.386,0.037 -0.276,0.474 -0.428,0.588 -0.881,0.632 -0.256,0.025 -0.362,-0.038 -0.414,-0.272 -0.04,-0.101 -0.04,-0.202 -0.04,-0.303 -0.015,-0.135 -0.142,-0.248 -0.282,-0.253 h -0.841 c -0.139,-0.007 -0.29,0.025 -0.428,-0.133 0.013,-0.247 -0.157,-0.512 -0.065,-0.803 0.197,-0.127 0.433,-0.127 0.657,-0.127 0.057,0.006 0.15,0.011 0.208,0.011 0.143,0 0.371,-0.03 0.508,-0.068 0.019,-0.025 0.04,-0.07 0.046,-0.101 V 7.829 7.526 c 0,-0.004 0,-0.01 0,-0.014 0,-0.132 0.112,-0.24 0.25,-0.24 0.005,0 0.014,0 0.02,10e-4 0.106,-0.021 0.279,-0.038 0.387,-0.038 0.109,0 0.282,0.017 0.388,0.038 z M 4.029,14.849 C 3.838,14.691 3.707,14.564 3.569,14.438 L -9.675,2.138 c -0.111,-0.102 -0.223,-0.203 -0.328,-0.31 -0.244,-0.291 -0.158,-0.462 0,-0.633 0.157,-0.17 0.335,-0.322 0.493,-0.499 0.146,-0.177 0.455,-0.321 0.69,-0.321 0.025,0 0.066,0.002 0.092,0.004 0.111,0.102 0.236,0.209 0.355,0.323 l 5.054,4.756 8.255,7.766 c 0.091,0.115 0.273,0.262 0.407,0.328 l 0.48,-0.278 0.756,0.696 0.335,-0.26 1.157,1.265 C 7.386,15.725 6.208,16.881 5.442,17.556 5.054,17.157 4.686,16.74 4.338,16.329 L 4.522,16.006 3.865,15.235 Z m -11.397,-0.702 0.434,-0.405 c 0.657,-0.658 1.315,-1.347 1.972,-1.979 0.552,-0.538 1.143,-1.05 1.709,-1.581 C -1.676,8.683 -0.118,7.171 1.499,5.717 2.813,4.503 4.128,3.238 5.442,1.973 L 5.711,1.707 C 5.685,1.271 5.685,1.265 5.994,1.031 6.145,0.917 6.303,0.816 6.448,0.715 6.922,0.84 7.555,1.242 7.861,1.613 7.962,1.726 8.045,1.939 8.045,2.089 8.045,2.17 8.018,2.297 7.986,2.372 7.917,2.51 7.764,2.706 7.644,2.808 7.569,2.895 7.412,2.965 7.295,2.965 7.242,2.965 7.16,2.949 7.111,2.928 7.061,2.904 6.975,2.885 6.919,2.885 6.767,2.885 6.591,2.992 6.526,3.124 6.272,3.449 5.809,3.933 5.495,4.205 l -4.66,4.427 c -0.382,0.361 -0.677,0.639 -1.15,1.05 -0.474,0.411 -0.96,0.829 -1.42,1.265 -1.012,0.974 -1.992,1.91 -2.984,2.871 -0.145,0.145 -0.335,0.392 -0.401,0.468 -0.066,0.076 -0.138,0.196 -0.223,0.196 -0.331,0.122 -0.764,0.448 -0.967,0.727 0.171,0.532 0.145,0.715 -0.144,1.056 -0.164,0.196 -0.283,0.215 -0.493,0.083 -0.086,-0.051 -0.164,-0.127 -0.25,-0.184 -0.046,-0.038 -0.133,-0.069 -0.194,-0.069 -0.061,0 -0.148,0.031 -0.194,0.069 l -0.617,0.557 c -0.076,0.105 -0.246,0.19 -0.378,0.19 -0.007,0 -0.017,0 -0.023,-0.001 -0.191,-0.183 -0.507,-0.252 -0.658,-0.518 0.04,-0.247 0.23,-0.367 0.382,-0.544 0.151,-0.177 0.381,-0.297 0.466,-0.525 -0.01,-0.031 -0.03,-0.079 -0.046,-0.107 -0.045,-0.05 -0.121,-0.126 -0.171,-0.171 -0.072,-0.076 -0.144,-0.146 -0.21,-0.228 -0.047,-0.039 -0.085,-0.12 -0.085,-0.18 0,-0.06 0.038,-0.141 0.085,-0.18 0.123,-0.173 0.374,-0.402 0.559,-0.513 z"
       style="fill:#231f20;fill-opacity:1;fill-rule:nonzero;stroke:none"
       transform="matrix(0.35277776,0,0,-0.35277776,18.379711,152.03487)"
       clip-path="url(#clipPath89087)" />
  </g>
</svg>
